<svg version="1.1" id="Layer_1" xmlns="http://www.w3.org/2000/svg" xmlns:xlink="http://www.w3.org/1999/xlink" x="0px" y="0px"
	 width="100%" viewBox="0 0 1024 736" enable-background="new 0 0 1024 736" xml:space="preserve">
<path fill="#ffffff" opacity="1.000000" stroke="none" 
	d="
M292.763916,693.871826 
	C262.777435,707.088501 232.255035,717.537170 200.597397,724.427979 
	C181.225769,728.644470 161.609863,731.447388 141.719727,731.295105 
	C120.088684,731.129456 98.431091,732.874084 76.827057,730.393738 
	C68.543968,729.442749 60.429573,727.925415 52.473949,725.310974 
	C31.442970,718.399536 20.291006,703.430603 17.790359,682.035156 
	C15.368175,661.310974 20.179052,641.400269 26.347633,621.769897 
	C33.925995,597.653137 47.233540,576.445007 60.361713,555.201538 
	C76.959694,528.343506 97.361305,504.331543 117.373390,480.010864 
	C130.504593,464.052490 144.710983,449.044861 157.716492,432.989868 
	C164.704361,424.363525 172.809082,416.931244 183.370239,412.815002 
	C186.244370,411.694824 187.132111,410.010040 186.738342,407.097961 
	C185.169189,395.493683 185.328766,383.804291 185.767410,372.164154 
	C187.147415,335.543060 194.711121,300.334869 210.098953,266.884857 
	C215.662170,254.791519 220.127457,242.205688 227.539917,230.998077 
	C246.674454,202.066711 268.517670,175.564651 296.153046,154.258682 
	C316.908783,138.256668 338.370270,123.528778 363.140076,114.052437 
	C390.081085,103.745461 417.604889,97.147682 446.536499,95.433548 
	C477.304596,93.610611 507.694519,96.566055 538.192627,99.444565 
	C570.444397,102.488586 601.449768,110.118622 631.202515,122.870857 
	C633.624084,123.908775 635.713440,123.850540 637.737976,122.268814 
	C642.068481,118.885422 646.939880,116.319946 651.222900,112.813408 
	C670.610962,96.940155 691.787720,83.721466 713.382935,71.090584 
	C730.513123,61.071262 747.710022,51.307106 766.270264,44.066986 
	C799.204529,31.219702 833.459961,24.060804 868.385925,19.596174 
	C886.921082,17.226803 905.541504,16.088017 924.195984,16.779737 
	C944.586426,17.535826 964.767761,19.736002 982.759033,30.780342 
	C1006.150269,45.139690 1015.074829,66.426071 1012.722046,93.174347 
	C1010.852783,114.425972 1008.319275,135.583008 1001.447998,155.893509 
	C988.909241,192.956314 970.021729,226.244659 943.070190,254.949142 
	C928.484680,270.483276 913.903259,286.039734 899.474670,301.729889 
	C885.058777,317.406097 868.873169,331.391113 852.920654,345.556580 
	C834.859558,361.594391 816.409119,377.168457 797.989014,392.780121 
	C794.467834,395.764496 794.982849,399.748047 794.530090,403.311646 
	C790.274963,436.804047 781.006958,468.889252 765.659180,498.860748 
	C744.944092,539.313721 717.408081,574.471863 681.935730,603.406982 
	C648.815552,630.423340 611.445251,647.976685 569.802185,656.524841 
	C549.412903,660.710205 528.776123,663.327942 507.825226,662.254150 
	C473.941895,660.517517 440.760345,654.835510 408.349335,644.811707 
	C404.793457,643.712036 401.771942,643.586365 398.404907,645.390015 
	C380.469452,654.997925 361.315094,662.007202 343.083130,670.922729 
	C326.613220,678.976624 309.781372,686.145813 292.763916,693.871826 
M677.914795,199.596252 
	C648.414490,177.094635 615.382141,161.695328 579.945251,151.293839 
	C558.287354,144.936768 535.892761,143.137436 513.521973,140.997345 
	C484.762238,138.246048 456.005188,136.788620 427.411316,141.443329 
	C394.821045,146.748581 364.601410,158.099564 337.741760,178.090256 
	C322.323029,189.565887 307.023560,201.198029 294.377594,215.562531 
	C276.546967,235.816269 261.382660,257.742157 250.636765,283.068268 
	C237.067200,315.049286 229.902084,347.878387 229.324768,382.377014 
	C228.909286,407.204956 235.604996,430.765228 242.584961,454.215057 
	C246.427826,467.125427 254.377991,477.852234 261.686646,489.036163 
	C275.051331,509.487213 291.629822,526.808960 309.724701,542.920227 
	C312.317169,545.228516 314.500549,545.391602 317.735931,544.005310 
	C338.741425,535.004761 358.879089,524.278809 378.958588,513.454285 
	C419.275391,491.720062 459.140076,469.195892 498.118286,445.112244 
	C544.610840,416.385681 589.977478,385.988007 634.740662,354.644073 
	C667.914429,331.415192 699.935791,306.665466 732.326721,282.397369 
	C735.710205,279.862366 736.455566,277.741913 734.691345,273.725098 
	C721.895752,244.592148 702.157227,220.827789 677.914795,199.596252 
M719.656189,138.030670 
	C755.161133,123.797455 792.032349,114.186256 829.236267,105.726776 
	C845.241150,102.087570 861.327087,100.044693 877.707214,103.521629 
	C899.578796,108.164200 910.547424,121.932549 909.247131,143.971680 
	C908.720337,152.901596 905.294678,161.093063 901.542480,169.128784 
	C894.344910,184.543243 883.277710,197.321396 873.304749,210.850418 
	C856.804871,233.233765 837.333008,252.825378 816.453857,271.047852 
	C793.364014,291.199677 769.215088,310.034088 744.733826,328.472321 
	C708.004944,356.134949 671.238831,383.720093 633.240356,409.649353 
	C582.446716,444.309631 530.824219,477.614349 477.802063,508.799164 
	C417.435577,544.303467 355.431183,576.525146 291.033844,604.033752 
	C261.646423,616.587158 232.448624,629.706909 202.162216,640.004395 
	C186.719437,645.255005 170.991211,649.321838 154.192307,646.383423 
	C131.146484,642.352417 119.392136,627.890991 121.795601,605.178711 
	C123.284615,591.107727 127.314583,577.714050 134.201660,565.392883 
	C147.679535,541.280396 163.287582,518.758179 184.617447,500.714203 
	C190.847153,495.444183 196.893707,489.956573 202.981003,484.520294 
	C204.033432,483.580414 205.713074,482.819031 205.106674,480.929871 
	C202.532913,472.911865 199.906143,464.910889 197.306320,456.926941 
	C194.349594,457.392822 193.135971,459.340881 191.856140,460.969238 
	C180.320847,475.646332 167.261551,488.999603 155.319382,503.339447 
	C130.037811,533.696838 105.011284,564.108582 85.534172,598.766235 
	C73.822495,619.606140 63.953140,640.898376 61.755074,664.924683 
	C60.204071,681.878235 60.066296,682.805359 76.656769,686.153015 
	C77.954536,686.414917 79.282990,686.553772 80.604301,686.665771 
	C100.396889,688.343933 120.233719,687.759766 140.048294,687.530579 
	C149.677750,687.419189 159.372406,686.755615 168.902573,685.395935 
	C199.206467,681.072266 228.398178,672.404236 256.761078,661.085815 
	C281.504089,651.211792 305.619751,639.883606 329.727448,628.532227 
	C348.992889,619.460876 368.997803,611.943359 388.156982,602.667236 
	C411.085541,591.565979 433.782562,579.978516 456.747437,568.932434 
	C491.178558,552.371277 523.638672,532.289246 556.433411,512.789124 
	C607.032593,482.702087 656.276917,450.671753 702.183105,413.697388 
	C718.789429,400.322144 735.809265,387.444885 752.120728,373.722656 
	C776.077637,353.568726 800.105652,333.493744 823.438110,312.594971 
	C838.211731,299.362427 853.244629,286.373291 866.782349,271.910828 
	C877.821777,260.117188 889.066589,248.506638 899.933105,236.547745 
	C913.361450,221.769577 926.916321,207.267532 937.443420,189.959442 
	C956.758484,158.202377 967.333618,124.166527 969.019165,87.101669 
	C969.480652,76.952972 965.327942,70.565834 956.557556,66.581207 
	C953.842346,65.347626 951.006409,64.189079 948.103149,63.593460 
	C935.992310,61.108841 923.684753,60.060120 911.366638,60.507305 
	C889.743469,61.292290 868.238708,63.254463 846.908264,67.296028 
	C817.660522,72.837715 789.096191,80.390259 762.484741,94.041222 
	C740.087524,105.530357 718.674500,118.708557 697.827332,132.814804 
	C691.640442,137.001144 685.481506,141.192841 679.502563,146.673218 
	C682.840454,148.904709 685.840759,150.908600 688.838928,152.915619 
	C691.000793,154.362793 692.923096,153.765045 694.778931,152.272079 
	C702.114746,146.370682 710.378723,142.079880 719.656189,138.030670 
M609.709900,532.264648 
	C563.428345,560.050537 517.742432,588.871277 468.844086,612.175171 
	C470.033173,614.153687 471.143860,614.452332 472.316467,614.608276 
	C487.166504,616.582947 502.081879,617.866699 517.040405,618.577148 
	C527.082581,619.054016 536.908386,616.944336 546.812439,615.734985 
	C582.317993,611.399292 614.470886,598.201355 643.356995,577.588196 
	C665.701294,561.643250 684.880798,542.165649 700.926819,519.729736 
	C716.792847,497.545258 731.048889,474.534485 738.918335,448.121979 
	C739.422607,446.429474 740.580261,444.810730 739.652588,442.829773 
	C739.195801,442.671906 738.525696,442.235962 738.317139,442.397186 
	C697.078613,474.264374 654.779358,504.611053 609.709900,532.264648 
M761.493652,230.067444 
	C765.060669,236.539474 768.627686,243.011490 772.296997,249.669266 
	C773.776184,248.803879 774.697998,248.407898 775.451782,247.802612 
	C795.631775,231.597839 814.430359,213.897064 830.535522,193.640411 
	C840.869080,180.643036 851.909058,168.069717 859.961121,153.371857 
	C861.128906,151.240250 862.740906,149.151901 861.571106,146.502792 
	C859.450500,145.393509 857.362854,145.388397 855.158875,145.754532 
	C844.170715,147.579941 833.235535,149.662292 822.447937,152.451157 
	C792.340820,160.234634 762.099060,167.592346 733.497253,180.203278 
	C731.099548,181.260452 728.638550,182.219696 726.814941,184.629150 
	C739.047852,199.116226 752.143677,212.718338 761.493652,230.067444 
M233.820969,580.253235 
	C244.954880,575.557983 256.088806,570.862793 266.928284,566.291687 
	C267.087891,564.002747 266.083160,563.075989 265.182495,562.119568 
	C253.554825,549.772034 241.598740,537.713013 231.815720,523.757812 
	C229.838776,520.937744 227.731598,520.992493 225.225204,523.385559 
	C220.535385,527.863159 215.660980,532.147766 210.851776,536.499939 
	C193.587448,552.123352 180.786362,571.027222 170.545425,591.751099 
	C169.071152,594.734497 166.047760,598.559143 168.310226,601.403442 
	C170.913986,604.676758 175.143921,601.741821 178.507309,600.940796 
	C197.542450,596.407104 214.966095,587.496155 233.820969,580.253235 
z"/>
</svg>