<svg version="1.1" id="Layer_1" xmlns="http://www.w3.org/2000/svg" xmlns:xlink="http://www.w3.org/1999/xlink" x="0px" y="0px"
	 width="100%" viewBox="0 0 976 1024" enable-background="new 0 0 976 1024" xml:space="preserve">
<path fill="#FFFFFF" opacity="1.000000" stroke="none" 
	d="
M977.000000,494.000000 
	C977.000000,543.020874 977.000000,592.041809 976.911499,641.898865 
	C976.390869,644.338135 975.859436,645.921814 975.541931,647.547302 
	C972.034302,665.503479 968.510498,683.427063 963.380859,701.044800 
	C954.449280,731.720642 942.678528,761.049561 926.659546,788.810791 
	C911.095825,815.783264 893.526001,841.288330 872.286560,863.923218 
	C833.792542,904.946350 786.746643,934.247681 736.716248,958.913818 
	C713.811401,970.206421 689.159485,977.122498 664.703369,984.215271 
	C619.212891,997.408569 573.150452,1007.215820 525.502197,1008.766602 
	C488.636108,1009.966431 451.896637,1009.226562 415.281403,1005.091248 
	C386.478760,1001.838196 358.327820,995.282227 330.345581,987.596069 
	C278.023651,973.224243 231.027481,948.328064 187.556808,916.564209 
	C158.344315,895.218689 133.448654,869.193176 111.165489,840.708069 
	C87.839417,810.889832 69.448860,778.304382 54.184025,743.616577 
	C28.886618,686.130798 16.571449,625.838806 13.132686,563.583069 
	C11.627673,536.336182 12.190475,508.987000 14.486040,481.693298 
	C16.691099,455.475647 19.750443,429.396515 25.415447,403.717957 
	C36.556438,353.217621 53.950546,304.945404 78.398499,259.305115 
	C113.851425,193.120331 160.217331,136.243607 221.778915,92.556473 
	C272.093140,56.851021 325.547150,27.985394 387.775482,19.191044 
	C402.293274,17.139332 416.946625,16.152607 431.603577,17.026941 
	C442.425537,17.672503 452.990082,17.844675 463.807312,15.577605 
	C482.075562,11.748959 500.873718,12.044617 519.441772,10.981087 
	C537.218872,9.962860 554.966614,12.706841 572.674988,14.597509 
	C590.402954,16.490259 607.867310,19.517612 625.120239,24.186411 
	C656.514221,32.681892 684.126953,49.524143 712.871216,63.715424 
	C738.175964,76.208618 758.402161,96.294197 779.031311,114.985672 
	C804.787231,138.322372 828.060059,164.312363 849.767700,191.647446 
	C865.675720,211.679337 880.031311,232.706650 892.610107,254.863464 
	C905.265503,277.155334 916.042908,300.397034 925.729553,324.221527 
	C939.921326,359.126678 952.649963,394.467926 962.522217,430.820709 
	C968.187439,451.681610 972.998413,472.751343 977.000000,494.000000 
M125.060562,313.455292 
	C98.607140,370.420837 83.250389,430.284454 79.558792,492.935150 
	C77.373749,530.017944 77.641022,567.107361 83.147972,604.055969 
	C89.042358,643.604065 99.271889,681.712952 115.137283,718.547241 
	C136.329391,767.748596 166.757721,810.025024 205.989441,846.211365 
	C211.866501,851.632324 212.158981,851.575317 216.350388,844.587097 
	C225.566605,829.221375 235.899658,814.676575 249.675934,803.049683 
	C259.216461,794.997742 269.547974,787.888245 279.177521,779.935608 
	C318.077026,747.810364 363.837189,735.708740 413.083099,733.687073 
	C429.792175,733.001160 446.361145,734.435669 462.746643,737.791870 
	C483.881653,742.120850 504.912140,747.046814 522.423645,760.559204 
	C544.707581,777.754150 563.093872,798.365417 575.795044,823.785217 
	C586.497742,845.205383 594.649780,867.371216 598.574524,891.122681 
	C600.473083,902.612549 601.903442,914.136658 603.376526,925.669373 
	C604.076965,931.152771 604.805054,931.745300 609.991943,930.417358 
	C619.827515,927.899231 629.690918,925.467407 639.447815,922.668823 
	C663.134460,915.874634 687.135315,909.643799 709.228027,898.583374 
	C738.730713,883.813110 767.481323,867.686157 793.249268,846.658081 
	C810.769470,832.360718 827.173157,817.140137 840.476990,798.771851 
	C841.524780,797.325134 842.982910,796.052734 842.883240,794.068787 
	C842.638306,793.731262 842.502930,793.368530 842.243958,793.216614 
	C840.666870,792.291931 839.088196,791.363342 837.461792,790.530273 
	C822.806335,783.023926 810.289001,772.962952 801.259094,759.085876 
	C786.078613,735.756592 777.967285,710.588257 779.374695,682.216736 
	C780.663147,656.244446 789.165039,633.429199 804.939819,613.180237 
	C814.775452,600.554993 827.602112,591.103455 840.708740,582.200012 
	C856.144348,571.714478 872.873352,564.061279 891.515259,561.132019 
	C897.813965,560.142151 904.116394,560.281921 910.436646,560.631531 
	C913.514282,560.801819 915.717041,559.980347 915.670410,556.312195 
	C915.558105,547.482117 916.273376,538.560974 915.265137,529.837280 
	C911.726990,499.224213 905.038086,469.206390 896.574951,439.594971 
	C884.705322,398.064423 869.548218,357.721252 851.379639,318.564056 
	C837.737366,289.162140 820.768616,261.710175 800.761353,236.130539 
	C780.807129,210.618637 758.757751,187.005554 735.544312,164.528397 
	C724.569580,153.901718 711.897156,145.050308 700.359619,134.975739 
	C691.594727,127.322296 681.873596,121.442734 671.442017,116.458275 
	C659.269836,110.642090 647.246277,104.512451 635.199646,98.436646 
	C618.982239,90.257263 601.742249,85.173515 583.895874,82.498413 
	C559.210144,78.798119 534.349731,76.602425 509.358856,76.413643 
	C491.712463,76.280334 474.066162,76.115486 456.493011,78.375557 
	C445.955200,79.730820 435.788086,83.434265 424.999298,83.188583 
	C422.346436,83.128166 421.003113,84.748268 421.339966,87.410614 
	C421.798767,91.036659 422.128387,94.712807 422.999878,98.247528 
	C430.177338,127.358742 429.874695,156.611298 424.728943,185.939026 
	C419.203003,217.433304 404.928711,245.231659 387.196136,271.272919 
	C375.891113,287.874969 361.466370,301.622742 342.235474,308.893158 
	C330.419373,313.360291 318.229218,316.877594 306.104340,320.475372 
	C297.015045,323.172485 287.739349,325.241180 278.287781,326.280457 
	C257.871521,328.525299 237.728271,326.208862 217.732590,322.257568 
	C190.457825,316.867859 162.935043,312.132233 139.409790,295.656860 
	C136.522903,293.635101 134.447281,294.653259 132.982468,297.584259 
	C130.450638,302.650391 127.906349,307.710297 125.060562,313.455292 
M421.883881,939.535889 
	C429.661438,940.238708 437.427216,941.142822 445.219208,941.599182 
	C458.186493,942.358704 471.172424,942.794434 484.147186,943.433411 
	C500.322510,944.230042 516.448669,942.635376 532.605225,942.446533 
	C538.036865,942.382996 539.122925,940.351501 538.210876,934.921143 
	C537.660339,931.643127 537.033875,928.363403 536.745605,925.057922 
	C534.764038,902.333069 529.705444,880.521423 520.020325,859.654968 
	C512.182861,842.768982 500.827393,828.947144 487.186890,816.730774 
	C482.827698,812.826782 477.767059,809.956848 472.091614,808.151794 
	C446.147156,799.900513 419.732391,796.820312 392.793610,801.618591 
	C378.574219,804.151245 364.286652,806.556396 350.900116,812.630127 
	C333.985107,820.304810 320.236420,832.529297 305.303711,843.095398 
	C291.545502,852.830505 280.674042,864.902283 272.522888,879.552246 
	C268.991394,885.899414 270.660522,891.311523 276.779694,894.890686 
	C303.358612,910.436890 332.430847,919.469238 361.814362,927.722656 
	C381.231964,933.176880 401.068481,936.510864 421.883881,939.535889 
M230.228256,169.737961 
	C210.572800,188.273224 191.812943,207.629547 175.620758,229.337448 
	C171.419540,234.969788 171.775345,237.326813 177.704834,241.386200 
	C183.093735,245.075455 188.896484,247.970749 195.242111,249.657471 
	C210.526535,253.720200 225.976959,257.133759 241.611313,259.388367 
	C258.027710,261.755737 274.462860,261.738708 290.492615,256.353973 
	C296.486206,254.340591 302.432404,252.001938 308.587708,250.693832 
	C320.204041,248.225174 328.089905,241.041580 334.410461,231.666641 
	C337.198059,227.531952 339.553436,223.107208 342.138367,218.834305 
	C356.756958,194.669968 363.270935,168.389786 362.613129,140.253769 
	C362.292267,126.528664 358.406891,113.359322 356.107849,99.945190 
	C355.426453,95.969444 352.520081,95.593315 349.201721,96.965385 
	C326.694458,106.271713 304.887299,117.137238 284.183929,129.833710 
	C265.323181,141.400192 247.817734,155.104691 230.228256,169.737961 
M885.105286,724.719543 
	C897.899109,695.419617 905.622070,664.680847 911.015137,633.285400 
	C911.986145,627.632446 910.986084,626.633972 905.204163,626.312134 
	C899.831848,626.013000 895.010254,627.843750 890.318420,629.959656 
	C877.556030,635.715210 866.209595,643.749878 856.974365,654.140869 
	C845.694580,666.832458 843.101562,682.536194 846.111816,698.677307 
	C848.622192,712.138977 854.130859,724.473572 867.254883,731.550781 
	C877.413696,737.029114 880.383301,736.050110 885.105286,724.719543 
z"/>
<path fill="#FFFFFF" opacity="1.000000" stroke="none" 
	d="
M522.878540,468.011871 
	C493.541290,415.778381 501.497894,365.952118 532.908142,318.615753 
	C553.692444,287.293091 583.511047,266.400513 618.905518,253.931061 
	C637.088806,247.525101 655.995178,247.578430 674.524658,252.147171 
	C687.727600,255.402573 700.657288,259.997253 713.416809,264.774323 
	C743.709167,276.115540 766.599182,296.503815 783.664734,323.736969 
	C789.767090,333.475037 795.720093,343.276215 800.854675,353.587646 
	C811.421631,374.808350 812.679199,397.450531 810.906799,420.389801 
	C809.489441,438.735382 805.138489,456.533936 797.288940,473.299225 
	C783.371887,503.023743 759.730225,521.708069 729.635681,533.427124 
	C703.812744,543.482727 677.161011,544.750183 650.014526,542.660645 
	C628.751770,541.024109 608.225220,536.148376 588.771057,527.553528 
	C560.478149,515.053650 538.815430,494.895203 522.878540,468.011871 
M666.701904,333.049957 
	C664.557617,331.772552 662.226929,330.725861 660.304688,329.173492 
	C655.011902,324.899017 648.817993,324.808441 643.210083,326.903259 
	C615.315247,337.323273 594.514099,355.294983 584.782837,384.286560 
	C580.996216,395.567413 579.802856,407.257629 583.721069,418.602081 
	C587.227295,428.753479 593.559143,437.377899 601.344910,444.955597 
	C613.882629,457.158325 629.467773,462.515747 646.168640,465.017090 
	C666.742249,468.098511 687.267090,469.097137 706.903687,459.908905 
	C715.402588,455.932190 723.461243,451.062347 727.119812,442.187408 
	C736.618042,419.147034 740.198120,396.042450 724.615479,373.772675 
	C722.612366,370.910065 720.770447,367.926880 718.983093,364.922638 
	C713.080750,355.001617 705.296326,346.942139 695.465088,340.873566 
	C690.862976,338.032867 686.085632,335.985260 680.450684,336.307007 
	C675.890137,336.567444 671.576782,335.151855 666.701904,333.049957 
z"/>
<path fill="#ffffff" opacity="1.000000" stroke="none" 
	d="
M318.474457,615.655518 
	C321.860596,654.114441 298.125183,682.150818 264.007538,691.076599 
	C232.537338,699.309753 196.350159,686.235352 176.742462,660.236389 
	C169.596481,650.761169 166.041687,639.911621 165.707672,628.193298 
	C165.168839,609.288391 165.697891,590.231201 175.388626,573.356689 
	C188.164688,551.109924 207.458389,537.366272 233.142944,533.319275 
	C236.638565,532.768555 240.294159,532.910339 243.527451,534.120239 
	C261.282257,540.763916 279.076691,547.175171 293.463318,560.490479 
	C309.538055,575.368042 317.550720,593.570557 318.474457,615.655518 
M258.904999,632.398193 
	C261.067688,630.646667 262.053284,628.309509 262.867340,625.669250 
	C264.443085,620.558350 262.300201,615.831116 262.010712,610.927490 
	C261.513031,602.497864 257.268097,596.860779 250.094421,593.260681 
	C238.981598,587.683716 225.804291,591.725769 222.876312,604.548584 
	C221.420059,610.926086 221.123810,617.377686 221.266525,623.881714 
	C221.313629,626.028809 222.115173,627.818665 223.697754,629.157776 
	C232.872330,636.921021 246.564774,642.020630 258.904999,632.398193 
z"/>
<path fill="#ffffff" opacity="1.000000" stroke="none" 
	d="
M321.645020,449.895935 
	C313.964020,414.832123 341.323425,383.030670 362.899017,378.365356 
	C379.827667,374.704926 396.493896,375.131683 409.316071,388.682465 
	C420.497559,400.499268 426.138855,415.337189 427.268982,431.568909 
	C428.093811,443.415710 427.702209,455.186646 421.111115,465.849579 
	C405.555664,491.014801 369.997253,498.590027 345.102905,482.077606 
	C333.383209,474.303955 325.213867,464.066864 321.645020,449.895935 
M382.527191,431.007843 
	C381.842316,428.613647 381.303833,426.193085 379.926605,424.024445 
	C377.804993,420.683716 375.099304,420.469330 372.412170,422.863678 
	C369.419922,425.529877 366.769287,428.778687 365.731415,432.657776 
	C364.665680,436.641174 364.000031,441.050018 368.227600,444.022949 
	C372.052765,446.712921 376.206604,447.522064 380.410034,445.011139 
	C384.753571,442.416473 383.728149,438.221741 383.184906,434.259125 
	C383.072205,433.437073 382.841461,432.631195 382.527191,431.007843 
z"/>
<path fill="#ffffff" opacity="1.000000" stroke="none" 
	d="
M620.269043,667.984985 
	C607.918518,699.304321 575.638123,712.538147 547.063293,697.334290 
	C525.979797,686.116394 516.530273,667.497070 517.735291,643.632996 
	C518.810303,622.344482 532.845154,603.185852 552.890686,596.413330 
	C571.214172,590.222534 587.249756,595.283569 601.305237,607.825867 
	C604.277954,610.478516 607.020386,613.395569 609.796814,616.260742 
	C624.201355,631.125916 626.331238,648.537964 620.269043,667.984985 
z"/>
<path fill="#ffffff" opacity="1.000000" stroke="none" 
	d="
M187.357864,454.421875 
	C166.002365,470.207550 136.617554,461.506409 129.810120,436.723389 
	C125.450714,420.852631 128.799789,406.759308 143.623047,396.810974 
	C156.699036,388.035248 173.423279,390.142853 185.640366,400.198273 
	C202.626038,414.178558 203.292480,440.682617 187.357864,454.421875 
z"/>
<path fill="#ffffff" opacity="1.000000" stroke="none" 
	d="
M509.491852,207.516876 
	C495.333679,192.038559 496.683899,170.373871 512.353210,157.247742 
	C527.354614,144.681076 548.977051,146.692902 560.814209,161.756668 
	C576.083862,181.188690 564.229614,211.148727 539.222900,216.225449 
	C527.967896,218.510361 518.169312,215.481903 509.491852,207.516876 
z"/>
<path fill="#ffffff" opacity="1.000000" stroke="none" 
	d="
M733.223999,833.056152 
	C719.284668,854.102173 689.081848,852.534912 677.133423,833.968262 
	C669.589722,822.246155 669.282898,809.918091 676.407043,798.115540 
	C683.456970,786.436096 694.523010,781.032898 708.134338,782.446777 
	C733.639160,785.095947 746.255432,810.485840 733.223999,833.056152 
z"/>
</svg>