<svg version="1.1" id="Layer_1" xmlns="http://www.w3.org/2000/svg" xmlns:xlink="http://www.w3.org/1999/xlink" x="0px" y="0px"
	 width="100%" viewBox="0 0 1024 944" enable-background="new 0 0 1024 944" xml:space="preserve">
<path fill="#ffffff" opacity="1.000000" stroke="none" 
	d="
M211.523758,817.575439 
	C231.087097,787.146179 249.021576,756.146790 267.816498,725.674866 
	C286.341034,695.641357 306.529053,666.634277 323.374512,635.563782 
	C326.620148,629.577454 326.200958,628.499268 319.171600,627.460571 
	C303.545959,625.151733 287.886444,623.071228 272.264099,620.741028 
	C254.137375,618.037231 236.446594,613.274780 218.659714,609.003174 
	C194.862503,603.288086 170.735001,599.358826 146.623535,595.337280 
	C120.196541,590.929565 94.696571,583.523376 70.637054,571.638855 
	C48.723366,560.814270 48.307076,534.155273 69.631142,520.005615 
	C79.375183,513.539917 90.044739,508.726959 100.540199,503.659576 
	C159.832199,475.032227 220.448593,449.640808 282.876190,428.582306 
	C298.954529,423.158630 314.536316,416.265411 329.490784,408.116882 
	C331.387817,407.083191 333.405884,406.116821 334.993927,404.700104 
	C339.671600,400.527252 345.141174,398.404938 351.276764,397.854614 
	C353.243896,397.678192 354.925171,397.336731 355.474884,395.121216 
	C360.574799,374.567596 370.581573,356.023132 379.499207,337.062866 
	C390.142059,314.434509 399.263062,291.197510 408.097168,267.840302 
	C416.464722,245.716705 426.078339,224.109848 434.899353,202.176056 
	C447.821808,170.044022 460.695251,137.892166 473.695648,105.791718 
	C477.330597,96.816299 482.423065,88.779984 491.427734,84.269943 
	C506.366394,76.787827 523.689392,84.028709 530.850159,100.658714 
	C538.358459,118.095757 544.967163,135.887207 551.616821,153.665939 
	C565.614685,191.091446 581.247681,227.875031 595.716125,265.111023 
	C606.925964,293.960632 616.583130,323.401825 624.666443,353.302795 
	C626.012390,358.281677 628.934631,360.095398 633.253418,360.811584 
	C636.201355,361.300415 639.216797,361.568115 642.205261,361.596466 
	C662.026428,361.784637 681.836670,363.475433 701.656372,362.571167 
	C721.102966,361.683960 740.519714,360.159088 759.957520,359.055756 
	C769.433716,358.517914 778.925537,358.185181 788.415039,357.964905 
	C811.396606,357.431396 834.390747,357.296387 857.361328,356.479645 
	C880.984741,355.639679 904.583923,354.130341 928.199097,353.031219 
	C934.020508,352.760254 939.864075,352.865051 945.695801,352.935669 
	C958.850769,353.094940 968.348328,359.712433 971.621033,370.885986 
	C974.919006,382.145996 970.027344,392.987671 959.629639,400.610962 
	C944.725525,411.538239 930.262817,423.072784 915.717468,434.483002 
	C886.915405,457.076965 855.017944,474.887451 824.025146,494.105347 
	C789.343384,515.610718 754.775513,537.299805 720.103882,558.821411 
	C717.369385,560.518738 717.313232,562.102478 717.680298,565.250122 
	C721.414612,597.272034 741.041748,622.510742 753.989746,650.538147 
	C761.531250,666.862488 768.690613,683.352905 776.037659,699.755127 
	C780.807739,710.404297 785.385681,721.118347 791.260498,731.203125 
	C800.272156,746.672668 805.177856,763.961975 813.151062,779.907654 
	C820.245178,794.095093 824.575989,809.369141 827.849182,824.829956 
	C831.757751,843.291992 823.204590,857.756226 806.903198,860.837646 
	C800.008789,862.140869 793.003296,861.662170 786.079651,860.014282 
	C769.943665,856.173889 754.905273,849.389709 739.782166,842.874634 
	C714.691406,832.065613 689.551575,821.150879 666.040283,807.266785 
	C639.673340,791.696472 614.710876,773.917114 590.187561,755.467773 
	C568.061035,738.821350 546.640808,721.405334 525.853882,703.171448 
	C522.810669,700.501953 520.832764,701.926270 518.461182,703.602051 
	C501.185394,715.809448 484.266357,728.564453 466.557526,740.107727 
	C427.354248,765.661865 388.761871,792.147949 348.931488,816.753784 
	C325.839020,831.019531 303.399445,846.355652 279.836334,859.857239 
	C265.987274,867.792847 252.178345,875.979309 236.347794,879.662415 
	C226.565445,881.938293 217.125366,881.998840 208.720673,875.508179 
	C198.100327,867.306396 196.676407,856.246643 199.175354,844.026245 
	C201.154816,834.346069 206.735580,826.347046 211.523758,817.575439 
z"/>
</svg>