<svg version="1.1" id="Layer_1" xmlns="http://www.w3.org/2000/svg" xmlns:xlink="http://www.w3.org/1999/xlink" x="0px" y="0px"
	 width="100%" viewBox="0 0 992 1024" enable-background="new 0 0 992 1024" xml:space="preserve">
<path fill="#FFFFFF" opacity="1.000000" stroke="none" 
	d="
M622.020386,520.075195 
	C629.074524,538.820557 634.527832,557.730713 642.310913,575.797058 
	C644.763306,581.489624 647.912781,586.782837 651.389954,591.867126 
	C661.532715,606.698364 667.317139,623.714172 675.495728,639.523804 
	C688.449951,664.565125 699.736206,690.232300 707.635803,717.394226 
	C711.302734,730.002747 716.243591,742.301758 722.702942,753.809753 
	C733.825317,773.625305 741.867188,794.817566 751.095276,815.489746 
	C757.477112,829.785583 763.379578,844.273499 769.499512,858.670654 
	C774.792786,871.123108 771.450684,881.750183 761.921326,891.239624 
	C748.128174,904.975159 732.061157,916.367310 720.045166,931.914673 
	C718.727661,933.619324 717.274719,935.253662 716.193787,937.101440 
	C707.483032,951.993164 688.577209,952.967834 678.695618,938.724365 
	C671.153748,927.853271 666.393311,915.540222 661.371582,903.362976 
	C650.381226,876.712158 641.060303,849.436646 632.525391,821.967163 
	C620.794067,784.209717 605.437500,747.883728 591.222046,711.097229 
	C590.990784,710.498901 590.573364,709.972473 589.875977,708.791016 
	C588.068787,712.673889 588.336243,716.268921 588.331726,719.781372 
	C588.283203,757.280273 588.179199,794.779480 588.272827,832.278076 
	C588.337830,858.308533 585.306091,884.055603 581.971191,909.805115 
	C579.233643,930.942078 575.318665,951.832581 570.272827,972.532654 
	C568.604248,979.377808 566.127991,985.927551 563.038635,992.169983 
	C558.581421,1001.176453 550.190308,1004.320068 540.838928,1005.237061 
	C532.067078,1006.097290 523.266235,1006.703857 514.466187,1007.218079 
	C510.239624,1007.465149 506.278076,1008.498474 502.361664,1009.979492 
	C485.198792,1016.469788 469.367859,1005.973450 468.750458,987.604431 
	C468.526611,980.945129 468.696472,974.272766 468.681458,967.606323 
	C468.624084,942.129456 466.109406,916.736206 466.594452,891.217712 
	C467.000458,869.856506 469.802826,848.771851 472.025269,827.609741 
	C473.708862,811.578857 475.796143,795.590698 477.639221,779.576111 
	C479.481842,763.565186 481.341888,747.555237 483.014374,731.526062 
	C484.687714,715.488586 486.220917,699.435120 487.650055,683.374023 
	C488.311035,675.945312 490.122955,668.617065 489.770660,660.692505 
	C487.622742,661.382568 486.990906,663.108582 486.088959,664.545715 
	C460.415222,705.452576 434.675323,746.304504 410.861298,788.358948 
	C396.428711,813.846191 380.351440,838.396667 365.531921,863.672241 
	C356.344513,879.341797 349.430206,896.174438 343.291412,913.265686 
	C339.268066,924.467407 328.925873,929.977234 316.806183,926.607788 
	C307.811005,924.107056 299.076019,920.715027 290.850586,916.359131 
	C284.869812,913.191895 278.596710,910.981506 272.170044,909.499634 
	C258.491364,906.345520 250.423935,894.416321 255.220062,878.270386 
	C256.924255,872.533386 258.458893,866.689392 261.221558,861.336243 
	C274.448792,835.706116 283.971252,808.420288 296.619110,782.523254 
	C317.089386,740.609375 339.097290,699.512268 361.473969,658.598633 
	C376.574982,630.987854 390.722412,602.834839 406.485352,575.612793 
	C420.615631,551.210327 433.830353,526.444153 445.065369,500.590454 
	C446.952057,496.248932 447.190155,493.557800 442.946777,490.159485 
	C431.163025,480.722412 426.094635,466.961365 420.696167,453.440918 
	C414.660706,438.324982 413.489899,422.789337 415.515198,406.830292 
	C416.376862,400.040405 415.714020,399.229401 408.870758,399.347504 
	C384.226990,399.772858 359.632416,401.173706 335.035950,402.762482 
	C311.943054,404.254150 288.918793,406.476288 265.865387,408.382416 
	C252.304626,409.503662 238.742371,410.708588 225.375259,412.865784 
	C225.375259,417.228882 225.435104,421.500336 225.362793,425.769562 
	C225.212860,434.620850 221.360504,441.878204 213.038498,444.560150 
	C197.866989,449.449402 183.266388,456.261780 167.354156,458.780426 
	C158.235901,460.223663 149.342880,456.234863 144.946823,448.193146 
	C143.519623,445.582397 142.025330,445.006500 139.137283,444.935883 
	C129.056808,444.689392 119.286629,447.072571 109.348740,447.858643 
	C94.642578,449.021912 83.441246,445.156342 77.037529,433.033173 
	C75.333145,429.806488 73.703377,426.425415 72.800247,422.919220 
	C71.639320,418.412140 69.443886,417.460571 64.966339,418.208649 
	C56.444733,419.632355 47.822922,420.772461 39.201344,421.204529 
	C27.488173,421.791473 17.878532,414.400879 15.845441,402.869080 
	C12.227037,382.345398 9.533780,361.706024 14.312092,340.917816 
	C14.752130,339.003387 14.634271,336.943695 14.646426,334.950714 
	C14.720301,322.837982 19.588202,315.752014 31.182156,311.687683 
	C38.875599,308.990662 46.681305,306.587128 54.521294,304.348175 
	C57.652416,303.453918 58.881855,301.923767 58.680683,298.708008 
	C57.926353,286.649811 64.344742,278.840088 74.423111,273.752808 
	C82.893051,269.477386 91.754120,265.951324 101.014290,263.746704 
	C104.719093,262.864746 106.396652,261.034424 106.625557,257.362549 
	C107.131981,249.239258 111.479668,243.258972 117.902107,238.828964 
	C123.244896,235.143677 128.919678,231.801758 135.193604,229.981323 
	C142.215393,227.943863 149.308319,226.147354 156.348618,224.150436 
	C165.393188,221.585007 174.792969,227.138779 178.747818,236.546143 
	C183.148361,247.013641 183.132294,246.978912 193.350159,242.245087 
	C215.744156,231.870178 239.069290,223.840164 262.133240,215.171371 
	C282.243011,207.612946 301.756073,198.560638 322.074097,191.540833 
	C351.187317,181.482285 380.907410,173.344101 410.145966,163.690079 
	C430.691376,156.906342 451.149933,149.880249 472.046814,144.197617 
	C515.077881,132.495850 558.169495,121.024994 600.791748,107.845177 
	C633.066895,97.864929 666.079041,90.068962 697.514221,77.630852 
	C724.942871,66.778076 752.983521,57.701088 780.509766,47.176315 
	C784.586304,45.617622 786.868958,43.604225 788.031677,39.056671 
	C791.047607,27.260725 800.378113,21.981480 811.338440,19.812656 
	C836.269958,14.879230 861.310974,15.158106 886.249329,19.978888 
	C889.611267,20.628771 892.957275,20.883808 896.150024,20.410015 
	C917.991638,17.168812 933.140930,27.096344 943.970886,44.860119 
	C956.824951,65.943985 964.900085,89.039825 970.735962,112.908310 
	C975.670959,133.091827 980.567139,153.292099 984.546814,173.697449 
	C989.077820,196.929688 988.934265,220.345581 987.520935,243.832993 
	C986.427429,262.004791 983.765015,279.902557 978.238464,297.275421 
	C975.768250,305.040497 973.193115,312.830505 969.871887,320.254089 
	C963.351440,334.828369 952.669312,345.410126 937.682678,351.383026 
	C935.846252,352.114960 933.830078,352.506439 932.796021,354.536133 
	C929.688538,360.635223 924.351013,364.594360 918.520569,367.378479 
	C903.201843,374.693420 888.855896,384.018066 872.804749,389.780975 
	C866.076843,392.196472 859.250244,394.604309 852.264221,395.972748 
	C841.087463,398.161987 831.103333,394.991364 822.986023,386.856049 
	C820.860657,384.725891 818.593689,384.133179 815.791687,384.404785 
	C791.388855,386.770386 766.882629,386.565125 742.414673,387.248596 
	C717.773865,387.936920 693.173523,389.308014 668.578186,390.880859 
	C658.624023,391.517395 648.648926,391.827026 638.572571,392.290527 
	C637.869995,394.944244 639.443726,396.702820 640.066589,398.655090 
	C647.737793,422.696564 648.593994,446.350769 636.232422,469.308472 
	C631.181824,478.688202 623.971802,485.833984 614.489136,490.695862 
	C613.194153,491.359802 611.566833,491.538544 610.628296,493.449066 
	C614.483154,501.962372 619.385925,510.336700 622.020386,520.075195 
M724.876099,348.232971 
	C746.687744,347.713501 768.499329,347.194489 790.310974,346.673767 
	C791.975891,346.634003 793.645020,346.643494 795.304565,346.524109 
	C799.286926,346.237640 800.339233,344.439880 798.981995,340.521454 
	C793.261719,324.006805 788.405396,307.246704 784.224060,290.255981 
	C778.609131,267.439911 773.622192,244.405075 772.162720,221.053146 
	C770.294800,191.163849 771.122437,161.157028 775.117188,131.335403 
	C776.704712,119.484459 777.546326,107.533943 778.749512,95.630981 
	C779.165283,91.518242 777.277832,90.533218 773.670105,91.783867 
	C762.189148,95.763870 750.528076,99.296089 739.267151,103.823486 
	C717.013428,112.770363 694.608521,121.191376 671.574158,127.954987 
	C632.144714,139.532730 593.116943,152.641266 553.336060,162.823685 
	C483.290649,180.752716 414.846436,203.800812 345.863922,225.140656 
	C317.839905,233.809921 291.424225,246.748032 263.882294,256.743195 
	C242.455780,264.519073 220.967758,272.190948 200.586655,282.603058 
	C196.868240,284.502655 196.481094,286.304810 197.570801,289.951416 
	C204.047592,311.625488 209.341034,333.610229 214.463531,355.638763 
	C215.915298,361.881866 217.805618,368.023010 219.496979,374.218872 
	C222.463364,373.644257 224.877960,373.031403 227.330841,372.723328 
	C258.860443,368.763550 290.551514,366.433411 322.212494,363.972412 
	C348.258820,361.947876 374.395477,360.886169 400.512726,360.018616 
	C440.284149,358.697510 480.073517,357.916168 519.855042,356.898926 
	C537.338257,356.451874 554.829529,356.197723 572.302246,355.488831 
	C608.728271,354.010925 645.146118,352.328705 681.563538,350.646637 
	C695.695679,349.993896 709.817444,349.114655 724.876099,348.232971 
M450.546417,578.948059 
	C396.481232,676.032593 341.178009,772.485535 298.680328,876.053345 
	C303.888184,877.452148 307.581177,881.582825 313.119659,881.986450 
	C317.090057,873.144226 320.774780,864.404480 324.891846,855.873352 
	C335.484589,833.923706 349.279449,813.799561 361.921051,793.070557 
	C381.434052,761.074158 399.255341,728.090454 419.411255,696.470459 
	C431.672638,677.235229 444.152069,658.109009 455.793793,638.494812 
	C466.423706,620.585205 478.639069,603.676514 488.708710,585.437927 
	C494.098816,575.675171 498.809052,565.474915 505.523621,556.544312 
	C510.268280,550.233765 517.189941,547.695007 525.042664,549.261719 
	C533.130493,550.875244 538.108765,556.025330 540.336304,564.001099 
	C542.345581,571.195801 540.565735,578.262329 539.691956,585.290649 
	C537.127380,605.921021 533.835632,626.464478 531.477905,647.116211 
	C528.592163,672.392761 525.356140,697.637329 523.506287,723.028870 
	C522.418640,737.959290 520.304871,752.780945 518.398132,767.628662 
	C515.857056,787.415771 513.920959,807.280762 511.745270,827.114502 
	C509.931458,843.649048 507.367920,860.146973 506.521637,876.731812 
	C505.043884,905.693054 506.953339,934.662598 508.009125,963.619141 
	C508.132996,967.016907 509.763855,967.928467 512.770142,967.680054 
	C516.751160,967.351074 520.766663,966.693420 524.718445,966.945251 
	C529.657288,967.260010 531.586182,965.311523 532.753784,960.571960 
	C537.694824,940.516418 540.896606,920.180603 543.659912,899.742676 
	C545.956177,882.759216 548.210876,865.748108 548.580444,848.623352 
	C549.594238,801.649658 548.254150,754.660522 549.477173,707.675415 
	C550.183716,680.529724 549.495544,653.349915 549.622864,626.186279 
	C549.690857,611.691956 549.142029,597.217896 548.886169,582.734741 
	C548.681519,571.152161 557.627991,561.730286 568.647644,561.793030 
	C579.463684,561.854553 586.808777,566.608215 588.395752,580.446960 
	C588.792847,583.909973 589.188110,587.400513 589.978027,590.786560 
	C594.215027,608.949890 600.669067,626.446960 606.406677,644.149231 
	C612.521057,663.014160 621.846436,680.605530 628.886230,699.144897 
	C643.236694,736.936646 659.055847,774.158875 670.794678,812.935852 
	C676.572693,832.022400 683.579529,850.743530 690.277893,869.541748 
	C693.154846,877.615723 696.661377,885.465271 700.162048,894.108459 
	C709.757568,885.532654 718.786438,877.465454 727.812134,869.394653 
	C729.674438,867.729492 729.834778,865.946106 728.824524,863.590698 
	C719.114258,840.952576 710.047424,818.020813 699.721497,795.669617 
	C690.230835,775.126282 678.950806,755.427368 671.626770,733.870789 
	C667.664917,722.210144 665.232056,709.994385 659.983215,698.827148 
	C645.264832,667.512390 632.080322,635.440918 613.780640,605.881226 
	C602.991699,588.453796 597.579895,568.718811 590.727722,549.611450 
	C586.799927,538.658752 584.454285,526.879211 578.052246,517.138611 
	C572.288818,508.369598 569.775513,498.781586 566.930054,489.081757 
	C564.291077,480.085938 566.553345,472.821228 573.522522,466.624664 
	C578.409729,462.279266 584.273193,460.113525 590.204285,457.884125 
	C601.350586,453.694427 604.881165,447.758331 606.003784,435.768066 
	C607.378174,421.088440 602.276550,408.693481 594.729431,396.774261 
	C593.335938,394.573486 591.552734,394.145874 589.247070,394.251373 
	C582.595764,394.555725 575.942932,394.847809 569.287598,395.038086 
	C534.162109,396.042389 499.036041,397.025726 463.909332,397.986176 
	C457.313019,398.166534 456.094330,398.937866 455.074951,405.514496 
	C452.890533,419.607788 454.170502,433.157806 460.037903,446.491119 
	C464.400726,456.405243 470.134460,463.936829 480.972565,466.798340 
	C483.030914,467.341797 484.962921,468.474396 486.857269,469.510559 
	C500.929749,477.207245 501.804382,494.907440 488.484192,503.787659 
	C486.585358,505.053558 485.152222,506.381836 484.340942,508.513336 
	C475.133575,532.704224 462.778870,555.391479 450.546417,578.948059 
M937.675720,144.628738 
	C932.442444,120.699936 926.674377,96.931335 915.513123,74.900154 
	C913.481445,70.889885 912.067627,66.327095 908.311523,63.625790 
	C906.366150,64.409721 906.049438,65.818764 905.482056,66.974556 
	C895.959717,86.372017 889.379578,106.788605 885.311035,127.951286 
	C879.595581,157.680435 878.269165,187.705002 880.153137,217.914230 
	C881.845581,245.051605 888.559814,270.743103 901.513062,294.708954 
	C904.699280,300.604034 908.438843,306.162537 914.059265,310.060638 
	C922.998718,316.260712 928.176025,315.169464 933.141846,304.856354 
	C943.150146,284.071198 947.198303,261.615784 948.635742,238.694946 
	C950.625366,206.970734 946.442200,175.948090 937.675720,144.628738 
M166.152603,389.449127 
	C168.657974,396.677338 171.111572,403.924194 173.704697,411.120789 
	C174.361572,412.943848 174.333984,415.989288 177.693680,414.858551 
	C180.391846,413.950470 183.982025,413.785370 183.846710,409.575134 
	C183.734711,406.089874 183.673752,402.580780 183.212799,399.132660 
	C180.985291,382.469452 176.609985,366.265808 172.624176,349.971893 
	C166.262390,323.965149 160.132309,297.900635 149.723251,273.107056 
	C149.091660,271.602631 149.076263,269.498047 146.776505,269.005066 
	C144.065964,285.158264 154.737518,356.016052 166.152603,389.449127 
M882.118530,341.733215 
	C883.425232,340.813538 885.288208,340.581573 885.883728,338.749542 
	C885.181213,336.905792 883.713074,335.654846 882.221375,334.760925 
	C877.663025,332.029388 877.228210,323.898102 870.770142,324.548920 
	C865.475525,325.082458 860.339478,327.743256 855.269592,329.797699 
	C850.141846,331.875580 844.538757,332.932831 839.613403,336.329712 
	C842.335205,341.533783 845.078125,346.282959 847.336060,351.252533 
	C849.133240,355.207947 851.602112,355.440338 855.308899,354.208038 
	C864.513062,351.148132 872.879211,346.355316 882.118530,341.733215 
M862.629456,66.252769 
	C863.406555,63.276535 865.584595,60.752056 865.735962,57.662697 
	C863.752686,56.136387 861.711365,56.284412 859.741272,56.277729 
	C851.264099,56.248985 842.785950,56.205818 834.309570,56.296963 
	C824.861450,56.398556 824.989807,56.626217 822.892944,66.037033 
	C821.904053,70.475494 823.503723,72.236931 827.412720,73.073418 
	C835.227844,74.745789 843.087097,75.399895 851.111511,75.443794 
	C857.538879,75.478943 861.068298,73.053444 862.629456,66.252769 
M829.207458,243.611526 
	C832.718811,242.627075 836.226990,241.630966 839.743042,240.663559 
	C841.293030,240.237076 842.800537,239.562912 842.365051,237.687424 
	C841.325378,233.209305 842.196045,228.401947 839.969910,223.745331 
	C830.989624,224.784500 822.118591,226.590195 812.816772,226.515228 
	C813.041260,229.574631 813.139404,232.036087 813.414795,234.477524 
	C814.881165,247.473755 814.896606,247.472244 827.458496,244.072067 
	C827.778625,243.985413 828.093994,243.881454 829.207458,243.611526 
M845.936829,122.612328 
	C846.485413,120.381691 847.288330,118.176765 846.589905,115.320999 
	C836.754700,115.175270 827.079895,112.916672 816.655273,111.793297 
	C816.181763,116.451851 815.765503,120.702324 815.312988,124.948921 
	C814.951782,128.339569 816.472290,129.778656 819.849731,129.883835 
	C826.517151,130.091446 833.118958,129.365631 839.750305,128.959457 
	C843.626892,128.722031 845.693726,127.346947 845.936829,122.612328 
M818.357300,186.678772 
	C824.584045,185.735336 830.806335,184.761551 837.039856,183.864883 
	C839.226868,183.550262 840.230042,182.350693 840.313599,180.213226 
	C840.404114,177.895142 840.465881,175.572937 840.660522,173.262650 
	C840.940857,169.936829 839.416382,168.852295 836.218933,169.077148 
	C831.584656,169.403030 826.929321,169.605316 822.284790,169.574799 
	C811.062134,169.501099 811.288208,169.438995 811.058716,180.779175 
	C810.957947,185.761414 812.839111,187.416565 818.357300,186.678772 
M832.059448,283.733765 
	C823.299805,285.909241 823.240967,286.146362 825.570862,294.113037 
	C826.506775,297.312897 827.943420,297.917908 830.985779,296.699615 
	C836.218018,294.604462 841.575012,292.812653 846.913940,290.994171 
	C855.799072,287.967743 855.986328,287.503967 850.846985,278.679840 
	C844.933777,280.258423 838.885254,281.873138 832.059448,283.733765 
M51.908100,355.352234 
	C50.820709,361.810577 51.231243,368.312439 51.492893,374.792114 
	C51.630905,378.209961 53.124550,380.511292 57.211102,379.643768 
	C60.646587,378.914490 63.299126,377.891907 62.101833,373.398834 
	C61.556396,371.351990 62.015686,369.056824 61.638401,366.942261 
	C60.341469,359.673676 61.392239,352.094696 59.278023,344.949554 
	C51.888195,344.943146 52.723652,350.235504 51.908100,355.352234 
M128.310272,400.942108 
	C127.669182,396.598419 125.365196,395.121460 120.985359,396.111908 
	C117.928238,396.803253 114.707855,396.805023 111.554222,397.027008 
	C108.982513,397.208038 106.567909,397.727142 107.523071,401.045410 
	C108.304626,403.760529 107.527878,408.099640 112.498589,407.603943 
	C117.122917,407.142822 121.708015,406.289948 126.331848,405.821411 
	C129.456467,405.504791 129.188751,403.743195 128.310272,400.942108 
M108.061920,350.802429 
	C107.084381,350.937134 106.110466,351.112518 105.128708,351.199768 
	C99.685989,351.683594 99.141754,352.616791 101.335381,358.226257 
	C105.487885,357.791290 109.723663,357.362885 113.955299,356.896851 
	C115.640099,356.711304 116.836861,355.938751 116.486366,354.019104 
	C116.193840,352.417023 115.942627,350.545746 113.827324,350.376740 
	C112.204277,350.247131 110.549515,350.514648 108.061920,350.802429 
M98.328094,309.466461 
	C100.460922,312.061218 107.218002,312.381775 109.084114,309.976685 
	C110.503159,308.147858 108.902023,303.121704 106.936745,303.558533 
	C103.636734,304.292053 99.489479,304.212372 98.328094,309.466461 
z"/>
</svg>