<svg version="1.1" id="Layer_1" xmlns="http://www.w3.org/2000/svg" xmlns:xlink="http://www.w3.org/1999/xlink" x="0px" y="0px"
	 width="100%" viewBox="0 0 1024 672" enable-background="new 0 0 1024 672" xml:space="preserve">
<path fill="#ffffff" opacity="1.000000" stroke="none" 
	d="
M60.369911,543.364868 
	C53.276669,508.729462 56.845844,475.226166 66.282753,441.879150 
	C78.096832,400.131958 97.540474,361.954529 119.717644,325.038666 
	C123.075012,319.450012 123.247604,315.241760 120.682968,309.536072 
	C106.738060,278.512115 91.001289,248.443558 74.126465,218.920685 
	C58.589565,191.738510 40.925217,165.826218 26.398855,138.040558 
	C19.957451,125.719604 13.972554,113.236160 11.591269,99.498146 
	C3.215233,51.175449 33.830013,17.597849 72.252548,12.206293 
	C96.003723,8.873464 116.541245,17.130787 130.473267,37.557228 
	C143.684204,56.926453 151.187988,78.805489 156.301361,101.562263 
	C157.503433,106.912033 158.920258,112.225082 160.502518,117.475395 
	C163.444092,127.236221 159.892044,135.411636 151.065689,138.711121 
	C142.582092,141.882477 133.892792,137.700256 130.191849,128.455292 
	C126.087791,118.203384 124.785393,107.188622 121.791664,96.624489 
	C118.229820,84.055573 113.356468,72.049347 107.001068,60.671574 
	C97.600037,43.841354 79.543449,38.893288 62.972168,48.859604 
	C50.918442,56.108967 43.581512,66.077446 42.874161,81.163200 
	C42.196964,95.605789 46.989685,107.995514 53.450939,120.057800 
	C65.724823,142.971497 79.781364,164.852539 93.004356,187.211365 
	C109.768562,215.558044 126.643677,243.949158 139.653778,274.350555 
	C141.088516,277.703186 142.745850,280.922119 145.432495,284.545441 
	C151.261246,276.610535 157.018631,269.159882 162.351562,261.416901 
	C169.356171,251.246826 176.803513,241.437546 185.055542,232.264740 
	C187.688583,229.337906 188.424316,227.138290 186.329758,223.172897 
	C175.276718,202.247574 189.397964,178.976822 212.963242,177.522476 
	C237.709305,175.995255 256.756317,186.620987 273.070801,203.643845 
	C276.683472,207.413376 279.343933,207.659012 283.687286,205.251022 
	C295.737976,198.570038 306.849121,190.928375 315.391418,179.835907 
	C320.583557,173.093750 329.355530,171.686111 336.542938,175.746689 
	C343.320190,179.575531 346.054169,187.609238 343.254761,195.752274 
	C342.218475,198.766663 341.398956,201.793488 341.343994,205.001007 
	C340.695923,242.808731 338.714691,280.612457 339.455627,318.419891 
	C340.285339,360.760040 348.160278,401.744843 366.910004,440.129608 
	C369.932770,446.317871 372.671295,452.797089 378.124939,458.050781 
	C380.694183,450.149231 380.946716,442.315338 381.559753,434.629578 
	C383.469635,410.685455 383.522156,386.678650 381.544678,362.750488 
	C379.778534,341.379089 377.007568,320.092743 374.927734,298.744720 
	C372.395294,272.750488 369.014618,246.789612 369.840302,220.589630 
	C370.475586,200.431595 374.968597,181.320267 387.021271,164.643646 
	C402.954742,142.597366 432.341827,138.001907 454.259430,154.288498 
	C469.218414,165.404312 479.566864,180.630554 490.014496,195.708298 
	C491.040131,197.188431 491.986420,198.723557 493.069336,200.386337 
	C497.753143,198.710602 499.590027,194.344818 502.939575,191.858200 
	C509.910706,186.683044 510.994232,179.885681 510.836365,171.732742 
	C510.485321,153.603668 509.747589,135.393143 512.709900,117.376678 
	C516.801758,92.490746 522.002991,67.886124 536.222473,46.400288 
	C541.894775,37.829327 548.984131,30.289270 559.256165,27.308899 
	C581.893921,20.740732 601.971985,29.863201 609.123718,53.642857 
	C615.036072,73.301796 612.145691,92.881004 604.680115,111.764900 
	C595.417603,135.194077 580.626404,155.052429 564.071350,173.725311 
	C558.325012,180.206772 552.526489,186.642181 546.723267,193.072845 
	C545.362183,194.581070 544.077087,196.031631 544.248352,198.291092 
	C545.341614,212.711349 546.596497,227.111465 549.304749,241.340622 
	C549.390015,241.788574 549.730225,242.187988 550.180359,243.046005 
	C552.945007,240.218430 553.999023,236.717239 555.481445,233.536606 
	C564.917297,213.291626 576.561768,194.578491 592.805725,178.999710 
	C599.223511,172.844696 605.854065,167.164322 614.979858,165.250015 
	C625.240967,163.097534 635.540649,168.942749 638.460022,178.936584 
	C639.775452,183.439774 640.219849,188.030609 640.386047,192.726562 
	C641.218506,216.248978 638.224487,239.659149 638.410278,263.147766 
	C638.570557,283.419312 641.638184,303.235626 649.187378,322.202209 
	C651.736755,328.607269 654.634583,334.774689 660.326172,339.067688 
	C665.406250,342.899445 668.811462,342.746002 673.804504,338.786407 
	C682.882385,331.587494 687.663696,321.456909 692.528076,311.397095 
	C701.109924,293.649292 707.894897,275.263947 712.118835,255.965485 
	C712.627808,253.640137 712.672485,251.345596 712.675903,249.022263 
	C712.700134,232.702042 712.301331,216.365891 713.759216,200.087158 
	C714.343323,193.564606 715.775024,187.092438 721.114807,182.596588 
	C726.566772,178.006317 732.947693,177.420578 739.459229,179.923813 
	C746.224121,182.524368 749.418152,188.082001 750.278381,194.945663 
	C752.266602,210.808060 750.433960,226.602875 747.486572,242.077728 
	C743.948608,260.653473 747.900696,277.226685 758.631958,292.060669 
	C772.576233,311.336060 793.847412,315.157257 814.184021,302.791504 
	C824.994263,296.218323 833.805786,287.390167 841.324707,277.259979 
	C841.994873,276.357086 842.412598,275.266876 843.219482,273.753754 
	C837.960510,273.124908 833.045532,272.839417 828.254822,271.911957 
	C807.644958,267.921967 794.474792,249.615768 796.918213,227.498138 
	C799.256592,206.330460 808.728027,188.643250 825.938293,175.863434 
	C842.740540,163.386642 860.700684,160.434570 879.391846,172.120651 
	C881.200928,173.251709 882.833984,172.939804 884.635010,172.642746 
	C895.674988,170.821838 904.106201,177.732101 904.290649,188.922607 
	C904.416931,196.586548 904.118347,204.258240 904.281067,211.920715 
	C904.782776,235.536880 904.827209,259.200256 911.263733,282.241486 
	C914.787231,294.854950 920.128540,306.636871 927.101074,317.680878 
	C928.689941,320.197571 930.444275,322.801239 932.695801,324.676544 
	C945.768250,335.564575 953.750122,334.174225 959.899780,319.900543 
	C967.059204,303.283112 970.383728,285.877136 969.519897,267.824280 
	C968.826172,253.324890 956.044678,243.874237 942.328735,246.003723 
	C933.800110,247.327881 925.690247,241.371094 923.984558,232.707870 
	C922.394714,224.633179 928.432007,215.699417 936.698486,213.894196 
	C957.047729,209.450363 982.813049,221.232010 993.459045,239.374512 
	C998.931824,248.700974 1001.789368,258.613312 1001.879578,269.277740 
	C1002.089539,294.102020 998.039429,318.132263 985.885132,340.070221 
	C968.892456,370.741364 938.713867,369.086670 916.349365,353.197144 
	C906.577332,346.254333 900.172058,336.528748 894.543274,326.217712 
	C887.566772,313.437714 882.266724,299.996429 878.797607,285.843964 
	C878.455322,284.447601 878.453308,282.918427 877.032410,281.429749 
	C869.887329,294.119293 861.155029,305.371307 850.727112,315.300537 
	C837.437988,327.954285 822.424988,337.963837 804.182068,341.101013 
	C780.429993,345.185608 759.290161,338.823578 741.808716,321.793335 
	C737.792419,317.880585 734.112732,313.622284 729.544983,308.739197 
	C726.921692,314.371735 724.553101,319.399658 722.233032,324.449860 
	C715.938354,338.151489 708.640808,351.087982 697.358398,361.536713 
	C678.816895,378.708282 654.898315,378.771851 636.414673,361.395630 
	C625.973206,351.579773 620.466614,338.978241 616.041382,325.773193 
	C607.409119,300.014313 605.097900,273.529907 606.434814,246.495651 
	C607.005249,234.960953 608.526001,223.401474 607.544250,211.095184 
	C600.092102,218.644699 595.237061,227.185669 590.653748,235.774979 
	C579.304626,257.043823 570.355896,279.206116 567.755554,303.460571 
	C566.793701,312.432220 567.283081,321.444153 567.446533,330.432587 
	C567.630371,340.544952 562.512634,347.929901 554.013489,349.212646 
	C544.743042,350.611786 536.719666,345.470306 534.095581,335.702301 
	C530.125122,320.921906 527.430359,305.851288 524.692200,290.796875 
	C520.916260,270.036682 517.256470,249.258698 514.520630,227.785233 
	C510.170074,229.832794 508.166656,231.838654 510.014099,236.717224 
	C516.638489,254.210770 519.380432,272.695770 515.004517,290.694885 
	C508.754517,316.402588 495.197174,337.602997 468.994263,347.857391 
	C461.599243,350.751373 453.809357,351.817596 445.925385,350.890198 
	C425.334991,348.468231 412.494324,329.471039 416.068573,307.860352 
	C418.857574,290.997192 427.649628,277.212646 437.138550,263.650116 
	C445.482086,251.724655 455.240387,241.007629 465.512207,230.766052 
	C469.068970,227.219772 469.919983,224.485474 466.996307,219.718231 
	C459.638733,207.721100 451.199280,196.624069 441.828918,186.191940 
	C440.170563,184.345703 438.208435,182.738098 436.237610,181.212738 
	C427.669037,174.580780 418.707794,175.819473 412.454559,184.673401 
	C407.355408,191.893219 404.738831,200.219543 403.442841,208.815002 
	C401.348175,222.707245 401.890198,236.709335 403.109955,250.652588 
	C404.703888,268.873352 406.517548,287.075317 408.300476,305.279083 
	C410.066895,323.314301 411.987305,341.334625 413.703949,359.374451 
	C415.727417,380.638855 415.648712,401.940948 414.635895,423.259369 
	C413.908600,438.566681 412.801544,453.832886 409.215759,468.774628 
	C407.386292,476.397919 405.197357,484.045380 398.901001,489.447540 
	C389.140503,497.821930 374.313965,497.363708 362.969604,488.527649 
	C353.981995,481.527161 347.606049,472.451141 342.161194,462.599915 
	C324.752686,431.103088 315.871887,396.943481 310.595306,361.660065 
	C309.662231,355.420837 308.929718,349.151672 308.074341,342.900482 
	C308.010193,342.431702 307.701630,341.996338 307.260895,340.977112 
	C305.676727,343.447052 304.366852,345.664124 302.890686,347.764374 
	C282.936249,376.155029 245.393021,380.600800 218.165771,358.206085 
	C202.321320,345.173859 194.914337,327.817383 190.757874,308.504761 
	C188.860489,299.688690 188.405991,290.745392 188.537704,280.827759 
	C178.351486,293.935638 169.261063,306.744812 160.996155,320.140991 
	C159.317825,322.861298 161.011841,325.365021 161.777100,327.790070 
	C168.194077,348.124756 173.516815,368.734680 177.535492,389.673737 
	C183.683716,421.708710 185.721741,454.134766 183.981750,486.589203 
	C182.518082,513.889832 175.830048,540.187500 161.729980,564.105225 
	C148.089111,587.244080 124.388756,597.929504 98.887589,592.259521 
	C87.029076,589.622925 78.250702,582.577393 71.811584,572.428894 
	C66.207336,563.596191 62.703094,553.939026 60.369911,543.364868 
M141.862640,377.453125 
	C140.405685,371.670044 138.948715,365.886993 137.178970,358.862335 
	C135.265854,362.270416 134.028610,364.245239 133.009583,366.326843 
	C126.053368,380.536591 118.604736,394.535736 112.325180,409.040192 
	C97.314713,443.711090 86.597748,479.426086 89.342285,517.880371 
	C90.245674,530.538025 91.890877,543.093201 98.642174,554.272522 
	C102.389435,560.477478 107.567368,562.508057 114.783134,561.375732 
	C123.343903,560.032166 129.390091,555.365417 133.688309,548.065430 
	C144.735016,529.304199 150.358139,508.729034 151.472656,487.293732 
	C153.380859,450.593781 151.149963,414.087036 141.862640,377.453125 
M269.457947,255.028809 
	C268.843445,253.846329 268.094177,252.713272 267.639099,251.472336 
	C266.141388,247.388489 263.776672,246.311081 259.213745,247.115784 
	C249.398346,248.846725 239.430359,250.067764 229.414001,248.510345 
	C225.906799,247.965027 224.880417,249.829437 224.120499,252.855164 
	C220.459656,267.431213 219.933228,282.312042 221.629913,297.013184 
	C223.181244,310.454865 226.950073,323.579651 238.283997,332.792389 
	C245.431152,338.601929 253.356384,342.518372 262.661041,339.320740 
	C272.089355,336.080627 278.334564,329.677582 279.845062,319.217072 
	C283.057404,296.970612 279.898041,275.802795 269.457947,255.028809 
M559.627747,70.100540 
	C548.433350,93.874634 543.439392,118.924538 543.220154,145.867416 
	C544.849792,145.139008 545.575562,145.035294 545.946472,144.616974 
	C560.910522,127.740997 573.176147,109.239571 578.414307,86.989769 
	C580.303467,78.965233 581.151978,70.493561 578.000732,62.411846 
	C575.793762,56.751945 571.631226,55.885345 567.038818,59.857689 
	C563.969971,62.512260 561.868225,65.910835 559.627747,70.100540 
M842.093567,204.587494 
	C836.075317,210.586426 831.761292,217.584427 830.003906,225.957352 
	C829.089966,230.311829 827.613525,235.234055 831.604187,238.584244 
	C835.598633,241.937683 840.664062,241.125412 845.402283,239.755295 
	C846.816040,239.346466 848.216125,238.690048 849.447021,237.880249 
	C860.375854,230.689941 867.596008,221.646591 865.795837,207.420731 
	C864.802612,199.571579 857.936218,195.044052 850.715881,198.379745 
	C847.690857,199.777283 845.008240,201.766724 842.093567,204.587494 
M458.599365,317.229828 
	C476.128357,310.379944 490.239410,280.681824 482.346436,261.226990 
	C480.794037,261.220825 480.072632,262.492310 479.183289,263.406555 
	C469.147675,273.723938 460.797363,285.306396 453.731201,297.812012 
	C451.361938,302.005035 449.167511,306.338226 448.424377,311.197266 
	C447.372803,318.073242 449.242981,319.771332 455.962219,318.102844 
	C456.607147,317.942688 457.235046,317.714050 458.599365,317.229828 
M298.680725,240.977188 
	C301.158020,246.574768 303.635315,252.172348 306.112610,257.769928 
	C306.582031,257.674957 307.051453,257.579987 307.520905,257.485016 
	C307.422272,248.397400 308.782043,239.344467 308.104767,230.144714 
	C304.706573,230.034088 302.921722,232.127487 300.616394,232.878906 
	C296.273468,234.294495 295.801758,236.839401 298.680725,240.977188 
M231.801788,216.547699 
	C233.398315,216.518005 235.054077,217.026733 237.051422,215.792923 
	C231.867416,211.810944 226.383682,209.921646 219.055222,210.173141 
	C223.627838,212.562866 226.363007,216.222412 231.801788,216.547699 
z"/>
<path fill="#ffffff" opacity="1.000000" stroke="none" 
	d="
M548.117676,613.806519 
	C575.655212,624.093872 602.630066,621.694458 628.866699,611.150940 
	C658.631226,599.189758 684.023621,580.996399 702.815735,554.465698 
	C704.351013,552.298157 705.792175,550.063965 707.090088,547.583923 
	C701.619568,551.626770 695.757385,554.796692 689.112305,556.097473 
	C670.919434,559.658569 655.039978,548.095947 652.546143,529.602051 
	C648.898010,502.547607 664.741882,472.262878 689.041321,459.843567 
	C712.976013,447.610718 737.795471,457.592896 747.422791,483.085754 
	C751.459167,493.773926 752.434814,504.731964 751.421204,515.929382 
	C750.118774,530.317688 767.519226,542.729309 780.790588,536.463684 
	C793.255249,530.578918 801.777893,520.620422 806.850159,508.019867 
	C809.207581,502.163391 807.529480,495.507263 808.487915,489.220520 
	C809.885681,480.052521 809.506531,480.032196 801.256836,475.681793 
	C793.210022,471.438477 786.019958,466.098419 780.576172,458.698120 
	C766.618103,439.723633 771.645691,416.428802 792.383179,403.735504 
	C805.740417,395.559631 820.443604,393.835083 835.682617,394.689148 
	C852.748718,395.645538 868.941223,399.564911 883.291504,409.283722 
	C899.295471,420.122498 908.175110,435.873657 913.003418,454.075195 
	C914.297852,458.954712 916.592102,460.219360 921.302002,460.200531 
	C945.183594,460.105103 968.768005,457.186401 992.272522,453.332245 
	C1002.234741,451.698700 1010.545410,457.071411 1012.150696,466.189880 
	C1013.768860,475.380646 1007.928223,483.521637 997.992493,485.136230 
	C973.839294,489.061127 949.635071,492.628601 925.059753,492.373779 
	C923.560974,492.358246 922.055054,492.538940 920.563232,492.449036 
	C916.068909,492.178253 914.345398,494.431305 913.349731,498.701996 
	C908.266907,520.503418 899.285278,539.960938 879.659302,552.798279 
	C861.820740,564.466431 840.202026,562.743530 824.540283,548.236633 
	C823.695618,547.454285 822.812195,546.713867 821.398071,545.472046 
	C797.621887,571.902222 770.359009,578.058533 738.659363,558.822388 
	C734.185303,566.145447 729.301575,573.414734 723.878174,580.327942 
	C708.012695,600.551697 688.561279,616.458618 666.289368,629.097900 
	C646.101990,640.554077 624.726929,648.768433 601.646484,651.694458 
	C549.438599,658.313171 500.091919,634.717590 477.309875,594.689392 
	C468.806671,579.749268 465.981659,563.453735 466.000916,546.647278 
	C466.027069,523.791260 468.385986,501.158020 474.726654,479.074249 
	C481.396088,455.845276 492.005493,434.587036 508.302979,416.714264 
	C521.574768,402.159668 536.917725,390.263733 557.159546,386.559357 
	C585.710022,381.334412 609.628357,394.609985 620.288757,421.573090 
	C626.527588,437.352814 627.876892,453.837067 628.125061,470.556152 
	C628.320557,483.729248 626.079773,496.743530 625.968384,509.920807 
	C625.883484,519.968018 618.328796,526.647522 609.391785,526.205261 
	C599.981689,525.739441 593.978699,518.727051 593.644409,508.453918 
	C593.161438,493.612488 596.682861,478.981781 595.679321,464.118225 
	C594.983093,453.806610 594.245667,443.546539 590.258118,433.822449 
	C586.585388,424.866150 580.686829,418.268402 570.612244,417.602875 
	C563.394714,417.126129 556.463562,419.410522 550.269531,423.381226 
	C537.994568,431.249939 528.258423,441.505890 520.697327,454.006378 
	C507.193054,476.332428 501.044434,500.755981 499.201294,526.508667 
	C498.416840,537.469666 497.554321,548.409729 499.136536,559.381470 
	C501.635406,576.709229 510.763031,589.991821 524.361267,600.398132 
	C531.514587,605.872375 539.421021,610.194763 548.117676,613.806519 
M877.464172,451.027710 
	C874.566650,444.869293 870.545471,439.517059 864.752563,435.944794 
	C849.819092,426.735718 833.495056,425.462524 816.620789,428.381317 
	C813.515930,428.918365 810.614624,430.352966 808.034729,432.263977 
	C805.074829,434.456421 804.551025,436.897430 807.111023,439.846771 
	C810.586182,443.850464 815.064026,446.345978 819.719299,448.629333 
	C833.426392,455.352692 848.165894,457.702271 863.179199,458.612305 
	C868.702881,458.947174 874.276245,460.116669 879.851135,459.254486 
	C880.236938,456.045441 878.727844,453.956116 877.464172,451.027710 
M846.287292,524.255188 
	C849.955566,528.014343 854.472534,528.821960 859.172485,527.141602 
	C868.995972,523.629395 881.276611,503.745636 880.666138,492.489441 
	C871.950562,491.779144 863.193176,491.038666 854.430969,490.359406 
	C846.699646,489.760101 846.731506,489.798065 845.010498,497.325195 
	C844.380676,500.080017 843.853333,502.920624 842.744629,505.491516 
	C839.805298,512.307373 841.730835,518.150085 846.287292,524.255188 
M703.433350,493.252167 
	C703.622009,491.946350 705.128662,490.792908 704.058838,489.235291 
	C691.603333,495.532684 682.930908,511.118195 685.832458,522.437439 
	C693.787354,514.025696 699.050110,504.328491 703.433350,493.252167 
z"/>
<path fill="#ffffff" opacity="1.000000" stroke="none" 
	d="
M775.240234,133.972885 
	C773.268555,146.633072 767.439697,153.128616 756.822144,154.920837 
	C744.624146,156.979858 735.293884,148.609436 734.516541,136.251144 
	C733.406494,118.601776 750.052429,110.495712 764.128967,116.643219 
	C771.505066,119.864502 774.676270,125.846817 775.240234,133.972885 
z"/>
</svg>