<svg version="1.1" id="Layer_1" xmlns="http://www.w3.org/2000/svg" xmlns:xlink="http://www.w3.org/1999/xlink" x="0px" y="0px"
	 width="100%" viewBox="0 0 1024 464" enable-background="new 0 0 1024 464" xml:space="preserve">
<path fill="#ffffff" opacity="1.000000" stroke="none" 
	d="
M664.707275,208.357986 
	C666.159424,198.032745 665.889038,187.748215 663.568848,177.585892 
	C660.233337,162.976349 652.878906,150.798126 637.405457,147.893631 
	C611.942932,143.114090 589.119873,148.916702 571.457214,169.365875 
	C570.446777,170.535721 569.860229,172.374039 567.744446,172.361710 
	C566.220764,170.835938 566.769653,168.892044 566.845215,167.177628 
	C567.541138,151.387405 568.254700,135.604538 569.472046,119.834335 
	C572.215271,84.295815 577.470520,49.152603 584.892456,14.311804 
	C586.106689,8.611841 585.196228,7.364029 579.405701,7.335254 
	C566.744507,7.272336 554.076843,7.542674 541.424011,7.210770 
	C536.301392,7.076395 534.304504,9.092717 533.534241,13.864388 
	C528.329224,46.107635 525.426331,78.579178 524.421265,111.190323 
	C523.302612,147.486526 523.431580,183.786835 527.366516,219.960251 
	C528.679321,232.027969 530.454529,244.025986 533.454834,255.814911 
	C534.290649,259.099060 535.915466,261.017853 539.661438,260.967804 
	C549.322205,260.838745 558.986145,260.903625 568.648438,260.961273 
	C572.277954,260.982910 573.761414,259.818268 572.873108,255.827332 
	C570.631226,245.755066 569.441223,235.521149 568.419128,225.241882 
	C566.477966,205.719238 584.060425,187.132019 603.562073,188.527084 
	C610.793640,189.044388 614.405579,191.998306 616.338623,199.012100 
	C618.650879,207.401855 616.797668,215.579941 614.700012,223.626282 
	C607.868530,249.830551 595.534363,273.592224 581.762695,296.685883 
	C579.314392,300.791412 576.765808,304.837128 574.341553,308.783417 
	C576.022461,310.844818 577.928711,310.653076 579.721375,310.622864 
	C593.377808,310.392639 607.032837,310.061493 620.689941,309.905304 
	C623.919922,309.868378 625.830750,308.412842 627.529053,305.816406 
	C634.931152,294.499207 641.506042,282.726715 647.019714,270.392242 
	C655.751892,250.857407 662.514221,230.724060 664.707275,208.357986 
M159.806183,323.612946 
	C174.386032,323.980347 187.908218,320.430359 199.963440,312.158875 
	C220.765640,297.885742 229.029175,274.164551 223.170151,246.721390 
	C218.943634,226.924835 210.068253,209.033127 200.684265,191.356506 
	C192.648926,176.220413 183.457092,161.610764 180.284943,144.366440 
	C178.922531,136.960190 177.830185,129.567352 180.022736,122.122955 
	C182.287277,114.434105 187.999496,109.706657 195.064362,109.699913 
	C201.957413,109.693344 206.954117,114.195076 209.133423,122.314980 
	C210.848297,128.704422 210.780167,135.244934 210.054001,141.675903 
	C209.513260,146.464706 211.213821,148.062439 215.666000,148.103134 
	C226.329575,148.200546 236.996231,148.315063 247.652695,148.681931 
	C252.716324,148.856232 254.508713,146.382507 254.625977,141.784225 
	C254.787750,135.442032 254.581482,129.128387 253.638947,122.846344 
	C251.015152,105.358856 244.062256,90.206886 229.256363,79.734650 
	C215.242462,69.822601 199.406082,67.572105 182.591476,69.286797 
	C149.268814,72.684937 126.628563,102.963577 133.018967,135.706024 
	C137.057983,156.400711 145.453629,175.353271 155.479141,193.688858 
	C162.512238,206.551666 169.914322,219.218903 175.867233,232.644547 
	C180.382385,242.827560 183.024826,253.381775 182.300690,264.637787 
	C181.578430,275.864594 175.856857,283.076172 166.599396,284.223999 
	C156.642990,285.458527 148.737976,279.886719 145.452042,269.141663 
	C143.423431,262.508087 143.082230,255.704727 144.207153,248.870514 
	C144.789490,245.332626 143.709427,243.316162 139.915710,243.312790 
	C127.916534,243.302109 115.917343,243.315262 103.918159,243.310425 
	C101.053032,243.309280 99.614220,244.808853 99.450165,247.578339 
	C98.580788,262.254700 99.982208,276.581512 106.829498,289.869049 
	C117.721306,311.005249 135.743271,321.302307 159.806183,323.612946 
M347.343384,319.304352 
	C349.401123,332.188324 353.167328,344.546417 358.411530,356.499084 
	C360.098206,360.343414 362.383820,362.046387 366.732391,361.994171 
	C382.890259,361.800018 399.052155,361.961243 415.212372,361.921173 
	C416.948456,361.916870 418.887787,362.437744 420.898773,360.426392 
	C406.803864,343.478546 396.749756,324.360718 391.603455,302.815552 
	C386.415131,281.094543 385.732697,259.558289 393.697845,238.192154 
	C394.766754,238.433624 395.302734,238.429840 395.691742,238.667053 
	C396.683655,239.271881 397.649353,239.935043 398.556610,240.661026 
	C414.637207,253.528595 432.981995,259.173035 453.481689,257.716217 
	C472.813416,256.342346 489.292450,248.752380 501.863770,233.891037 
	C525.550293,205.889740 517.972656,160.462509 478.077271,147.441315 
	C454.374115,139.705017 433.210724,147.110229 412.970367,159.164627 
	C410.669373,160.535034 410.634918,162.422821 411.220825,164.765549 
	C413.381287,173.404099 417.023804,181.396927 421.379211,189.115433 
	C423.290771,192.503036 425.401642,192.979813 428.552307,190.499527 
	C435.195068,185.270218 442.738312,181.840805 451.027679,180.106552 
	C463.507507,177.495636 474.357269,183.218826 477.358948,193.980194 
	C481.197662,207.742279 470.390594,221.383240 455.047974,222.411148 
	C444.209900,223.137253 436.172638,217.866043 429.140015,210.611191 
	C413.477600,194.453812 404.790283,174.635376 399.855591,153.025208 
	C398.858704,148.659637 397.221802,146.204453 392.458771,146.015076 
	C381.987000,145.598694 371.521423,144.971298 361.064117,144.269333 
	C356.311798,143.950348 354.878265,146.095474 355.262085,150.540482 
	C356.573425,165.727356 359.858124,180.464264 365.604889,194.563400 
	C367.209381,198.499878 367.044861,201.551361 365.178864,205.334854 
	C347.514252,241.152298 341.785278,278.917847 347.343384,319.304352 
M758.411682,318.101379 
	C757.498047,314.483032 754.608398,314.349762 751.696472,314.345215 
	C739.701782,314.326477 727.705017,314.462494 715.713440,314.269562 
	C710.989746,314.193604 709.011353,316.000336 709.175537,320.725525 
	C709.447266,328.549194 709.269958,336.376190 708.320251,344.161438 
	C707.767639,348.690765 707.510803,353.317078 705.106384,357.292389 
	C702.788818,357.015167 702.027100,355.378387 700.941284,354.179352 
	C696.794189,349.600220 692.378052,345.327484 687.402344,341.634674 
	C660.491455,321.662354 624.776855,320.616516 599.258179,339.085449 
	C566.194275,363.015106 565.504883,406.739410 598.311890,429.926819 
	C622.672058,447.144073 648.853577,444.283752 675.190613,434.825714 
	C677.331787,434.056763 677.687805,432.288025 677.412109,430.337769 
	C676.037842,420.615295 674.340271,410.987366 670.915161,401.699921 
	C669.472778,397.788788 667.619690,397.362976 664.206299,399.143616 
	C659.912720,401.383362 655.274841,402.788635 650.548218,403.853729 
	C641.177795,405.965210 631.969666,405.927216 623.410400,400.984314 
	C616.792725,397.162689 613.610107,391.077484 613.737061,383.524170 
	C613.864075,375.957611 617.248840,370.063568 624.105103,366.531982 
	C633.058411,361.920288 642.258667,361.479431 651.591980,365.375366 
	C662.227600,369.814941 668.650208,378.428589 673.714355,388.210663 
	C681.439453,403.132935 684.287903,419.313477 685.156738,435.883301 
	C685.378967,440.122101 686.777466,441.787170 691.116272,441.709564 
	C702.440918,441.506989 713.773193,441.540009 725.099243,441.698761 
	C729.171265,441.755829 730.845581,440.272339 730.680725,436.135803 
	C730.308533,426.798401 729.215576,417.557037 727.097412,408.473236 
	C726.295776,405.035461 726.882080,402.545135 729.259277,399.875031 
	C740.639832,387.091797 748.158203,372.236908 752.884155,355.797211 
	C756.362488,343.697571 757.339844,331.299469 758.411682,318.101379 
M773.840637,260.631805 
	C793.404358,266.747009 812.344971,263.323242 831.103638,256.927277 
	C833.988159,255.943741 834.942505,253.944534 834.531738,251.111389 
	C833.337891,242.876404 832.045654,234.660599 829.403625,226.729584 
	C826.806152,218.932144 826.337830,218.793259 818.504089,221.895905 
	C807.080750,226.420242 795.423523,228.652542 783.511658,223.905624 
	C775.204285,220.595078 771.148010,214.011551 770.851440,205.239227 
	C770.578491,197.168167 775.755371,190.035202 783.733215,186.748276 
	C788.608337,184.739716 793.695801,184.048950 798.898682,184.455597 
	C812.752808,185.538437 821.575317,193.972427 828.295166,205.140747 
	C837.909058,221.119247 841.318604,238.848801 842.207214,257.165863 
	C842.397461,261.088135 843.502075,262.978851 847.695984,262.930115 
	C859.192261,262.796570 870.691956,262.830200 882.188843,262.940918 
	C886.216431,262.979706 887.818970,261.403564 887.751770,257.275085 
	C887.604736,248.237732 886.481567,239.326172 884.362244,230.592697 
	C883.414673,226.688065 884.262756,224.025375 886.814575,221.128342 
	C906.734131,198.514282 913.772095,171.169769 915.592468,141.945709 
	C915.835876,138.038147 914.235229,135.939224 910.174438,135.939026 
	C897.344360,135.938431 884.514221,135.903290 871.684143,135.904526 
	C868.005615,135.904877 866.223572,137.696747 866.279663,141.478775 
	C866.361206,146.976059 866.549805,152.497437 866.154846,157.969711 
	C865.648621,164.983383 865.558167,172.154861 862.485535,178.671661 
	C859.820129,178.465729 859.042114,176.582642 857.885010,175.284988 
	C850.703979,167.231461 842.412903,160.566818 832.720947,155.849182 
	C802.943237,141.354614 768.419922,144.684875 746.228088,169.969025 
	C731.598389,186.637161 726.651733,205.797211 735.420837,226.981323 
	C742.491821,244.063156 755.866882,254.511429 773.840637,260.631805 
M506.647369,415.121826 
	C502.848663,413.406891 499.225525,411.429321 495.799072,409.004669 
	C474.191589,393.714264 473.433105,359.356689 484.318817,341.508087 
	C489.445557,333.102051 496.930939,328.518311 506.552856,327.082611 
	C521.437927,324.861450 530.111633,332.198883 529.944519,347.167694 
	C529.911438,350.130615 530.763123,351.592712 533.787537,351.586945 
	C543.947571,351.567505 554.107605,351.565887 564.267639,351.568054 
	C567.041321,351.568634 568.342773,350.311951 568.863831,347.464081 
	C570.443176,338.832336 569.331848,330.441528 566.273621,322.443115 
	C559.161560,303.842438 544.519226,294.711304 525.698059,290.847748 
	C492.642914,284.062256 462.442566,298.416901 447.412842,328.542358 
	C439.070007,345.264587 436.781921,362.989716 439.231750,381.472748 
	C443.053955,410.309967 456.725067,432.870667 481.777527,447.954865 
	C505.916443,462.488983 532.210632,463.411896 559.143799,459.076752 
	C566.103455,457.956543 566.360229,457.609283 566.438293,450.377899 
	C566.537170,441.220764 566.386169,432.061127 566.446228,422.903229 
	C566.483154,417.274963 566.153503,417.058990 560.485596,418.001221 
	C542.603271,420.974030 524.773132,422.373688 506.647369,415.121826 
M781.903687,429.568176 
	C809.063354,447.664886 843.608704,446.155884 867.931580,425.810150 
	C894.955566,403.205078 895.164612,364.419525 868.385254,341.626526 
	C843.597656,320.528748 800.974487,320.590546 776.306274,341.813904 
	C764.262207,352.175995 756.903870,365.100464 756.409668,381.179260 
	C755.779846,401.673615 765.004456,417.314819 781.903687,429.568176 
M326.151337,162.354675 
	C303.978729,148.342575 280.646515,147.078857 257.033051,157.525864 
	C237.996307,165.948059 226.080811,180.945679 224.636734,202.050705 
	C223.265686,222.088348 232.337463,237.961777 248.913757,249.003113 
	C270.787109,263.572784 294.216064,265.199799 317.709839,253.762543 
	C356.194122,235.027573 360.650452,187.649155 326.151337,162.354675 
M690.531250,255.653671 
	C700.190918,255.653610 709.850647,255.670853 719.510254,255.647903 
	C726.908325,255.630325 727.360474,254.999222 725.341492,247.809280 
	C717.334229,219.294037 715.078613,190.244888 717.314697,160.787949 
	C717.692810,155.805756 716.626221,154.345749 711.669617,154.293213 
	C702.510681,154.196121 693.348877,154.353104 684.190552,154.230804 
	C680.332031,154.179276 678.313049,155.601685 678.027161,159.620255 
	C677.378174,168.741638 676.243530,177.836639 675.843567,186.965897 
	C674.991516,206.417953 674.601379,225.861938 676.856689,245.293610 
	C678.271484,257.483276 678.505920,255.467712 690.531250,255.653671 
M729.484619,128.027084 
	C741.914490,118.939400 745.852112,103.897682 739.186279,90.966591 
	C732.451538,77.901787 717.642273,71.585373 704.174683,76.199905 
	C693.095398,79.996117 686.309509,87.923935 684.570496,99.338852 
	C682.775085,111.124664 686.817200,121.142418 696.875061,127.971176 
	C707.302002,135.050507 718.117188,134.651779 729.484619,128.027084 
z"/>
<path fill="#272727" opacity="1.000000" stroke="none" 
	d="
M804.844788,400.270752 
	C797.560608,393.802551 794.932617,386.124573 797.759705,377.109161 
	C800.574097,368.133850 807.578735,364.124023 816.395996,362.676544 
	C820.192017,362.053375 823.955139,362.035156 827.805969,362.561707 
	C839.753906,364.195374 847.673096,371.964203 848.182983,382.872009 
	C848.683472,393.578583 840.780579,403.066071 829.059143,404.958374 
	C820.698547,406.308136 812.417542,405.695953 804.844788,400.270752 
z"/>
<path fill="#272727" opacity="1.000000" stroke="none" 
	d="
M311.359497,204.166534 
	C311.626251,213.548065 307.770081,220.246307 299.632538,223.739227 
	C289.318176,228.166534 278.984833,227.721191 269.874664,220.674606 
	C259.262390,212.466187 260.714996,195.595749 272.225159,188.781448 
	C276.685181,186.141006 281.596008,185.386688 286.592377,185.143158 
	C300.216888,184.479141 309.900665,191.817596 311.359497,204.166534 
z"/>
</svg>