<svg version="1.1" id="Layer_1" xmlns="http://www.w3.org/2000/svg" xmlns:xlink="http://www.w3.org/1999/xlink" x="0px" y="0px"
	 width="100%" viewBox="0 0 1730 832" enable-background="new 0 0 1730 832" xml:space="preserve">
<path fill="#FFFFFF" opacity="1.000000" stroke="none" 
	d="
M314.102386,128.602859 
	C296.425812,145.449524 279.730255,162.876465 266.008331,183.486923 
	C246.383743,212.963196 241.869049,243.602005 253.339752,276.562317 
	C262.913971,304.073273 280.404877,325.465546 305.090424,341.375397 
	C328.657471,356.564362 351.914154,372.303986 374.595459,388.781403 
	C405.147491,410.976715 435.024109,434.102081 465.178192,456.844788 
	C490.033112,475.590698 512.635010,496.513458 528.588867,523.672363 
	C536.260376,536.731812 543.352295,549.895813 542.436707,566.021118 
	C541.578979,581.125793 537.253235,594.453491 525.663757,604.500549 
	C514.763123,613.950439 501.863831,620.082764 488.374573,625.007507 
	C469.293976,631.973450 449.451599,635.173523 429.296417,635.601074 
	C417.053955,635.860779 404.716034,634.715088 392.519165,633.333618 
	C372.113220,631.022522 354.479553,621.386414 337.454163,610.696045 
	C327.513763,604.454468 316.919403,598.694824 308.467407,590.751831 
	C286.902893,570.485840 275.385498,545.475525 277.119690,515.168457 
	C278.031647,499.231506 278.749512,483.270874 279.000122,467.312256 
	C279.234985,452.358673 268.370850,442.931091 253.611847,445.424194 
	C225.341537,450.199646 197.141556,455.397339 168.936890,460.553802 
	C144.899063,464.948517 120.762451,468.277710 96.283905,468.867767 
	C74.994911,469.380920 53.705093,470.003479 32.430477,470.921509 
	C16.880507,471.592529 6.995381,480.625793 4.996491,496.066223 
	C2.445919,515.768127 3.529677,535.386536 10.800031,553.978027 
	C24.170036,588.167297 44.091549,618.618286 68.526741,645.711365 
	C90.915817,670.535767 116.695938,691.592896 145.954727,708.395569 
	C170.677734,722.593384 194.124588,738.925903 221.034576,749.238647 
	C237.836166,755.677429 253.624939,764.896851 270.615143,770.670410 
	C291.372589,777.724243 312.800629,782.936523 334.140686,788.112244 
	C364.482758,795.471375 394.886322,802.680237 425.487091,808.843689 
	C464.438171,816.689148 503.881042,815.016418 543.315918,813.310669 
	C569.701538,812.169373 595.803833,809.225037 621.872986,805.170105 
	C648.280396,801.062622 674.322144,795.687073 699.207947,785.801819 
	C721.233032,777.052979 742.852661,767.547607 762.501770,753.856140 
	C792.087585,733.240906 815.220581,707.254028 828.774414,673.810059 
	C843.729797,636.907776 841.610779,599.139954 831.220032,561.418152 
	C825.436646,540.422729 814.585632,521.854980 804.145996,502.982239 
	C788.779236,475.202148 770.065002,449.731812 749.382141,425.978912 
	C733.519653,407.761902 715.153076,391.627136 697.132141,375.420258 
	C683.710815,363.350037 669.414551,352.163696 654.849182,341.482056 
	C642.618835,332.512726 629.151733,325.243805 616.761230,316.474487 
	C605.627380,308.594543 594.005310,301.894165 581.546204,296.356262 
	C571.465149,291.875366 561.715759,286.586517 552.065247,281.214264 
	C540.064514,274.533752 528.503357,267.052338 516.416077,260.541168 
	C498.196747,250.726852 482.336853,237.706116 466.346832,224.836319 
	C464.818207,223.605957 463.331482,221.411911 463.171356,219.549515 
	C462.447083,211.126907 463.902344,203.297852 470.998840,197.540100 
	C475.001007,194.292892 478.773224,190.749863 482.881683,187.648209 
	C500.683350,174.208801 520.336609,165.220474 542.897583,163.920242 
	C552.340820,163.375992 561.930603,163.180054 570.934875,166.808487 
	C594.242554,176.200729 613.494873,191.518616 631.275513,208.860336 
	C632.650696,210.201584 633.510681,212.507950 633.771118,214.476730 
	C634.709106,221.567902 638.659607,226.844254 645.716003,227.942581 
	C656.837585,229.673630 668.039246,231.262863 679.264099,231.889938 
	C717.123901,234.004959 755.013977,235.571686 792.882568,237.538666 
	C820.781677,238.987808 848.591003,241.193176 876.219666,245.783081 
	C886.580872,247.504349 897.421021,247.579269 907.931091,246.832336 
	C919.323425,246.022705 927.589294,238.652847 928.612671,229.150742 
	C929.274292,223.007874 928.638306,216.494858 927.345154,210.410995 
	C921.082581,180.947693 908.045227,154.429382 890.578186,130.111557 
	C859.207275,86.436668 816.993896,57.590122 766.670166,39.597073 
	C721.505127,23.448444 675.087585,15.993157 627.236328,17.938559 
	C607.490723,18.741318 587.693054,19.912321 568.096191,22.343939 
	C537.328430,26.161665 507.416595,34.094238 478.103546,44.178646 
	C438.685028,57.739594 399.042389,70.696297 363.373627,93.165047 
	C346.396393,103.859474 327.935974,112.363930 314.102386,128.602859 
M1624.491699,363.001862 
	C1637.146851,361.296051 1649.805054,359.611938 1662.456421,357.878143 
	C1674.105469,356.281708 1685.872559,355.232727 1697.357178,352.837250 
	C1708.966431,350.415680 1713.576782,339.559631 1708.568115,328.893585 
	C1707.882935,327.434296 1707.392456,325.862366 1706.985474,324.297424 
	C1705.785156,319.680908 1705.203857,314.823822 1703.414551,310.456543 
	C1699.648926,301.265137 1695.439453,292.242645 1691.102051,283.301239 
	C1682.977905,266.553619 1672.630615,251.307770 1658.545532,238.997528 
	C1634.006836,217.551224 1606.186279,201.544830 1575.986938,189.342316 
	C1535.996826,173.183670 1494.582764,163.335556 1451.635986,159.894379 
	C1421.911743,157.512665 1392.175659,156.415482 1362.323120,157.823181 
	C1336.722290,159.030380 1311.230957,160.777908 1286.117920,166.057404 
	C1242.455688,175.236465 1201.371582,191.324112 1163.401245,214.623718 
	C1132.656616,233.489426 1105.403931,256.548798 1082.085938,284.514862 
	C1058.208496,313.151794 1041.289551,345.232147 1030.127441,380.400055 
	C1021.506897,407.560181 1019.563721,435.658417 1020.591797,464.176605 
	C1021.615845,492.585297 1028.019897,519.657715 1038.279663,545.832275 
	C1055.467896,589.682007 1081.094849,628.242310 1114.149658,661.741028 
	C1131.422607,679.246094 1149.228516,696.149414 1168.888428,711.143311 
	C1197.502441,732.966248 1226.776123,753.649963 1259.289307,769.272888 
	C1278.512207,778.509644 1297.649536,788.200989 1317.602783,795.587708 
	C1369.323853,814.734863 1422.796387,821.496460 1477.658691,813.889221 
	C1498.838257,810.952515 1519.593262,805.614807 1539.119751,796.818665 
	C1581.222290,777.852844 1615.186523,748.457520 1644.153687,712.921143 
	C1663.811768,688.804871 1677.257324,660.824646 1693.098022,634.331726 
	C1699.106812,624.282227 1705.150635,614.239502 1711.601929,604.473450 
	C1715.909546,597.952576 1717.029663,591.330261 1713.919067,584.278992 
	C1710.815430,577.243713 1704.800171,574.930298 1697.403320,574.405701 
	C1683.822998,573.442749 1670.237793,572.276794 1656.732788,570.575317 
	C1626.553223,566.773071 1596.483765,561.996155 1566.241821,558.837341 
	C1553.139771,557.468811 1539.603882,558.105103 1526.479004,559.649109 
	C1510.180786,561.566406 1498.095337,572.301270 1485.647949,582.140198 
	C1473.171387,592.002380 1460.461670,601.771973 1446.893677,609.997986 
	C1431.477417,619.344666 1413.717896,621.826233 1395.922729,623.545654 
	C1368.023071,626.241516 1342.033203,620.521606 1318.333374,605.794434 
	C1299.622192,594.167236 1283.734009,579.507202 1270.154541,561.754761 
	C1247.773071,532.495667 1239.923828,499.610687 1242.748291,463.876038 
	C1244.525757,441.388062 1254.880127,422.273773 1270.049561,405.521271 
	C1289.845093,383.659851 1313.917114,370.352264 1343.338257,367.468719 
	C1349.155762,366.898590 1355.591797,367.105469 1361.002075,369.032776 
	C1373.349731,373.431427 1377.263306,381.499908 1375.890259,396.032257 
	C1374.482422,410.933105 1386.096802,421.938538 1400.533203,419.039124 
	C1405.674805,418.006470 1410.723633,416.263824 1415.634033,414.375183 
	C1430.433350,408.682922 1445.063477,402.545502 1459.908081,396.977325 
	C1481.342529,388.937347 1503.495361,383.345123 1526.006104,379.400208 
	C1558.496094,373.706421 1591.076660,368.528564 1624.491699,363.001862 
z"/>
<path fill="#ffffff" opacity="1.000000" stroke="none" 
	d="
M314.352966,128.353363 
	C327.935974,112.363930 346.396393,103.859474 363.373627,93.165047 
	C399.042389,70.696297 438.685028,57.739594 478.103546,44.178646 
	C507.416595,34.094238 537.328430,26.161665 568.096191,22.343939 
	C587.693054,19.912321 607.490723,18.741318 627.236328,17.938559 
	C675.087585,15.993157 721.505127,23.448444 766.670166,39.597073 
	C816.993896,57.590122 859.207275,86.436668 890.578186,130.111557 
	C908.045227,154.429382 921.082581,180.947693 927.345154,210.410995 
	C928.638306,216.494858 929.274292,223.007874 928.612671,229.150742 
	C927.589294,238.652847 919.323425,246.022705 907.931091,246.832336 
	C897.421021,247.579269 886.580872,247.504349 876.219666,245.783081 
	C848.591003,241.193176 820.781677,238.987808 792.882568,237.538666 
	C755.013977,235.571686 717.123901,234.004959 679.264099,231.889938 
	C668.039246,231.262863 656.837585,229.673630 645.716003,227.942581 
	C638.659607,226.844254 634.709106,221.567902 633.771118,214.476730 
	C633.510681,212.507950 632.650696,210.201584 631.275513,208.860336 
	C613.494873,191.518616 594.242554,176.200729 570.934875,166.808487 
	C561.930603,163.180054 552.340820,163.375992 542.897583,163.920242 
	C520.336609,165.220474 500.683350,174.208801 482.881683,187.648209 
	C478.773224,190.749863 475.001007,194.292892 470.998840,197.540100 
	C463.902344,203.297852 462.447083,211.126907 463.171356,219.549515 
	C463.331482,221.411911 464.818207,223.605957 466.346832,224.836319 
	C482.336853,237.706116 498.196747,250.726852 516.416077,260.541168 
	C528.503357,267.052338 540.064514,274.533752 552.065247,281.214264 
	C561.715759,286.586517 571.465149,291.875366 581.546204,296.356262 
	C594.005310,301.894165 605.627380,308.594543 616.761230,316.474487 
	C629.151733,325.243805 642.618835,332.512726 654.849182,341.482056 
	C669.414551,352.163696 683.710815,363.350037 697.132141,375.420258 
	C715.153076,391.627136 733.519653,407.761902 749.382141,425.978912 
	C770.065002,449.731812 788.779236,475.202148 804.145996,502.982239 
	C814.585632,521.854980 825.436646,540.422729 831.220032,561.418152 
	C841.610779,599.139954 843.729797,636.907776 828.774414,673.810059 
	C815.220581,707.254028 792.087585,733.240906 762.501770,753.856140 
	C742.852661,767.547607 721.233032,777.052979 699.207947,785.801819 
	C674.322144,795.687073 648.280396,801.062622 621.872986,805.170105 
	C595.803833,809.225037 569.701538,812.169373 543.315918,813.310669 
	C503.881042,815.016418 464.438171,816.689148 425.487091,808.843689 
	C394.886322,802.680237 364.482758,795.471375 334.140686,788.112244 
	C312.800629,782.936523 291.372589,777.724243 270.615143,770.670410 
	C253.624939,764.896851 237.836166,755.677429 221.034576,749.238647 
	C194.124588,738.925903 170.677734,722.593384 145.954727,708.395569 
	C116.695938,691.592896 90.915817,670.535767 68.526741,645.711365 
	C44.091549,618.618286 24.170036,588.167297 10.800031,553.978027 
	C3.529677,535.386536 2.445919,515.768127 4.996491,496.066223 
	C6.995381,480.625793 16.880507,471.592529 32.430477,470.921509 
	C53.705093,470.003479 74.994911,469.380920 96.283905,468.867767 
	C120.762451,468.277710 144.899063,464.948517 168.936890,460.553802 
	C197.141556,455.397339 225.341537,450.199646 253.611847,445.424194 
	C268.370850,442.931091 279.234985,452.358673 279.000122,467.312256 
	C278.749512,483.270874 278.031647,499.231506 277.119690,515.168457 
	C275.385498,545.475525 286.902893,570.485840 308.467407,590.751831 
	C316.919403,598.694824 327.513763,604.454468 337.454163,610.696045 
	C354.479553,621.386414 372.113220,631.022522 392.519165,633.333618 
	C404.716034,634.715088 417.053955,635.860779 429.296417,635.601074 
	C449.451599,635.173523 469.293976,631.973450 488.374573,625.007507 
	C501.863831,620.082764 514.763123,613.950439 525.663757,604.500549 
	C537.253235,594.453491 541.578979,581.125793 542.436707,566.021118 
	C543.352295,549.895813 536.260376,536.731812 528.588867,523.672363 
	C512.635010,496.513458 490.033112,475.590698 465.178192,456.844788 
	C435.024109,434.102081 405.147491,410.976715 374.595459,388.781403 
	C351.914154,372.303986 328.657471,356.564362 305.090424,341.375397 
	C280.404877,325.465546 262.913971,304.073273 253.339752,276.562317 
	C241.869049,243.602005 246.383743,212.963196 266.008331,183.486923 
	C279.730255,162.876465 296.425812,145.449524 314.352966,128.353363 
z"/>
<path fill="#ffffff" opacity="1.000000" stroke="none" 
	d="
M1624.055176,363.066193 
	C1591.076660,368.528564 1558.496094,373.706421 1526.006104,379.400208 
	C1503.495361,383.345123 1481.342529,388.937347 1459.908081,396.977325 
	C1445.063477,402.545502 1430.433350,408.682922 1415.634033,414.375183 
	C1410.723633,416.263824 1405.674805,418.006470 1400.533203,419.039124 
	C1386.096802,421.938538 1374.482422,410.933105 1375.890259,396.032257 
	C1377.263306,381.499908 1373.349731,373.431427 1361.002075,369.032776 
	C1355.591797,367.105469 1349.155762,366.898590 1343.338257,367.468719 
	C1313.917114,370.352264 1289.845093,383.659851 1270.049561,405.521271 
	C1254.880127,422.273773 1244.525757,441.388062 1242.748291,463.876038 
	C1239.923828,499.610687 1247.773071,532.495667 1270.154541,561.754761 
	C1283.734009,579.507202 1299.622192,594.167236 1318.333374,605.794434 
	C1342.033203,620.521606 1368.023071,626.241516 1395.922729,623.545654 
	C1413.717896,621.826233 1431.477417,619.344666 1446.893677,609.997986 
	C1460.461670,601.771973 1473.171387,592.002380 1485.647949,582.140198 
	C1498.095337,572.301270 1510.180786,561.566406 1526.479004,559.649109 
	C1539.603882,558.105103 1553.139771,557.468811 1566.241821,558.837341 
	C1596.483765,561.996155 1626.553223,566.773071 1656.732788,570.575317 
	C1670.237793,572.276794 1683.822998,573.442749 1697.403320,574.405701 
	C1704.800171,574.930298 1710.815430,577.243713 1713.919067,584.278992 
	C1717.029663,591.330261 1715.909546,597.952576 1711.601929,604.473450 
	C1705.150635,614.239502 1699.106812,624.282227 1693.098022,634.331726 
	C1677.257324,660.824646 1663.811768,688.804871 1644.153687,712.921143 
	C1615.186523,748.457520 1581.222290,777.852844 1539.119751,796.818665 
	C1519.593262,805.614807 1498.838257,810.952515 1477.658691,813.889221 
	C1422.796387,821.496460 1369.323853,814.734863 1317.602783,795.587708 
	C1297.649536,788.200989 1278.512207,778.509644 1259.289307,769.272888 
	C1226.776123,753.649963 1197.502441,732.966248 1168.888428,711.143311 
	C1149.228516,696.149414 1131.422607,679.246094 1114.149658,661.741028 
	C1081.094849,628.242310 1055.467896,589.682007 1038.279663,545.832275 
	C1028.019897,519.657715 1021.615845,492.585297 1020.591797,464.176605 
	C1019.563721,435.658417 1021.506897,407.560181 1030.127441,380.400055 
	C1041.289551,345.232147 1058.208496,313.151794 1082.085938,284.514862 
	C1105.403931,256.548798 1132.656616,233.489426 1163.401245,214.623718 
	C1201.371582,191.324112 1242.455688,175.236465 1286.117920,166.057404 
	C1311.230957,160.777908 1336.722290,159.030380 1362.323120,157.823181 
	C1392.175659,156.415482 1421.911743,157.512665 1451.635986,159.894379 
	C1494.582764,163.335556 1535.996826,173.183670 1575.986938,189.342316 
	C1606.186279,201.544830 1634.006836,217.551224 1658.545532,238.997528 
	C1672.630615,251.307770 1682.977905,266.553619 1691.102051,283.301239 
	C1695.439453,292.242645 1699.648926,301.265137 1703.414551,310.456543 
	C1705.203857,314.823822 1705.785156,319.680908 1706.985474,324.297424 
	C1707.392456,325.862366 1707.882935,327.434296 1708.568115,328.893585 
	C1713.576782,339.559631 1708.966431,350.415680 1697.357178,352.837250 
	C1685.872559,355.232727 1674.105469,356.281708 1662.456421,357.878143 
	C1649.805054,359.611938 1637.146851,361.296051 1624.055176,363.066193 
z"/>
</svg>