<svg version="1.1" id="Layer_1" xmlns="http://www.w3.org/2000/svg" xmlns:xlink="http://www.w3.org/1999/xlink" x="0px" y="0px"
	 width="100%" viewBox="0 0 1511 981" enable-background="new 0 0 1511 981" xml:space="preserve">
<path fill="#FFFFFF" opacity="1.000000" stroke="none" 
	d="
M520.998291,244.539551 
	C511.370667,236.658905 501.688690,228.842941 492.166595,220.836807 
	C490.492401,219.429123 488.471222,217.288956 488.351135,215.377686 
	C487.850861,207.416870 489.064331,199.845383 495.492645,194.008438 
	C512.613586,178.462418 531.992126,167.169327 554.747559,162.136658 
	C569.262329,158.926514 584.094482,158.252914 597.951538,163.448044 
	C622.155334,172.522247 641.212280,189.470795 659.282471,207.417435 
	C661.076721,209.199402 662.188965,212.241180 662.500305,214.832504 
	C663.337463,221.799637 666.851257,226.588593 673.527954,227.983307 
	C683.395142,230.044464 693.383850,231.904602 703.413330,232.739304 
	C739.540710,235.745956 775.714294,238.191971 811.856140,241.031830 
	C845.355042,243.664032 878.814514,246.495148 911.847107,253.253143 
	C921.011475,255.128036 930.821960,255.770279 940.095337,254.762619 
	C956.447510,252.985733 963.000366,245.141083 963.351013,232.498184 
	C963.532898,225.938263 962.723816,219.152252 961.137756,212.772827 
	C946.332031,153.220261 913.125183,106.323738 863.165344,70.963547 
	C841.039856,55.303761 816.530212,44.698769 791.275208,35.357071 
	C757.957092,23.032875 723.527710,15.910515 688.194946,14.284506 
	C665.316345,13.231638 642.252808,13.671994 619.402039,15.284340 
	C598.453735,16.762449 577.354675,19.279457 556.909790,23.925129 
	C530.373535,29.954926 504.468933,38.724766 478.202820,45.991230 
	C436.778351,57.451237 398.978424,76.913559 362.425201,98.850395 
	C341.741241,111.263519 325.757538,129.613907 308.929565,146.517914 
	C298.418427,157.076508 290.389465,170.248352 282.038574,182.775452 
	C273.585358,195.456116 268.648956,209.510147 267.877106,225.044434 
	C265.754639,267.762329 282.097473,302.146393 315.349274,328.141632 
	C337.720398,345.630646 361.721375,361.023682 384.290924,378.273224 
	C405.772675,394.691345 426.126709,412.576538 447.373322,429.313019 
	C469.644012,446.856201 493.255096,462.650940 513.271179,483.054962 
	C530.923767,501.049713 545.718079,520.828857 555.466797,544.103821 
	C563.622253,563.574707 561.556519,582.536194 550.177734,600.103516 
	C542.870911,611.384338 531.077209,617.445129 519.252563,622.819153 
	C493.721008,634.422424 466.715759,638.738708 438.790527,638.265869 
	C419.535736,637.939819 400.249481,636.589905 382.639557,628.567749 
	C368.105835,621.946960 354.505432,613.190979 340.777039,604.907776 
	C316.265808,590.118591 298.604034,569.170410 293.013275,541.042603 
	C289.766907,524.709656 291.576904,507.303345 291.746155,490.386383 
	C291.842377,480.772400 293.695648,471.181427 293.901337,461.561798 
	C294.184479,448.319550 284.736115,439.296234 271.623718,439.505737 
	C268.301392,439.558807 264.948944,439.726440 261.670990,440.233643 
	C237.757690,443.933441 213.901077,448.024933 189.944519,451.412476 
	C169.580719,454.291992 149.164352,457.540497 128.668365,458.561920 
	C101.408539,459.920410 74.048866,459.270233 46.732189,459.495056 
	C26.704992,459.659882 15.772647,467.845245 13.288246,485.787323 
	C10.210727,508.012848 11.356572,530.205383 20.469816,550.915771 
	C27.712820,567.375977 36.342022,583.310852 45.420135,598.857483 
	C56.668919,618.121338 69.715233,636.350769 85.821175,651.849060 
	C107.318146,672.535034 129.222046,692.800415 155.541580,707.665466 
	C173.757401,717.953613 190.993027,729.991028 209.300262,740.099121 
	C223.764145,748.085327 239.104431,754.521667 254.218964,761.280823 
	C268.044495,767.463440 281.705200,774.419800 296.117950,778.799072 
	C325.298737,787.665649 354.943176,795.004822 384.389801,802.998352 
	C423.291107,813.558289 462.489746,822.610352 503.063995,822.830078 
	C530.701294,822.979797 558.404907,823.196838 585.965149,821.517761 
	C609.912964,820.058777 633.800354,816.617676 657.538574,812.922485 
	C702.408813,805.937805 744.329041,790.632385 782.531433,765.787354 
	C809.105042,748.505188 829.610352,725.438782 844.698608,697.784302 
	C853.638245,681.399353 858.684692,663.541992 860.306824,644.782776 
	C862.547424,618.871460 860.655640,593.435425 853.261169,568.389221 
	C847.870850,550.131470 839.092468,533.504578 830.475769,516.677063 
	C815.093445,486.637115 796.174072,458.884094 774.708557,433.134430 
	C759.021667,414.316559 740.961121,397.384125 723.154114,380.457550 
	C709.940002,367.896820 695.783813,356.246338 681.392395,345.030640 
	C670.064819,336.202637 657.735657,328.660156 645.855286,320.541016 
	C636.995850,314.486389 628.652649,307.427368 619.178833,302.573547 
	C600.330750,292.916992 581.437866,283.615204 564.077637,271.211029 
	C550.561523,261.553528 535.790588,253.652252 520.998291,244.539551 
M1415.675049,360.835815 
	C1395.183105,345.698090 1372.608276,334.462708 1349.228271,324.526306 
	C1303.645508,305.153931 1255.818848,295.830353 1206.755615,292.106262 
	C1175.684814,289.747925 1144.564331,289.281830 1113.390137,290.826355 
	C1082.252197,292.369080 1051.708862,296.963837 1021.878906,306.035095 
	C960.062256,324.833435 904.652161,354.482697 859.934082,402.101898 
	C853.511475,408.941162 847.363220,416.038055 841.122681,422.977142 
	C848.242310,430.518555 855.166443,437.079865 861.196533,444.379700 
	C882.490662,470.157898 902.454895,496.929932 917.971130,526.671509 
	C926.307617,542.650757 934.770325,558.682800 941.453186,575.380554 
	C953.818237,606.275513 956.112671,638.747742 951.416260,671.418884 
	C945.972290,709.290283 925.999451,739.613770 898.466125,765.145752 
	C888.761108,774.145325 877.710327,781.693542 867.141663,790.008545 
	C867.357422,790.288391 867.901062,791.101929 868.550049,791.820251 
	C887.423950,812.707642 907.141418,832.682129 929.212402,850.294617 
	C959.554626,874.507629 990.489502,897.819702 1025.733398,914.569763 
	C1048.376709,925.331238 1070.130371,937.943298 1094.219238,945.722168 
	C1124.041748,955.352661 1154.334595,962.240356 1185.638062,963.805359 
	C1209.761230,965.011292 1233.909912,964.719177 1257.714355,959.703918 
	C1279.451538,955.124390 1300.690552,949.131531 1320.550171,938.740601 
	C1355.832886,920.280029 1385.600098,895.120483 1411.621704,865.221375 
	C1432.725098,840.973572 1447.420044,812.505859 1464.468262,785.583313 
	C1470.990112,775.283936 1477.382812,764.881775 1484.396240,754.922180 
	C1489.015869,748.362122 1490.405151,741.814880 1487.352173,734.467651 
	C1484.220947,726.932007 1478.044556,724.377686 1470.292480,723.921936 
	C1461.843384,723.425293 1453.369629,722.713257 1445.010620,721.422180 
	C1409.023682,715.864136 1373.125000,709.710022 1337.083252,704.547485 
	C1325.639893,702.908325 1313.822388,702.986023 1302.229614,703.496338 
	C1285.244263,704.244141 1271.576294,713.114563 1258.472534,723.159424 
	C1246.224121,732.548706 1234.044189,742.182129 1220.946777,750.271484 
	C1202.938232,761.393982 1182.495239,765.140747 1161.556763,765.951233 
	C1149.262451,766.427063 1137.045166,766.291626 1124.856201,763.481323 
	C1103.243530,758.498291 1084.737305,747.961914 1067.580811,734.266968 
	C1045.903564,716.963623 1029.998535,695.307434 1018.898621,670.206543 
	C1010.139587,650.399109 1008.288879,629.219421 1009.190674,607.713684 
	C1009.813354,592.862488 1013.465515,578.813782 1020.626892,565.921265 
	C1034.531738,540.888550 1054.493774,522.296692 1081.102905,511.154633 
	C1093.976562,505.764069 1107.332642,502.913971 1121.324585,503.242737 
	C1142.753784,503.746216 1149.830322,517.111328 1147.716064,532.918579 
	C1146.435913,542.489136 1150.685059,551.724304 1159.294067,556.051697 
	C1167.951050,560.403015 1176.157959,557.213562 1184.328003,554.463379 
	C1210.008789,545.818665 1235.268555,535.575989 1261.430176,528.807434 
	C1286.690186,522.272156 1312.783813,518.718323 1338.663208,514.880249 
	C1369.210938,510.349792 1399.904297,506.774536 1430.569946,503.078064 
	C1444.757324,501.367859 1459.088989,500.801514 1473.243652,498.889740 
	C1486.317139,497.123962 1492.545044,488.476837 1490.023804,477.350769 
	C1488.873047,472.272766 1487.827515,467.170990 1486.703979,462.086731 
	C1486.453125,460.952057 1486.174927,459.804565 1485.738159,458.732788 
	C1481.741333,448.925262 1477.914795,439.041382 1473.643921,429.353821 
	C1461.176880,401.074982 1441.828735,378.527039 1415.675049,360.835815 
z"/>
<path fill="#ffffff" opacity="1.000000" stroke="none" 
	d="
M521.287842,244.755005 
	C535.790588,253.652252 550.561523,261.553528 564.077637,271.211029 
	C581.437866,283.615204 600.330750,292.916992 619.178833,302.573547 
	C628.652649,307.427368 636.995850,314.486389 645.855286,320.541016 
	C657.735657,328.660156 670.064819,336.202637 681.392395,345.030640 
	C695.783813,356.246338 709.940002,367.896820 723.154114,380.457550 
	C740.961121,397.384125 759.021667,414.316559 774.708557,433.134430 
	C796.174072,458.884094 815.093445,486.637115 830.475769,516.677063 
	C839.092468,533.504578 847.870850,550.131470 853.261169,568.389221 
	C860.655640,593.435425 862.547424,618.871460 860.306824,644.782776 
	C858.684692,663.541992 853.638245,681.399353 844.698608,697.784302 
	C829.610352,725.438782 809.105042,748.505188 782.531433,765.787354 
	C744.329041,790.632385 702.408813,805.937805 657.538574,812.922485 
	C633.800354,816.617676 609.912964,820.058777 585.965149,821.517761 
	C558.404907,823.196838 530.701294,822.979797 503.063995,822.830078 
	C462.489746,822.610352 423.291107,813.558289 384.389801,802.998352 
	C354.943176,795.004822 325.298737,787.665649 296.117950,778.799072 
	C281.705200,774.419800 268.044495,767.463440 254.218964,761.280823 
	C239.104431,754.521667 223.764145,748.085327 209.300262,740.099121 
	C190.993027,729.991028 173.757401,717.953613 155.541580,707.665466 
	C129.222046,692.800415 107.318146,672.535034 85.821175,651.849060 
	C69.715233,636.350769 56.668919,618.121338 45.420135,598.857483 
	C36.342022,583.310852 27.712820,567.375977 20.469816,550.915771 
	C11.356572,530.205383 10.210727,508.012848 13.288246,485.787323 
	C15.772647,467.845245 26.704992,459.659882 46.732189,459.495056 
	C74.048866,459.270233 101.408539,459.920410 128.668365,458.561920 
	C149.164352,457.540497 169.580719,454.291992 189.944519,451.412476 
	C213.901077,448.024933 237.757690,443.933441 261.670990,440.233643 
	C264.948944,439.726440 268.301392,439.558807 271.623718,439.505737 
	C284.736115,439.296234 294.184479,448.319550 293.901337,461.561798 
	C293.695648,471.181427 291.842377,480.772400 291.746155,490.386383 
	C291.576904,507.303345 289.766907,524.709656 293.013275,541.042603 
	C298.604034,569.170410 316.265808,590.118591 340.777039,604.907776 
	C354.505432,613.190979 368.105835,621.946960 382.639557,628.567749 
	C400.249481,636.589905 419.535736,637.939819 438.790527,638.265869 
	C466.715759,638.738708 493.721008,634.422424 519.252563,622.819153 
	C531.077209,617.445129 542.870911,611.384338 550.177734,600.103516 
	C561.556519,582.536194 563.622253,563.574707 555.466797,544.103821 
	C545.718079,520.828857 530.923767,501.049713 513.271179,483.054962 
	C493.255096,462.650940 469.644012,446.856201 447.373322,429.313019 
	C426.126709,412.576538 405.772675,394.691345 384.290924,378.273224 
	C361.721375,361.023682 337.720398,345.630646 315.349274,328.141632 
	C282.097473,302.146393 265.754639,267.762329 267.877106,225.044434 
	C268.648956,209.510147 273.585358,195.456116 282.038574,182.775452 
	C290.389465,170.248352 298.418427,157.076508 308.929565,146.517914 
	C325.757538,129.613907 341.741241,111.263519 362.425201,98.850395 
	C398.978424,76.913559 436.778351,57.451237 478.202820,45.991230 
	C504.468933,38.724766 530.373535,29.954926 556.909790,23.925129 
	C577.354675,19.279457 598.453735,16.762449 619.402039,15.284340 
	C642.252808,13.671994 665.316345,13.231638 688.194946,14.284506 
	C723.527710,15.910515 757.957092,23.032875 791.275208,35.357071 
	C816.530212,44.698769 841.039856,55.303761 863.165344,70.963547 
	C913.125183,106.323738 946.332031,153.220261 961.137756,212.772827 
	C962.723816,219.152252 963.532898,225.938263 963.351013,232.498184 
	C963.000366,245.141083 956.447510,252.985733 940.095337,254.762619 
	C930.821960,255.770279 921.011475,255.128036 911.847107,253.253143 
	C878.814514,246.495148 845.355042,243.664032 811.856140,241.031830 
	C775.714294,238.191971 739.540710,235.745956 703.413330,232.739304 
	C693.383850,231.904602 683.395142,230.044464 673.527954,227.983307 
	C666.851257,226.588593 663.337463,221.799637 662.500305,214.832504 
	C662.188965,212.241180 661.076721,209.199402 659.282471,207.417435 
	C641.212280,189.470795 622.155334,172.522247 597.951538,163.448044 
	C584.094482,158.252914 569.262329,158.926514 554.747559,162.136658 
	C531.992126,167.169327 512.613586,178.462418 495.492645,194.008438 
	C489.064331,199.845383 487.850861,207.416870 488.351135,215.377686 
	C488.471222,217.288956 490.492401,219.429123 492.166595,220.836807 
	C501.688690,228.842941 511.370667,236.658905 521.287842,244.755005 
z"/>
<path fill="#ffffff" opacity="1.000000" stroke="none" 
	d="
M1415.966553,361.046082 
	C1441.828735,378.527039 1461.176880,401.074982 1473.643921,429.353821 
	C1477.914795,439.041382 1481.741333,448.925262 1485.738159,458.732788 
	C1486.174927,459.804565 1486.453125,460.952057 1486.703979,462.086731 
	C1487.827515,467.170990 1488.873047,472.272766 1490.023804,477.350769 
	C1492.545044,488.476837 1486.317139,497.123962 1473.243652,498.889740 
	C1459.088989,500.801514 1444.757324,501.367859 1430.569946,503.078064 
	C1399.904297,506.774536 1369.210938,510.349792 1338.663208,514.880249 
	C1312.783813,518.718323 1286.690186,522.272156 1261.430176,528.807434 
	C1235.268555,535.575989 1210.008789,545.818665 1184.328003,554.463379 
	C1176.157959,557.213562 1167.951050,560.403015 1159.294067,556.051697 
	C1150.685059,551.724304 1146.435913,542.489136 1147.716064,532.918579 
	C1149.830322,517.111328 1142.753784,503.746216 1121.324585,503.242737 
	C1107.332642,502.913971 1093.976562,505.764069 1081.102905,511.154633 
	C1054.493774,522.296692 1034.531738,540.888550 1020.626892,565.921265 
	C1013.465515,578.813782 1009.813354,592.862488 1009.190674,607.713684 
	C1008.288879,629.219421 1010.139587,650.399109 1018.898621,670.206543 
	C1029.998535,695.307434 1045.903564,716.963623 1067.580811,734.266968 
	C1084.737305,747.961914 1103.243530,758.498291 1124.856201,763.481323 
	C1137.045166,766.291626 1149.262451,766.427063 1161.556763,765.951233 
	C1182.495239,765.140747 1202.938232,761.393982 1220.946777,750.271484 
	C1234.044189,742.182129 1246.224121,732.548706 1258.472534,723.159424 
	C1271.576294,713.114563 1285.244263,704.244141 1302.229614,703.496338 
	C1313.822388,702.986023 1325.639893,702.908325 1337.083252,704.547485 
	C1373.125000,709.710022 1409.023682,715.864136 1445.010620,721.422180 
	C1453.369629,722.713257 1461.843384,723.425293 1470.292480,723.921936 
	C1478.044556,724.377686 1484.220947,726.932007 1487.352173,734.467651 
	C1490.405151,741.814880 1489.015869,748.362122 1484.396240,754.922180 
	C1477.382812,764.881775 1470.990112,775.283936 1464.468262,785.583313 
	C1447.420044,812.505859 1432.725098,840.973572 1411.621704,865.221375 
	C1385.600098,895.120483 1355.832886,920.280029 1320.550171,938.740601 
	C1300.690552,949.131531 1279.451538,955.124390 1257.714355,959.703918 
	C1233.909912,964.719177 1209.761230,965.011292 1185.638062,963.805359 
	C1154.334595,962.240356 1124.041748,955.352661 1094.219238,945.722168 
	C1070.130371,937.943298 1048.376709,925.331238 1025.733398,914.569763 
	C990.489502,897.819702 959.554626,874.507629 929.212402,850.294617 
	C907.141418,832.682129 887.423950,812.707642 868.550049,791.820251 
	C867.901062,791.101929 867.357422,790.288391 867.141663,790.008545 
	C877.710327,781.693542 888.761108,774.145325 898.466125,765.145752 
	C925.999451,739.613770 945.972290,709.290283 951.416260,671.418884 
	C956.112671,638.747742 953.818237,606.275513 941.453186,575.380554 
	C934.770325,558.682800 926.307617,542.650757 917.971130,526.671509 
	C902.454895,496.929932 882.490662,470.157898 861.196533,444.379700 
	C855.166443,437.079865 848.242310,430.518555 841.122681,422.977142 
	C847.363220,416.038055 853.511475,408.941162 859.934082,402.101898 
	C904.652161,354.482697 960.062256,324.833435 1021.878906,306.035095 
	C1051.708862,296.963837 1082.252197,292.369080 1113.390137,290.826355 
	C1144.564331,289.281830 1175.684814,289.747925 1206.755615,292.106262 
	C1255.818848,295.830353 1303.645508,305.153931 1349.228271,324.526306 
	C1372.608276,334.462708 1395.183105,345.698090 1415.966553,361.046082 
z"/>
</svg>