<svg version="1.1" id="Layer_1" xmlns="http://www.w3.org/2000/svg" xmlns:xlink="http://www.w3.org/1999/xlink" x="0px" y="0px"
	 width="100%" viewBox="0 0 1024 768" enable-background="new 0 0 1024 768" xml:space="preserve">
<path fill="#FFFFFF" opacity="1.000000" stroke="none" 
	d="
M648.407959,741.728149 
	C634.299927,741.220764 620.677246,740.553223 607.062073,739.465759 
	C584.499023,737.663513 561.993652,735.356689 539.608521,732.067932 
	C493.476807,725.290405 447.998108,715.287048 402.961761,703.312683 
	C328.381866,683.483276 258.187592,653.740417 193.594650,611.064758 
	C167.113144,593.568726 141.497864,575.067749 118.363777,553.332520 
	C91.485451,528.079529 71.147766,498.301056 58.136421,463.682770 
	C51.690613,446.532959 45.657578,429.244507 42.592930,411.097290 
	C42.016834,407.686005 39.720154,406.186493 37.043964,404.617249 
	C7.691687,387.405701 5.832451,346.750885 33.451130,327.078156 
	C33.993668,326.691711 34.499107,326.141571 35.106289,325.974304 
	C43.777359,323.585480 46.409580,316.874756 48.855469,308.995636 
	C59.467342,274.810852 79.093224,245.685898 101.898209,218.658859 
	C138.472610,175.313141 182.526917,141.554092 233.002075,115.545380 
	C281.302216,90.657394 332.721558,75.733749 385.340363,64.061707 
	C394.250244,62.085293 403.352631,60.778519 412.436768,59.866264 
	C417.235535,59.384346 419.356201,57.624660 420.444336,52.949177 
	C425.095825,32.963425 438.990021,21.657520 457.386047,15.015207 
	C464.464325,12.459416 471.626740,13.414923 478.250946,16.750595 
	C481.853363,18.564608 485.549042,19.831173 489.360382,21.030956 
	C503.587189,25.509447 514.019104,34.010952 517.782715,49.088329 
	C518.575378,52.263660 520.531433,52.732708 523.298157,52.747726 
	C536.621216,52.820061 549.933105,53.028744 563.259521,53.510441 
	C608.054016,55.129612 651.957153,61.952751 695.103882,74.041046 
	C738.695557,86.253975 780.792725,102.275993 821.260681,122.583511 
	C847.751465,135.877045 871.749634,152.965225 895.203796,170.896072 
	C921.032776,190.642426 946.508301,210.819977 969.003357,234.415054 
	C979.703857,245.638824 989.790710,257.435944 997.348938,271.105164 
	C1002.338928,280.129608 999.820801,290.228882 991.643555,295.111542 
	C982.724121,300.437408 972.896729,297.986115 967.070435,288.766846 
	C952.083557,265.051880 931.817505,246.224808 910.611633,228.403931 
	C886.623901,208.245209 861.854797,189.048782 835.664978,171.781693 
	C810.076233,154.910858 782.220276,142.520035 753.904602,131.149979 
	C714.250122,115.226852 673.409180,103.257462 631.304626,95.841866 
	C608.171509,91.767586 584.780762,90.062248 561.326050,88.895164 
	C545.160034,88.090775 529.003052,88.697121 512.852600,88.217522 
	C508.834717,88.098213 506.085022,89.319771 503.316040,92.232452 
	C491.676544,104.476089 477.610382,111.757034 460.351135,111.153336 
	C447.775330,110.713455 436.340332,107.133408 428.294403,96.570312 
	C425.992523,93.548271 423.002350,94.136604 420.103577,94.524940 
	C396.156219,97.732994 372.567871,102.673859 349.338043,109.336014 
	C320.671143,117.557472 292.277161,126.447510 265.204742,139.245667 
	C218.630005,161.263351 176.636276,189.677414 141.490555,227.548828 
	C120.335472,250.344559 101.526855,274.923248 88.886726,303.678589 
	C85.935608,310.392151 83.423805,317.264648 81.270950,324.280945 
	C80.412582,327.078400 80.860603,328.827087 83.478195,330.498230 
	C99.246780,340.565582 103.932816,355.288544 100.153374,372.910767 
	C97.445610,385.536102 92.277016,397.030914 80.949524,404.551422 
	C78.429665,406.224457 78.015846,408.258942 78.654762,410.981384 
	C90.483162,461.381866 113.905563,504.705353 154.352219,538.256226 
	C221.169891,593.682129 296.314117,633.544189 378.926025,659.512085 
	C426.294678,674.401733 474.720642,685.048706 523.601990,693.642334 
	C550.980286,698.455627 578.572510,701.493896 606.265076,703.819214 
	C630.510986,705.855225 654.784424,706.814209 679.103210,706.618408 
	C686.759094,706.556763 694.408752,705.863159 702.065796,705.739075 
	C705.613403,705.681519 706.358887,703.349792 707.363647,700.799377 
	C712.745972,687.136658 722.511475,677.790039 736.170471,672.751465 
	C752.665649,666.666504 771.352539,672.938416 781.274597,688.116943 
	C784.146729,692.510681 786.790894,693.180542 791.494812,691.752808 
	C829.594849,680.189209 865.691895,664.587769 896.583923,638.872498 
	C925.431091,614.859375 945.271484,585.134888 951.187622,547.429321 
	C956.562378,513.174255 951.534668,480.714844 934.769409,449.871643 
	C916.318420,415.927094 891.200745,387.878510 862.202393,362.880066 
	C858.814941,359.959869 856.114624,359.213837 851.619385,361.151062 
	C826.204224,372.103485 798.645996,360.530243 790.738953,335.882111 
	C788.766357,329.732880 789.156738,323.358795 790.394409,317.123291 
	C791.043274,313.854401 790.321960,311.932037 787.341064,310.201691 
	C735.177368,279.921722 679.210510,259.614685 620.536926,246.373428 
	C598.943542,241.500305 577.137207,237.769363 555.108398,235.695663 
	C494.981262,230.035507 435.635742,232.471588 378.447571,254.465118 
	C357.450592,262.540161 337.917694,273.312286 321.467712,288.883026 
	C304.039062,305.380157 294.212799,325.221008 294.092804,349.883148 
	C294.001709,368.609436 300.679016,383.762939 313.473419,396.915710 
	C336.460144,420.546387 365.014343,434.138092 395.936920,443.851715 
	C404.113586,446.420227 409.954315,446.221497 417.339569,440.147705 
	C428.862427,430.671021 443.288147,427.634918 458.356506,430.914398 
	C472.406006,433.972137 481.038269,443.002502 485.127533,456.453918 
	C486.116852,459.708344 487.690704,461.325653 490.905273,461.503540 
	C536.454224,464.024261 581.839233,464.884186 625.569397,448.494995 
	C631.689819,446.201141 637.533508,443.419617 642.856262,439.623535 
	C651.707825,433.310791 652.687378,426.182373 645.914001,417.539978 
	C639.845947,409.797607 632.195740,403.913605 623.532471,399.451721 
	C602.900391,388.825439 580.779236,384.006989 557.700073,383.114502 
	C553.542786,382.953796 549.354004,382.859985 545.248779,382.261810 
	C536.915833,381.047607 530.476807,372.744354 531.022827,364.333710 
	C531.600647,355.433319 538.414978,347.903015 546.741394,347.727875 
	C581.163269,347.003693 613.980408,353.546753 644.268982,370.459930 
	C656.310303,377.183777 666.743530,386.036133 675.016785,397.157562 
	C692.729919,420.968567 688.251587,450.528564 664.353149,468.011017 
	C649.118103,479.155884 631.461304,484.573090 613.505066,489.246307 
	C577.804138,498.537781 541.492859,499.722931 504.916687,497.483856 
	C497.436768,497.025940 489.932129,496.879272 482.473206,496.207764 
	C478.382507,495.839478 475.912048,497.198578 474.111053,500.833862 
	C471.661957,505.777374 468.407928,510.158905 464.320221,513.982300 
	C455.290680,522.428040 444.549866,524.474609 433.196289,521.254578 
	C414.608276,515.982788 400.242340,505.921539 397.447479,484.877045 
	C396.999329,481.502594 395.022522,480.193878 391.983063,479.388580 
	C365.378204,472.339661 340.239380,461.824768 317.416199,446.351593 
	C290.294159,427.964111 267.143799,405.799591 260.702393,372.118134 
	C255.169601,343.187592 259.166168,315.127533 275.315887,289.556793 
	C295.519989,257.566528 325.570343,238.156219 359.459106,223.901306 
	C386.749695,212.421829 415.401459,205.837662 444.667999,201.461945 
	C478.521362,196.400391 512.418091,197.106308 546.332947,199.631348 
	C626.713745,205.615829 702.548218,228.279648 774.938965,263.072845 
	C786.629150,268.691498 797.776062,275.453308 809.082336,281.848969 
	C812.074524,283.541565 814.661621,283.863953 817.995422,282.596649 
	C843.864929,272.763062 877.554810,291.958588 877.237610,323.201752 
	C877.194824,327.414673 878.332825,330.279175 881.659973,332.987885 
	C906.472778,353.188873 928.443542,376.204895 946.936890,402.275879 
	C965.980896,429.123230 980.472778,458.274231 986.704102,490.935608 
	C989.499817,505.589478 988.932678,520.527710 988.109070,535.282593 
	C985.922180,574.458252 971.764404,609.098511 946.606750,639.187805 
	C924.088623,666.120056 896.046631,685.824097 864.775208,701.243591 
	C842.455261,712.249268 819.347473,721.159546 795.249329,727.449768 
	C792.980591,728.041870 791.037292,728.797791 790.061707,731.483582 
	C784.257507,747.462158 772.095215,755.130798 755.798279,757.348511 
	C738.966125,759.639038 723.993286,756.295105 712.208252,743.207092 
	C710.359741,741.154114 708.170776,741.204102 705.824097,741.285706 
	C686.845215,741.945557 667.867798,742.788940 648.407959,741.728149 
z"/>
<path fill="#ffffff" opacity="1.000000" stroke="none" 
	d="
M309.614563,175.527161 
	C317.466278,188.000031 312.609375,200.514923 298.938446,204.277710 
	C282.772644,208.727188 269.716309,218.577682 257.135529,229.053970 
	C223.369598,257.171570 200.833313,292.688568 191.244675,335.431335 
	C184.997131,363.280640 183.342682,391.771240 191.241257,419.953674 
	C192.712021,425.201385 195.540436,430.049957 195.393539,435.793365 
	C195.168991,444.572449 189.816208,451.147003 180.938034,453.022736 
	C173.465591,454.601501 165.320999,450.450073 162.026886,443.170074 
	C156.345627,430.614380 152.947861,417.292816 151.945648,403.693390 
	C150.070084,378.243713 150.336258,352.670288 156.311279,327.730225 
	C168.238174,277.946747 193.648239,236.182846 232.813110,202.954544 
	C248.805008,189.386642 265.758942,177.455429 285.959534,170.910126 
	C294.508698,168.140060 302.700409,167.709213 309.614563,175.527161 
z"/>
<path fill="#ffffff" opacity="1.000000" stroke="none" 
	d="
M372.190918,627.950806 
	C347.851562,619.523682 326.234009,606.760437 305.158478,592.912659 
	C294.991394,586.232361 284.744385,579.704529 275.431122,571.817932 
	C270.176239,567.367981 265.496735,562.433289 261.686127,556.713562 
	C256.432465,548.827759 258.065582,538.748352 265.418060,532.996155 
	C272.615997,527.364868 283.548309,527.921082 289.356995,535.091675 
	C297.494446,545.137085 307.970490,552.076660 318.415131,559.258850 
	C345.785736,578.080200 374.825073,593.360718 406.989532,602.286255 
	C431.946991,609.211792 457.232605,613.879517 483.246246,613.681152 
	C497.900726,613.569458 512.550903,613.943848 527.207886,612.927246 
	C536.300171,612.296631 543.023621,617.399719 545.457642,625.451965 
	C547.771423,633.106384 545.089233,640.868225 538.614075,645.224609 
	C536.078979,646.930176 533.280518,648.016846 530.242065,648.227478 
	C476.347778,651.962524 423.446777,647.873291 372.190918,627.950806 
z"/>
<path fill="#ffffff" opacity="1.000000" stroke="none" 
	d="
M850.800659,579.769043 
	C831.572327,600.483398 807.461365,612.664124 781.773804,622.064697 
	C764.750305,628.294678 747.427002,633.656860 729.457458,636.620178 
	C717.936829,638.520081 706.367004,639.660339 694.685730,639.239929 
	C684.605591,638.877075 677.041382,631.109375 676.973572,621.225342 
	C676.907166,611.545288 684.783386,603.845764 695.003967,603.704224 
	C736.547607,603.128662 774.454773,590.541748 809.387207,568.608459 
	C822.276733,560.515442 832.273254,549.820129 835.243652,534.064636 
	C835.927185,530.438660 837.448425,527.072693 839.182495,523.848816 
	C843.175354,516.425354 852.737671,513.129272 860.768127,516.284241 
	C868.979614,519.510315 873.887085,528.149597 871.688416,536.355408 
	C867.497009,551.999023 862.917358,567.515808 850.800659,579.769043 
z"/>
<path fill="#ffffff" opacity="1.000000" stroke="none" 
	d="
M675.602783,171.127563 
	C678.932739,163.187042 684.502014,159.422821 692.847900,159.531021 
	C710.291992,159.757156 726.511475,165.499725 742.824036,170.612915 
	C765.749268,177.798843 786.064026,190.396698 806.560730,202.513382 
	C812.399841,205.965164 817.466736,210.406006 818.225830,217.827576 
	C818.990540,225.303513 816.290466,231.367676 809.787720,235.206146 
	C803.351685,239.005295 796.867310,238.540543 790.469849,234.530792 
	C768.565613,220.801712 746.389526,207.564957 721.100159,200.836212 
	C711.149719,198.188690 701.237183,195.451614 690.878479,194.435867 
	C678.690125,193.240692 672.528625,183.610947 675.602783,171.127563 
z"/>
<path fill="#ffffff" opacity="1.000000" stroke="none" 
	d="
M851.938354,432.146057 
	C861.823669,447.748169 867.628540,464.411560 869.930176,482.359436 
	C871.229431,492.490448 864.973816,501.846497 855.707947,503.221802 
	C844.994934,504.811890 836.219055,498.829620 834.956055,487.961548 
	C832.949768,470.697845 825.825684,455.743835 815.889648,441.884308 
	C810.269836,434.045380 805.005493,425.961151 798.191223,418.990479 
	C792.576416,413.246826 792.310242,404.311554 796.820435,397.749908 
	C801.529114,390.899445 809.866394,388.169952 817.480957,391.025421 
	C822.303711,392.833984 826.073792,396.037903 829.220886,400.043976 
	C837.254272,410.269958 844.795105,420.844452 851.938354,432.146057 
z"/>
<path fill="#ffffff" opacity="1.000000" stroke="none" 
	d="
M756.056458,499.050598 
	C753.104370,510.871338 748.945374,521.990967 747.547424,533.790833 
	C747.373047,535.262756 746.795593,536.685974 746.414795,538.134399 
	C745.887756,540.138977 745.278809,542.287292 742.622437,541.832581 
	C740.000671,541.383850 740.148438,539.057800 740.107910,537.054993 
	C739.963684,529.913757 739.719177,522.771301 739.757263,515.630554 
	C739.794983,508.551514 738.500549,501.706940 736.369446,495.039185 
	C731.818604,480.800537 720.218384,472.462708 705.241943,472.220306 
	C702.281250,472.172394 698.210754,473.648224 697.134766,469.421326 
	C696.156555,465.578094 699.903748,463.991852 702.478821,462.424072 
	C715.260315,454.642181 726.582153,445.207275 736.111694,433.646973 
	C743.123901,425.140411 746.510925,415.559052 744.899231,404.453400 
	C744.733032,403.308258 744.702637,402.121002 744.789124,400.966766 
	C744.917114,399.259735 745.961975,398.164062 747.628845,397.985443 
	C749.252319,397.811462 750.523376,398.560486 751.162170,400.159576 
	C752.497437,403.501862 752.126526,407.030273 752.380127,410.506836 
	C753.639160,427.770020 759.534607,442.807861 773.377197,454.070343 
	C776.621399,456.709808 780.397766,457.743500 784.218445,458.891754 
	C786.108276,459.459656 787.476379,460.583740 787.496277,462.771881 
	C787.512512,464.560181 786.419250,465.532654 784.866699,465.983521 
	C776.394775,468.443970 770.678772,474.412567 765.646729,481.173401 
	C761.655762,486.535645 758.262390,492.260956 756.056458,499.050598 
z"/>
<path fill="#ffffff" opacity="1.000000" stroke="none" 
	d="
M254.459564,505.481354 
	C248.137924,502.810638 242.076080,500.460571 236.245377,497.633789 
	C233.309784,496.210541 231.792862,496.737183 230.263611,499.449463 
	C227.322281,504.666321 224.186340,509.776123 221.031723,514.868774 
	C219.723343,516.980835 218.282944,519.466980 215.261841,518.692749 
	C212.057755,517.871704 211.695114,514.946777 211.792618,512.234070 
	C211.959549,507.589203 212.340668,502.948608 212.755753,498.317322 
	C213.036804,495.181335 212.179626,493.643890 208.664474,492.935150 
	C201.343750,491.459015 194.175766,489.231506 186.932846,487.359833 
	C184.565750,486.748138 182.183151,485.945709 182.100494,483.127014 
	C182.018967,480.346954 184.337311,479.376038 186.609024,478.495636 
	C194.067108,475.605164 201.675293,473.113678 209.458496,471.387939 
	C213.432404,470.506805 214.891464,468.353790 215.703934,464.827026 
	C217.233383,458.187958 219.014801,451.607330 220.619461,444.984985 
	C221.154007,442.778961 221.775101,440.580414 224.407318,440.367706 
	C227.118027,440.148682 227.811401,442.344757 228.687286,444.432129 
	C230.681473,449.184479 233.108826,453.760956 234.979401,458.557404 
	C236.525940,462.523010 239.140976,463.021667 242.902206,462.449738 
	C251.587204,461.129059 260.205048,459.108032 269.089417,459.470764 
	C270.917603,459.545410 272.912018,459.183929 273.761658,461.397583 
	C274.707184,463.860931 272.811218,465.184204 271.280823,466.309479 
	C265.651855,470.448212 259.989380,474.556580 254.149048,478.385864 
	C251.495728,480.125580 250.965836,481.769592 252.485245,484.513336 
	C255.226059,489.462646 257.798706,494.506561 260.370026,499.547485 
	C261.336487,501.442200 262.756714,503.545929 260.851135,505.519806 
	C259.043396,507.392365 256.848145,506.496979 254.459564,505.481354 
z"/>
<path fill="#ffffff" opacity="1.000000" stroke="none" 
	d="
M369.877808,144.056595 
	C374.107422,149.507858 378.178253,154.561234 385.029205,156.189255 
	C386.476807,156.533264 387.891296,157.345657 387.982758,159.165131 
	C388.065704,160.816040 386.795135,161.399872 385.546661,161.942444 
	C374.588409,166.704712 368.883942,175.870895 365.393555,186.625381 
	C362.985657,194.044601 360.865936,201.570786 359.635284,209.329376 
	C359.262146,211.681458 359.540955,215.767654 356.149536,215.517822 
	C352.443939,215.244858 353.917816,211.311462 353.829681,208.894318 
	C353.527130,200.594528 354.154327,192.251923 351.758484,184.102234 
	C348.376434,172.597885 340.851593,166.658188 328.861359,166.271576 
	C326.770966,166.204178 324.194885,166.805084 323.526886,163.877472 
	C322.910950,161.178360 325.186615,160.059143 326.969055,158.947800 
	C336.084900,153.264099 344.307892,146.585663 351.092957,138.184174 
	C356.041565,132.056702 358.567749,125.261322 357.378693,117.337227 
	C357.084717,115.377991 356.915558,113.416893 359.366425,113.030197 
	C361.796051,112.646851 362.606720,114.732475 362.729828,116.528038 
	C363.208252,123.505333 363.618896,130.467560 366.555634,136.973389 
	C367.579712,139.242050 368.626953,141.500259 369.877808,144.056595 
z"/>
<path fill="#ffffff" opacity="1.000000" stroke="none" 
	d="
M668.693481,523.645020 
	C673.059265,518.644897 674.774292,513.079651 674.735718,506.854828 
	C674.723816,504.927094 674.543213,502.232758 677.262268,502.275879 
	C679.885559,502.317505 679.154297,504.956787 679.153320,506.633728 
	C679.146362,519.185486 686.563232,526.757019 696.527466,532.572693 
	C700.116943,534.667725 703.951416,536.283203 707.950867,537.488220 
	C709.078552,537.828003 710.161316,538.437683 709.966064,539.922058 
	C709.812439,541.090088 708.855652,541.596375 707.887085,541.798950 
	C692.783569,544.957275 687.061523,556.475159 683.345459,569.594849 
	C682.270203,573.390930 682.067078,577.435181 681.483093,581.368469 
	C681.309631,582.537109 681.234741,583.914124 679.687866,583.880859 
	C677.924194,583.842834 677.731873,582.354736 677.671387,580.983276 
	C677.518188,577.508118 678.044617,574.019165 677.154846,570.557556 
	C673.546143,556.517334 661.250061,547.789673 646.105164,548.569519 
	C643.951233,548.680481 641.789246,548.773071 639.636047,548.707031 
	C638.295044,548.665833 636.868591,548.331970 636.550720,546.711853 
	C636.236328,545.109436 637.431885,544.284180 638.610657,543.645142 
	C642.703064,541.426453 646.919800,539.423401 650.922729,537.056702 
	C657.235718,533.324158 663.135010,528.993835 668.693481,523.645020 
z"/>
<path fill="#ffffff" opacity="1.000000" stroke="none" 
	d="
M410.025757,121.974136 
	C413.306213,117.940605 414.864258,113.688110 414.756134,108.800003 
	C414.713684,106.880112 414.454254,104.658920 417.047333,104.001022 
	C418.332428,104.271217 418.791168,105.139343 418.773254,106.210114 
	C418.529388,120.790939 427.949615,127.763725 439.738678,132.860382 
	C440.954834,133.386154 442.277588,133.662582 443.504242,134.167877 
	C444.450165,134.557556 445.259155,135.209808 445.206940,136.382980 
	C445.152588,137.603638 444.229370,137.909592 443.226074,138.248550 
	C430.055786,142.697922 422.222321,153.467133 421.335297,168.279099 
	C421.138855,171.559311 421.138855,171.559311 419.285431,174.019394 
	C417.036072,173.560181 417.262878,171.871887 417.332855,170.182236 
	C417.956543,155.123459 407.830505,144.399963 392.826721,144.211456 
	C390.496674,144.182175 388.165680,144.220917 385.835907,144.182953 
	C384.334991,144.158508 382.617096,144.210663 382.133179,142.391449 
	C381.628632,140.494812 383.297089,139.760529 384.580719,139.108261 
	C390.819305,135.938171 397.020294,132.707977 402.539764,128.354248 
	C405.019531,126.398216 407.376251,124.286194 410.025757,121.974136 
z"/>
<path fill="#ffffff" opacity="1.000000" stroke="none" 
	d="
M308.093964,515.988525 
	C307.572266,519.075867 309.225311,522.956726 306.026398,524.029968 
	C302.819580,525.105835 301.650543,521.145447 299.864655,519.161438 
	C297.874146,516.950134 296.252716,514.406677 294.314362,511.797485 
	C290.594849,512.894592 287.524933,515.161011 284.239777,516.987305 
	C282.502411,517.953186 280.615601,519.359985 278.740784,517.738953 
	C276.709534,515.982483 278.264984,514.062683 279.168030,512.344055 
	C283.552917,503.998810 283.484863,504.086365 276.854126,497.270081 
	C274.780792,495.138733 270.403168,493.194153 272.134705,489.920837 
	C273.994873,486.404327 278.390503,488.423035 281.201385,489.543671 
	C289.598907,492.891510 295.858429,490.773407 300.696716,483.395325 
	C301.232361,482.578461 302.079956,481.957947 302.816559,481.283142 
	C303.811340,480.371887 304.894531,479.370575 306.338715,480.049622 
	C307.812622,480.742645 307.684540,482.177887 307.492157,483.542175 
	C307.422516,484.036255 307.388702,484.536591 307.361328,485.035309 
	C306.779877,495.619690 306.782684,495.614197 316.954559,499.540009 
	C318.971008,500.318298 321.011414,501.059509 322.951599,502.001556 
	C324.268188,502.640808 325.853180,503.419586 325.600800,505.237823 
	C325.336823,507.139435 323.610657,507.176971 322.117462,507.368744 
	C319.808258,507.665344 317.509735,508.106049 315.191620,508.260681 
	C308.456268,508.710083 308.453339,508.666168 308.093964,515.988525 
z"/>
</svg>