<svg version="1.1" id="Layer_1" xmlns="http://www.w3.org/2000/svg" xmlns:xlink="http://www.w3.org/1999/xlink" x="0px" y="0px"
	 width="100%" viewBox="0 0 1024 640" enable-background="new 0 0 1024 640" xml:space="preserve">
<path fill="#ffffff" opacity="1.000000" stroke="none" 
	d="
M148.801819,176.012070 
	C153.087387,160.358612 157.617722,145.216904 162.476700,130.162262 
	C172.629745,98.704941 195.088211,81.289574 226.244354,73.746376 
	C241.501617,70.052437 257.203033,69.415031 272.739410,67.743103 
	C292.253479,65.643127 311.795654,63.745804 331.359253,62.180195 
	C353.256287,60.427845 375.128601,58.385117 397.106384,57.568039 
	C415.929474,56.868244 434.948639,58.491055 453.515076,56.211384 
	C474.106079,53.683128 494.657257,53.480999 515.231567,52.932579 
	C542.377319,52.208992 569.491577,53.946579 596.601624,55.500835 
	C621.698730,56.939690 646.718323,59.110603 671.709045,61.735035 
	C714.542664,66.233269 757.534119,69.428566 799.630676,79.451088 
	C820.492676,84.417984 839.460266,93.449036 857.828735,104.074974 
	C869.983887,111.106567 875.176697,122.946304 879.211792,135.529800 
	C886.235291,157.431976 889.074890,179.976486 889.311768,202.886063 
	C889.456543,216.884445 889.266541,230.885941 889.334778,244.885529 
	C889.442932,267.067108 887.268860,289.070526 884.658630,311.065460 
	C882.660522,327.902771 880.928955,344.781403 879.553955,361.680328 
	C878.075928,379.845093 873.985413,397.520905 869.795776,415.130524 
	C862.056702,447.658325 853.072632,479.908234 841.892822,511.402832 
	C835.905945,528.268555 827.526917,544.340271 819.512695,560.413940 
	C812.835571,573.806030 800.582947,582.099304 788.954224,590.766113 
	C770.678406,604.386963 749.079102,608.554749 727.337280,612.264709 
	C695.725281,617.658997 663.853271,619.369934 631.824646,619.263550 
	C570.659668,619.060425 509.493103,619.226379 448.329285,618.876648 
	C419.683105,618.712830 391.024292,617.967468 362.433319,616.082214 
	C333.711182,614.188232 305.061890,610.950073 276.319733,609.675293 
	C252.383514,608.613647 228.973312,605.058716 205.850830,599.304199 
	C184.354584,593.954407 164.047043,585.729004 146.231781,572.158997 
	C144.775040,571.049377 143.318405,569.895081 141.718521,569.024658 
	C123.566612,559.149719 114.840591,543.022583 111.001144,523.447144 
	C107.993675,508.113464 103.866692,492.984497 102.427010,477.369720 
	C101.142204,463.434601 100.983231,449.445282 101.216690,435.466400 
	C101.575508,413.980469 104.501656,392.701263 106.711609,371.365082 
	C108.943726,349.814880 113.734367,328.739777 118.367966,307.634033 
	C125.178482,276.612671 133.521515,245.952637 139.923294,214.824066 
	C142.564438,201.981537 146.018066,189.276978 148.801819,176.012070 
M191.501251,235.279480 
	C181.502884,235.312866 171.499329,235.543457 161.508774,235.280258 
	C157.641495,235.178391 156.357376,236.729034 155.565781,240.173431 
	C151.466461,258.010040 147.394913,275.858337 142.899048,293.597473 
	C131.050125,340.349182 123.552002,387.728882 122.190269,435.977631 
	C121.833496,448.618622 121.837753,461.338287 122.827347,473.931396 
	C124.052483,489.521881 128.372452,504.654541 131.434601,519.971619 
	C134.062775,533.117981 139.478027,544.267578 151.936646,550.845703 
	C153.545303,551.695068 155.002060,552.856506 156.458435,553.966187 
	C185.720444,576.261475 220.363785,583.109131 255.554123,587.423462 
	C277.323242,590.092285 299.397369,590.165100 321.273041,592.099426 
	C351.628723,594.783691 382.032532,596.621399 412.471039,597.542847 
	C441.273987,598.414856 470.105804,598.489563 498.926086,598.595459 
	C542.422363,598.755249 585.919739,598.591309 629.416565,598.655151 
	C654.409729,598.691772 679.362976,597.887329 704.157532,594.625854 
	C722.453796,592.219238 740.950500,590.268433 758.298340,583.528625 
	C776.194092,576.575806 792.171875,566.113586 801.850159,549.257080 
	C810.100037,534.888306 817.012512,519.514160 822.582886,503.895111 
	C833.307495,473.823547 841.563110,442.936920 849.313354,411.964081 
	C855.088928,388.882690 859.174255,365.482544 860.868835,341.679352 
	C861.871948,327.588806 863.293030,313.507874 865.132263,299.502228 
	C867.346375,282.641266 868.188171,265.723114 868.756165,248.759933 
	C868.874451,245.228241 867.297485,244.018448 864.212463,243.666687 
	C857.597717,242.912399 851.008301,241.865067 844.376709,241.341019 
	C822.788269,239.635117 801.149109,238.878769 779.512878,238.017792 
	C744.233032,236.613937 708.978149,234.218033 673.687683,233.533035 
	C623.550720,232.559875 573.417969,233.414062 523.300476,235.969025 
	C493.369232,237.494888 463.349121,237.222000 433.373718,237.953018 
	C393.543182,238.924408 353.730743,237.520950 313.912720,237.148209 
	C273.440918,236.769348 233.006866,233.752045 191.501251,235.279480 
M518.500000,73.873817 
	C505.192200,74.160690 491.751923,72.801132 478.625427,75.479523 
	C466.862244,77.879761 455.082031,77.340904 443.285004,77.299194 
	C415.122314,77.199615 386.995911,78.298286 358.946411,80.561241 
	C327.444427,83.102722 295.991852,86.287529 264.543427,89.447365 
	C251.486511,90.759270 238.264420,91.379181 225.615356,95.292091 
	C204.656982,101.775436 189.154785,114.237770 182.381073,135.895081 
	C178.755005,147.488586 174.762466,158.987503 171.669891,170.722687 
	C167.912659,184.979935 164.929642,199.441238 161.661072,213.600311 
	C163.459534,215.232056 165.199036,214.694687 166.796890,214.679321 
	C180.118576,214.551147 193.435257,214.633545 206.762268,214.168655 
	C240.581375,212.988907 274.331055,216.345596 308.113251,216.410904 
	C349.581085,216.491089 391.022675,218.015488 432.519531,217.171463 
	C481.301392,216.179230 530.048828,214.304489 578.814453,213.145996 
	C622.416077,212.110199 666.075195,211.508713 709.689087,214.506607 
	C730.439148,215.932922 751.277344,216.063156 772.073669,216.833405 
	C782.555664,217.221634 793.033203,217.729141 803.512878,218.180573 
	C823.634277,219.047333 843.760010,219.882233 863.729919,222.718994 
	C867.865723,223.306503 868.860474,221.471298 868.838440,217.668411 
	C868.770935,206.011398 868.749329,194.370453 867.665955,182.739700 
	C866.113708,166.075394 862.663818,149.870468 856.736511,134.208130 
	C854.869873,129.275818 852.315552,124.766235 847.572876,122.102676 
	C840.460754,118.108391 833.344788,114.083664 826.003906,110.541298 
	C806.282593,101.024704 784.902222,97.277748 763.628662,93.380035 
	C740.544617,89.150604 717.184143,87.005424 693.830322,84.831223 
	C668.982788,82.517952 644.202759,79.368019 619.322876,77.540451 
	C586.110107,75.100769 552.838013,73.344879 518.500000,73.873817 
z"/>
<path fill="#ffffff" opacity="1.000000" stroke="none" 
	d="
M454.166595,349.225189 
	C457.321045,345.739014 460.348541,342.678711 464.291138,340.647491 
	C473.589935,335.856598 483.001953,338.136475 488.779297,346.808899 
	C494.185913,354.924774 496.346283,364.114899 497.282623,373.666290 
	C497.489655,375.777832 497.042389,378.039032 499.454651,380.421600 
	C505.950470,374.982239 512.653015,369.642181 518.984558,363.893524 
	C520.765320,362.276703 520.435547,359.249268 520.736450,356.759918 
	C522.696777,340.542908 525.522156,324.507874 531.574219,309.227600 
	C534.467957,301.921417 538.090515,295.017670 543.049744,288.838989 
	C547.518005,283.271942 553.166992,279.858673 560.114258,278.306885 
	C573.189331,275.386261 581.735840,283.248138 580.079346,296.578766 
	C578.562744,308.783875 573.564026,319.541809 567.011597,329.729248 
	C558.109375,343.570221 547.462830,355.932556 534.683044,366.266144 
	C530.467163,369.675018 531.014709,374.059448 530.801636,378.036407 
	C530.216797,388.952789 528.887024,399.858215 529.368347,412.199402 
	C533.603455,402.339081 537.794495,393.876770 542.981750,385.985107 
	C549.589539,375.932312 556.851379,366.412781 566.458374,358.929260 
	C570.090698,356.099823 574.058716,354.223175 578.444214,356.391083 
	C582.676331,358.483215 583.409851,362.675995 583.387756,367.088928 
	C583.320679,380.502777 579.711609,393.403381 577.817200,406.550995 
	C575.722412,421.089874 574.518494,435.647736 577.296814,450.235962 
	C578.078979,454.343048 579.413452,458.297455 581.773560,461.810791 
	C586.018738,468.130402 590.633728,469.135315 597.048157,465.112671 
	C603.799438,460.878784 607.952026,454.360138 611.547180,447.598785 
	C621.796997,428.321838 626.911621,407.224121 632.671204,386.371643 
	C633.866150,382.045502 634.857788,377.662689 636.079529,373.344666 
	C637.032166,369.978058 639.238953,368.296295 642.847107,369.158447 
	C646.497681,370.030762 648.192017,372.249481 647.496948,376.115417 
	C646.145325,383.633636 643.438049,390.854553 642.861755,398.553070 
	C641.978088,410.358002 641.523926,422.164612 642.405334,433.976257 
	C642.658142,437.364014 643.777893,440.904816 647.464050,441.910950 
	C651.253357,442.945251 653.746887,440.063354 655.591064,437.333038 
	C662.820435,426.629608 665.714600,414.256592 668.697327,401.952606 
	C671.316650,391.147675 672.445923,380.037140 675.666382,369.336761 
	C678.726685,359.168579 684.215454,351.292511 694.486023,347.578644 
	C702.892395,344.538849 708.733948,346.291565 714.471741,353.146973 
	C715.524963,354.405396 716.536987,355.698273 717.998230,357.508026 
	C721.635925,352.259857 724.096069,346.894958 726.211182,341.350861 
	C727.159912,338.864136 727.857300,336.273468 729.533142,334.122131 
	C731.324158,331.822906 733.528992,330.493652 736.466736,331.640808 
	C739.531738,332.837677 740.598816,335.331970 740.275696,338.475525 
	C740.192139,339.288147 739.955078,340.113647 739.636719,340.869293 
	C730.669495,362.157166 729.430359,384.770264 728.411926,407.381317 
	C728.101257,414.280243 729.942627,420.940155 733.212646,427.057495 
	C735.945923,432.170624 740.160217,433.250092 744.794617,429.757141 
	C753.369202,423.294434 757.952454,414.041290 761.501038,404.239105 
	C762.391663,401.779144 761.355408,399.404022 759.998474,397.147522 
	C758.043762,393.897064 757.940796,390.703766 761.706055,388.592590 
	C765.432861,386.502991 768.078125,388.327606 770.101624,391.442627 
	C773.572388,396.785431 774.637878,402.751556 772.575012,408.655975 
	C768.916687,419.127075 763.455811,428.685913 755.339417,436.425110 
	C742.790161,448.390961 727.642517,444.985046 720.970825,428.881775 
	C716.094604,417.112030 716.064026,404.852844 717.259827,392.494659 
	C717.562500,389.366455 717.772034,386.304993 717.515198,382.677307 
	C714.379639,383.848236 713.049500,386.176575 711.364441,388.108795 
	C703.646423,396.958740 694.994812,403.498505 682.157227,399.393158 
	C679.712646,403.372192 679.454224,407.780762 678.378540,411.884094 
	C676.006042,420.934418 673.045166,429.743927 669.001709,438.185150 
	C666.805481,442.770264 663.763672,446.699219 659.798950,449.869110 
	C651.334839,456.636292 641.258911,455.191071 635.035645,446.314880 
	C632.827515,443.165497 631.348022,439.657562 630.358276,435.163269 
	C626.447632,444.686035 622.403992,453.405334 616.916321,461.376495 
	C612.896667,467.215363 608.221741,472.303711 601.993958,475.864899 
	C591.043274,482.126648 580.382141,479.864563 573.024536,469.665161 
	C565.966187,459.880737 564.465149,448.526215 563.901917,436.960236 
	C563.002686,418.497925 566.902100,400.563171 570.104187,382.553619 
	C570.762329,378.852020 571.086304,375.091034 571.651917,370.673950 
	C568.461914,372.039795 566.929138,374.191284 565.189087,376.105133 
	C547.767395,395.266724 538.395508,418.395905 532.214294,443.083282 
	C531.083557,447.599365 530.258240,452.191162 529.192871,456.724731 
	C528.539734,459.503754 527.676453,462.270325 524.968018,463.804443 
	C520.540588,466.312286 515.790710,463.486572 515.709473,457.947510 
	C515.558167,447.621948 515.585815,437.295380 516.252380,426.968231 
	C517.226440,411.876648 517.873718,396.763947 518.709290,380.719452 
	C513.645508,383.409454 510.457764,387.276733 506.498535,390.053833 
	C500.595673,394.194275 497.694489,398.967163 496.764618,406.690674 
	C494.838684,422.688202 488.319336,437.124237 475.722626,448.055206 
	C470.595337,452.504517 464.781219,455.490662 457.964203,456.598755 
	C446.689850,458.431427 438.293091,449.424530 441.332031,438.360168 
	C443.582397,430.166901 449.105286,424.044067 455.175385,418.539368 
	C464.180634,410.372925 473.478882,402.528137 482.702728,394.605042 
	C484.768372,392.830658 486.846832,391.192017 486.622406,388.082153 
	C485.892365,377.964111 485.653229,367.750397 481.667694,358.190765 
	C477.638092,348.525421 471.794067,347.354004 464.790619,355.097961 
	C456.981384,363.732910 453.565155,374.643097 450.220306,385.481720 
	C444.255096,404.811646 441.849701,424.801270 439.281372,444.775391 
	C436.166931,468.996735 435.127838,493.507507 429.319794,517.358643 
	C428.286530,521.601807 426.639862,525.593567 424.152191,529.197754 
	C417.892029,538.267517 407.180908,538.770325 400.071136,530.333862 
	C393.574768,522.625366 392.010925,513.292725 391.700623,503.692291 
	C390.970917,481.117157 394.196167,458.890778 398.055817,436.740387 
	C402.342865,412.137360 408.246338,387.907166 414.989227,363.873077 
	C415.110168,363.441895 415.088074,362.970520 415.170288,362.136780 
	C405.859253,366.490875 396.904938,370.889862 387.316223,373.722198 
	C384.137848,374.661072 384.215271,377.184265 384.283264,379.764069 
	C384.684601,394.992615 383.211731,410.030548 379.286713,424.764801 
	C376.619171,434.778564 373.037079,444.454468 367.162170,453.108978 
	C363.875000,457.951416 359.544189,461.493805 353.758911,462.917053 
	C347.220398,464.525665 339.571289,460.938873 336.006744,454.566925 
	C332.924225,449.056610 331.906891,442.988647 331.724915,436.771454 
	C331.148743,417.085175 331.142822,397.450867 337.598969,378.466766 
	C337.853882,377.717224 337.825775,376.871399 338.025360,375.330841 
	C326.680817,382.285828 316.520691,389.754364 306.504669,397.411530 
	C302.275818,400.644470 298.422882,404.365173 294.256165,407.684784 
	C291.650146,409.760986 291.187256,411.820862 292.415833,415.017517 
	C297.134277,427.294495 301.593475,439.716034 303.884216,452.696045 
	C307.416382,472.710144 307.878052,492.653320 297.142670,510.919708 
	C290.013275,523.050598 281.338745,534.034180 268.329620,540.678223 
	C259.180908,545.350586 249.667023,545.608337 240.194687,542.481750 
	C228.555557,538.640198 223.417389,529.258057 221.758392,517.902283 
	C219.553543,502.810059 222.674438,488.464935 229.048279,474.721680 
	C239.902161,451.318695 255.317871,431.103271 272.910065,412.492767 
	C276.230652,408.980011 276.420837,406.320251 274.743225,402.062653 
	C267.390900,383.403015 256.941956,366.282013 248.472427,348.187531 
	C244.288437,339.248749 240.486191,330.170349 240.420700,320.082520 
	C240.300369,301.543915 245.644409,284.878265 258.770538,271.462372 
	C267.219604,262.826813 279.260986,263.048370 288.487701,271.090668 
	C293.536926,275.491791 296.900787,281.029999 298.865295,287.318420 
	C301.741455,296.525269 304.369202,305.813446 306.913300,315.118774 
	C308.222107,319.905762 306.696808,323.254456 302.990692,323.958832 
	C298.280731,324.854034 296.598999,321.816315 295.499878,317.865509 
	C292.958313,308.729614 290.267151,299.634003 287.521271,290.556946 
	C286.296265,286.507477 284.161652,282.936218 280.892822,280.154572 
	C275.891815,275.898956 270.484680,275.626801 266.299713,280.653717 
	C253.594910,295.914490 248.321838,313.196747 254.787582,332.685822 
	C259.370087,346.498413 267.197052,358.837952 273.650787,371.801270 
	C277.939667,380.416199 281.835846,389.226593 285.833954,397.791290 
	C287.282867,398.277954 287.947174,397.364777 288.668396,396.746368 
	C300.960663,386.206665 314.068146,376.757843 327.582764,367.875977 
	C330.407867,366.019318 331.623596,364.335052 330.787354,360.644073 
	C328.541840,350.732941 334.834503,340.971405 346.328888,335.589447 
	C355.958771,331.080566 365.201233,333.109344 371.904114,341.265900 
	C375.658020,345.833923 378.087677,351.112640 379.971161,356.674866 
	C382.195312,363.243103 382.171539,363.122803 388.432739,360.904388 
	C398.367157,357.384521 407.648590,352.489136 416.989685,347.705170 
	C418.322418,347.022614 419.664368,346.351898 421.034973,345.750763 
	C424.285858,344.324890 427.470154,343.909821 430.303741,346.672668 
	C433.023865,349.324829 432.561981,352.439362 431.320862,355.492615 
	C418.049591,388.139893 412.402588,422.673004 406.662048,457.115906 
	C404.151978,472.176208 402.678467,487.491241 403.373230,502.860657 
	C403.644562,508.862274 404.341736,514.833862 407.356934,520.207336 
	C408.402039,522.069763 409.574860,524.317261 412.066772,524.150269 
	C414.323975,523.999023 415.129669,521.742126 415.908722,519.939697 
	C419.382355,511.903107 420.486572,503.297211 421.636047,494.734131 
	C425.505951,465.905762 427.523529,436.841522 432.667603,408.174194 
	C435.143433,394.376862 438.752167,380.896027 443.851196,367.828888 
	C446.407074,361.278900 449.598969,355.072327 454.166595,349.225189 
M280.916534,421.285858 
	C264.477203,438.453766 250.510483,457.342194 240.177185,478.860962 
	C234.708237,490.249878 232.354691,502.073822 233.225754,514.662048 
	C234.008469,525.973206 241.001877,532.694885 252.332275,532.683472 
	C258.077026,532.677673 263.279053,530.749146 267.561340,527.218750 
	C280.001953,516.962585 290.214142,505.018280 292.874573,488.421997 
	C294.565369,477.874542 294.736725,467.163239 292.669800,456.661133 
	C290.270905,444.471924 287.301727,432.381378 280.916534,421.285858 
M349.807709,379.273651 
	C342.817261,399.278656 342.091919,419.881866 344.138824,440.704254 
	C344.527466,444.657990 344.178009,449.744690 349.530487,450.744049 
	C354.692352,451.707825 356.618805,447.054535 358.679504,443.624268 
	C370.220123,424.413330 372.345764,403.037811 372.630432,381.275055 
	C372.667114,378.472687 370.844238,378.064056 368.627197,378.138428 
	C363.968292,378.294769 359.334747,378.120026 354.708893,377.432281 
	C353.155273,377.201294 351.327759,376.804382 349.807709,379.273651 
M546.166931,305.625153 
	C538.964966,319.512665 535.607117,334.428741 533.594666,351.255005 
	C540.558167,345.417206 545.371521,339.549347 549.933594,333.499146 
	C558.390869,322.283325 566.169556,310.713013 568.342834,296.336060 
	C569.254028,290.308502 567.461060,288.558502 561.630432,289.997803 
	C553.558716,291.990295 550.327820,298.756042 546.166931,305.625153 
M707.623413,363.940948 
	C702.759583,356.864410 697.947144,356.437225 692.095581,362.886200 
	C686.863159,368.652649 685.575623,375.972046 685.672363,383.348694 
	C685.742920,388.733398 689.592346,390.361328 694.402649,387.498566 
	C699.651184,384.374969 703.242798,379.478760 707.208496,374.986359 
	C710.152344,371.651428 710.607300,368.271057 707.623413,363.940948 
M469.435516,437.945618 
	C477.568787,430.132843 481.665222,420.284973 484.681274,408.532227 
	C474.421326,416.657532 465.666382,424.553772 457.630096,433.240662 
	C455.802094,435.216736 454.310699,437.433350 453.334076,439.930573 
	C451.816315,443.811523 452.946869,445.210419 457.178192,444.693329 
	C461.873627,444.119476 465.387329,441.250092 469.435516,437.945618 
M369.330109,364.991821 
	C369.016998,358.065308 366.067596,352.290253 361.330688,347.425690 
	C358.182587,344.192688 354.401398,344.612640 350.794586,346.572693 
	C346.619812,348.841370 342.903259,351.603790 342.316162,357.541534 
	C343.837524,357.134735 344.616608,356.966614 345.369537,356.718842 
	C352.331604,354.427582 355.448456,356.038910 357.246613,363.239746 
	C357.694214,365.032135 358.558289,365.725525 360.137451,366.071777 
	C363.092987,366.719910 366.019897,367.084717 369.330109,364.991821 
z"/>
<path fill="#ffffff" opacity="1.000000" stroke="none" 
	d="
M662.228821,321.576965 
	C672.893860,327.102905 672.828552,327.315094 662.804565,334.309814 
	C659.041199,336.935974 656.965149,341.043610 655.275208,345.251923 
	C654.595886,346.943695 654.031921,348.682007 653.421875,350.401398 
	C652.557129,352.838654 650.960205,354.417511 648.256409,354.198608 
	C645.481750,353.973907 644.198303,351.897034 643.889160,349.486267 
	C643.528625,346.675476 643.081909,343.918549 642.209412,341.223816 
	C641.101501,337.801605 639.635315,335.129395 635.623169,333.901703 
	C630.957397,332.474060 630.397888,327.363342 634.222473,324.030029 
	C637.894531,320.829590 642.465698,319.082550 646.761353,316.936523 
	C649.826111,315.405365 651.703003,313.564209 651.851929,309.786987 
	C651.992126,306.231964 653.707825,303.054138 658.090027,303.814209 
	C662.488098,304.577057 662.684326,307.671295 661.765808,311.444763 
	C660.986328,314.647217 660.865906,318.005554 662.228821,321.576965 
M647.666443,327.483276 
	C646.532593,330.374512 648.877563,331.316406 650.389038,333.048065 
	C652.051941,330.796844 654.928894,329.167206 652.988708,326.405396 
	C651.512817,324.304749 649.793091,326.725739 647.666443,327.483276 
z"/>
<path fill="#ffffff" opacity="1.000000" stroke="none" 
	d="
M496.682617,145.195679 
	C493.758209,137.541000 490.968201,130.247818 487.675201,121.639809 
	C487.186218,130.899475 486.613312,138.836594 486.379639,146.783676 
	C485.904999,162.925827 485.614624,179.073395 485.244263,195.218643 
	C485.225189,196.050827 485.246552,196.894562 485.116180,197.711700 
	C484.590363,201.007095 483.142212,203.473740 479.322388,203.212418 
	C475.729095,202.966568 474.586884,200.493088 474.620728,197.325333 
	C474.755920,184.668167 474.828003,172.008514 475.151001,159.355576 
	C475.690338,138.230423 477.448059,117.128311 476.196198,95.971985 
	C475.958771,91.959717 477.311005,88.416039 481.347229,87.280830 
	C485.314545,86.165016 487.022980,89.160919 488.683258,92.403236 
	C495.561096,105.834961 498.399902,120.721519 504.168610,134.536896 
	C508.709900,145.412735 512.321472,156.686005 518.289612,167.671799 
	C519.112793,156.588211 520.155579,146.099457 520.606689,135.585327 
	C521.184021,122.129372 523.467224,108.772789 522.837097,95.240822 
	C522.749695,93.366020 523.630493,91.328842 524.464966,89.555992 
	C525.706177,86.918900 528.085999,86.159317 530.780457,86.985672 
	C533.332886,87.768494 534.443237,89.738312 534.267395,92.379898 
	C532.710449,115.764549 531.005737,139.140503 529.644043,162.536438 
	C529.102661,171.837204 529.322388,181.181885 529.173096,190.506210 
	C529.146423,192.168915 529.140381,193.849365 528.896118,195.487534 
	C528.393616,198.856934 526.986938,201.708054 523.153992,202.012253 
	C519.466064,202.304947 517.994446,199.649261 516.936523,196.635101 
	C510.872009,179.356735 503.530426,162.580551 496.682617,145.195679 
z"/>
<path fill="#ffffff" opacity="1.000000" stroke="none" 
	d="
M598.305786,170.000031 
	C598.309570,177.332047 598.292603,184.164154 598.324280,190.996048 
	C598.342896,195.007614 596.931396,198.229446 592.514771,198.094635 
	C588.163330,197.961792 587.591675,194.479340 587.611572,190.832062 
	C587.669739,180.167831 587.621948,169.502991 587.606934,158.838379 
	C587.579529,139.354736 587.437805,119.873817 585.845276,100.438072 
	C585.564575,97.011909 586.018616,93.802040 588.027161,90.907089 
	C589.671631,88.536942 591.878784,87.115471 594.773621,87.421074 
	C597.744873,87.734756 599.374084,89.768074 600.317688,92.503891 
	C603.790222,102.572227 606.869263,112.783043 611.169678,122.553864 
	C611.763367,123.902611 612.014832,125.430481 613.918640,126.696579 
	C616.015808,118.609886 620.121277,111.547180 622.869202,103.931129 
	C624.650513,98.994247 627.385193,94.662674 630.283264,90.399483 
	C631.876770,88.055344 634.219543,86.684929 637.147095,87.296722 
	C640.233093,87.941620 642.011780,90.068733 642.546387,93.152557 
	C642.772583,94.456764 642.872314,95.797798 642.879517,97.122902 
	C643.048462,128.114532 643.197205,159.106247 643.347534,190.097961 
	C643.351624,190.931000 643.333435,191.764130 643.325073,192.597214 
	C643.291992,195.885300 641.903259,198.121338 638.405396,198.289413 
	C634.619019,198.471344 632.955627,196.107071 632.794434,192.692230 
	C632.456909,185.540390 632.146790,178.380386 632.113159,171.222382 
	C632.022217,151.899124 632.082031,132.575165 632.082031,111.824532 
	C627.824341,118.704773 625.744446,124.866982 624.162476,131.248703 
	C623.402344,134.315308 622.519226,137.352570 621.640808,140.388397 
	C620.776550,143.375397 619.637878,146.082367 615.875244,146.351761 
	C612.217102,146.613724 609.889343,144.702957 608.168640,141.815033 
	C605.088135,136.644943 602.933228,131.037888 600.621704,125.507034 
	C600.114502,124.293495 599.592346,123.086220 598.305481,121.941025 
	C598.305481,137.794022 598.305481,153.647034 598.305786,170.000031 
z"/>
<path fill="#ffffff" opacity="1.000000" stroke="none" 
	d="
M397.379822,133.999939 
	C396.832581,150.650467 399.084473,166.743408 398.375153,182.898376 
	C398.251038,185.725525 398.302368,188.561249 398.145020,191.385895 
	C397.919525,195.433426 395.648987,197.611359 391.650574,197.215622 
	C387.668793,196.821533 386.292023,193.836166 387.004578,190.345551 
	C387.852722,186.190933 387.790344,182.047775 387.645142,177.915771 
	C386.862091,155.629471 386.402924,133.340225 386.818756,109.833664 
	C382.482056,115.721550 380.727295,121.519981 378.761963,127.203575 
	C377.566772,130.659882 376.552246,134.178223 375.399994,137.649918 
	C374.333435,140.863342 372.529388,143.214325 368.772003,143.496323 
	C365.081604,143.773300 363.453003,141.370728 361.934570,138.666107 
	C358.821014,133.120255 357.036316,127.056351 354.363953,121.015503 
	C354.363953,122.355362 354.400177,123.696342 354.358551,125.034904 
	C353.660553,147.475388 352.974579,169.916306 352.229248,192.355255 
	C352.076569,196.951843 349.671417,199.634262 346.114319,199.175949 
	C341.706268,198.607986 341.306458,195.362000 341.423096,191.748840 
	C342.201569,167.635818 342.675781,143.509003 343.824829,119.414139 
	C344.203491,111.473564 343.792969,103.103287 348.875610,95.976143 
	C350.381561,93.864426 351.894379,92.480225 354.533295,92.764610 
	C357.187195,93.050613 358.602844,94.708321 359.349152,97.158165 
	C361.959656,105.727448 364.609192,114.284821 367.250824,122.869148 
	C369.393646,122.474556 369.308167,120.909042 369.706909,119.789299 
	C373.425598,109.346489 379.104645,99.955299 385.255737,90.829460 
	C387.349213,87.723587 389.875092,84.594460 394.189789,86.204872 
	C398.162567,87.687683 398.377350,91.410568 398.071136,95.061707 
	C396.997772,107.859901 397.485535,120.685074 397.379822,133.999939 
z"/>
<path fill="#ffffff" opacity="1.000000" stroke="none" 
	d="
M543.706177,131.910339 
	C545.737183,118.845284 547.703857,106.212532 549.770874,93.596199 
	C550.332275,90.169617 551.531555,86.993004 555.731567,86.725601 
	C559.869690,86.462143 560.834961,89.496521 561.788574,92.700592 
	C565.878845,106.443489 566.963013,120.775291 570.112488,134.691940 
	C574.476746,153.975876 577.758301,173.444946 580.683105,192.984085 
	C580.805603,193.802582 581.088867,194.626724 581.046387,195.435043 
	C580.862610,198.934540 579.465210,201.853104 575.659973,202.073715 
	C572.081116,202.281158 570.368347,199.682480 569.884705,196.385635 
	C568.848511,189.323196 567.742310,182.264496 566.987549,175.169937 
	C566.575256,171.294983 565.237610,169.241302 561.049683,170.235321 
	C560.732971,170.310501 560.382690,170.230453 560.053955,170.271118 
	C556.427124,170.719604 551.787048,168.222702 549.438110,170.493927 
	C546.478638,173.355530 547.295227,178.591385 546.477417,182.784607 
	C545.398743,188.315308 544.806702,193.952240 544.236389,199.566971 
	C543.827209,203.595047 541.349121,205.231201 537.846985,204.983688 
	C534.326233,204.734894 533.379578,201.874756 533.553223,198.770111 
	C534.063965,189.632904 535.935669,180.682739 537.398621,171.675613 
	C539.526917,158.572311 541.589172,145.458267 543.706177,131.910339 
M555.776794,158.788513 
	C557.267578,158.813721 558.758545,158.831375 560.249084,158.865829 
	C562.811584,158.925079 564.173828,157.564362 563.545410,155.163132 
	C561.055115,145.647949 559.187317,135.988739 557.369019,126.292686 
	C555.223572,126.806541 555.411011,128.116333 555.226501,129.193512 
	C553.831116,137.340302 552.687561,145.540497 550.957825,153.615295 
	C550.126709,157.495132 551.105835,158.950546 555.776794,158.788513 
z"/>
<path fill="#ffffff" opacity="1.000000" stroke="none" 
	d="
M245.269592,195.575516 
	C244.379257,199.857315 242.416107,202.739670 238.056732,201.567978 
	C233.488098,200.340012 233.423904,196.366638 233.953613,192.582474 
	C235.469666,181.751572 236.673172,170.900070 237.064896,159.539719 
	C231.292023,159.415054 226.022110,161.005966 220.686371,161.762527 
	C218.672333,162.048111 218.677277,164.677032 218.430847,166.398300 
	C216.971130,176.594345 215.610046,186.805130 214.299500,197.021698 
	C213.424484,203.843124 211.366776,206.585892 207.364609,205.947403 
	C203.420517,205.318176 202.748825,202.802246 203.474777,195.936890 
	C206.133102,170.796646 211.344666,146.076736 215.446808,121.174530 
	C215.822830,118.891907 215.569321,116.512398 215.821152,114.201080 
	C216.343201,109.409027 219.850586,106.196556 223.605057,106.908867 
	C227.363480,107.621925 228.086014,110.699089 227.093750,116.091728 
	C225.085510,127.005928 223.613678,138.018829 221.855148,149.415588 
	C227.484818,150.345764 232.442810,148.949829 237.186523,147.249466 
	C239.576950,146.392609 239.322220,143.340973 239.645447,141.091751 
	C241.323059,129.417633 243.041916,117.747444 244.508408,106.046074 
	C244.977112,102.306152 246.537018,99.749588 250.341660,100.120468 
	C254.087021,100.485573 255.678604,103.478653 255.239182,107.043022 
	C253.877914,118.085068 252.280869,129.097794 250.828094,140.128860 
	C248.420654,158.408875 246.525375,176.741653 245.269592,195.575516 
z"/>
<path fill="#ffffff" opacity="1.000000" stroke="none" 
	d="
M671.036011,92.669113 
	C676.523315,92.695541 681.516846,92.693573 686.509705,92.752769 
	C690.100952,92.795334 692.963623,94.211433 692.941406,98.140480 
	C692.919312,102.056152 690.150574,103.433403 686.474243,103.389999 
	C680.150085,103.315338 673.813354,103.552483 667.504150,103.226494 
	C663.128662,103.000404 661.861877,104.839119 662.391052,108.806129 
	C663.536133,117.389267 663.982788,126.027168 664.065186,134.675705 
	C664.096436,137.960403 665.649292,139.194626 668.673767,139.027435 
	C671.491638,138.871674 674.306946,138.655441 677.119263,138.416428 
	C679.990662,138.172394 682.020630,139.368759 682.954651,142.048416 
	C683.939697,144.874496 682.560486,146.871368 680.216797,148.319336 
	C676.941223,150.343063 673.285767,150.638214 669.603638,150.269165 
	C665.825012,149.890427 664.168701,151.054413 664.259705,155.172974 
	C664.469177,164.650253 664.601562,174.149567 663.393433,183.589920 
	C662.910095,187.366516 664.156494,189.366821 668.266846,188.896332 
	C672.552979,188.405716 676.756592,190.200821 681.157959,189.092575 
	C683.608459,188.475571 685.554443,190.258774 686.566040,192.625519 
	C687.581482,195.001465 686.465942,196.841797 684.836060,198.418671 
	C683.188293,200.012878 681.070251,200.507629 678.849487,200.477188 
	C673.360046,200.401993 667.863281,200.418350 662.384521,200.121246 
	C655.479370,199.746811 652.990356,196.975296 652.668457,190.067429 
	C652.264404,181.397156 653.786621,172.792831 653.616333,164.155258 
	C653.242859,145.209000 653.043701,126.252777 651.705200,107.335739 
	C651.517822,104.687447 651.559814,102.001221 651.756470,99.351913 
	C652.194214,93.454254 654.732117,91.642593 660.580627,92.339691 
	C663.867310,92.731453 667.219360,92.575897 671.036011,92.669113 
z"/>
<path fill="#ffffff" opacity="1.000000" stroke="none" 
	d="
M791.175476,174.717300 
	C789.595032,158.833679 785.703308,144.180206 777.072083,131.026672 
	C775.718079,128.963272 774.699768,126.600159 773.934692,124.243042 
	C769.841675,111.633209 778.070618,100.842918 791.335693,101.292313 
	C796.390259,101.463554 803.809753,108.741798 804.012573,113.849709 
	C804.122192,116.608154 802.946472,118.744820 800.209412,119.644157 
	C797.369873,120.577171 795.205750,119.257103 793.929688,116.891701 
	C792.202087,113.689247 790.486633,110.815178 786.312195,113.273064 
	C782.277039,115.648956 783.118286,119.013580 784.898193,122.375130 
	C790.262512,132.506226 796.415955,142.255905 798.683594,153.784027 
	C800.644531,163.753052 802.625610,173.684647 802.328430,183.924194 
	C802.109985,191.449951 797.724976,198.756256 791.978821,200.856567 
	C785.372375,203.271362 778.171143,200.972626 772.961914,194.383926 
	C766.229126,185.868042 765.091553,175.872726 766.280823,165.521606 
	C766.681335,162.035904 768.519287,158.905670 772.833130,159.576233 
	C777.184692,160.252670 777.447510,163.590820 777.169861,167.225845 
	C776.684448,173.581635 776.627014,179.962433 780.121338,185.644775 
	C781.754089,188.299866 783.654724,191.525055 787.458984,190.386414 
	C790.998901,189.326874 791.626770,185.943527 791.603882,182.630539 
	C791.586670,180.137756 791.381592,177.646286 791.175476,174.717300 
z"/>
<path fill="#ffffff" opacity="1.000000" stroke="none" 
	d="
M734.632812,97.388603 
	C743.063416,97.476410 751.051147,97.460182 759.038757,97.490501 
	C761.536865,97.499977 764.111633,97.437546 765.943726,99.611412 
	C768.455750,102.591988 766.672913,107.118675 762.499023,108.022247 
	C760.737854,108.403519 758.856323,108.272606 757.028564,108.295593 
	C749.284973,108.392990 749.057007,108.366402 748.526367,116.044777 
	C747.412720,132.157135 743.614380,147.880157 741.865234,163.894592 
	C741.071899,171.157593 740.219604,178.414200 739.378723,185.671936 
	C739.042358,188.575516 740.128662,190.128006 743.229004,189.980072 
	C745.553711,189.869141 747.891541,189.964981 750.209045,189.784012 
	C754.026672,189.485840 757.014343,190.416733 757.192017,194.825836 
	C757.370483,199.257736 754.495422,201.082764 750.524170,201.184753 
	C743.870911,201.355606 737.211182,201.275085 730.554138,201.293915 
	C727.891907,201.301437 725.207520,201.508560 722.572815,201.238358 
	C718.782349,200.849625 716.238342,198.868073 716.776001,194.689301 
	C717.257019,190.951126 719.840271,189.724945 723.311401,190.450409 
	C727.148987,191.252441 728.384827,189.394211 728.653625,185.940399 
	C730.317932,164.556625 733.788574,143.414474 737.247803,122.270660 
	C737.568298,120.311829 737.463623,118.285995 737.737732,116.316521 
	C738.443359,111.247627 737.925232,107.641991 731.218262,107.856216 
	C727.424500,107.977394 724.993103,105.150093 725.923584,101.081604 
	C726.950989,96.589081 730.375061,96.262550 734.632812,97.388603 
z"/>
<path fill="#ffffff" opacity="1.000000" stroke="none" 
	d="
M271.272766,164.449829 
	C272.208801,149.237228 274.639130,134.610825 275.021057,119.804344 
	C275.150208,114.797272 275.129181,110.671562 268.423035,110.041145 
	C264.999603,109.719330 262.921539,106.790443 263.915863,103.010124 
	C264.750000,99.838951 267.337646,98.049904 270.384094,98.976784 
	C279.125732,101.636368 287.850067,99.631126 296.551819,99.307518 
	C300.449219,99.162575 303.686401,99.057823 304.610291,103.623795 
	C305.342346,107.241959 302.798920,109.575012 297.686066,110.292992 
	C286.747314,111.829094 286.949646,111.846008 286.032593,122.815063 
	C284.330536,143.173584 282.412933,163.514618 280.484558,183.853394 
	C279.876038,190.271561 280.176514,190.775162 286.513275,190.796982 
	C286.846161,190.798126 287.179016,190.793701 287.511902,190.794373 
	C293.912476,190.807343 296.437103,192.329651 296.249359,196.314636 
	C295.990326,201.812698 291.593994,201.933517 287.868134,201.901123 
	C280.664337,201.838531 273.623016,202.989807 266.526215,203.827103 
	C262.028687,204.357727 258.707733,201.969131 258.741943,198.191040 
	C258.781342,193.843048 261.160919,191.812714 265.532471,192.435333 
	C268.122345,192.804199 268.738190,191.139420 268.943604,189.198151 
	C269.572083,183.258347 270.112946,177.309174 270.668030,171.361786 
	C270.868774,169.211105 271.013428,167.055222 271.272766,164.449829 
z"/>
<path fill="#ffffff" opacity="1.000000" stroke="none" 
	d="
M428.556824,196.345581 
	C428.442352,197.957260 428.408386,199.122940 428.330475,200.285675 
	C428.138153,203.155945 426.754303,204.959717 423.763367,205.247391 
	C420.522491,205.559128 418.484711,203.846817 418.114716,200.877106 
	C417.685760,197.434097 417.641052,193.880753 417.941681,190.419785 
	C419.501648,172.460846 418.456360,154.475113 418.504639,136.506897 
	C418.518402,131.386032 415.334534,126.782135 413.679291,121.920120 
	C410.890869,113.729576 407.996552,105.575043 405.217957,97.381218 
	C404.171844,94.296333 404.443451,91.369072 407.339783,89.345871 
	C410.826874,86.910042 414.881531,88.820877 415.843048,93.468224 
	C417.231140,100.177345 419.523346,106.581757 421.969574,112.944672 
	C422.363495,113.969315 422.520264,115.246857 424.338074,115.754532 
	C426.746979,110.216805 429.139954,104.612045 431.628723,99.050156 
	C432.509125,97.082596 433.535126,95.166306 434.651123,93.321243 
	C436.373718,90.473297 439.060974,89.535141 441.932892,91.027313 
	C445.172394,92.710480 445.518707,95.798813 443.875000,98.772980 
	C438.932281,107.716431 435.842529,117.392883 432.302155,126.902695 
	C430.301605,132.276321 429.446198,137.781158 429.341858,143.467224 
	C429.021179,160.943192 430.098816,178.438553 428.556824,196.345581 
z"/>
</svg>