<svg version="1.1" id="Layer_1" xmlns="http://www.w3.org/2000/svg" xmlns:xlink="http://www.w3.org/1999/xlink" x="0px" y="0px"
	 width="100%" viewBox="0 0 1694 1321" enable-background="new 0 0 1694 1321" xml:space="preserve">
<path fill="#FFFFFF" opacity="1.000000" stroke="none" 
	d="
M774.350464,26.315998 
	C791.439514,25.846119 808.100525,25.996689 824.667664,24.823151 
	C846.542725,23.273630 868.291382,23.776619 889.897522,27.107595 
	C905.630920,29.533186 921.217834,32.937428 936.835754,36.075993 
	C960.980164,40.928005 985.496948,44.272636 1008.480652,53.855083 
	C1035.656372,65.185257 1063.918823,73.920677 1089.944702,87.996353 
	C1106.376709,96.883347 1123.335938,104.931984 1139.108643,114.865417 
	C1157.574219,126.494797 1175.488037,139.140625 1192.769653,152.474930 
	C1215.599976,170.090515 1236.205566,190.305740 1255.545898,211.673676 
	C1282.286377,241.217651 1305.386963,273.439606 1324.262939,308.599640 
	C1339.261108,336.536469 1353.773315,364.734589 1365.089233,394.398163 
	C1384.353149,444.896851 1403.882812,495.341187 1417.430420,547.771301 
	C1427.203369,585.593201 1432.847900,624.108765 1435.251343,663.135986 
	C1437.425781,698.444153 1435.932373,733.666321 1433.889648,768.892456 
	C1433.139404,781.830505 1431.811157,794.734436 1430.895386,807.664429 
	C1430.795654,809.074097 1431.240845,811.008362 1432.184204,811.932190 
	C1444.148804,823.647461 1458.049927,832.193115 1473.303101,839.291443 
	C1494.413330,849.115417 1513.711304,862.404358 1531.024170,877.877319 
	C1553.109741,897.615662 1574.813232,917.999939 1592.648560,941.824707 
	C1612.734375,968.655701 1634.002319,994.704529 1650.095459,1024.340454 
	C1663.944458,1049.843994 1674.233643,1076.604492 1677.654419,1105.558472 
	C1679.461426,1120.852295 1678.147339,1136.126099 1672.491821,1150.651245 
	C1664.935913,1170.056641 1655.577759,1188.641968 1641.344238,1203.983643 
	C1632.802979,1213.189941 1622.543457,1220.809570 1612.996826,1229.073975 
	C1597.170166,1242.774902 1581.774902,1256.992554 1563.584473,1267.720459 
	C1530.196533,1287.411133 1494.552490,1299.436279 1455.656128,1302.294678 
	C1433.804199,1303.900269 1412.514893,1300.175415 1391.047119,1298.163452 
	C1371.222778,1296.305298 1351.072266,1294.939209 1331.864380,1290.151367 
	C1298.053223,1281.723633 1265.109375,1270.265137 1234.044922,1253.917358 
	C1211.963013,1242.296509 1189.648071,1231.078857 1167.085815,1220.424927 
	C1153.509033,1214.013794 1139.296021,1208.932251 1125.262817,1203.528442 
	C1123.559570,1202.872681 1121.029175,1203.517578 1119.161133,1204.260620 
	C1078.979370,1220.242676 1038.011353,1233.841309 995.575684,1242.272095 
	C973.482178,1246.661499 951.040466,1249.724609 928.611267,1251.881348 
	C905.127930,1254.139160 881.483826,1255.093872 857.886475,1255.693359 
	C834.583374,1256.285522 811.501709,1253.109985 788.548767,1249.206299 
	C767.466431,1245.620605 746.231079,1242.764160 725.327820,1238.336670 
	C695.034058,1231.920288 665.470093,1222.629761 636.635071,1211.392212 
	C618.493408,1204.322021 600.847168,1195.917969 583.223145,1187.594604 
	C535.094543,1164.864868 492.850616,1133.710693 454.082031,1097.446289 
	C419.326416,1064.935791 391.499817,1027.132202 365.457642,987.527344 
	C337.528595,945.052979 320.926178,897.945862 305.066681,850.392395 
	C293.050049,814.361267 285.081879,777.288635 279.138031,739.815735 
	C275.913361,719.485779 273.708191,698.995422 270.746826,678.620422 
	C270.446533,676.554382 268.471344,674.260132 266.641327,672.964966 
	C255.312668,664.947632 243.494156,657.594849 232.431137,649.236694 
	C218.391968,638.630005 205.317413,626.727844 191.114105,616.360901 
	C163.267212,596.035645 138.706299,572.499512 117.102303,545.638611 
	C101.692177,526.478760 85.458115,507.977295 69.447884,489.305389 
	C49.192829,465.683044 38.339218,437.656677 31.043615,407.959961 
	C25.761463,386.458954 24.760237,364.550873 26.166292,342.584351 
	C27.552107,320.934082 35.833160,301.266327 44.266689,281.519836 
	C61.485966,241.202194 91.719231,212.581635 126.666267,188.282257 
	C163.215530,162.868820 204.001221,147.210190 247.678970,139.194412 
	C279.738922,133.310730 311.769257,134.161453 343.934723,139.614319 
	C369.454132,143.940491 394.814667,148.610794 419.341125,156.992737 
	C426.981140,159.603729 434.355377,162.992371 442.437439,166.262177 
	C450.541809,159.524017 459.192413,152.273849 467.904449,145.098251 
	C507.993683,112.079147 551.696167,85.483475 600.359314,66.584663 
	C639.734253,51.293003 679.984253,39.878132 721.457397,32.679295 
	C738.776367,29.673098 756.397034,28.405376 774.350464,26.315998 
M369.000916,742.317932 
	C368.804657,742.707520 368.608398,743.097107 368.682556,744.248291 
	C368.976837,746.050415 369.146362,747.883484 369.584290,749.649963 
	C375.306580,772.731384 380.011627,796.130615 387.046112,818.806763 
	C400.080902,860.825256 414.555389,902.209351 438.636658,939.790833 
	C464.193024,979.674316 492.671692,1016.898560 528.927246,1047.504028 
	C557.141785,1071.321655 587.240112,1092.359985 620.675903,1108.829224 
	C657.634644,1127.033691 695.885925,1141.189819 735.752258,1150.870117 
	C756.179749,1155.830322 777.150818,1158.563477 797.890198,1162.223999 
	C819.664856,1166.067383 841.593018,1169.315674 863.718994,1168.325317 
	C890.102905,1167.144653 916.542664,1165.664917 942.749512,1162.555542 
	C964.344543,1159.993286 985.635193,1154.865845 1007.060791,1150.875244 
	C1007.075989,1150.308228 1007.091125,1149.741211 1007.106323,1149.174072 
	C1002.471802,1146.409546 997.790100,1143.720581 993.210876,1140.867310 
	C971.909790,1127.594727 950.608826,1114.321533 929.362915,1100.960815 
	C911.913208,1089.987427 894.583191,1078.823486 877.122192,1067.868408 
	C860.506042,1057.443359 844.336792,1046.129272 826.993591,1037.079224 
	C797.621155,1021.751953 770.525818,1002.869995 742.486633,985.467529 
	C721.734375,972.587646 701.399780,959.035278 680.665039,946.126465 
	C646.341553,924.757935 611.568481,904.099976 577.508850,882.323120 
	C549.558411,864.452271 522.316467,845.468323 494.864502,826.824585 
	C479.428802,816.341492 464.376007,805.289307 448.845642,794.951904 
	C422.430847,777.369507 395.775299,760.148804 369.000916,742.317932 
M1164.239624,243.246475 
	C1162.869263,242.034683 1161.481689,240.841553 1160.130981,239.608231 
	C1141.964600,223.022034 1123.275635,206.994232 1102.128906,194.353882 
	C1084.608765,183.881226 1066.679321,173.957642 1048.303589,165.091385 
	C1030.458618,156.481140 1011.949097,149.182831 993.476562,141.960007 
	C980.240967,136.784836 966.818848,131.739975 953.059570,128.336411 
	C934.853394,123.832832 916.186340,121.228012 897.809814,117.367424 
	C877.384033,113.076317 856.909058,110.311127 835.957642,111.818756 
	C825.176636,112.594551 814.328125,112.395218 803.534607,113.043495 
	C785.305603,114.138351 766.976807,114.649734 748.903076,117.026787 
	C710.740601,122.045921 673.659241,131.608261 637.803528,145.875427 
	C614.989075,154.953461 592.531494,164.632935 571.627075,177.660645 
	C544.453857,194.595139 519.991272,215.047958 495.754730,235.796738 
	C483.652679,246.157211 471.442169,256.457428 462.761108,270.106018 
	C451.431152,287.919281 440.128174,305.750122 428.916931,323.638184 
	C425.402893,329.244995 421.695618,334.823120 418.986572,340.825012 
	C410.403564,359.840729 401.328918,378.712555 394.158630,398.268585 
	C384.648773,424.205383 376.756073,450.735138 368.218445,476.857208 
	C370.862488,478.782562 372.632904,479.970337 374.293274,481.295898 
	C401.484924,503.004639 429.179077,523.992676 458.577332,542.704834 
	C475.861206,553.706116 492.310699,566.023621 509.649475,576.932190 
	C545.319031,599.373413 581.838989,620.496399 617.058350,643.610291 
	C649.531677,664.921753 680.705933,688.207397 712.560852,710.468323 
	C729.195374,722.092896 746.593140,732.688660 762.709534,744.977356 
	C791.172363,766.680298 821.338318,785.707092 852.140686,803.731567 
	C890.590820,826.231018 929.432129,848.063477 968.157288,870.091064 
	C994.842163,885.269897 1021.554993,900.401978 1048.367798,915.353027 
	C1078.158813,931.964844 1108.185913,948.155334 1137.899658,964.903076 
	C1155.146484,974.623962 1172.137695,984.824890 1188.949585,995.282959 
	C1203.222046,1004.161255 1217.072388,1013.718140 1231.225708,1023.051392 
	C1233.718384,1020.326294 1236.215576,1017.667175 1238.631836,1014.936584 
	C1241.606812,1011.574707 1244.457886,1008.102417 1247.459351,1004.765015 
	C1284.617188,963.447693 1309.498291,915.170776 1327.727661,863.134583 
	C1336.450562,838.235046 1343.029297,812.794189 1344.995361,786.414368 
	C1346.700928,763.529785 1348.576172,740.597290 1348.733032,717.674622 
	C1348.896729,693.758667 1347.753906,669.780396 1345.981323,645.918518 
	C1343.914062,618.090271 1339.189331,590.511597 1331.158081,563.794495 
	C1321.899048,532.993713 1311.549683,502.499451 1300.899048,472.143890 
	C1289.399170,439.368073 1277.395508,406.701080 1260.870728,376.041199 
	C1249.393311,354.745941 1237.626587,333.518311 1224.505981,313.219116 
	C1207.832886,287.423859 1186.927124,264.961639 1164.239624,243.246475 
M316.792511,611.749817 
	C332.263794,622.792053 347.390900,634.359863 363.279816,644.764221 
	C393.955872,664.851440 425.126617,684.181335 455.972351,704.011780 
	C490.010284,725.894531 521.724731,751.165466 556.409424,772.179871 
	C575.884155,783.979004 593.716736,798.454041 612.782593,810.972046 
	C633.887329,824.828918 655.532593,837.864441 676.984009,851.190796 
	C701.650208,866.514282 726.472656,881.589111 751.025208,897.092041 
	C780.317383,915.587524 809.185852,934.760437 838.632080,953.003662 
	C862.200317,967.605225 886.508850,981.006836 910.208252,995.402954 
	C930.926025,1007.987976 951.818237,1020.414246 971.611145,1034.361328 
	C997.225891,1052.411011 1023.926941,1068.744141 1051.695435,1082.849243 
	C1086.479126,1100.517822 1122.504761,1115.790649 1158.292114,1131.415771 
	C1179.954956,1140.874146 1202.189453,1148.890503 1222.940674,1160.523071 
	C1237.501953,1168.685669 1253.427246,1174.399780 1268.072754,1182.430420 
	C1294.747925,1197.057251 1323.297852,1206.702393 1352.543945,1213.768921 
	C1370.177734,1218.029663 1388.742432,1218.509644 1406.914673,1220.445312 
	C1419.799438,1221.817871 1432.762451,1224.038696 1445.629395,1223.681396 
	C1476.916626,1222.812500 1505.590942,1212.679321 1530.969849,1194.496216 
	C1544.176880,1185.033813 1555.666748,1173.193970 1568.743896,1163.526001 
	C1582.208618,1153.571533 1591.373291,1140.916016 1597.139648,1125.533569 
	C1598.322388,1122.378296 1599.230347,1118.802979 1599.021973,1115.499512 
	C1598.221191,1102.805786 1593.907227,1090.980347 1589.122803,1079.320557 
	C1580.792114,1059.017822 1568.011963,1041.444214 1555.390381,1023.728455 
	C1535.266113,995.482056 1513.685425,968.530151 1487.805786,945.259338 
	C1483.723877,941.588928 1479.812012,937.708740 1475.545532,934.267883 
	C1455.377319,918.003174 1432.264648,906.724060 1409.137085,895.488281 
	C1405.589600,904.750488 1401.998657,914.126038 1398.911133,922.187378 
	C1416.003418,936.988831 1432.718994,951.386536 1449.343750,965.888489 
	C1460.012817,975.195374 1466.297485,987.397156 1471.639038,1000.212341 
	C1478.463135,1016.584106 1486.002197,1032.940674 1486.096802,1050.985840 
	C1486.188965,1068.555908 1485.404785,1086.224731 1483.487183,1103.683472 
	C1481.719482,1119.777710 1473.329468,1132.852417 1459.080566,1141.090088 
	C1439.758423,1152.260742 1418.572876,1158.464722 1396.371704,1157.697998 
	C1372.832642,1156.885498 1349.355591,1153.861938 1325.892822,1151.409058 
	C1310.593384,1149.809814 1296.933838,1142.806152 1282.650635,1137.680298 
	C1253.826904,1127.336304 1227.394287,1112.252563 1200.580566,1097.974243 
	C1188.765991,1091.682983 1178.550171,1082.464111 1167.130127,1075.341675 
	C1145.706665,1061.980591 1125.399414,1046.905518 1102.733276,1035.415649 
	C1084.074707,1025.957275 1066.422363,1014.533081 1048.124268,1004.338318 
	C1034.975830,997.012756 1021.387207,990.479919 1008.199768,983.221191 
	C995.467346,976.212952 983.071594,968.595764 970.395630,961.481628 
	C948.804749,949.364075 926.998718,937.626831 905.488831,925.368713 
	C881.149902,911.498535 857.038696,897.228943 832.826660,883.136108 
	C811.543701,870.748169 789.958435,858.844971 769.076904,845.813904 
	C754.530212,836.736206 740.977112,826.071777 726.928162,816.190063 
	C700.947815,797.915894 674.837036,779.825745 648.950256,761.420288 
	C617.293335,738.912170 585.876465,716.112610 552.194397,696.570923 
	C530.765625,684.138428 510.209625,670.209473 489.128265,657.168091 
	C464.525085,641.947937 439.731232,627.087891 416.495117,609.715149 
	C399.312225,596.868103 381.029388,585.502258 363.615112,572.951294 
	C351.513733,564.229492 339.965210,554.727783 328.330750,545.374146 
	C312.187256,532.395447 296.021637,519.433899 280.196014,506.073547 
	C268.898773,496.536163 258.378387,486.079681 247.099564,476.519073 
	C224.183472,457.094055 202.374100,436.579926 184.650467,412.213684 
	C169.996582,392.067719 157.995636,370.705231 156.663269,344.796753 
	C155.358978,319.433716 163.862793,298.508636 184.582260,283.812531 
	C193.478943,277.502197 203.936615,272.993683 214.233765,269.128204 
	C252.115555,254.907593 290.918152,255.037933 329.939301,263.585144 
	C339.392487,265.655731 348.559814,269.031372 358.146881,271.892975 
	C367.178375,258.148956 378.170044,245.168518 380.377960,227.496414 
	C378.972229,227.118835 377.239838,226.539276 375.461945,226.194016 
	C360.673126,223.322144 345.910431,220.296356 331.072845,217.699890 
	C310.848267,214.160736 290.605316,212.723801 270.051544,215.784348 
	C227.630783,222.101013 189.751556,238.179260 155.934998,264.787659 
	C132.311935,283.375366 116.748619,306.958130 107.779778,335.102051 
	C102.188148,352.648407 103.927299,370.652832 107.750114,388.330353 
	C111.773476,406.935211 117.986153,424.641266 130.744232,439.461700 
	C145.700897,456.836151 160.307739,474.511261 175.141617,491.992065 
	C188.262192,507.453705 200.932526,523.360779 216.895966,536.126404 
	C236.050690,551.444031 255.034134,566.989868 274.532318,581.859131 
	C288.052551,592.169556 302.317169,601.503845 316.792511,611.749817 
M1336.713013,1033.211548 
	C1328.632446,1043.349365 1320.551880,1053.487061 1312.004150,1064.210938 
	C1319.097046,1067.016602 1325.792480,1071.208130 1332.932251,1072.199219 
	C1354.136108,1075.142212 1375.487671,1077.173462 1396.837769,1078.841797 
	C1406.335693,1079.583984 1406.708008,1078.730225 1407.290283,1069.251099 
	C1408.524902,1049.153076 1402.920532,1031.381836 1388.128662,1017.229492 
	C1380.230713,1009.673157 1371.837769,1002.633850 1363.630371,995.327454 
	C1354.573364,1008.031982 1345.818970,1020.312134 1336.713013,1033.211548 
M241.242050,355.105225 
	C255.526550,378.434937 275.869751,396.055908 295.158203,413.910706 
	C304.032990,389.837769 312.655670,366.448700 321.383575,342.774200 
	C293.210846,335.374756 264.999634,333.378876 236.633560,345.012756 
	C238.230865,348.471741 239.602066,351.441040 241.242050,355.105225 
z"/>
</svg>