<svg version="1.1" id="Layer_1" xmlns="http://www.w3.org/2000/svg" xmlns:xlink="http://www.w3.org/1999/xlink" x="0px" y="0px"
	 width="100%" viewBox="0 0 1024 512" enable-background="new 0 0 1024 512" xml:space="preserve">
<path fill="#000000" opacity="1.000000" stroke="none" 
	d="
M437.468658,513.000000 
	C431.901794,510.045990 426.037170,509.315491 420.573700,507.415680 
	C393.240326,497.911011 367.960266,484.768158 346.093018,465.635773 
	C341.406647,461.535553 336.309540,459.701599 330.337646,459.438660 
	C290.292725,457.675568 251.074722,450.391174 212.039932,441.812683 
	C186.543457,436.209442 160.941818,431.073792 135.499191,425.240509 
	C119.594574,421.594055 104.066490,416.425293 88.898720,410.428894 
	C77.519173,405.930115 68.306580,397.597534 57.989784,391.194153 
	C49.147099,385.705658 41.588509,378.730530 34.365063,371.279877 
	C16.481100,352.833374 9.464998,329.968140 11.246715,305.371429 
	C12.970054,281.580627 21.511232,259.508545 36.738983,240.314346 
	C65.705360,203.802948 101.800179,176.060486 142.343689,153.892487 
	C158.758026,144.917633 177.115387,140.513016 194.873901,134.872421 
	C212.954636,129.129486 231.277496,124.241989 250.253036,122.353699 
	C251.081024,122.271309 252.002151,121.843903 252.714600,122.078728 
	C260.216888,124.551620 263.210327,119.381302 266.778442,114.374344 
	C285.963257,87.453125 309.943787,65.861542 337.651215,47.686199 
	C361.490265,32.048443 387.330811,22.102804 414.569122,15.451747 
	C430.337158,11.601504 446.623505,10.471742 462.925568,9.192558 
	C490.048584,7.064287 515.945007,11.261840 541.623230,18.776344 
	C569.351624,26.890806 593.891296,41.349815 616.835693,58.423927 
	C639.819214,75.527176 662.539185,93.058540 681.935120,114.388672 
	C688.779236,121.915207 695.275146,129.733398 701.028687,138.127899 
	C702.897217,140.854111 704.737793,141.132217 708.065796,140.600052 
	C716.739685,139.213074 725.569092,138.040985 734.327209,138.102844 
	C750.646118,138.218109 766.918701,136.812683 783.261292,137.507858 
	C815.518433,138.879959 847.088745,143.950241 878.071472,153.027084 
	C911.122498,162.709869 942.096313,176.531433 969.799988,197.303986 
	C990.819580,213.064667 1005.538330,233.089691 1008.861633,259.429260 
	C1013.649719,297.377197 1005.653442,331.697601 977.697144,360.054749 
	C960.251892,377.750183 941.049988,392.798523 920.040222,405.977600 
	C889.890442,424.890015 857.956848,439.494843 823.559143,448.529083 
	C804.743347,453.470886 785.737244,457.771149 766.376709,459.980469 
	C755.642334,461.205383 744.817444,461.875458 734.015015,462.219879 
	C706.229919,463.105743 678.473999,464.476318 650.737183,466.305267 
	C648.761536,466.435547 647.249512,467.333618 645.781372,468.424377 
	C616.972046,489.827759 584.469177,503.027161 549.898315,511.648956 
	C549.099121,511.848236 548.351562,512.254700 547.289978,512.782288 
	C510.645782,513.000000 474.291534,513.000000 437.468658,513.000000 
M682.379822,179.093536 
	C676.310242,168.723587 669.682434,158.732971 661.954651,149.514420 
	C636.406616,119.037834 605.174133,95.261955 571.821106,74.207779 
	C531.273010,48.611698 486.918213,42.252922 439.964264,49.213604 
	C417.139923,52.597198 395.229126,59.155796 375.077454,69.770004 
	C343.165863,86.578331 315.806152,109.354591 295.548370,139.679230 
	C279.706818,163.392975 269.682434,189.389145 265.937469,217.815201 
	C265.004242,224.899048 266.297455,231.739899 266.173767,238.699951 
	C265.764160,261.753387 270.822937,283.919159 277.348022,305.830688 
	C277.956512,307.874054 278.939789,309.344147 281.366425,309.638763 
	C301.703888,312.107819 322.148468,313.328186 342.596527,313.647461 
	C375.728363,314.164856 408.870148,313.353699 441.981628,315.663940 
	C472.834167,317.816559 503.625916,320.877869 534.697266,318.929657 
	C563.265198,317.138397 591.945129,317.196808 620.535583,315.682861 
	C648.640991,314.194580 676.720886,312.840363 704.859314,314.132538 
	C708.113708,314.282013 708.243774,312.265778 708.664551,310.103455 
	C713.838623,283.516357 712.294434,257.226227 705.885742,230.990280 
	C701.342834,212.392624 691.956116,196.138062 682.379822,179.093536 
M706.399719,404.185120 
	C705.073364,404.305023 703.737122,404.358368 702.422180,404.554657 
	C674.923584,408.659943 647.377747,411.055328 619.468994,410.523926 
	C575.667419,409.689941 531.841736,410.219971 488.029022,409.846924 
	C464.550293,409.647034 441.071686,409.191376 417.592743,408.550293 
	C393.622162,407.895874 369.725220,405.366241 345.708130,405.979919 
	C338.901001,406.153870 332.013794,405.898468 325.263397,405.046783 
	C309.365906,403.040985 293.373444,402.987946 277.426483,402.557159 
	C261.393494,402.124084 245.574600,399.960388 229.819366,397.632019 
	C209.326096,394.603455 189.729980,387.607880 170.634491,379.899353 
	C134.195892,365.189667 112.728561,331.982727 117.080460,290.908142 
	C119.458672,268.461731 129.459274,248.580490 143.522766,230.845505 
	C166.087708,202.389633 196.945175,188.821899 231.418930,181.735916 
	C233.126587,181.384933 234.767761,181.309937 235.422852,179.409409 
	C237.733917,172.704529 240.014145,165.989014 242.450897,158.853348 
	C241.192154,158.917587 240.559830,158.919388 239.934464,158.986267 
	C228.419418,160.217636 217.548828,164.118576 206.602951,167.484879 
	C184.190384,174.377701 161.679611,180.931824 141.560303,193.822571 
	C121.405617,206.735977 102.604378,221.422653 85.341560,237.759766 
	C69.545609,252.708649 55.389595,269.180908 48.922024,291.166290 
	C42.182137,314.077423 45.124119,334.280975 62.740814,350.671387 
	C80.815826,367.488190 101.535835,380.051453 125.736183,386.876801 
	C145.163391,392.355927 164.945724,395.924103 184.566193,400.373047 
	C234.198395,411.627106 283.759155,422.700836 334.949432,424.892853 
	C358.727325,425.911041 382.527344,426.389618 406.298462,427.616943 
	C420.930420,428.372375 435.621552,428.090668 450.237122,429.033783 
	C480.968781,431.016815 511.760040,431.587860 542.502380,433.433228 
	C563.738647,434.707977 585.091919,434.984406 606.405090,433.859558 
	C613.055969,433.508575 619.800720,434.162964 626.378296,433.350739 
	C642.577942,431.350372 658.892090,430.961884 675.130859,430.061493 
	C699.211548,428.726288 723.360168,428.222565 747.432739,426.660950 
	C781.499084,424.451019 814.663025,417.490265 846.360046,404.630737 
	C886.059509,388.524536 922.822144,367.701965 952.484253,336.000763 
	C963.449463,324.281830 972.796631,311.683228 974.301086,294.926880 
	C974.657776,290.953766 975.089600,286.986969 975.408936,283.011017 
	C976.840698,265.185211 973.375305,248.864487 960.682556,235.402435 
	C950.734924,224.851807 938.774414,216.925323 926.236450,209.982574 
	C896.088928,193.288681 863.667847,183.158188 829.823303,177.058823 
	C812.571716,173.949768 795.184021,172.072388 777.763489,171.683289 
	C763.315430,171.360550 748.798828,172.340698 734.305237,172.521927 
	C730.895874,172.564545 727.495789,173.348648 723.445190,173.875732 
	C726.722778,180.441208 729.697144,186.519165 732.826538,192.516220 
	C733.217224,193.264923 734.372192,193.886459 735.268494,194.053070 
	C739.341248,194.810135 743.418884,196.086533 747.600098,195.418182 
	C761.581360,193.183304 775.490417,193.911057 789.251953,196.749771 
	C817.348145,202.545410 844.045532,212.097672 868.314087,227.684494 
	C890.907715,242.195557 900.871765,262.621979 896.250854,289.432007 
	C894.720520,298.310822 891.020996,306.613129 888.252136,315.152954 
	C881.689636,335.393860 869.942383,352.151978 852.699951,364.653809 
	C838.316406,375.082825 821.970947,382.059906 805.523438,388.362579 
	C792.023560,393.535706 777.686096,395.963318 763.214111,397.482697 
	C744.544922,399.442749 725.722046,400.181915 706.399719,404.185120 
M205.836700,330.895660 
	C196.348526,328.033142 187.515411,323.872528 179.562424,317.884613 
	C164.938278,306.874023 161.855515,288.588013 172.048065,273.615234 
	C184.589798,255.191498 202.387482,244.611511 223.478958,238.899536 
	C225.202118,238.432877 227.491470,238.718552 227.596420,236.189545 
	C227.838257,230.362854 229.804138,224.310287 225.783676,218.899796 
	C222.417450,218.826599 219.607895,220.454544 216.640610,221.445023 
	C183.700470,232.440308 161.729553,254.341980 152.855835,288.025085 
	C145.955597,314.217255 157.628250,337.051117 182.151199,347.182281 
	C202.961456,355.779602 224.441864,362.978607 247.315933,365.271240 
	C272.660431,367.811523 297.985657,370.326477 323.455780,370.556305 
	C335.936859,370.668945 348.391937,371.384705 360.868011,371.592377 
	C384.154572,371.979950 407.410675,374.047943 430.698242,374.559692 
	C465.837036,375.331848 500.993713,375.253387 536.139160,375.777710 
	C549.310608,375.974182 562.454712,375.131714 575.603821,375.218384 
	C598.900635,375.371918 622.186707,376.115265 645.496582,375.917755 
	C661.891785,375.778778 677.953064,373.262390 694.112549,371.191559 
	C708.278931,369.376129 722.175598,365.892273 736.590637,365.458008 
	C747.354248,365.133728 758.088318,363.375397 768.803955,362.007843 
	C790.034546,359.298370 808.867554,350.012665 827.353577,340.010895 
	C835.054871,335.844177 841.008850,329.586914 846.257446,322.499786 
	C854.015747,312.024078 856.867615,299.626343 860.798889,287.648285 
	C865.518921,273.266998 861.615906,265.992615 852.734924,259.023865 
	C840.684509,249.568100 826.517212,244.652969 812.622986,239.108078 
	C793.353638,231.418137 773.422852,227.583466 752.575195,229.356766 
	C744.975342,230.003204 744.683716,230.424438 746.105347,237.806763 
	C746.670837,240.743256 747.941467,241.660965 750.721558,241.742630 
	C753.532410,241.825241 756.368164,242.197281 759.124939,242.770279 
	C767.556641,244.522827 776.381104,244.793289 784.164001,249.075989 
	C800.177612,257.887848 811.012268,271.161469 817.586853,288.072357 
	C820.432739,295.392334 819.818359,302.414917 815.730835,309.127014 
	C812.043823,315.181549 807.447815,320.543091 801.610596,324.471466 
	C784.708496,335.846436 766.475769,343.900543 745.968201,346.378998 
	C732.577698,347.997314 719.204285,349.469116 705.706238,349.019592 
	C695.736206,348.687531 685.739624,347.278046 675.819702,347.740326 
	C659.202759,348.514618 642.566345,349.160797 625.953125,349.976868 
	C602.849609,351.111755 579.739136,353.106598 556.555176,352.353424 
	C553.404236,352.251129 550.236145,352.581116 547.079346,352.767517 
	C525.460266,354.044281 503.877563,354.602081 482.202911,353.098602 
	C454.648102,351.187164 427.115601,348.463684 399.467255,348.335480 
	C360.510193,348.154846 321.556335,348.782410 282.722748,344.382690 
	C257.064941,341.475739 231.686371,337.246979 205.836700,330.895660 
M451.071228,463.471619 
	C438.838593,463.471619 426.605927,463.471619 414.811951,463.471619 
	C439.440674,483.050476 531.042664,486.989594 558.278015,469.135193 
	C556.781189,468.861847 555.498718,468.472839 554.201233,468.413513 
	C528.609131,467.243195 503.014313,466.132324 477.422363,464.959351 
	C468.945953,464.570862 460.475952,464.042511 451.071228,463.471619 
M763.506531,305.960388 
	C768.570190,303.444519 773.644592,300.949951 778.693604,298.405029 
	C781.890076,296.793915 782.883911,294.883179 780.650635,291.357788 
	C773.631531,280.277527 763.024048,277.222290 750.644653,276.967285 
	C749.235779,287.252808 749.460205,297.436493 747.481812,307.383026 
	C746.915771,310.228485 748.735107,310.835999 751.112610,310.470245 
	C755.281677,309.828888 759.028015,307.985840 763.506531,305.960388 
M209.171280,283.648956 
	C206.835449,285.951996 204.131378,287.941467 202.280060,291.531708 
	C212.743973,298.380310 224.398453,300.216705 236.800583,302.502960 
	C234.528168,293.274414 232.603226,284.894836 231.405777,276.372803 
	C231.025070,273.663513 229.397339,272.836975 226.702637,273.839203 
	C220.567291,276.121063 214.854019,279.126129 209.171280,283.648956 
z"/>
</svg>