<svg version="1.1" id="Layer_1" xmlns="http://www.w3.org/2000/svg" xmlns:xlink="http://www.w3.org/1999/xlink" x="0px" y="0px"
	 width="100%" viewBox="0 0 1494 1652" enable-background="new 0 0 1494 1652" xml:space="preserve">
<path fill="#FFFFFF" opacity="1.000000" stroke="none" 
	d="
M1470.000000,1653.000000 
	C980.364746,1653.000000 490.729523,1653.000000 1.047151,1653.000000 
	C1.047151,1102.400146 1.047151,551.800232 1.047151,1.100175 
	C498.901215,1.100175 996.802490,1.100175 1495.000000,1.100175 
	C1495.000000,521.034851 1495.000000,1041.069824 1494.633301,1561.556396 
	C1487.341064,1564.816772 1483.066650,1570.496338 1479.329224,1576.477539 
	C1472.157837,1587.954346 1470.670776,1601.048462 1470.119385,1614.121216 
	C1469.573608,1627.059570 1470.000000,1640.038696 1470.000000,1653.000000 
M269.402710,254.893417 
	C251.450058,274.336426 233.189468,293.506012 215.621002,313.290222 
	C192.541214,339.280823 174.410355,368.861267 155.787170,398.046021 
	C134.411560,431.544128 115.086998,466.182098 98.634270,502.370453 
	C90.698586,519.825317 82.291428,537.141357 75.650780,555.094666 
	C58.473347,601.534668 45.411999,649.195984 36.163017,697.860596 
	C28.887497,736.141541 23.487989,774.690735 23.237953,813.716125 
	C23.010702,849.184753 23.086248,884.683044 24.319029,920.123352 
	C25.132925,943.521484 26.886477,967.057983 30.627182,990.142273 
	C35.893330,1022.640381 42.848183,1054.898926 50.077396,1087.035645 
	C58.269333,1123.452026 71.171349,1158.481689 86.518677,1192.374268 
	C98.585655,1219.022705 113.050484,1244.613037 127.013115,1270.368286 
	C144.793411,1303.165771 165.793625,1333.936157 190.178055,1362.112549 
	C207.377945,1381.987061 226.444443,1400.239868 244.539688,1419.347290 
	C282.540314,1459.473755 326.380798,1491.895142 373.347412,1520.881226 
	C415.977112,1547.190796 461.827209,1566.843628 506.083069,1589.763672 
	C522.560669,1598.297241 540.810364,1601.664795 558.618469,1605.758545 
	C584.314880,1611.665771 610.322083,1616.287109 636.294312,1620.908081 
	C659.142517,1624.973145 682.043701,1628.954712 705.070251,1631.745483 
	C729.655212,1634.725220 754.375854,1637.179443 779.106567,1638.226196 
	C818.341919,1639.886963 857.734253,1641.100220 896.595459,1633.713989 
	C924.232544,1628.461182 951.750854,1622.419189 979.055908,1615.654663 
	C992.456299,1612.334961 1005.400574,1606.945190 1018.270691,1601.791504 
	C1027.610474,1598.051758 1036.253052,1592.555664 1045.619385,1588.900391 
	C1071.036133,1578.981201 1095.667847,1567.731689 1118.299927,1552.236328 
	C1148.150879,1531.798462 1180.661621,1515.407837 1209.116333,1492.820312 
	C1226.282959,1479.193237 1244.463257,1466.822021 1259.308228,1450.374146 
	C1269.669678,1438.893921 1281.493774,1428.681274 1291.358887,1416.816772 
	C1310.472046,1393.829468 1328.443848,1369.896729 1347.337891,1346.722046 
	C1355.929199,1336.184326 1362.153320,1324.463257 1368.111938,1312.411377 
	C1373.235596,1302.048340 1379.244141,1292.126465 1384.519775,1281.834351 
	C1390.936279,1269.316406 1396.533081,1256.361084 1403.305176,1244.046265 
	C1416.940430,1219.250854 1428.534790,1193.666870 1436.706543,1166.518433 
	C1449.047607,1125.518188 1462.053101,1084.716064 1466.600586,1041.832275 
	C1469.525024,1014.255432 1474.133667,986.805786 1475.862183,959.166199 
	C1478.228760,921.324219 1478.931030,883.362854 1479.661133,845.439514 
	C1480.106689,822.302856 1479.727295,799.124084 1478.853882,775.996826 
	C1478.164185,757.738647 1477.031494,739.409424 1474.535278,721.327087 
	C1470.343140,690.957703 1465.858032,660.566833 1459.748779,630.540527 
	C1452.895874,596.858643 1444.703369,563.414124 1435.993774,530.154358 
	C1426.216309,492.816956 1410.300537,457.585968 1396.408325,421.690491 
	C1387.043701,397.494202 1377.684570,373.212219 1364.092407,350.899109 
	C1352.270142,331.491272 1341.443848,311.407532 1328.604736,292.701965 
	C1296.747314,246.288620 1256.975464,206.908432 1215.190552,169.593994 
	C1177.403931,135.850159 1132.983643,112.924774 1086.651733,93.408318 
	C1068.755249,85.869713 1050.924561,78.163002 1032.885010,70.982513 
	C1027.260498,68.743698 1021.052734,67.963760 1015.104431,66.547432 
	C1012.072021,65.825386 1008.843262,65.603951 1006.009766,64.421539 
	C981.252930,54.090538 956.581299,43.555424 931.849854,33.163132 
	C921.183105,28.680908 910.621033,23.629278 898.808960,23.029818 
	C883.047546,22.229927 867.273621,21.597555 851.497375,21.188742 
	C830.035767,20.632603 808.566284,20.000647 787.101379,20.042442 
	C755.182007,20.104589 723.262573,19.172626 691.516724,24.779381 
	C648.377991,32.398247 606.259521,43.301151 565.149719,58.526588 
	C532.142578,70.751122 502.137085,88.748299 471.809448,105.968803 
	C440.816864,123.566902 411.084320,143.375687 380.684692,162.028534 
	C339.260742,187.445740 302.902039,218.895355 269.402710,254.893417 
z"/>
<path fill="#F5F4F5" opacity="1.000000" stroke="none" 
	d="
M1470.468384,1653.000000 
	C1470.000000,1640.038696 1469.573608,1627.059570 1470.119385,1614.121216 
	C1470.670776,1601.048462 1472.157837,1587.954346 1479.329224,1576.477539 
	C1483.066650,1570.496338 1487.341064,1564.816772 1494.633301,1562.004150 
	C1495.000000,1565.692871 1495.000000,1569.385864 1494.635010,1573.580444 
	C1489.911621,1576.819092 1490.111694,1581.426880 1490.080444,1585.567383 
	C1489.911011,1608.043823 1490.000122,1630.522217 1490.000000,1653.000000 
	C1483.645630,1653.000000 1477.291138,1653.000000 1470.468384,1653.000000 
z"/>
<path fill="#FFFDFE" opacity="1.000000" stroke="none" 
	d="
M1490.500000,1653.000000 
	C1490.000122,1630.522217 1489.911011,1608.043823 1490.080444,1585.567383 
	C1490.111694,1581.426880 1489.911621,1576.819092 1494.635010,1574.041016 
	C1495.000000,1600.333374 1495.000000,1626.666626 1495.000000,1653.000000 
	C1493.650635,1653.000000 1492.325195,1653.000000 1490.500000,1653.000000 
z"/>
<path fill="#010101" opacity="1.000000" stroke="none" 
	d="
M269.645691,254.636841 
	C302.902039,218.895355 339.260742,187.445740 380.684692,162.028534 
	C411.084320,143.375687 440.816864,123.566902 471.809448,105.968803 
	C502.137085,88.748299 532.142578,70.751122 565.149719,58.526588 
	C606.259521,43.301151 648.377991,32.398247 691.516724,24.779381 
	C723.262573,19.172626 755.182007,20.104589 787.101379,20.042442 
	C808.566284,20.000647 830.035767,20.632603 851.497375,21.188742 
	C867.273621,21.597555 883.047546,22.229927 898.808960,23.029818 
	C910.621033,23.629278 921.183105,28.680908 931.849854,33.163132 
	C956.581299,43.555424 981.252930,54.090538 1006.009766,64.421539 
	C1008.843262,65.603951 1012.072021,65.825386 1015.104431,66.547432 
	C1021.052734,67.963760 1027.260498,68.743698 1032.885010,70.982513 
	C1050.924561,78.163002 1068.755249,85.869713 1086.651733,93.408318 
	C1132.983643,112.924774 1177.403931,135.850159 1215.190552,169.593994 
	C1256.975464,206.908432 1296.747314,246.288620 1328.604736,292.701965 
	C1341.443848,311.407532 1352.270142,331.491272 1364.092407,350.899109 
	C1377.684570,373.212219 1387.043701,397.494202 1396.408325,421.690491 
	C1410.300537,457.585968 1426.216309,492.816956 1435.993774,530.154358 
	C1444.703369,563.414124 1452.895874,596.858643 1459.748779,630.540527 
	C1465.858032,660.566833 1470.343140,690.957703 1474.535278,721.327087 
	C1477.031494,739.409424 1478.164185,757.738647 1478.853882,775.996826 
	C1479.727295,799.124084 1480.106689,822.302856 1479.661133,845.439514 
	C1478.931030,883.362854 1478.228760,921.324219 1475.862183,959.166199 
	C1474.133667,986.805786 1469.525024,1014.255432 1466.600586,1041.832275 
	C1462.053101,1084.716064 1449.047607,1125.518188 1436.706543,1166.518433 
	C1428.534790,1193.666870 1416.940430,1219.250854 1403.305176,1244.046265 
	C1396.533081,1256.361084 1390.936279,1269.316406 1384.519775,1281.834351 
	C1379.244141,1292.126465 1373.235596,1302.048340 1368.111938,1312.411377 
	C1362.153320,1324.463257 1355.929199,1336.184326 1347.337891,1346.722046 
	C1328.443848,1369.896729 1310.472046,1393.829468 1291.358887,1416.816772 
	C1281.493774,1428.681274 1269.669678,1438.893921 1259.308228,1450.374146 
	C1244.463257,1466.822021 1226.282959,1479.193237 1209.116333,1492.820312 
	C1180.661621,1515.407837 1148.150879,1531.798462 1118.299927,1552.236328 
	C1095.667847,1567.731689 1071.036133,1578.981201 1045.619385,1588.900391 
	C1036.253052,1592.555664 1027.610474,1598.051758 1018.270691,1601.791504 
	C1005.400574,1606.945190 992.456299,1612.334961 979.055908,1615.654663 
	C951.750854,1622.419189 924.232544,1628.461182 896.595459,1633.713989 
	C857.734253,1641.100220 818.341919,1639.886963 779.106567,1638.226196 
	C754.375854,1637.179443 729.655212,1634.725220 705.070251,1631.745483 
	C682.043701,1628.954712 659.142517,1624.973145 636.294312,1620.908081 
	C610.322083,1616.287109 584.314880,1611.665771 558.618469,1605.758545 
	C540.810364,1601.664795 522.560669,1598.297241 506.083069,1589.763672 
	C461.827209,1566.843628 415.977112,1547.190796 373.347412,1520.881226 
	C326.380798,1491.895142 282.540314,1459.473755 244.539688,1419.347290 
	C226.444443,1400.239868 207.377945,1381.987061 190.178055,1362.112549 
	C165.793625,1333.936157 144.793411,1303.165771 127.013115,1270.368286 
	C113.050484,1244.613037 98.585655,1219.022705 86.518677,1192.374268 
	C71.171349,1158.481689 58.269333,1123.452026 50.077396,1087.035645 
	C42.848183,1054.898926 35.893330,1022.640381 30.627182,990.142273 
	C26.886477,967.057983 25.132925,943.521484 24.319029,920.123352 
	C23.086248,884.683044 23.010702,849.184753 23.237953,813.716125 
	C23.487989,774.690735 28.887497,736.141541 36.163017,697.860596 
	C45.411999,649.195984 58.473347,601.534668 75.650780,555.094666 
	C82.291428,537.141357 90.698586,519.825317 98.634270,502.370453 
	C115.086998,466.182098 134.411560,431.544128 155.787170,398.046021 
	C174.410355,368.861267 192.541214,339.280823 215.621002,313.290222 
	C233.189468,293.506012 251.450058,274.336426 269.645691,254.636841 
M897.964233,1426.327026 
	C894.145203,1465.341797 884.856323,1503.056152 870.599365,1540.178711 
	C872.808777,1540.002808 874.613037,1540.046265 876.336243,1539.693481 
	C898.706543,1535.114990 921.143860,1530.822266 943.392578,1525.709961 
	C953.941406,1523.285889 964.374023,1519.884644 974.408813,1515.815430 
	C986.525330,1510.902344 997.831787,1503.900391 1010.082397,1499.428589 
	C1032.378418,1491.290039 1053.324219,1480.880127 1072.618042,1467.085205 
	C1075.644897,1464.921021 1078.884399,1463.054565 1082.276855,1460.890259 
	C1080.639771,1459.642334 1079.598511,1458.811157 1078.519653,1458.031860 
	C1051.804199,1438.734009 1031.034180,1414.204224 1014.881897,1385.629883 
	C1001.089111,1361.229614 998.866272,1335.696777 1008.164062,1309.337402 
	C1015.310242,1289.077881 1028.927490,1273.547974 1046.061890,1261.178589 
	C1076.860718,1238.944824 1112.217651,1229.668823 1149.449951,1227.183594 
	C1170.684326,1225.766235 1192.036743,1226.418945 1213.152954,1229.928345 
	C1240.019897,1234.393433 1266.091064,1240.893433 1287.780884,1260.121826 
	C1299.540039,1236.739136 1311.188721,1213.576050 1323.123291,1189.844604 
	C1307.355713,1189.844604 1292.094604,1189.738892 1276.835205,1189.863892 
	C1224.379761,1190.293579 1171.919678,1190.842529 1119.608521,1185.848999 
	C1049.052002,1179.114136 978.320251,1175.267456 907.526184,1172.115479 
	C873.483887,1170.599609 839.480469,1167.881104 805.516663,1165.025757 
	C772.541931,1162.253418 740.199768,1155.790771 708.551025,1146.000854 
	C683.429932,1138.230347 658.130310,1131.231812 635.776855,1116.313843 
	C616.847839,1103.681030 601.890869,1088.255249 593.398193,1066.889282 
	C585.897949,1048.020020 585.866394,1028.590332 588.963318,1009.021484 
	C595.485168,967.811707 617.093079,938.218933 656.564331,922.748169 
	C682.676147,912.513550 710.067505,907.087891 737.719666,904.462830 
	C777.756714,900.662048 817.955444,898.121704 858.143982,896.504822 
	C888.074524,895.300659 918.101135,896.184204 948.079773,896.553650 
	C979.699280,896.943237 1011.326355,897.446838 1042.925659,898.580994 
	C1092.620239,900.364624 1142.292847,902.756348 1191.977661,904.819519 
	C1243.328857,906.951782 1294.684326,908.983765 1346.036499,911.095642 
	C1358.105347,911.591980 1370.168213,912.233398 1381.720581,912.783569 
	C1388.222168,810.915039 1382.515869,710.308655 1357.265381,611.535278 
	C1340.927612,612.631592 1324.519165,614.625183 1308.107788,614.649231 
	C1273.325684,614.700256 1238.541748,613.748474 1203.759277,613.163147 
	C1163.646362,612.488159 1123.627563,610.085205 1083.861938,604.785767 
	C1053.583008,600.750610 1023.227600,596.753601 993.298950,590.773987 
	C963.379883,584.796204 933.828247,576.825745 904.332703,568.918884 
	C862.040222,557.581543 820.797485,543.539673 782.666077,521.251587 
	C753.639832,504.285461 726.435486,485.509857 705.703247,458.432648 
	C693.141724,442.026886 682.754272,424.782135 678.840271,404.137115 
	C675.493469,386.483917 675.471619,368.741516 676.836060,350.958496 
	C679.635986,314.468414 693.715210,282.410583 718.342773,255.844620 
	C745.913635,226.103592 777.172546,200.795105 814.535339,183.589462 
	C843.715576,170.151917 872.294373,155.394333 902.992920,145.526962 
	C911.820190,142.689651 920.733826,140.121002 930.867371,137.047104 
	C926.687500,135.242844 923.779541,133.741562 920.713989,132.707611 
	C908.451965,128.571884 897.621033,120.782547 883.764343,120.576286 
	C869.020142,120.356804 854.324036,117.667046 839.570007,117.185501 
	C813.602356,116.337959 787.604919,116.449928 761.623291,115.973312 
	C735.591980,115.495789 710.068970,118.896225 684.486328,123.666542 
	C624.196777,134.908585 569.236084,159.069992 517.044250,190.334900 
	C495.276459,203.374664 473.695465,216.731506 452.175446,230.177689 
	C438.688721,238.604492 425.473602,247.465988 412.136627,256.132446 
	C415.603729,257.567169 418.853180,257.639313 422.008301,258.222198 
	C441.124634,261.753754 460.202881,265.492157 479.325104,268.990814 
	C511.768280,274.926636 543.528931,283.157410 573.995911,296.041351 
	C596.788818,305.680054 616.335083,319.593781 631.446350,339.287872 
	C646.974121,359.524872 653.678406,382.164093 647.855164,407.493164 
	C643.139221,428.005463 631.074158,443.910980 614.287292,456.042206 
	C594.127319,470.611053 571.400879,480.336243 548.184387,488.849762 
	C522.752197,498.175690 496.341949,503.907623 469.737122,508.462769 
	C441.950592,513.220215 414.086395,517.850098 386.077148,520.881958 
	C361.795532,523.510193 337.276520,524.501160 312.838440,524.972961 
	C288.224884,525.448059 263.566833,524.783020 238.957565,523.846863 
	C225.867676,523.348877 212.846664,521.145813 199.774246,519.930969 
	C198.370224,519.800476 196.005997,520.740601 195.479477,521.846863 
	C189.520859,534.365601 183.834076,547.013672 177.877731,560.057983 
	C185.601639,560.437805 192.905914,560.386230 200.107147,561.222168 
	C231.649460,564.883911 263.216858,568.402649 294.672394,572.721863 
	C342.162445,579.242859 389.903198,582.630371 437.678986,586.066589 
	C476.641174,588.868958 515.503967,593.112610 554.381409,597.010986 
	C578.037109,599.383118 601.586731,602.939636 625.274109,604.840637 
	C658.423584,607.500916 691.687134,608.723511 724.847412,611.270447 
	C769.828674,614.725464 814.847717,616.529785 859.954834,616.920532 
	C887.217773,617.156616 914.467346,617.274414 941.526550,622.290039 
	C963.631409,626.387268 982.400024,635.271973 996.775818,652.873352 
	C1013.527100,673.383240 1022.312683,696.697327 1022.899109,723.246338 
	C1023.327820,742.653931 1022.400085,761.597900 1014.027405,779.727722 
	C1002.637878,804.389954 984.214172,820.364685 958.073792,827.276123 
	C929.746460,834.765930 900.739319,834.480225 871.854004,833.101196 
	C847.126404,831.920471 822.495239,828.847534 797.789062,827.059814 
	C752.850159,823.808044 707.813232,821.696716 662.956177,817.591064 
	C622.592041,813.896790 582.448120,807.859253 542.144043,803.427795 
	C506.796326,799.541199 471.353882,796.522644 435.966705,792.986145 
	C398.093201,789.201172 360.149261,785.940796 322.397766,781.171631 
	C291.674286,777.290283 260.998474,773.665466 230.016983,772.982239 
	C206.887161,772.472229 183.763138,771.685181 160.632339,771.238770 
	C147.878815,770.992676 135.116623,771.194702 121.684097,771.194702 
	C120.692886,788.180542 119.692612,805.321716 118.739723,821.650940 
	C136.149628,820.143066 152.885162,817.226929 169.555710,817.560425 
	C202.466278,818.218872 235.437225,819.649963 268.199005,822.724304 
	C293.250000,825.075134 318.179199,829.651672 342.869537,834.677795 
	C372.550140,840.719849 400.507721,851.481934 425.695221,868.958679 
	C463.019928,894.857056 491.980804,927.020081 505.632355,971.370972 
	C511.907715,991.758240 513.886719,1012.471741 510.253967,1033.385254 
	C505.393433,1061.366455 494.283875,1086.675903 476.807312,1109.381226 
	C457.235291,1134.809082 433.122589,1153.704712 403.094330,1165.100952 
	C379.223389,1174.160400 354.443542,1179.321289 329.186279,1182.132568 
	C300.315887,1185.346069 271.400055,1188.202759 242.462326,1190.739868 
	C226.490311,1192.140137 210.432983,1192.567627 193.604095,1193.477417 
	C209.134857,1219.841675 222.519516,1246.839844 240.566223,1269.943604 
	C251.488281,1264.653564 261.332092,1259.071899 271.760742,1254.981201 
	C309.184906,1240.302246 348.320618,1231.671021 387.612549,1223.972168 
	C427.776825,1216.102295 468.560394,1212.873169 509.338226,1210.272339 
	C556.383057,1207.271729 603.498901,1206.935059 650.611389,1208.748169 
	C678.703003,1209.829346 706.550659,1212.996582 734.068970,1218.941284 
	C768.281921,1226.332275 800.876709,1237.653687 830.930176,1256.074585 
	C873.229431,1282.001099 895.287231,1319.539917 897.100220,1368.946533 
	C897.789795,1387.737915 897.717163,1406.557251 897.964233,1426.327026 
M867.330322,230.877213 
	C852.185059,238.416779 836.859375,245.618546 821.942566,253.585876 
	C805.221680,262.516815 792.071960,276.176727 777.801392,288.341492 
	C764.905762,299.334137 755.591125,312.762909 748.627075,328.142609 
	C741.770630,343.284637 741.174072,359.198608 741.439148,375.318298 
	C741.598022,384.978180 742.052917,394.628235 746.983643,403.331909 
	C754.690247,416.935547 764.306824,429.421173 776.652893,438.647766 
	C792.625122,450.584229 809.758728,461.124390 827.089844,471.047363 
	C852.679993,485.699066 880.764160,494.459442 908.952759,502.530487 
	C948.217102,513.772766 987.567871,524.771423 1028.042358,530.994141 
	C1072.905518,537.891418 1117.833862,544.282593 1163.230957,546.453308 
	C1183.504395,547.422607 1203.792847,548.246033 1224.084106,548.630493 
	C1252.207886,549.163391 1280.341431,549.440063 1308.469604,549.369324 
	C1319.219116,549.342285 1329.965576,548.053528 1340.932373,547.325195 
	C1340.675171,546.278442 1340.608521,545.819824 1340.451538,545.394470 
	C1334.274536,528.650940 1328.330444,511.816589 1321.855591,495.188934 
	C1308.004761,459.619171 1295.310425,423.643951 1276.043213,390.295685 
	C1261.616455,365.325714 1246.816406,340.736633 1228.039185,318.894928 
	C1214.269165,302.877808 1199.092285,288.072052 1184.579956,272.690796 
	C1160.922852,247.617142 1135.060425,225.309296 1104.518066,208.894867 
	C1102.249878,207.675964 1099.642700,207.044113 1097.143066,206.309418 
	C1092.548950,204.959061 1087.728516,204.192963 1083.335571,202.377228 
	C1067.117554,195.673828 1051.061401,188.579666 1034.869629,181.811295 
	C1032.911377,180.992752 1030.373047,180.683029 1028.314697,181.123825 
	C1013.416504,184.314163 998.557007,187.691086 983.714478,191.134888 
	C943.826233,200.389923 904.571289,211.525589 867.330322,230.877213 
M581.755005,1512.853149 
	C651.662231,1527.358154 721.869995,1539.720093 792.598511,1543.185059 
	C795.290039,1539.022461 797.581726,1535.770020 799.570557,1532.342041 
	C803.865356,1524.939209 808.928345,1517.810425 812.039429,1509.923584 
	C822.431335,1483.579346 829.700867,1456.145264 831.809998,1428.000000 
	C833.467102,1405.888062 832.059326,1383.462646 830.814697,1361.243652 
	C829.836426,1343.779053 820.895325,1329.562866 807.304688,1318.953491 
	C790.015198,1305.456665 770.104919,1296.568726 749.279663,1290.130981 
	C710.106445,1278.020752 669.697021,1273.644409 628.885193,1273.131714 
	C601.418823,1272.786499 573.882507,1272.554077 546.477661,1274.075562 
	C507.493805,1276.239868 468.493591,1279.094360 429.700775,1283.442017 
	C389.661652,1287.929321 350.588196,1297.800537 312.149506,1309.888672 
	C302.335968,1312.974976 292.804474,1316.958130 283.069519,1320.556519 
	C283.697632,1321.942383 283.760345,1322.320312 283.981567,1322.534790 
	C308.004242,1345.815186 331.478516,1369.700806 356.237518,1392.170532 
	C378.793121,1412.640625 405.159973,1428.037598 431.496002,1443.147461 
	C452.710022,1455.318481 474.184082,1467.076172 495.930573,1478.263550 
	C508.346649,1484.651001 521.622131,1489.347656 534.345520,1495.166870 
	C540.342834,1497.909790 545.656494,1502.331543 551.804321,1504.518799 
	C561.284180,1507.891235 571.214783,1509.996704 581.755005,1512.853149 
M670.241028,988.650452 
	C667.260071,991.497437 663.634277,993.916687 661.412292,997.267029 
	C652.827454,1010.211365 651.175659,1024.753906 653.231323,1039.781372 
	C653.658875,1042.906982 655.480408,1045.977539 657.162048,1048.771118 
	C662.945190,1058.378052 672.722961,1063.613525 682.261230,1067.515137 
	C700.602966,1075.017944 719.550537,1081.223755 738.589539,1086.796753 
	C770.728760,1096.204468 803.881409,1100.541382 837.164673,1102.806519 
	C882.135132,1105.867310 927.206848,1107.406006 972.207703,1110.062622 
	C1013.523193,1112.501953 1054.821533,1115.302246 1096.092041,1118.413086 
	C1137.885376,1121.563477 1179.615967,1125.327271 1221.608521,1124.916626 
	C1258.074219,1124.560181 1294.547119,1124.945068 1331.016846,1124.999146 
	C1336.969482,1125.007935 1342.922119,1125.000488 1348.431763,1125.000488 
	C1366.079102,1077.268188 1372.411865,1027.844482 1378.011841,977.868408 
	C1337.234253,975.955261 1296.897461,973.905701 1256.545654,972.214478 
	C1217.666870,970.585022 1178.770264,969.387207 1139.885742,967.886353 
	C1100.842163,966.379333 1061.810669,964.524414 1022.760498,963.221741 
	C997.645813,962.384033 972.504517,962.375488 947.379517,961.804749 
	C904.771240,960.837036 862.196594,960.946716 819.618713,963.421936 
	C782.957520,965.553101 746.276062,967.182251 710.251404,975.066589 
	C696.659973,978.041138 682.968384,980.820862 670.241028,988.650452 
M145.194214,1072.210449 
	C151.343246,1091.143799 157.492294,1110.077026 163.583054,1128.830933 
	C166.362320,1128.830933 168.025040,1128.895142 169.681580,1128.821167 
	C190.439972,1127.893921 211.201477,1127.027100 231.954315,1125.987305 
	C272.627014,1123.949463 313.108368,1120.104126 353.065582,1111.967651 
	C381.101440,1106.258667 405.948486,1095.012939 423.838867,1071.267822 
	C447.345306,1040.068726 454.826294,1007.431213 435.193085,971.350342 
	C421.156403,945.554382 399.425446,927.851379 374.383331,914.191284 
	C348.849548,900.263000 320.312805,895.381409 291.939270,891.191528 
	C272.249084,888.283936 252.286118,887.200928 232.435669,885.406433 
	C204.750778,882.903687 177.067474,881.389404 149.257004,883.885315 
	C138.945221,884.810791 129.597260,887.762512 120.967865,893.230286 
	C120.143501,893.752625 119.585472,895.423218 119.651360,896.515625 
	C121.072784,920.084900 121.651817,943.756287 124.330292,967.186523 
	C128.359955,1002.436157 136.011200,1037.085205 145.194214,1072.210449 
M926.283691,686.007141 
	C904.095581,681.491272 881.551697,682.823486 859.147583,682.069336 
	C833.369324,681.201660 807.544434,681.434937 781.792114,680.144897 
	C743.938416,678.248657 706.108215,675.733215 668.310730,672.909302 
	C632.670776,670.246643 597.060059,667.115723 561.484924,663.687622 
	C528.063599,660.467041 494.748169,656.109985 461.307281,653.140808 
	C430.847015,650.436340 400.187988,649.824158 369.781952,646.686768 
	C316.884308,641.228760 264.138763,634.311890 211.277206,628.480164 
	C192.007599,626.354309 172.588943,625.579590 152.872574,624.162170 
	C145.747681,651.704163 138.902603,678.164429 131.882629,705.300781 
	C168.627029,706.224976 203.905197,706.756348 239.150330,708.133118 
	C260.068268,708.950256 280.995636,710.529358 301.810150,712.773438 
	C340.625031,716.958374 379.256653,723.301453 418.154755,726.143311 
	C470.399384,729.960327 522.469788,735.135315 574.493713,741.020020 
	C621.874207,746.379456 669.184021,752.460938 716.641785,757.004883 
	C748.890930,760.092590 781.348755,760.964783 813.699280,763.045166 
	C831.449219,764.186523 849.166809,765.823975 866.905090,767.156189 
	C891.010437,768.966675 915.093262,769.411743 938.987061,764.878906 
	C945.933167,763.561279 951.199951,760.271912 954.405640,753.162231 
	C959.134338,742.675171 957.083862,731.984131 957.251526,721.291748 
	C957.391418,712.363647 953.601379,704.958069 949.135681,697.690491 
	C944.082703,689.466980 935.943176,687.172546 926.283691,686.007141 
M463.838196,443.363251 
	C494.170593,437.640869 524.133240,430.631805 551.975525,416.739990 
	C562.444275,411.516663 573.660889,407.392670 581.596863,398.062378 
	C584.969238,394.097473 585.747131,389.784058 583.536743,385.175842 
	C582.259216,382.512512 580.522949,380.018951 578.702637,377.674561 
	C567.835449,363.678436 552.313171,356.761536 536.360962,351.052643 
	C512.304382,342.443298 487.539215,336.286102 462.328186,332.002625 
	C442.531952,328.639130 422.849518,324.186188 402.919037,322.151245 
	C383.102905,320.127991 363.042084,320.443878 343.082855,319.978119 
	C341.295929,319.936401 339.044098,321.285461 337.724152,322.670807 
	C326.241730,334.722076 314.819550,346.834839 303.589020,359.120850 
	C295.061401,368.449890 286.030365,377.473450 278.658569,387.670532 
	C265.372162,406.049133 253.148376,425.196564 240.509277,444.042023 
	C237.590652,448.393829 234.787064,452.822723 231.276291,458.222382 
	C243.554337,458.953308 254.628555,460.275696 265.685303,460.142914 
	C295.472412,459.785156 325.269318,459.204651 355.027924,457.917236 
	C371.427338,457.207764 387.824768,455.392212 404.101532,453.180603 
	C423.812988,450.502350 443.396057,446.878662 463.838196,443.363251 
M1091.728149,1381.773804 
	C1105.573242,1398.354492 1121.672852,1411.873901 1142.652466,1418.465332 
	C1144.711670,1419.112427 1147.966797,1418.463257 1149.729248,1417.153687 
	C1166.259521,1404.871338 1181.880615,1391.638550 1196.690308,1377.168945 
	C1215.586426,1358.706543 1231.299194,1337.830444 1247.717773,1317.418579 
	C1246.457031,1315.445190 1244.927368,1313.762573 1244.206177,1311.785034 
	C1242.253540,1306.431274 1238.314453,1303.399902 1233.105957,1302.090942 
	C1221.561279,1299.189819 1210.074463,1295.640503 1198.334351,1294.022827 
	C1174.701904,1290.766846 1150.952881,1290.280396 1127.504517,1296.024170 
	C1108.852173,1300.593262 1090.826050,1306.429810 1076.656738,1320.495605 
	C1068.580078,1328.513306 1064.934082,1340.974854 1070.193604,1349.951782 
	C1076.537476,1360.779419 1084.172729,1370.850586 1091.728149,1381.773804 
z"/>
<path fill="#FFFFFF" opacity="1.000000" stroke="none" 
	d="
M897.978088,1425.845459 
	C897.717163,1406.557251 897.789795,1387.737915 897.100220,1368.946533 
	C895.287231,1319.539917 873.229431,1282.001099 830.930176,1256.074585 
	C800.876709,1237.653687 768.281921,1226.332275 734.068970,1218.941284 
	C706.550659,1212.996582 678.703003,1209.829346 650.611389,1208.748169 
	C603.498901,1206.935059 556.383057,1207.271729 509.338226,1210.272339 
	C468.560394,1212.873169 427.776825,1216.102295 387.612549,1223.972168 
	C348.320618,1231.671021 309.184906,1240.302246 271.760742,1254.981201 
	C261.332092,1259.071899 251.488281,1264.653564 240.566223,1269.943604 
	C222.519516,1246.839844 209.134857,1219.841675 193.604095,1193.477417 
	C210.432983,1192.567627 226.490311,1192.140137 242.462326,1190.739868 
	C271.400055,1188.202759 300.315887,1185.346069 329.186279,1182.132568 
	C354.443542,1179.321289 379.223389,1174.160400 403.094330,1165.100952 
	C433.122589,1153.704712 457.235291,1134.809082 476.807312,1109.381226 
	C494.283875,1086.675903 505.393433,1061.366455 510.253967,1033.385254 
	C513.886719,1012.471741 511.907715,991.758240 505.632355,971.370972 
	C491.980804,927.020081 463.019928,894.857056 425.695221,868.958679 
	C400.507721,851.481934 372.550140,840.719849 342.869537,834.677795 
	C318.179199,829.651672 293.250000,825.075134 268.199005,822.724304 
	C235.437225,819.649963 202.466278,818.218872 169.555710,817.560425 
	C152.885162,817.226929 136.149628,820.143066 118.739723,821.650940 
	C119.692612,805.321716 120.692886,788.180542 121.684097,771.194702 
	C135.116623,771.194702 147.878815,770.992676 160.632339,771.238770 
	C183.763138,771.685181 206.887161,772.472229 230.016983,772.982239 
	C260.998474,773.665466 291.674286,777.290283 322.397766,781.171631 
	C360.149261,785.940796 398.093201,789.201172 435.966705,792.986145 
	C471.353882,796.522644 506.796326,799.541199 542.144043,803.427795 
	C582.448120,807.859253 622.592041,813.896790 662.956177,817.591064 
	C707.813232,821.696716 752.850159,823.808044 797.789062,827.059814 
	C822.495239,828.847534 847.126404,831.920471 871.854004,833.101196 
	C900.739319,834.480225 929.746460,834.765930 958.073792,827.276123 
	C984.214172,820.364685 1002.637878,804.389954 1014.027405,779.727722 
	C1022.400085,761.597900 1023.327820,742.653931 1022.899109,723.246338 
	C1022.312683,696.697327 1013.527100,673.383240 996.775818,652.873352 
	C982.400024,635.271973 963.631409,626.387268 941.526550,622.290039 
	C914.467346,617.274414 887.217773,617.156616 859.954834,616.920532 
	C814.847717,616.529785 769.828674,614.725464 724.847412,611.270447 
	C691.687134,608.723511 658.423584,607.500916 625.274109,604.840637 
	C601.586731,602.939636 578.037109,599.383118 554.381409,597.010986 
	C515.503967,593.112610 476.641174,588.868958 437.678986,586.066589 
	C389.903198,582.630371 342.162445,579.242859 294.672394,572.721863 
	C263.216858,568.402649 231.649460,564.883911 200.107147,561.222168 
	C192.905914,560.386230 185.601639,560.437805 177.877731,560.057983 
	C183.834076,547.013672 189.520859,534.365601 195.479477,521.846863 
	C196.005997,520.740601 198.370224,519.800476 199.774246,519.930969 
	C212.846664,521.145813 225.867676,523.348877 238.957565,523.846863 
	C263.566833,524.783020 288.224884,525.448059 312.838440,524.972961 
	C337.276520,524.501160 361.795532,523.510193 386.077148,520.881958 
	C414.086395,517.850098 441.950592,513.220215 469.737122,508.462769 
	C496.341949,503.907623 522.752197,498.175690 548.184387,488.849762 
	C571.400879,480.336243 594.127319,470.611053 614.287292,456.042206 
	C631.074158,443.910980 643.139221,428.005463 647.855164,407.493164 
	C653.678406,382.164093 646.974121,359.524872 631.446350,339.287872 
	C616.335083,319.593781 596.788818,305.680054 573.995911,296.041351 
	C543.528931,283.157410 511.768280,274.926636 479.325104,268.990814 
	C460.202881,265.492157 441.124634,261.753754 422.008301,258.222198 
	C418.853180,257.639313 415.603729,257.567169 412.136627,256.132446 
	C425.473602,247.465988 438.688721,238.604492 452.175446,230.177689 
	C473.695465,216.731506 495.276459,203.374664 517.044250,190.334900 
	C569.236084,159.069992 624.196777,134.908585 684.486328,123.666542 
	C710.068970,118.896225 735.591980,115.495789 761.623291,115.973312 
	C787.604919,116.449928 813.602356,116.337959 839.570007,117.185501 
	C854.324036,117.667046 869.020142,120.356804 883.764343,120.576286 
	C897.621033,120.782547 908.451965,128.571884 920.713989,132.707611 
	C923.779541,133.741562 926.687500,135.242844 930.867371,137.047104 
	C920.733826,140.121002 911.820190,142.689651 902.992920,145.526962 
	C872.294373,155.394333 843.715576,170.151917 814.535339,183.589462 
	C777.172546,200.795105 745.913635,226.103592 718.342773,255.844620 
	C693.715210,282.410583 679.635986,314.468414 676.836060,350.958496 
	C675.471619,368.741516 675.493469,386.483917 678.840271,404.137115 
	C682.754272,424.782135 693.141724,442.026886 705.703247,458.432648 
	C726.435486,485.509857 753.639832,504.285461 782.666077,521.251587 
	C820.797485,543.539673 862.040222,557.581543 904.332703,568.918884 
	C933.828247,576.825745 963.379883,584.796204 993.298950,590.773987 
	C1023.227600,596.753601 1053.583008,600.750610 1083.861938,604.785767 
	C1123.627563,610.085205 1163.646362,612.488159 1203.759277,613.163147 
	C1238.541748,613.748474 1273.325684,614.700256 1308.107788,614.649231 
	C1324.519165,614.625183 1340.927612,612.631592 1357.265381,611.535278 
	C1382.515869,710.308655 1388.222168,810.915039 1381.720581,912.783569 
	C1370.168213,912.233398 1358.105347,911.591980 1346.036499,911.095642 
	C1294.684326,908.983765 1243.328857,906.951782 1191.977661,904.819519 
	C1142.292847,902.756348 1092.620239,900.364624 1042.925659,898.580994 
	C1011.326355,897.446838 979.699280,896.943237 948.079773,896.553650 
	C918.101135,896.184204 888.074524,895.300659 858.143982,896.504822 
	C817.955444,898.121704 777.756714,900.662048 737.719666,904.462830 
	C710.067505,907.087891 682.676147,912.513550 656.564331,922.748169 
	C617.093079,938.218933 595.485168,967.811707 588.963318,1009.021484 
	C585.866394,1028.590332 585.897949,1048.020020 593.398193,1066.889282 
	C601.890869,1088.255249 616.847839,1103.681030 635.776855,1116.313843 
	C658.130310,1131.231812 683.429932,1138.230347 708.551025,1146.000854 
	C740.199768,1155.790771 772.541931,1162.253418 805.516663,1165.025757 
	C839.480469,1167.881104 873.483887,1170.599609 907.526184,1172.115479 
	C978.320251,1175.267456 1049.052002,1179.114136 1119.608521,1185.848999 
	C1171.919678,1190.842529 1224.379761,1190.293579 1276.835205,1189.863892 
	C1292.094604,1189.738892 1307.355713,1189.844604 1323.123291,1189.844604 
	C1311.188721,1213.576050 1299.540039,1236.739136 1287.780884,1260.121826 
	C1266.091064,1240.893433 1240.019897,1234.393433 1213.152954,1229.928345 
	C1192.036743,1226.418945 1170.684326,1225.766235 1149.449951,1227.183594 
	C1112.217651,1229.668823 1076.860718,1238.944824 1046.061890,1261.178589 
	C1028.927490,1273.547974 1015.310242,1289.077881 1008.164062,1309.337402 
	C998.866272,1335.696777 1001.089111,1361.229614 1014.881897,1385.629883 
	C1031.034180,1414.204224 1051.804199,1438.734009 1078.519653,1458.031860 
	C1079.598511,1458.811157 1080.639771,1459.642334 1082.276855,1460.890259 
	C1078.884399,1463.054565 1075.644897,1464.921021 1072.618042,1467.085205 
	C1053.324219,1480.880127 1032.378418,1491.290039 1010.082397,1499.428589 
	C997.831787,1503.900391 986.525330,1510.902344 974.408813,1515.815430 
	C964.374023,1519.884644 953.941406,1523.285889 943.392578,1525.709961 
	C921.143860,1530.822266 898.706543,1535.114990 876.336243,1539.693481 
	C874.613037,1540.046265 872.808777,1540.002808 870.599365,1540.178711 
	C884.856323,1503.056152 894.145203,1465.341797 897.978088,1425.845459 
M1277.177368,830.658936 
	C1280.549316,826.374207 1284.613159,822.466125 1287.183350,817.744934 
	C1307.018188,781.308960 1308.655029,743.180115 1292.729370,705.584900 
	C1281.559814,679.217468 1262.379028,658.814331 1233.693726,649.703125 
	C1215.568604,643.946106 1197.066772,643.198975 1178.529053,646.577637 
	C1150.602295,651.667603 1131.452881,668.687683 1117.855469,692.822083 
	C1105.659668,714.468872 1099.543579,737.912231 1103.538574,762.298035 
	C1110.217651,803.067322 1132.450073,833.256287 1170.632202,850.587769 
	C1206.962158,867.078552 1248.317871,859.386902 1277.177368,830.658936 
z"/>
<path fill="#FFFFFF" opacity="1.000000" stroke="none" 
	d="
M867.660522,230.693817 
	C904.571289,211.525589 943.826233,200.389923 983.714478,191.134888 
	C998.557007,187.691086 1013.416504,184.314163 1028.314697,181.123825 
	C1030.373047,180.683029 1032.911377,180.992752 1034.869629,181.811295 
	C1051.061401,188.579666 1067.117554,195.673828 1083.335571,202.377228 
	C1087.728516,204.192963 1092.548950,204.959061 1097.143066,206.309418 
	C1099.642700,207.044113 1102.249878,207.675964 1104.518066,208.894867 
	C1135.060425,225.309296 1160.922852,247.617142 1184.579956,272.690796 
	C1199.092285,288.072052 1214.269165,302.877808 1228.039185,318.894928 
	C1246.816406,340.736633 1261.616455,365.325714 1276.043213,390.295685 
	C1295.310425,423.643951 1308.004761,459.619171 1321.855591,495.188934 
	C1328.330444,511.816589 1334.274536,528.650940 1340.451538,545.394470 
	C1340.608521,545.819824 1340.675171,546.278442 1340.932373,547.325195 
	C1329.965576,548.053528 1319.219116,549.342285 1308.469604,549.369324 
	C1280.341431,549.440063 1252.207886,549.163391 1224.084106,548.630493 
	C1203.792847,548.246033 1183.504395,547.422607 1163.230957,546.453308 
	C1117.833862,544.282593 1072.905518,537.891418 1028.042358,530.994141 
	C987.567871,524.771423 948.217102,513.772766 908.952759,502.530487 
	C880.764160,494.459442 852.679993,485.699066 827.089844,471.047363 
	C809.758728,461.124390 792.625122,450.584229 776.652893,438.647766 
	C764.306824,429.421173 754.690247,416.935547 746.983643,403.331909 
	C742.052917,394.628235 741.598022,384.978180 741.439148,375.318298 
	C741.174072,359.198608 741.770630,343.284637 748.627075,328.142609 
	C755.591125,312.762909 764.905762,299.334137 777.801392,288.341492 
	C792.071960,276.176727 805.221680,262.516815 821.942566,253.585876 
	C836.859375,245.618546 852.185059,238.416779 867.660522,230.693817 
z"/>
<path fill="#FFFFFF" opacity="1.000000" stroke="none" 
	d="
M581.354614,1512.746460 
	C571.214783,1509.996704 561.284180,1507.891235 551.804321,1504.518799 
	C545.656494,1502.331543 540.342834,1497.909790 534.345520,1495.166870 
	C521.622131,1489.347656 508.346649,1484.651001 495.930573,1478.263550 
	C474.184082,1467.076172 452.710022,1455.318481 431.496002,1443.147461 
	C405.159973,1428.037598 378.793121,1412.640625 356.237518,1392.170532 
	C331.478516,1369.700806 308.004242,1345.815186 283.981567,1322.534790 
	C283.760345,1322.320312 283.697632,1321.942383 283.069519,1320.556519 
	C292.804474,1316.958130 302.335968,1312.974976 312.149506,1309.888672 
	C350.588196,1297.800537 389.661652,1287.929321 429.700775,1283.442017 
	C468.493591,1279.094360 507.493805,1276.239868 546.477661,1274.075562 
	C573.882507,1272.554077 601.418823,1272.786499 628.885193,1273.131714 
	C669.697021,1273.644409 710.106445,1278.020752 749.279663,1290.130981 
	C770.104919,1296.568726 790.015198,1305.456665 807.304688,1318.953491 
	C820.895325,1329.562866 829.836426,1343.779053 830.814697,1361.243652 
	C832.059326,1383.462646 833.467102,1405.888062 831.809998,1428.000000 
	C829.700867,1456.145264 822.431335,1483.579346 812.039429,1509.923584 
	C808.928345,1517.810425 803.865356,1524.939209 799.570557,1532.342041 
	C797.581726,1535.770020 795.290039,1539.022461 792.598511,1543.185059 
	C721.869995,1539.720093 651.662231,1527.358154 581.354614,1512.746460 
z"/>
<path fill="#FFFFFF" opacity="1.000000" stroke="none" 
	d="
M670.540588,988.437805 
	C682.968384,980.820862 696.659973,978.041138 710.251404,975.066589 
	C746.276062,967.182251 782.957520,965.553101 819.618713,963.421936 
	C862.196594,960.946716 904.771240,960.837036 947.379517,961.804749 
	C972.504517,962.375488 997.645813,962.384033 1022.760498,963.221741 
	C1061.810669,964.524414 1100.842163,966.379333 1139.885742,967.886353 
	C1178.770264,969.387207 1217.666870,970.585022 1256.545654,972.214478 
	C1296.897461,973.905701 1337.234253,975.955261 1378.011841,977.868408 
	C1372.411865,1027.844482 1366.079102,1077.268188 1348.431763,1125.000488 
	C1342.922119,1125.000488 1336.969482,1125.007935 1331.016846,1124.999146 
	C1294.547119,1124.945068 1258.074219,1124.560181 1221.608521,1124.916626 
	C1179.615967,1125.327271 1137.885376,1121.563477 1096.092041,1118.413086 
	C1054.821533,1115.302246 1013.523193,1112.501953 972.207703,1110.062622 
	C927.206848,1107.406006 882.135132,1105.867310 837.164673,1102.806519 
	C803.881409,1100.541382 770.728760,1096.204468 738.589539,1086.796753 
	C719.550537,1081.223755 700.602966,1075.017944 682.261230,1067.515137 
	C672.722961,1063.613525 662.945190,1058.378052 657.162048,1048.771118 
	C655.480408,1045.977539 653.658875,1042.906982 653.231323,1039.781372 
	C651.175659,1024.753906 652.827454,1010.211365 661.412292,997.267029 
	C663.634277,993.916687 667.260071,991.497437 670.540588,988.437805 
z"/>
<path fill="#FFFFFF" opacity="1.000000" stroke="none" 
	d="
M145.154144,1071.798340 
	C136.011200,1037.085205 128.359955,1002.436157 124.330292,967.186523 
	C121.651817,943.756287 121.072784,920.084900 119.651360,896.515625 
	C119.585472,895.423218 120.143501,893.752625 120.967865,893.230286 
	C129.597260,887.762512 138.945221,884.810791 149.257004,883.885315 
	C177.067474,881.389404 204.750778,882.903687 232.435669,885.406433 
	C252.286118,887.200928 272.249084,888.283936 291.939270,891.191528 
	C320.312805,895.381409 348.849548,900.263000 374.383331,914.191284 
	C399.425446,927.851379 421.156403,945.554382 435.193085,971.350342 
	C454.826294,1007.431213 447.345306,1040.068726 423.838867,1071.267822 
	C405.948486,1095.012939 381.101440,1106.258667 353.065582,1111.967651 
	C313.108368,1120.104126 272.627014,1123.949463 231.954315,1125.987305 
	C211.201477,1127.027100 190.439972,1127.893921 169.681580,1128.821167 
	C168.025040,1128.895142 166.362320,1128.830933 163.583054,1128.830933 
	C157.492294,1110.077026 151.343246,1091.143799 145.154144,1071.798340 
z"/>
<path fill="#FFFFFF" opacity="1.000000" stroke="none" 
	d="
M926.711670,686.056763 
	C935.943176,687.172546 944.082703,689.466980 949.135681,697.690491 
	C953.601379,704.958069 957.391418,712.363647 957.251526,721.291748 
	C957.083862,731.984131 959.134338,742.675171 954.405640,753.162231 
	C951.199951,760.271912 945.933167,763.561279 938.987061,764.878906 
	C915.093262,769.411743 891.010437,768.966675 866.905090,767.156189 
	C849.166809,765.823975 831.449219,764.186523 813.699280,763.045166 
	C781.348755,760.964783 748.890930,760.092590 716.641785,757.004883 
	C669.184021,752.460938 621.874207,746.379456 574.493713,741.020020 
	C522.469788,735.135315 470.399384,729.960327 418.154755,726.143311 
	C379.256653,723.301453 340.625031,716.958374 301.810150,712.773438 
	C280.995636,710.529358 260.068268,708.950256 239.150330,708.133118 
	C203.905197,706.756348 168.627029,706.224976 131.882629,705.300781 
	C138.902603,678.164429 145.747681,651.704163 152.872574,624.162170 
	C172.588943,625.579590 192.007599,626.354309 211.277206,628.480164 
	C264.138763,634.311890 316.884308,641.228760 369.781952,646.686768 
	C400.187988,649.824158 430.847015,650.436340 461.307281,653.140808 
	C494.748169,656.109985 528.063599,660.467041 561.484924,663.687622 
	C597.060059,667.115723 632.670776,670.246643 668.310730,672.909302 
	C706.108215,675.733215 743.938416,678.248657 781.792114,680.144897 
	C807.544434,681.434937 833.369324,681.201660 859.147583,682.069336 
	C881.551697,682.823486 904.095581,681.491272 926.711670,686.056763 
z"/>
<path fill="#FFFFFF" opacity="1.000000" stroke="none" 
	d="
M463.436432,443.513672 
	C443.396057,446.878662 423.812988,450.502350 404.101532,453.180603 
	C387.824768,455.392212 371.427338,457.207764 355.027924,457.917236 
	C325.269318,459.204651 295.472412,459.785156 265.685303,460.142914 
	C254.628555,460.275696 243.554337,458.953308 231.276291,458.222382 
	C234.787064,452.822723 237.590652,448.393829 240.509277,444.042023 
	C253.148376,425.196564 265.372162,406.049133 278.658569,387.670532 
	C286.030365,377.473450 295.061401,368.449890 303.589020,359.120850 
	C314.819550,346.834839 326.241730,334.722076 337.724152,322.670807 
	C339.044098,321.285461 341.295929,319.936401 343.082855,319.978119 
	C363.042084,320.443878 383.102905,320.127991 402.919037,322.151245 
	C422.849518,324.186188 442.531952,328.639130 462.328186,332.002625 
	C487.539215,336.286102 512.304382,342.443298 536.360962,351.052643 
	C552.313171,356.761536 567.835449,363.678436 578.702637,377.674561 
	C580.522949,380.018951 582.259216,382.512512 583.536743,385.175842 
	C585.747131,389.784058 584.969238,394.097473 581.596863,398.062378 
	C573.660889,407.392670 562.444275,411.516663 551.975525,416.739990 
	C524.133240,430.631805 494.170593,437.640869 463.436432,443.513672 
z"/>
<path fill="#FEFEFE" opacity="1.000000" stroke="none" 
	d="
M1091.488525,1381.511475 
	C1084.172729,1370.850586 1076.537476,1360.779419 1070.193604,1349.951782 
	C1064.934082,1340.974854 1068.580078,1328.513306 1076.656738,1320.495605 
	C1090.826050,1306.429810 1108.852173,1300.593262 1127.504517,1296.024170 
	C1150.952881,1290.280396 1174.701904,1290.766846 1198.334351,1294.022827 
	C1210.074463,1295.640503 1221.561279,1299.189819 1233.105957,1302.090942 
	C1238.314453,1303.399902 1242.253540,1306.431274 1244.206177,1311.785034 
	C1244.927368,1313.762573 1246.457031,1315.445190 1247.717773,1317.418579 
	C1231.299194,1337.830444 1215.586426,1358.706543 1196.690308,1377.168945 
	C1181.880615,1391.638550 1166.259521,1404.871338 1149.729248,1417.153687 
	C1147.966797,1418.463257 1144.711670,1419.112427 1142.652466,1418.465332 
	C1121.672852,1411.873901 1105.573242,1398.354492 1091.488525,1381.511475 
z"/>
<path fill="#010101" opacity="1.000000" stroke="none" 
	d="
M1276.925049,830.910706 
	C1248.317871,859.386902 1206.962158,867.078552 1170.632202,850.587769 
	C1132.450073,833.256287 1110.217651,803.067322 1103.538574,762.298035 
	C1099.543579,737.912231 1105.659668,714.468872 1117.855469,692.822083 
	C1131.452881,668.687683 1150.602295,651.667603 1178.529053,646.577637 
	C1197.066772,643.198975 1215.568604,643.946106 1233.693726,649.703125 
	C1262.379028,658.814331 1281.559814,679.217468 1292.729370,705.584900 
	C1308.655029,743.180115 1307.018188,781.308960 1287.183350,817.744934 
	C1284.613159,822.466125 1280.549316,826.374207 1276.925049,830.910706 
M1188.892090,710.951904 
	C1183.355713,712.408203 1179.967041,716.455261 1177.062988,720.970093 
	C1170.153320,731.711853 1165.718384,743.385864 1168.746216,756.159119 
	C1172.846313,773.456421 1183.252563,785.756226 1200.205200,792.420898 
	C1212.425537,797.225037 1231.643188,790.096130 1234.629639,777.342468 
	C1238.052124,762.725708 1238.813354,748.159302 1234.264160,733.696594 
	C1231.327637,724.360413 1224.354736,717.504578 1216.473877,712.997681 
	C1208.550293,708.466248 1198.859253,709.107666 1188.892090,710.951904 
z"/>
<path fill="#FEFEFE" opacity="1.000000" stroke="none" 
	d="
M1189.304565,710.893799 
	C1198.859253,709.107666 1208.550293,708.466248 1216.473877,712.997681 
	C1224.354736,717.504578 1231.327637,724.360413 1234.264160,733.696594 
	C1238.813354,748.159302 1238.052124,762.725708 1234.629639,777.342468 
	C1231.643188,790.096130 1212.425537,797.225037 1200.205200,792.420898 
	C1183.252563,785.756226 1172.846313,773.456421 1168.746216,756.159119 
	C1165.718384,743.385864 1170.153320,731.711853 1177.062988,720.970093 
	C1179.967041,716.455261 1183.355713,712.408203 1189.304565,710.893799 
z"/>
</svg>