<svg version="1.1" id="Layer_1" xmlns="http://www.w3.org/2000/svg" xmlns:xlink="http://www.w3.org/1999/xlink" x="0px" y="0px"
	 width="100%" viewBox="0 0 1551 1628" enable-background="new 0 0 1551 1628" xml:space="preserve">
<path fill="#FFFFFF" opacity="1.000000" stroke="none" 
	d="
M1552.000000,578.000000 
	C1552.000000,928.666565 1552.000000,1278.833130 1552.000000,1628.999756 
	C1035.000244,1628.999756 518.000488,1628.999756 1.000582,1628.999878 
	C1.000388,1086.333740 1.000388,543.667480 1.000194,1.000946 
	C517.999451,1.000630 1034.998901,1.000630 1551.999146,1.000315 
	C1552.000000,193.166672 1552.000000,385.333344 1552.000000,578.000000 
M1520.197144,741.201721 
	C1518.614746,733.754822 1517.209473,726.265137 1515.421753,718.867859 
	C1502.251099,664.370483 1483.674805,611.752502 1459.246094,561.305908 
	C1446.039185,534.032654 1431.971436,507.163727 1417.798706,480.373352 
	C1391.179321,430.055359 1360.132324,382.638245 1323.868774,338.679169 
	C1301.690063,311.793976 1278.631348,285.672943 1252.810303,262.270721 
	C1229.787720,241.404800 1206.445801,220.748032 1181.876221,201.770767 
	C1155.029541,181.034531 1127.006226,161.738159 1098.736206,142.957458 
	C1080.309082,130.715744 1060.800659,120.004097 1041.278809,109.535225 
	C1020.503967,98.394478 999.656921,87.099197 977.907532,78.138000 
	C950.236755,66.737030 921.691223,57.431133 893.405823,47.557232 
	C862.536133,36.781185 830.709045,30.317080 798.022827,29.212490 
	C768.584961,28.217672 739.106079,27.705837 709.657410,28.040773 
	C692.585449,28.234938 675.504150,30.205252 658.490784,31.985023 
	C648.469421,33.033367 638.601807,36.494747 628.614075,36.732914 
	C604.674194,37.303783 581.520569,41.813034 558.558594,47.973698 
	C522.195496,57.729836 486.703613,70.281471 453.458496,87.757614 
	C409.753784,110.732124 368.706635,138.030243 330.693390,169.827988 
	C291.935822,202.248337 255.526550,237.022278 222.763916,275.456421 
	C205.031036,296.259033 188.570297,318.145050 171.499680,339.513580 
	C149.521194,367.025635 132.334946,397.626648 114.908798,428.024078 
	C99.936630,454.140930 87.746002,481.631165 77.256294,509.862701 
	C61.586140,552.036682 47.217400,594.564209 38.412506,638.842712 
	C32.113182,670.521057 27.312651,702.373535 24.911251,734.554626 
	C23.116301,758.608704 21.591787,782.704529 20.851233,806.809631 
	C20.084307,831.773010 19.348608,856.819702 20.522150,881.739441 
	C21.991264,912.935486 24.413975,944.165344 28.299358,975.145569 
	C31.861151,1003.545776 37.170250,1031.790527 43.083820,1059.813721 
	C48.755165,1086.689209 56.477848,1113.115234 66.844658,1138.642944 
	C78.038300,1166.206665 88.593956,1194.076294 101.043411,1221.067261 
	C109.480949,1239.360107 120.508675,1256.482788 130.720932,1273.928101 
	C164.412994,1331.483521 208.844498,1379.812622 260.323273,1421.632935 
	C298.177612,1452.385010 339.278442,1478.351562 383.288422,1499.666870 
	C426.765625,1520.724243 471.380829,1538.856323 517.558838,1552.987305 
	C563.931702,1567.177856 611.028198,1578.551147 658.554871,1588.235107 
	C689.368408,1594.513428 720.336609,1600.017334 751.701111,1601.687378 
	C785.110596,1603.466431 818.629395,1604.107422 852.085205,1603.762695 
	C872.137573,1603.556030 892.374634,1601.776855 912.145630,1598.436768 
	C940.018738,1593.727905 967.565491,1587.048462 995.201050,1580.980713 
	C1058.644653,1567.050781 1117.339600,1540.703247 1174.215576,1510.378784 
	C1219.676025,1486.140747 1260.241699,1454.463013 1298.999268,1420.712280 
	C1332.769897,1391.304199 1360.428101,1356.191162 1387.878174,1321.055786 
	C1416.812988,1284.019775 1440.188843,1243.460205 1460.906128,1201.407837 
	C1483.951538,1154.630005 1501.725220,1105.774780 1514.409546,1055.225464 
	C1520.401123,1031.348022 1524.954590,1007.033630 1528.690918,982.691833 
	C1531.458252,964.663147 1532.602295,946.292419 1533.135132,928.035156 
	C1533.970337,899.410950 1534.900879,870.696106 1533.548462,842.125793 
	C1531.956299,808.490356 1527.298340,775.058044 1520.197144,741.201721 
z"/>
<path fill="#010101" opacity="1.000000" stroke="none" 
	d="
M1520.350098,741.601074 
	C1527.298340,775.058044 1531.956299,808.490356 1533.548462,842.125793 
	C1534.900879,870.696106 1533.970337,899.410950 1533.135132,928.035156 
	C1532.602295,946.292419 1531.458252,964.663147 1528.690918,982.691833 
	C1524.954590,1007.033630 1520.401123,1031.348022 1514.409546,1055.225464 
	C1501.725220,1105.774780 1483.951538,1154.630005 1460.906128,1201.407837 
	C1440.188843,1243.460205 1416.812988,1284.019775 1387.878174,1321.055786 
	C1360.428101,1356.191162 1332.769897,1391.304199 1298.999268,1420.712280 
	C1260.241699,1454.463013 1219.676025,1486.140747 1174.215576,1510.378784 
	C1117.339600,1540.703247 1058.644653,1567.050781 995.201050,1580.980713 
	C967.565491,1587.048462 940.018738,1593.727905 912.145630,1598.436768 
	C892.374634,1601.776855 872.137573,1603.556030 852.085205,1603.762695 
	C818.629395,1604.107422 785.110596,1603.466431 751.701111,1601.687378 
	C720.336609,1600.017334 689.368408,1594.513428 658.554871,1588.235107 
	C611.028198,1578.551147 563.931702,1567.177856 517.558838,1552.987305 
	C471.380829,1538.856323 426.765625,1520.724243 383.288422,1499.666870 
	C339.278442,1478.351562 298.177612,1452.385010 260.323273,1421.632935 
	C208.844498,1379.812622 164.412994,1331.483521 130.720932,1273.928101 
	C120.508675,1256.482788 109.480949,1239.360107 101.043411,1221.067261 
	C88.593956,1194.076294 78.038300,1166.206665 66.844658,1138.642944 
	C56.477848,1113.115234 48.755165,1086.689209 43.083820,1059.813721 
	C37.170250,1031.790527 31.861151,1003.545776 28.299358,975.145569 
	C24.413975,944.165344 21.991264,912.935486 20.522150,881.739441 
	C19.348608,856.819702 20.084307,831.773010 20.851233,806.809631 
	C21.591787,782.704529 23.116301,758.608704 24.911251,734.554626 
	C27.312651,702.373535 32.113182,670.521057 38.412506,638.842712 
	C47.217400,594.564209 61.586140,552.036682 77.256294,509.862701 
	C87.746002,481.631165 99.936630,454.140930 114.908798,428.024078 
	C132.334946,397.626648 149.521194,367.025635 171.499680,339.513580 
	C188.570297,318.145050 205.031036,296.259033 222.763916,275.456421 
	C255.526550,237.022278 291.935822,202.248337 330.693390,169.827988 
	C368.706635,138.030243 409.753784,110.732124 453.458496,87.757614 
	C486.703613,70.281471 522.195496,57.729836 558.558594,47.973698 
	C581.520569,41.813034 604.674194,37.303783 628.614075,36.732914 
	C638.601807,36.494747 648.469421,33.033367 658.490784,31.985023 
	C675.504150,30.205252 692.585449,28.234938 709.657410,28.040773 
	C739.106079,27.705837 768.584961,28.217672 798.022827,29.212490 
	C830.709045,30.317080 862.536133,36.781185 893.405823,47.557232 
	C921.691223,57.431133 950.236755,66.737030 977.907532,78.138000 
	C999.656921,87.099197 1020.503967,98.394478 1041.278809,109.535225 
	C1060.800659,120.004097 1080.309082,130.715744 1098.736206,142.957458 
	C1127.006226,161.738159 1155.029541,181.034531 1181.876221,201.770767 
	C1206.445801,220.748032 1229.787720,241.404800 1252.810303,262.270721 
	C1278.631348,285.672943 1301.690063,311.793976 1323.868774,338.679169 
	C1360.132324,382.638245 1391.179321,430.055359 1417.798706,480.373352 
	C1431.971436,507.163727 1446.039185,534.032654 1459.246094,561.305908 
	C1483.674805,611.752502 1502.251099,664.370483 1515.421753,718.867859 
	C1517.209473,726.265137 1518.614746,733.754822 1520.350098,741.601074 
M1133.069580,285.912720 
	C1133.445679,285.783875 1133.821777,285.655029 1134.197876,285.526215 
	C1133.899536,285.250183 1133.601318,284.974152 1132.959961,284.115753 
	C1107.575073,265.747314 1082.682861,246.641418 1056.646606,229.248001 
	C1036.485596,215.779556 1015.156677,203.972092 993.856934,192.322128 
	C975.756592,182.422028 957.413940,172.680756 938.351135,164.895004 
	C913.699036,154.826370 888.278503,146.615356 863.087585,137.897186 
	C842.015198,130.604340 820.372070,125.688019 798.016846,124.800186 
	C782.230957,124.173264 766.419006,123.835114 750.622070,123.930786 
	C714.781616,124.147850 678.882751,122.623611 643.203979,127.931030 
	C622.768738,130.970886 602.433533,134.084152 582.545959,140.053909 
	C542.476807,152.081665 503.623291,166.615662 467.888489,188.923721 
	C432.295380,211.143372 398.501068,235.658157 367.307098,263.726105 
	C362.097015,268.414093 357.065277,273.300293 351.218994,278.781281 
	C354.463501,278.953979 356.281555,279.017303 358.094299,279.152283 
	C389.096893,281.461182 420.075348,284.197510 451.109650,285.938690 
	C469.875763,286.991516 488.729370,286.733673 507.541595,286.640900 
	C524.760132,286.555969 541.403015,282.459930 558.037659,278.446625 
	C589.841003,270.773804 621.070129,260.369965 653.928345,257.644775 
	C673.871948,255.990677 693.655701,256.285034 713.080505,262.414429 
	C747.522461,273.282379 781.858521,276.973785 817.443115,265.395172 
	C845.338379,256.318542 873.202148,246.223618 903.083435,244.400040 
	C922.396484,243.221420 941.692810,241.927109 960.761597,245.582733 
	C986.541809,250.524963 1012.267212,255.858795 1037.816040,261.874786 
	C1069.487183,269.332458 1100.953613,277.660095 1133.069580,285.912720 
M478.294098,1095.090088 
	C485.577942,1095.726929 492.863464,1096.345581 500.145416,1097.003784 
	C530.849487,1099.779175 561.309448,1095.369507 591.853943,1093.750977 
	C623.081177,1092.096313 654.255615,1089.411499 685.488525,1087.915161 
	C700.916504,1087.175903 716.490356,1087.257568 731.878845,1088.475586 
	C751.403809,1090.020874 770.751160,1094.146484 790.280579,1095.196533 
	C807.135193,1096.102905 824.293762,1095.482300 841.036377,1093.337891 
	C863.856201,1090.414917 886.302246,1084.595215 909.116211,1081.597412 
	C922.344910,1079.859131 936.160217,1079.804810 949.395508,1081.483765 
	C975.688721,1084.819580 1001.792603,1085.041870 1027.956299,1081.349854 
	C1043.734253,1079.123413 1059.381348,1075.738892 1075.216064,1074.204590 
	C1093.892578,1072.394775 1112.708618,1072.027954 1131.462891,1071.013916 
	C1133.284302,1070.915405 1135.184204,1070.952026 1136.900391,1070.435913 
	C1147.019165,1067.394165 1157.181519,1064.460327 1167.165527,1061.015381 
	C1186.895142,1054.208130 1207.471558,1053.025146 1227.983643,1051.246094 
	C1253.126953,1049.065796 1278.246338,1046.584961 1303.409790,1044.678223 
	C1311.996094,1044.027466 1320.697876,1045.066284 1329.323120,1044.727783 
	C1347.275757,1044.023438 1365.203491,1042.548462 1383.159180,1042.101929 
	C1395.008423,1041.807251 1406.888306,1042.752808 1419.154541,1043.156250 
	C1427.976440,1012.507874 1434.164917,980.758789 1436.447510,948.043457 
	C1432.866333,947.848999 1429.734985,947.700439 1426.606445,947.505493 
	C1408.349976,946.367981 1390.105957,944.938416 1371.834351,944.165649 
	C1357.751953,943.570068 1343.669922,943.038696 1329.867310,947.714966 
	C1317.195435,952.008179 1304.286743,955.726257 1291.289673,958.910950 
	C1263.520142,965.715149 1235.029663,966.292114 1206.668457,967.836365 
	C1186.238281,968.948730 1165.787231,969.784302 1145.385132,971.282410 
	C1118.861938,973.229797 1092.413330,976.368469 1065.868042,977.792847 
	C1034.513428,979.475342 1003.918274,984.394836 974.286621,994.865967 
	C950.879272,1003.137573 927.347107,1010.847534 902.007874,1009.121887 
	C890.575500,1008.343323 879.194214,1006.420105 867.760864,1006.121765 
	C831.968384,1005.187744 796.152710,1003.979126 760.363953,1004.399963 
	C726.309570,1004.800293 692.637695,1002.471619 659.139160,996.569397 
	C643.603699,993.832031 628.067871,990.363831 612.393066,989.324158 
	C589.478333,987.804321 566.529236,989.416931 543.669128,992.321289 
	C524.583374,994.746094 505.398743,997.028503 486.198975,997.707336 
	C472.160126,998.203735 458.005341,996.217773 443.938721,994.937073 
	C424.424713,993.160339 404.903442,991.335022 385.468170,988.875671 
	C375.958374,987.672302 366.720123,984.090210 357.207642,983.197754 
	C344.321930,981.988831 331.280426,982.549927 318.325439,981.935791 
	C307.768555,981.435303 298.020355,978.261658 288.721161,972.906372 
	C270.133331,962.202026 254.420929,948.023071 238.730759,933.678284 
	C222.819138,919.131042 219.829514,895.662170 233.370163,878.950073 
	C246.741211,862.447144 263.653870,850.348267 284.853363,846.052429 
	C313.431915,840.261536 342.527344,838.703918 371.572937,836.999207 
	C390.674957,835.877991 409.764923,834.430298 428.882233,833.721008 
	C454.481842,832.771301 480.129120,831.374573 505.707581,832.036804 
	C535.772766,832.815125 565.857178,834.849487 595.802612,837.707642 
	C627.844238,840.765808 659.895325,842.457336 692.005676,841.224915 
	C720.401245,840.135010 748.755981,837.833862 777.106018,835.757935 
	C795.281799,834.426941 813.415344,832.976868 831.023438,827.308350 
	C838.319580,824.959412 846.367676,824.718018 854.119751,824.058899 
	C872.827820,822.468201 891.630920,821.790344 910.271729,819.659851 
	C940.266418,816.231873 970.187073,812.115845 1000.089600,807.936401 
	C1023.077332,804.723328 1045.950439,800.685181 1068.944702,797.524841 
	C1094.260864,794.045532 1119.585571,789.559021 1145.037476,788.410767 
	C1175.597778,787.032104 1206.300781,788.495605 1236.933838,789.122559 
	C1283.019165,790.065735 1329.114624,790.907959 1375.170654,792.698547 
	C1394.970337,793.468323 1412.881958,787.974670 1430.894165,780.672058 
	C1430.688232,779.939819 1430.385620,779.170837 1430.260376,778.374023 
	C1425.083862,745.433228 1415.964111,713.501892 1405.707764,681.850647 
	C1404.836182,679.160706 1403.699097,677.748352 1400.771484,677.393188 
	C1392.703491,676.414612 1384.697266,674.446777 1376.617554,674.132446 
	C1350.510498,673.117004 1324.384155,672.510742 1298.259888,672.048645 
	C1275.291870,671.642212 1252.751587,673.613892 1230.908691,682.031738 
	C1203.752686,692.497131 1175.249512,696.089844 1146.265015,694.748169 
	C1113.847168,693.247498 1081.478394,690.634583 1049.055054,689.324463 
	C1020.035339,688.151978 991.471680,683.747742 963.049561,678.468933 
	C943.052368,674.754944 924.101868,675.453552 905.189392,683.738220 
	C880.662476,694.482422 854.826294,699.979553 827.912109,700.247070 
	C820.460693,700.321106 812.964417,701.207703 805.585999,702.349915 
	C778.469727,706.547546 752.701843,715.515259 727.067200,724.942749 
	C705.321899,732.940002 683.183472,738.855408 659.708740,738.997437 
	C638.095703,739.128174 617.132141,736.667969 598.354004,725.180786 
	C582.690063,715.598633 567.180054,705.686035 552.246704,695.017273 
	C542.869324,688.317993 532.858215,683.886475 521.678406,683.217163 
	C497.008667,681.740479 472.553070,684.604797 448.267548,688.810730 
	C439.631317,690.306458 431.142883,693.173218 422.468781,693.813843 
	C408.715729,694.829773 394.861542,694.761780 381.053284,694.671875 
	C364.551605,694.564270 348.446472,692.075439 332.658478,686.803284 
	C312.866455,680.193909 293.244720,672.777710 272.254425,670.452209 
	C252.995667,668.318665 233.619934,667.161133 214.561935,670.757874 
	C198.191315,673.847534 181.945450,678.148804 166.103821,683.321289 
	C152.830078,687.655396 140.192017,693.958130 127.355927,699.579773 
	C125.968544,700.187378 124.305069,701.980835 124.169632,703.361633 
	C121.653702,729.010803 118.365799,754.638123 117.250153,780.357239 
	C115.836098,812.955566 115.933693,845.632324 115.962669,878.274719 
	C115.976082,893.391418 116.871803,908.552002 118.236580,923.613953 
	C121.501808,959.649719 126.373932,995.484619 133.970230,1030.890503 
	C136.140640,1041.006714 139.029129,1050.968628 141.701553,1061.445190 
	C163.971191,1051.174805 186.855286,1049.051270 210.274017,1048.831909 
	C229.533752,1048.651611 248.428513,1050.908813 267.331604,1053.987671 
	C289.627350,1057.618896 312.109833,1060.286133 334.234039,1064.746826 
	C370.027069,1071.963379 404.761230,1083.870117 440.948303,1089.482910 
	C453.086609,1091.365601 465.234924,1093.183594 478.294098,1095.090088 
M347.666290,623.013184 
	C373.152313,632.076233 399.175720,630.471619 425.284454,626.868164 
	C444.483551,624.218323 463.598328,620.657288 482.879211,618.980347 
	C504.693939,617.083008 526.725708,615.866394 548.236206,622.019653 
	C560.636780,625.566956 573.131836,628.928223 583.809143,636.790833 
	C594.325439,644.534851 604.735107,652.497498 615.780945,659.424377 
	C624.095276,664.638245 632.953491,670.664307 642.260254,672.234375 
	C657.363525,674.782227 673.008423,674.483704 688.044250,669.148682 
	C706.421082,662.628113 724.870789,656.286682 743.442139,650.346558 
	C771.992798,641.214539 801.171875,635.492004 831.276611,634.795105 
	C846.465088,634.443481 861.334412,631.619812 875.251587,625.306946 
	C908.147583,610.385193 941.996094,607.296204 977.351624,614.743286 
	C1005.998535,620.777344 1035.134155,623.734192 1064.424072,625.003601 
	C1086.198242,625.947327 1107.991211,626.856445 1129.708252,628.616394 
	C1159.199341,631.006409 1187.875366,628.866638 1216.023071,618.764099 
	C1229.635010,613.878662 1244.025269,609.255249 1258.281982,608.466797 
	C1288.813354,606.778198 1319.486816,607.650452 1350.102173,607.496033 
	C1358.469849,607.453796 1366.837769,607.489624 1375.363525,607.489624 
	C1375.189331,606.803467 1375.132080,605.938293 1374.767212,605.232178 
	C1358.567627,573.889465 1342.368652,542.546387 1326.010254,511.286621 
	C1325.399170,510.118744 1323.174194,509.091583 1321.758911,509.161682 
	C1311.966431,509.646637 1302.171143,510.247772 1292.410767,511.171631 
	C1265.569824,513.712280 1238.750366,515.723022 1211.716431,515.147339 
	C1180.819824,514.489502 1150.559692,510.790009 1121.055542,501.274384 
	C1094.615723,492.747009 1067.663696,486.303558 1039.714844,486.197357 
	C1021.923523,486.129730 1004.123901,487.958160 986.334229,487.855164 
	C961.383972,487.710724 936.443237,486.375183 911.491760,485.891571 
	C884.867981,485.375519 858.236938,485.173065 831.608032,485.043945 
	C826.758179,485.020447 822.427856,486.880768 818.821777,490.576508 
	C811.794128,497.779053 803.498230,503.131805 794.226196,507.201508 
	C773.743591,516.191833 751.831970,519.299866 730.037354,521.700378 
	C710.411743,523.861877 690.481934,523.413208 670.680054,523.757263 
	C660.891296,523.927307 651.067749,523.590271 641.299194,522.914856 
	C634.393738,522.437378 627.574280,520.343384 620.681213,520.134888 
	C604.865601,519.656433 589.023315,520.123718 573.201355,519.775635 
	C552.759644,519.325989 532.460144,517.834595 512.918335,510.840881 
	C498.407776,505.647797 483.693146,500.337524 468.131683,500.216766 
	C443.668457,500.026947 419.195679,500.833435 394.729431,501.338623 
	C373.775391,501.771271 352.826233,502.439117 331.872314,502.878784 
	C315.577515,503.220703 299.161224,502.230347 283.011047,503.892792 
	C262.273621,506.027405 241.770691,510.372253 221.123886,513.480225 
	C208.189865,515.427185 195.208527,517.236938 182.182434,518.298767 
	C177.638702,518.669189 175.230225,519.896545 173.771973,524.053406 
	C164.391846,550.792358 154.855301,577.476501 145.512039,604.228271 
	C143.472458,610.067993 142.007599,616.108521 140.117218,622.609680 
	C141.710220,622.276123 142.343597,622.185730 142.951523,622.008118 
	C144.693314,621.499512 146.413254,620.913818 148.162018,620.431763 
	C175.294373,612.952454 202.089264,604.126831 230.733093,603.711243 
	C249.584503,603.437744 268.307434,603.914856 286.980865,606.614197 
	C307.620392,609.598022 327.227600,616.300842 347.666290,623.013184 
M1002.616272,1293.050415 
	C998.001953,1299.302246 993.877563,1306.000732 988.671631,1311.713501 
	C977.656677,1323.800781 963.516846,1331.390015 949.168274,1339.024902 
	C922.434326,1353.249634 894.351990,1361.948975 864.258484,1364.909424 
	C837.653503,1367.526733 811.101196,1370.708130 784.556580,1373.897705 
	C773.194519,1375.262817 761.940247,1377.512695 750.584595,1378.945435 
	C734.760010,1380.941650 718.880188,1382.495850 703.035034,1384.333862 
	C675.659485,1387.509521 648.299072,1390.815552 620.919800,1393.958130 
	C598.324219,1396.551514 575.728577,1399.166504 553.100220,1401.447388 
	C526.317444,1404.146973 499.515991,1406.697021 472.689087,1408.904663 
	C461.739899,1409.805542 442.414001,1413.654297 433.441071,1417.890381 
	C435.063354,1418.715576 436.481201,1419.579956 438.001251,1420.189087 
	C468.531097,1432.423950 499.119568,1444.514282 529.580811,1456.917236 
	C537.732117,1460.236084 545.238953,1460.815430 553.798279,1457.652100 
	C582.562256,1447.021606 611.648804,1437.267822 640.495667,1426.856445 
	C665.293213,1417.906616 691.275208,1415.345093 717.145874,1413.302490 
	C745.489868,1411.064575 774.008850,1411.083862 802.444275,1409.939331 
	C813.040222,1409.512817 823.868164,1409.771729 834.142944,1407.600708 
	C850.785461,1404.084229 867.176392,1399.202637 883.459290,1394.200073 
	C905.501770,1387.427979 927.791870,1384.824585 950.812927,1386.880859 
	C979.668396,1389.458252 1001.631470,1401.840942 1014.139587,1428.833008 
	C1019.921265,1441.309814 1025.757935,1453.761597 1031.646484,1466.188232 
	C1032.534546,1468.062378 1032.752563,1470.890747 1036.415771,1469.336182 
	C1048.142700,1464.359619 1060.183960,1460.083252 1071.730469,1454.730835 
	C1089.728271,1446.387939 1107.462158,1437.468872 1125.213745,1428.605713 
	C1130.220703,1426.105713 1134.899780,1422.948975 1139.934692,1419.971924 
	C1137.934204,1417.788574 1136.103027,1416.105713 1134.645508,1414.144775 
	C1128.227905,1405.510620 1121.994629,1396.739136 1115.549194,1388.126099 
	C1108.112427,1378.188232 1103.571289,1367.247803 1102.748169,1354.744751 
	C1102.225464,1346.804932 1101.175415,1338.899170 1100.329956,1330.981445 
	C1098.306641,1312.033203 1094.370117,1293.386719 1094.750244,1274.063232 
	C1095.359863,1243.076416 1109.415649,1220.090576 1135.032959,1204.672119 
	C1150.511353,1195.356201 1167.758057,1188.897827 1184.433228,1181.670044 
	C1210.251465,1170.479004 1237.203003,1164.420044 1265.507446,1164.947754 
	C1278.001953,1165.180664 1290.516602,1165.343140 1302.999512,1164.900391 
	C1315.106812,1164.470947 1327.185059,1163.223145 1339.276245,1162.338257 
	C1353.494019,1161.297485 1365.799927,1154.404175 1378.690674,1149.339355 
	C1380.000000,1148.824829 1381.182007,1147.206909 1381.793091,1145.822998 
	C1385.540283,1137.336060 1389.152710,1128.788330 1392.711670,1120.220093 
	C1394.383789,1116.193970 1395.836304,1112.076538 1397.769165,1107.000366 
	C1394.085571,1107.000366 1391.461792,1106.930176 1388.842773,1107.011353 
	C1362.243042,1107.835449 1335.643677,1108.669189 1309.045776,1109.548096 
	C1306.059692,1109.646729 1303.080566,1110.013916 1300.102783,1110.303223 
	C1280.622559,1112.195801 1261.172363,1114.508301 1241.656250,1115.894775 
	C1219.634277,1117.459473 1197.698608,1118.339478 1176.748291,1126.872437 
	C1161.514160,1133.077148 1145.436523,1136.379517 1128.750732,1136.365723 
	C1116.943848,1136.356079 1105.047729,1136.449951 1093.346558,1137.820923 
	C1066.998535,1140.907959 1040.834961,1145.922485 1014.427124,1148.032349 
	C994.296265,1149.640747 973.714355,1149.643311 953.682251,1147.333008 
	C932.846863,1144.929932 912.606628,1145.884277 892.253113,1149.518677 
	C870.080688,1153.477905 848.358032,1160.436279 825.607178,1160.495483 
	C807.667847,1160.542236 789.680664,1160.293945 771.798889,1159.006958 
	C755.746826,1157.851318 739.833069,1153.637695 723.816223,1153.379150 
	C695.729797,1152.925781 667.579102,1153.859131 639.515015,1155.341553 
	C611.489319,1156.822021 583.542114,1159.755127 555.550964,1161.928345 
	C526.246155,1164.203613 496.925690,1163.389038 467.837921,1159.756226 
	C433.897369,1155.517334 400.218262,1149.409424 367.266632,1139.948608 
	C333.506470,1130.255737 299.056702,1124.217773 264.314514,1119.372559 
	C243.041641,1116.405762 221.901001,1112.826660 200.294937,1114.321045 
	C190.684341,1114.985840 181.129089,1115.527588 172.067291,1119.403687 
	C162.634079,1123.438721 162.170486,1123.450317 166.136826,1132.737549 
	C173.414856,1149.778931 180.634079,1166.889771 188.962723,1183.425171 
	C196.408096,1198.207031 205.262833,1212.283325 213.602402,1226.608765 
	C217.271347,1232.911255 221.026276,1239.182251 225.145493,1245.191162 
	C226.164536,1246.677612 228.882538,1248.053955 230.603577,1247.828735 
	C239.812164,1246.625000 248.916718,1244.626953 258.124756,1243.417358 
	C271.128143,1241.709351 284.162048,1239.625366 297.233795,1239.173340 
	C323.677368,1238.258789 350.169586,1238.759399 376.614227,1237.863770 
	C397.055206,1237.171509 417.450043,1235.175171 437.872955,1233.877808 
	C463.594696,1232.243896 489.306549,1230.252197 515.055420,1229.306274 
	C539.012573,1228.426147 563.016235,1228.898071 586.992615,1228.428589 
	C604.094299,1228.093750 621.093018,1227.068970 637.806213,1222.465332 
	C663.415161,1215.411499 689.405273,1209.918701 716.081421,1209.153564 
	C736.722046,1208.561523 757.397278,1209.095093 778.031494,1208.385010 
	C801.780273,1207.567261 825.541870,1206.431396 849.220703,1204.491821 
	C867.732727,1202.975586 886.151306,1202.737061 904.476746,1205.356323 
	C925.481689,1208.358398 946.158081,1212.895142 966.478027,1219.319946 
	C978.957458,1223.265625 989.595703,1229.629395 997.909546,1239.252563 
	C1011.947632,1255.501465 1011.048828,1273.741089 1002.616272,1293.050415 
M482.500061,351.833832 
	C475.513184,351.725433 468.514252,351.842682 461.541595,351.468933 
	C433.811157,349.982391 406.050873,348.821960 378.374756,346.621216 
	C352.161041,344.536774 326.021179,341.293701 299.697693,344.090240 
	C295.102203,344.578430 289.664093,345.445312 286.388275,348.226105 
	C280.506012,353.219360 275.599518,359.521301 270.937073,365.763245 
	C255.678162,386.191528 240.548584,406.721832 225.731552,427.471619 
	C221.127701,433.918854 217.676910,441.189484 213.222076,448.908173 
	C221.089737,447.651459 227.837921,446.886261 234.444321,445.462860 
	C259.851318,439.988770 285.486603,436.939026 311.509308,437.190460 
	C330.646027,437.375366 349.792053,437.638489 368.921783,437.257233 
	C396.685913,436.703888 424.438751,435.589081 452.197083,434.736084 
	C477.321289,433.964020 501.804749,437.654510 525.418762,446.202484 
	C538.498718,450.937256 551.753662,454.018433 565.679871,454.177002 
	C586.321960,454.412048 607.008972,453.972015 627.590881,455.227936 
	C645.264893,456.306427 662.743896,459.179504 680.631836,458.721375 
	C705.101929,458.094666 729.474731,457.591766 753.421265,451.851593 
	C760.675110,450.112793 768.494324,449.276550 773.739075,443.334473 
	C787.553772,427.682678 806.023865,421.375183 825.573792,420.281189 
	C851.451599,418.833069 877.480774,419.926331 903.442383,420.179810 
	C936.503845,420.502594 969.413269,424.025238 1002.653748,421.461670 
	C1046.031250,418.116302 1088.973267,422.650452 1130.678467,436.006775 
	C1149.769287,442.120697 1169.033691,448.027649 1189.145630,448.757202 
	C1211.738892,449.576782 1234.390137,449.189850 1257.006714,448.787781 
	C1266.356689,448.621613 1275.681641,447.051422 1285.099487,446.111633 
	C1284.890747,445.236328 1284.900757,444.863922 1284.729126,444.618500 
	C1266.221802,418.136322 1245.859131,393.136505 1224.232910,369.157440 
	C1223.245361,368.062347 1221.464844,367.144531 1220.014404,367.084137 
	C1190.345581,365.848572 1161.791992,357.610962 1132.667114,353.000824 
	C1118.485107,350.755981 1104.855225,345.229858 1090.801392,341.929382 
	C1047.473022,331.753906 1004.029480,322.069519 960.693909,311.924286 
	C936.857483,306.343964 912.931946,307.391663 889.458923,312.338074 
	C868.988525,316.651764 849.155640,323.922638 828.917908,329.434540 
	C816.804321,332.733734 804.548157,336.988495 792.191467,337.627136 
	C760.519165,339.264038 728.987244,336.564087 698.718201,326.270355 
	C680.653198,320.126892 662.625671,321.216583 644.633850,324.632660 
	C627.444824,327.896301 610.417175,332.193237 593.523071,336.787781 
	C557.472961,346.591919 521.188416,354.217285 482.500061,351.833832 
M974.160767,926.712891 
	C996.111633,919.748108 1018.733643,916.139465 1041.565308,914.097778 
	C1071.526611,911.418518 1101.533569,909.189331 1131.549194,907.192322 
	C1166.228394,904.884949 1200.970825,903.461060 1235.620483,900.802490 
	C1250.929688,899.627869 1266.242676,897.111084 1281.254028,893.830872 
	C1296.875488,890.417236 1311.966309,884.564758 1327.594482,881.194824 
	C1348.442871,876.699280 1369.619385,878.611755 1390.721924,880.238647 
	C1406.618652,881.464111 1422.570557,881.972961 1438.400146,882.795715 
	C1438.400146,870.744507 1438.400146,859.228027 1438.400146,848.867432 
	C1426.680298,851.601135 1415.358032,856.118896 1403.878906,856.560364 
	C1372.123901,857.781677 1340.290894,857.945862 1308.512207,857.325378 
	C1272.108398,856.614380 1235.720947,854.803650 1199.342651,853.118774 
	C1153.067017,850.975525 1107.479370,856.155701 1062.065796,864.517517 
	C1040.881104,868.418091 1019.462219,871.087097 998.109070,874.020020 
	C978.702454,876.685547 959.212219,878.745667 939.810669,881.444702 
	C913.147705,885.153992 886.489807,888.665222 859.509094,889.090576 
	C854.254578,889.173401 848.975220,890.200073 843.782654,891.187744 
	C830.954651,893.627563 818.277405,897.441406 805.347595,898.651184 
	C772.092590,901.762573 738.755737,904.141785 705.409424,906.093323 
	C673.975525,907.932861 642.527527,907.014282 611.119751,904.586121 
	C577.310547,901.972412 543.503479,899.229248 509.653076,897.280151 
	C478.025909,895.459106 446.428406,897.612549 414.862000,899.766052 
	C388.146301,901.588684 361.413483,903.164307 334.703552,905.064697 
	C326.430145,905.653259 318.207001,906.947876 308.667633,908.071533 
	C316.395477,913.487366 322.556396,917.766663 331.402985,917.194824 
	C348.359924,916.098755 365.351959,916.916138 381.886139,921.254272 
	C396.566345,925.105957 411.433624,927.160583 426.540009,928.196106 
	C439.804718,929.105408 453.003723,931.247864 466.272888,931.743347 
	C480.507233,932.274902 494.852844,932.297058 509.036224,931.143860 
	C530.197937,929.423157 551.222534,926.063904 572.372925,924.146179 
	C608.884033,920.835754 644.560120,928.047485 680.358093,933.566650 
	C693.782349,935.636353 707.259399,938.413452 720.762329,938.729187 
	C764.222900,939.745239 807.709351,939.595459 851.179871,940.275330 
	C863.457703,940.467346 875.754089,941.606873 887.972473,942.945251 
	C904.504883,944.756165 920.651428,944.392273 936.556580,938.695984 
	C948.678467,934.354736 961.092712,930.829956 974.160767,926.712891 
M855.119202,1269.588501 
	C842.701355,1270.725464 830.300964,1272.543945 817.862183,1272.861084 
	C789.731262,1273.578491 761.569702,1273.159912 733.443909,1273.991577 
	C718.373230,1274.437134 703.223816,1275.716309 688.342529,1278.082275 
	C673.514893,1280.439697 658.962585,1284.560547 644.317200,1288.025024 
	C618.348694,1294.168091 591.819031,1293.581543 565.446045,1294.400879 
	C535.007202,1295.346436 504.528778,1295.071899 474.095734,1296.134399 
	C455.508881,1296.783325 436.982971,1299.060791 418.415253,1300.407715 
	C400.007111,1301.743042 381.596039,1303.330322 363.158447,1303.888184 
	C343.369141,1304.486694 323.542603,1303.755127 303.742126,1304.127319 
	C294.792511,1304.295410 285.866669,1305.729614 275.799011,1306.698364 
	C302.442230,1333.837891 330.164276,1357.198853 360.838043,1376.962280 
	C362.083221,1377.764404 364.623260,1377.566040 366.085052,1376.856201 
	C374.421417,1372.807007 382.476837,1368.165527 390.880859,1364.271851 
	C414.373932,1353.387329 439.032013,1346.524170 464.838562,1344.129639 
	C479.402893,1342.778320 494.042389,1342.196655 508.587158,1340.683105 
	C547.892334,1336.593262 587.173218,1332.264771 626.447815,1327.887939 
	C658.788940,1324.283813 691.121338,1320.592407 723.431030,1316.718018 
	C747.806152,1313.795166 772.139771,1310.526489 796.490845,1307.403320 
	C823.489685,1303.940674 850.523254,1300.722778 877.473022,1296.912476 
	C895.726746,1294.331787 911.345215,1284.939087 928.048889,1276.141113 
	C903.705750,1270.643433 880.162109,1266.844849 855.119202,1269.588501 
M1213.758545,1240.168335 
	C1199.094238,1246.656860 1184.392822,1253.063599 1169.785522,1259.678101 
	C1164.691895,1261.984619 1160.870483,1265.938354 1160.517212,1271.696899 
	C1160.102539,1278.457397 1160.078857,1285.325439 1160.781128,1292.053467 
	C1162.293457,1306.545776 1164.784668,1320.941895 1166.077759,1335.448486 
	C1166.854492,1344.163452 1167.973633,1352.203003 1175.504517,1357.923706 
	C1176.905640,1358.987793 1178.199829,1360.621338 1178.782715,1362.262329 
	C1182.001343,1371.323608 1190.622559,1374.626099 1197.180664,1380.305298 
	C1254.489380,1340.114136 1296.153442,1286.011719 1336.693848,1229.004028 
	C1333.700684,1229.004028 1332.431519,1228.986572 1331.162964,1229.006714 
	C1310.038818,1229.342407 1288.915283,1229.903442 1267.790527,1229.955322 
	C1249.361938,1230.000610 1231.558716,1232.829468 1213.758545,1240.168335 
M955.462585,1457.947998 
	C954.162720,1455.557129 953.642395,1452.483521 949.884216,1452.469849 
	C939.591187,1452.432617 929.030151,1450.772583 919.066956,1452.535034 
	C903.156128,1455.349487 887.635986,1460.385376 871.963379,1464.530151 
	C860.150391,1467.654053 848.519409,1472.459229 836.520264,1473.670410 
	C814.540710,1475.888794 792.354492,1476.645386 770.244385,1476.834106 
	C743.256592,1477.064697 716.368347,1477.882202 689.664062,1482.023315 
	C678.731201,1483.718750 667.804504,1485.490479 656.742432,1490.841675 
	C762.009827,1513.015381 866.119202,1519.011597 970.790710,1488.603882 
	C965.705139,1478.371826 960.784729,1468.472046 955.462585,1457.947998 
z"/>
<path fill="#FFFFFF" opacity="1.000000" stroke="none" 
	d="
M477.836395,1095.060547 
	C465.234924,1093.183594 453.086609,1091.365601 440.948303,1089.482910 
	C404.761230,1083.870117 370.027069,1071.963379 334.234039,1064.746826 
	C312.109833,1060.286133 289.627350,1057.618896 267.331604,1053.987671 
	C248.428513,1050.908813 229.533752,1048.651611 210.274017,1048.831909 
	C186.855286,1049.051270 163.971191,1051.174805 141.701553,1061.445190 
	C139.029129,1050.968628 136.140640,1041.006714 133.970230,1030.890503 
	C126.373932,995.484619 121.501808,959.649719 118.236580,923.613953 
	C116.871803,908.552002 115.976082,893.391418 115.962669,878.274719 
	C115.933693,845.632324 115.836098,812.955566 117.250153,780.357239 
	C118.365799,754.638123 121.653702,729.010803 124.169632,703.361633 
	C124.305069,701.980835 125.968544,700.187378 127.355927,699.579773 
	C140.192017,693.958130 152.830078,687.655396 166.103821,683.321289 
	C181.945450,678.148804 198.191315,673.847534 214.561935,670.757874 
	C233.619934,667.161133 252.995667,668.318665 272.254425,670.452209 
	C293.244720,672.777710 312.866455,680.193909 332.658478,686.803284 
	C348.446472,692.075439 364.551605,694.564270 381.053284,694.671875 
	C394.861542,694.761780 408.715729,694.829773 422.468781,693.813843 
	C431.142883,693.173218 439.631317,690.306458 448.267548,688.810730 
	C472.553070,684.604797 497.008667,681.740479 521.678406,683.217163 
	C532.858215,683.886475 542.869324,688.317993 552.246704,695.017273 
	C567.180054,705.686035 582.690063,715.598633 598.354004,725.180786 
	C617.132141,736.667969 638.095703,739.128174 659.708740,738.997437 
	C683.183472,738.855408 705.321899,732.940002 727.067200,724.942749 
	C752.701843,715.515259 778.469727,706.547546 805.585999,702.349915 
	C812.964417,701.207703 820.460693,700.321106 827.912109,700.247070 
	C854.826294,699.979553 880.662476,694.482422 905.189392,683.738220 
	C924.101868,675.453552 943.052368,674.754944 963.049561,678.468933 
	C991.471680,683.747742 1020.035339,688.151978 1049.055054,689.324463 
	C1081.478394,690.634583 1113.847168,693.247498 1146.265015,694.748169 
	C1175.249512,696.089844 1203.752686,692.497131 1230.908691,682.031738 
	C1252.751587,673.613892 1275.291870,671.642212 1298.259888,672.048645 
	C1324.384155,672.510742 1350.510498,673.117004 1376.617554,674.132446 
	C1384.697266,674.446777 1392.703491,676.414612 1400.771484,677.393188 
	C1403.699097,677.748352 1404.836182,679.160706 1405.707764,681.850647 
	C1415.964111,713.501892 1425.083862,745.433228 1430.260376,778.374023 
	C1430.385620,779.170837 1430.688232,779.939819 1430.894165,780.672058 
	C1412.881958,787.974670 1394.970337,793.468323 1375.170654,792.698547 
	C1329.114624,790.907959 1283.019165,790.065735 1236.933838,789.122559 
	C1206.300781,788.495605 1175.597778,787.032104 1145.037476,788.410767 
	C1119.585571,789.559021 1094.260864,794.045532 1068.944702,797.524841 
	C1045.950439,800.685181 1023.077332,804.723328 1000.089600,807.936401 
	C970.187073,812.115845 940.266418,816.231873 910.271729,819.659851 
	C891.630920,821.790344 872.827820,822.468201 854.119751,824.058899 
	C846.367676,824.718018 838.319580,824.959412 831.023438,827.308350 
	C813.415344,832.976868 795.281799,834.426941 777.106018,835.757935 
	C748.755981,837.833862 720.401245,840.135010 692.005676,841.224915 
	C659.895325,842.457336 627.844238,840.765808 595.802612,837.707642 
	C565.857178,834.849487 535.772766,832.815125 505.707581,832.036804 
	C480.129120,831.374573 454.481842,832.771301 428.882233,833.721008 
	C409.764923,834.430298 390.674957,835.877991 371.572937,836.999207 
	C342.527344,838.703918 313.431915,840.261536 284.853363,846.052429 
	C263.653870,850.348267 246.741211,862.447144 233.370163,878.950073 
	C219.829514,895.662170 222.819138,919.131042 238.730759,933.678284 
	C254.420929,948.023071 270.133331,962.202026 288.721161,972.906372 
	C298.020355,978.261658 307.768555,981.435303 318.325439,981.935791 
	C331.280426,982.549927 344.321930,981.988831 357.207642,983.197754 
	C366.720123,984.090210 375.958374,987.672302 385.468170,988.875671 
	C404.903442,991.335022 424.424713,993.160339 443.938721,994.937073 
	C458.005341,996.217773 472.160126,998.203735 486.198975,997.707336 
	C505.398743,997.028503 524.583374,994.746094 543.669128,992.321289 
	C566.529236,989.416931 589.478333,987.804321 612.393066,989.324158 
	C628.067871,990.363831 643.603699,993.832031 659.139160,996.569397 
	C692.637695,1002.471619 726.309570,1004.800293 760.363953,1004.399963 
	C796.152710,1003.979126 831.968384,1005.187744 867.760864,1006.121765 
	C879.194214,1006.420105 890.575500,1008.343323 902.007874,1009.121887 
	C927.347107,1010.847534 950.879272,1003.137573 974.286621,994.865967 
	C1003.918274,984.394836 1034.513428,979.475342 1065.868042,977.792847 
	C1092.413330,976.368469 1118.861938,973.229797 1145.385132,971.282410 
	C1165.787231,969.784302 1186.238281,968.948730 1206.668457,967.836365 
	C1235.029663,966.292114 1263.520142,965.715149 1291.289673,958.910950 
	C1304.286743,955.726257 1317.195435,952.008179 1329.867310,947.714966 
	C1343.669922,943.038696 1357.751953,943.570068 1371.834351,944.165649 
	C1390.105957,944.938416 1408.349976,946.367981 1426.606445,947.505493 
	C1429.734985,947.700439 1432.866333,947.848999 1436.447510,948.043457 
	C1434.164917,980.758789 1427.976440,1012.507874 1419.154541,1043.156250 
	C1406.888306,1042.752808 1395.008423,1041.807251 1383.159180,1042.101929 
	C1365.203491,1042.548462 1347.275757,1044.023438 1329.323120,1044.727783 
	C1320.697876,1045.066284 1311.996094,1044.027466 1303.409790,1044.678223 
	C1278.246338,1046.584961 1253.126953,1049.065796 1227.983643,1051.246094 
	C1207.471558,1053.025146 1186.895142,1054.208130 1167.165527,1061.015381 
	C1157.181519,1064.460327 1147.019165,1067.394165 1136.900391,1070.435913 
	C1135.184204,1070.952026 1133.284302,1070.915405 1131.462891,1071.013916 
	C1112.708618,1072.027954 1093.892578,1072.394775 1075.216064,1074.204590 
	C1059.381348,1075.738892 1043.734253,1079.123413 1027.956299,1081.349854 
	C1001.792603,1085.041870 975.688721,1084.819580 949.395508,1081.483765 
	C936.160217,1079.804810 922.344910,1079.859131 909.116211,1081.597412 
	C886.302246,1084.595215 863.856201,1090.414917 841.036377,1093.337891 
	C824.293762,1095.482300 807.135193,1096.102905 790.280579,1095.196533 
	C770.751160,1094.146484 751.403809,1090.020874 731.878845,1088.475586 
	C716.490356,1087.257568 700.916504,1087.175903 685.488525,1087.915161 
	C654.255615,1089.411499 623.081177,1092.096313 591.853943,1093.750977 
	C561.309448,1095.369507 530.849487,1099.779175 500.145416,1097.003784 
	C492.863464,1096.345581 485.577942,1095.726929 477.836395,1095.060547 
z"/>
<path fill="#FFFFFF" opacity="1.000000" stroke="none" 
	d="
M347.287170,622.897583 
	C327.227600,616.300842 307.620392,609.598022 286.980865,606.614197 
	C268.307434,603.914856 249.584503,603.437744 230.733093,603.711243 
	C202.089264,604.126831 175.294373,612.952454 148.162018,620.431763 
	C146.413254,620.913818 144.693314,621.499512 142.951523,622.008118 
	C142.343597,622.185730 141.710220,622.276123 140.117218,622.609680 
	C142.007599,616.108521 143.472458,610.067993 145.512039,604.228271 
	C154.855301,577.476501 164.391846,550.792358 173.771973,524.053406 
	C175.230225,519.896545 177.638702,518.669189 182.182434,518.298767 
	C195.208527,517.236938 208.189865,515.427185 221.123886,513.480225 
	C241.770691,510.372253 262.273621,506.027405 283.011047,503.892792 
	C299.161224,502.230347 315.577515,503.220703 331.872314,502.878784 
	C352.826233,502.439117 373.775391,501.771271 394.729431,501.338623 
	C419.195679,500.833435 443.668457,500.026947 468.131683,500.216766 
	C483.693146,500.337524 498.407776,505.647797 512.918335,510.840881 
	C532.460144,517.834595 552.759644,519.325989 573.201355,519.775635 
	C589.023315,520.123718 604.865601,519.656433 620.681213,520.134888 
	C627.574280,520.343384 634.393738,522.437378 641.299194,522.914856 
	C651.067749,523.590271 660.891296,523.927307 670.680054,523.757263 
	C690.481934,523.413208 710.411743,523.861877 730.037354,521.700378 
	C751.831970,519.299866 773.743591,516.191833 794.226196,507.201508 
	C803.498230,503.131805 811.794128,497.779053 818.821777,490.576508 
	C822.427856,486.880768 826.758179,485.020447 831.608032,485.043945 
	C858.236938,485.173065 884.867981,485.375519 911.491760,485.891571 
	C936.443237,486.375183 961.383972,487.710724 986.334229,487.855164 
	C1004.123901,487.958160 1021.923523,486.129730 1039.714844,486.197357 
	C1067.663696,486.303558 1094.615723,492.747009 1121.055542,501.274384 
	C1150.559692,510.790009 1180.819824,514.489502 1211.716431,515.147339 
	C1238.750366,515.723022 1265.569824,513.712280 1292.410767,511.171631 
	C1302.171143,510.247772 1311.966431,509.646637 1321.758911,509.161682 
	C1323.174194,509.091583 1325.399170,510.118744 1326.010254,511.286621 
	C1342.368652,542.546387 1358.567627,573.889465 1374.767212,605.232178 
	C1375.132080,605.938293 1375.189331,606.803467 1375.363525,607.489624 
	C1366.837769,607.489624 1358.469849,607.453796 1350.102173,607.496033 
	C1319.486816,607.650452 1288.813354,606.778198 1258.281982,608.466797 
	C1244.025269,609.255249 1229.635010,613.878662 1216.023071,618.764099 
	C1187.875366,628.866638 1159.199341,631.006409 1129.708252,628.616394 
	C1107.991211,626.856445 1086.198242,625.947327 1064.424072,625.003601 
	C1035.134155,623.734192 1005.998535,620.777344 977.351624,614.743286 
	C941.996094,607.296204 908.147583,610.385193 875.251587,625.306946 
	C861.334412,631.619812 846.465088,634.443481 831.276611,634.795105 
	C801.171875,635.492004 771.992798,641.214539 743.442139,650.346558 
	C724.870789,656.286682 706.421082,662.628113 688.044250,669.148682 
	C673.008423,674.483704 657.363525,674.782227 642.260254,672.234375 
	C632.953491,670.664307 624.095276,664.638245 615.780945,659.424377 
	C604.735107,652.497498 594.325439,644.534851 583.809143,636.790833 
	C573.131836,628.928223 560.636780,625.566956 548.236206,622.019653 
	C526.725708,615.866394 504.693939,617.083008 482.879211,618.980347 
	C463.598328,620.657288 444.483551,624.218323 425.284454,626.868164 
	C399.175720,630.471619 373.152313,632.076233 347.287170,622.897583 
z"/>
<path fill="#FEFEFE" opacity="1.000000" stroke="none" 
	d="
M1002.805908,1292.723022 
	C1011.048828,1273.741089 1011.947632,1255.501465 997.909546,1239.252563 
	C989.595703,1229.629395 978.957458,1223.265625 966.478027,1219.319946 
	C946.158081,1212.895142 925.481689,1208.358398 904.476746,1205.356323 
	C886.151306,1202.737061 867.732727,1202.975586 849.220703,1204.491821 
	C825.541870,1206.431396 801.780273,1207.567261 778.031494,1208.385010 
	C757.397278,1209.095093 736.722046,1208.561523 716.081421,1209.153564 
	C689.405273,1209.918701 663.415161,1215.411499 637.806213,1222.465332 
	C621.093018,1227.068970 604.094299,1228.093750 586.992615,1228.428589 
	C563.016235,1228.898071 539.012573,1228.426147 515.055420,1229.306274 
	C489.306549,1230.252197 463.594696,1232.243896 437.872955,1233.877808 
	C417.450043,1235.175171 397.055206,1237.171509 376.614227,1237.863770 
	C350.169586,1238.759399 323.677368,1238.258789 297.233795,1239.173340 
	C284.162048,1239.625366 271.128143,1241.709351 258.124756,1243.417358 
	C248.916718,1244.626953 239.812164,1246.625000 230.603577,1247.828735 
	C228.882538,1248.053955 226.164536,1246.677612 225.145493,1245.191162 
	C221.026276,1239.182251 217.271347,1232.911255 213.602402,1226.608765 
	C205.262833,1212.283325 196.408096,1198.207031 188.962723,1183.425171 
	C180.634079,1166.889771 173.414856,1149.778931 166.136826,1132.737549 
	C162.170486,1123.450317 162.634079,1123.438721 172.067291,1119.403687 
	C181.129089,1115.527588 190.684341,1114.985840 200.294937,1114.321045 
	C221.901001,1112.826660 243.041641,1116.405762 264.314514,1119.372559 
	C299.056702,1124.217773 333.506470,1130.255737 367.266632,1139.948608 
	C400.218262,1149.409424 433.897369,1155.517334 467.837921,1159.756226 
	C496.925690,1163.389038 526.246155,1164.203613 555.550964,1161.928345 
	C583.542114,1159.755127 611.489319,1156.822021 639.515015,1155.341553 
	C667.579102,1153.859131 695.729797,1152.925781 723.816223,1153.379150 
	C739.833069,1153.637695 755.746826,1157.851318 771.798889,1159.006958 
	C789.680664,1160.293945 807.667847,1160.542236 825.607178,1160.495483 
	C848.358032,1160.436279 870.080688,1153.477905 892.253113,1149.518677 
	C912.606628,1145.884277 932.846863,1144.929932 953.682251,1147.333008 
	C973.714355,1149.643311 994.296265,1149.640747 1014.427124,1148.032349 
	C1040.834961,1145.922485 1066.998535,1140.907959 1093.346558,1137.820923 
	C1105.047729,1136.449951 1116.943848,1136.356079 1128.750732,1136.365723 
	C1145.436523,1136.379517 1161.514160,1133.077148 1176.748291,1126.872437 
	C1197.698608,1118.339478 1219.634277,1117.459473 1241.656250,1115.894775 
	C1261.172363,1114.508301 1280.622559,1112.195801 1300.102783,1110.303223 
	C1303.080566,1110.013916 1306.059692,1109.646729 1309.045776,1109.548096 
	C1335.643677,1108.669189 1362.243042,1107.835449 1388.842773,1107.011353 
	C1391.461792,1106.930176 1394.085571,1107.000366 1397.769165,1107.000366 
	C1395.836304,1112.076538 1394.383789,1116.193970 1392.711670,1120.220093 
	C1389.152710,1128.788330 1385.540283,1137.336060 1381.793091,1145.822998 
	C1381.182007,1147.206909 1380.000000,1148.824829 1378.690674,1149.339355 
	C1365.799927,1154.404175 1353.494019,1161.297485 1339.276245,1162.338257 
	C1327.185059,1163.223145 1315.106812,1164.470947 1302.999512,1164.900391 
	C1290.516602,1165.343140 1278.001953,1165.180664 1265.507446,1164.947754 
	C1237.203003,1164.420044 1210.251465,1170.479004 1184.433228,1181.670044 
	C1167.758057,1188.897827 1150.511353,1195.356201 1135.032959,1204.672119 
	C1109.415649,1220.090576 1095.359863,1243.076416 1094.750244,1274.063232 
	C1094.370117,1293.386719 1098.306641,1312.033203 1100.329956,1330.981445 
	C1101.175415,1338.899170 1102.225464,1346.804932 1102.748169,1354.744751 
	C1103.571289,1367.247803 1108.112427,1378.188232 1115.549194,1388.126099 
	C1121.994629,1396.739136 1128.227905,1405.510620 1134.645508,1414.144775 
	C1136.103027,1416.105713 1137.934204,1417.788574 1139.934692,1419.971924 
	C1134.899780,1422.948975 1130.220703,1426.105713 1125.213745,1428.605713 
	C1107.462158,1437.468872 1089.728271,1446.387939 1071.730469,1454.730835 
	C1060.183960,1460.083252 1048.142700,1464.359619 1036.415771,1469.336182 
	C1032.752563,1470.890747 1032.534546,1468.062378 1031.646484,1466.188232 
	C1025.757935,1453.761597 1019.921265,1441.309814 1014.139587,1428.833008 
	C1001.631470,1401.840942 979.668396,1389.458252 950.812927,1386.880859 
	C927.791870,1384.824585 905.501770,1387.427979 883.459290,1394.200073 
	C867.176392,1399.202637 850.785461,1404.084229 834.142944,1407.600708 
	C823.868164,1409.771729 813.040222,1409.512817 802.444275,1409.939331 
	C774.008850,1411.083862 745.489868,1411.064575 717.145874,1413.302490 
	C691.275208,1415.345093 665.293213,1417.906616 640.495667,1426.856445 
	C611.648804,1437.267822 582.562256,1447.021606 553.798279,1457.652100 
	C545.238953,1460.815430 537.732117,1460.236084 529.580811,1456.917236 
	C499.119568,1444.514282 468.531097,1432.423950 438.001251,1420.189087 
	C436.481201,1419.579956 435.063354,1418.715576 433.441071,1417.890381 
	C442.414001,1413.654297 461.739899,1409.805542 472.689087,1408.904663 
	C499.515991,1406.697021 526.317444,1404.146973 553.100220,1401.447388 
	C575.728577,1399.166504 598.324219,1396.551514 620.919800,1393.958130 
	C648.299072,1390.815552 675.659485,1387.509521 703.035034,1384.333862 
	C718.880188,1382.495850 734.760010,1380.941650 750.584595,1378.945435 
	C761.940247,1377.512695 773.194519,1375.262817 784.556580,1373.897705 
	C811.101196,1370.708130 837.653503,1367.526733 864.258484,1364.909424 
	C894.351990,1361.948975 922.434326,1353.249634 949.168274,1339.024902 
	C963.516846,1331.390015 977.656677,1323.800781 988.671631,1311.713501 
	C993.877563,1306.000732 998.001953,1299.302246 1002.805908,1292.723022 
z"/>
<path fill="#FFFFFF" opacity="1.000000" stroke="none" 
	d="
M483.000092,351.833832 
	C521.188416,354.217285 557.472961,346.591919 593.523071,336.787781 
	C610.417175,332.193237 627.444824,327.896301 644.633850,324.632660 
	C662.625671,321.216583 680.653198,320.126892 698.718201,326.270355 
	C728.987244,336.564087 760.519165,339.264038 792.191467,337.627136 
	C804.548157,336.988495 816.804321,332.733734 828.917908,329.434540 
	C849.155640,323.922638 868.988525,316.651764 889.458923,312.338074 
	C912.931946,307.391663 936.857483,306.343964 960.693909,311.924286 
	C1004.029480,322.069519 1047.473022,331.753906 1090.801392,341.929382 
	C1104.855225,345.229858 1118.485107,350.755981 1132.667114,353.000824 
	C1161.791992,357.610962 1190.345581,365.848572 1220.014404,367.084137 
	C1221.464844,367.144531 1223.245361,368.062347 1224.232910,369.157440 
	C1245.859131,393.136505 1266.221802,418.136322 1284.729126,444.618500 
	C1284.900757,444.863922 1284.890747,445.236328 1285.099487,446.111633 
	C1275.681641,447.051422 1266.356689,448.621613 1257.006714,448.787781 
	C1234.390137,449.189850 1211.738892,449.576782 1189.145630,448.757202 
	C1169.033691,448.027649 1149.769287,442.120697 1130.678467,436.006775 
	C1088.973267,422.650452 1046.031250,418.116302 1002.653748,421.461670 
	C969.413269,424.025238 936.503845,420.502594 903.442383,420.179810 
	C877.480774,419.926331 851.451599,418.833069 825.573792,420.281189 
	C806.023865,421.375183 787.553772,427.682678 773.739075,443.334473 
	C768.494324,449.276550 760.675110,450.112793 753.421265,451.851593 
	C729.474731,457.591766 705.101929,458.094666 680.631836,458.721375 
	C662.743896,459.179504 645.264893,456.306427 627.590881,455.227936 
	C607.008972,453.972015 586.321960,454.412048 565.679871,454.177002 
	C551.753662,454.018433 538.498718,450.937256 525.418762,446.202484 
	C501.804749,437.654510 477.321289,433.964020 452.197083,434.736084 
	C424.438751,435.589081 396.685913,436.703888 368.921783,437.257233 
	C349.792053,437.638489 330.646027,437.375366 311.509308,437.190460 
	C285.486603,436.939026 259.851318,439.988770 234.444321,445.462860 
	C227.837921,446.886261 221.089737,447.651459 213.222076,448.908173 
	C217.676910,441.189484 221.127701,433.918854 225.731552,427.471619 
	C240.548584,406.721832 255.678162,386.191528 270.937073,365.763245 
	C275.599518,359.521301 280.506012,353.219360 286.388275,348.226105 
	C289.664093,345.445312 295.102203,344.578430 299.697693,344.090240 
	C326.021179,341.293701 352.161041,344.536774 378.374756,346.621216 
	C406.050873,348.821960 433.811157,349.982391 461.541595,351.468933 
	C468.514252,351.842682 475.513184,351.725433 483.000092,351.833832 
z"/>
<path fill="#FFFFFF" opacity="1.000000" stroke="none" 
	d="
M1132.508423,285.611908 
	C1100.953613,277.660095 1069.487183,269.332458 1037.816040,261.874786 
	C1012.267212,255.858795 986.541809,250.524963 960.761597,245.582733 
	C941.692810,241.927109 922.396484,243.221420 903.083435,244.400040 
	C873.202148,246.223618 845.338379,256.318542 817.443115,265.395172 
	C781.858521,276.973785 747.522461,273.282379 713.080505,262.414429 
	C693.655701,256.285034 673.871948,255.990677 653.928345,257.644775 
	C621.070129,260.369965 589.841003,270.773804 558.037659,278.446625 
	C541.403015,282.459930 524.760132,286.555969 507.541595,286.640900 
	C488.729370,286.733673 469.875763,286.991516 451.109650,285.938690 
	C420.075348,284.197510 389.096893,281.461182 358.094299,279.152283 
	C356.281555,279.017303 354.463501,278.953979 351.218994,278.781281 
	C357.065277,273.300293 362.097015,268.414093 367.307098,263.726105 
	C398.501068,235.658157 432.295380,211.143372 467.888489,188.923721 
	C503.623291,166.615662 542.476807,152.081665 582.545959,140.053909 
	C602.433533,134.084152 622.768738,130.970886 643.203979,127.931030 
	C678.882751,122.623611 714.781616,124.147850 750.622070,123.930786 
	C766.419006,123.835114 782.230957,124.173264 798.016846,124.800186 
	C820.372070,125.688019 842.015198,130.604340 863.087585,137.897186 
	C888.278503,146.615356 913.699036,154.826370 938.351135,164.895004 
	C957.413940,172.680756 975.756592,182.422028 993.856934,192.322128 
	C1015.156677,203.972092 1036.485596,215.779556 1056.646606,229.248001 
	C1082.682861,246.641418 1107.575073,265.747314 1132.928467,284.631592 
	C1132.767334,285.302246 1132.637817,285.457092 1132.508423,285.611908 
z"/>
<path fill="#FEFEFE" opacity="1.000000" stroke="none" 
	d="
M973.768799,926.827393 
	C961.092712,930.829956 948.678467,934.354736 936.556580,938.695984 
	C920.651428,944.392273 904.504883,944.756165 887.972473,942.945251 
	C875.754089,941.606873 863.457703,940.467346 851.179871,940.275330 
	C807.709351,939.595459 764.222900,939.745239 720.762329,938.729187 
	C707.259399,938.413452 693.782349,935.636353 680.358093,933.566650 
	C644.560120,928.047485 608.884033,920.835754 572.372925,924.146179 
	C551.222534,926.063904 530.197937,929.423157 509.036224,931.143860 
	C494.852844,932.297058 480.507233,932.274902 466.272888,931.743347 
	C453.003723,931.247864 439.804718,929.105408 426.540009,928.196106 
	C411.433624,927.160583 396.566345,925.105957 381.886139,921.254272 
	C365.351959,916.916138 348.359924,916.098755 331.402985,917.194824 
	C322.556396,917.766663 316.395477,913.487366 308.667633,908.071533 
	C318.207001,906.947876 326.430145,905.653259 334.703552,905.064697 
	C361.413483,903.164307 388.146301,901.588684 414.862000,899.766052 
	C446.428406,897.612549 478.025909,895.459106 509.653076,897.280151 
	C543.503479,899.229248 577.310547,901.972412 611.119751,904.586121 
	C642.527527,907.014282 673.975525,907.932861 705.409424,906.093323 
	C738.755737,904.141785 772.092590,901.762573 805.347595,898.651184 
	C818.277405,897.441406 830.954651,893.627563 843.782654,891.187744 
	C848.975220,890.200073 854.254578,889.173401 859.509094,889.090576 
	C886.489807,888.665222 913.147705,885.153992 939.810669,881.444702 
	C959.212219,878.745667 978.702454,876.685547 998.109070,874.020020 
	C1019.462219,871.087097 1040.881104,868.418091 1062.065796,864.517517 
	C1107.479370,856.155701 1153.067017,850.975525 1199.342651,853.118774 
	C1235.720947,854.803650 1272.108398,856.614380 1308.512207,857.325378 
	C1340.290894,857.945862 1372.123901,857.781677 1403.878906,856.560364 
	C1415.358032,856.118896 1426.680298,851.601135 1438.400146,848.867432 
	C1438.400146,859.228027 1438.400146,870.744507 1438.400146,882.795715 
	C1422.570557,881.972961 1406.618652,881.464111 1390.721924,880.238647 
	C1369.619385,878.611755 1348.442871,876.699280 1327.594482,881.194824 
	C1311.966309,884.564758 1296.875488,890.417236 1281.254028,893.830872 
	C1266.242676,897.111084 1250.929688,899.627869 1235.620483,900.802490 
	C1200.970825,903.461060 1166.228394,904.884949 1131.549194,907.192322 
	C1101.533569,909.189331 1071.526611,911.418518 1041.565308,914.097778 
	C1018.733643,916.139465 996.111633,919.748108 973.768799,926.827393 
z"/>
<path fill="#FEFEFE" opacity="1.000000" stroke="none" 
	d="
M855.569458,1269.478027 
	C880.162109,1266.844849 903.705750,1270.643433 928.048889,1276.141113 
	C911.345215,1284.939087 895.726746,1294.331787 877.473022,1296.912476 
	C850.523254,1300.722778 823.489685,1303.940674 796.490845,1307.403320 
	C772.139771,1310.526489 747.806152,1313.795166 723.431030,1316.718018 
	C691.121338,1320.592407 658.788940,1324.283813 626.447815,1327.887939 
	C587.173218,1332.264771 547.892334,1336.593262 508.587158,1340.683105 
	C494.042389,1342.196655 479.402893,1342.778320 464.838562,1344.129639 
	C439.032013,1346.524170 414.373932,1353.387329 390.880859,1364.271851 
	C382.476837,1368.165527 374.421417,1372.807007 366.085052,1376.856201 
	C364.623260,1377.566040 362.083221,1377.764404 360.838043,1376.962280 
	C330.164276,1357.198853 302.442230,1333.837891 275.799011,1306.698364 
	C285.866669,1305.729614 294.792511,1304.295410 303.742126,1304.127319 
	C323.542603,1303.755127 343.369141,1304.486694 363.158447,1303.888184 
	C381.596039,1303.330322 400.007111,1301.743042 418.415253,1300.407715 
	C436.982971,1299.060791 455.508881,1296.783325 474.095734,1296.134399 
	C504.528778,1295.071899 535.007202,1295.346436 565.446045,1294.400879 
	C591.819031,1293.581543 618.348694,1294.168091 644.317200,1288.025024 
	C658.962585,1284.560547 673.514893,1280.439697 688.342529,1278.082275 
	C703.223816,1275.716309 718.373230,1274.437134 733.443909,1273.991577 
	C761.569702,1273.159912 789.731262,1273.578491 817.862183,1272.861084 
	C830.300964,1272.543945 842.701355,1270.725464 855.569458,1269.478027 
z"/>
<path fill="#FEFEFE" opacity="1.000000" stroke="none" 
	d="
M1214.136353,1240.069336 
	C1231.558716,1232.829468 1249.361938,1230.000610 1267.790527,1229.955322 
	C1288.915283,1229.903442 1310.038818,1229.342407 1331.162964,1229.006714 
	C1332.431519,1228.986572 1333.700684,1229.004028 1336.693848,1229.004028 
	C1296.153442,1286.011719 1254.489380,1340.114136 1197.180664,1380.305298 
	C1190.622559,1374.626099 1182.001343,1371.323608 1178.782715,1362.262329 
	C1178.199829,1360.621338 1176.905640,1358.987793 1175.504517,1357.923706 
	C1167.973633,1352.203003 1166.854492,1344.163452 1166.077759,1335.448486 
	C1164.784668,1320.941895 1162.293457,1306.545776 1160.781128,1292.053467 
	C1160.078857,1285.325439 1160.102539,1278.457397 1160.517212,1271.696899 
	C1160.870483,1265.938354 1164.691895,1261.984619 1169.785522,1259.678101 
	C1184.392822,1253.063599 1199.094238,1246.656860 1214.136353,1240.069336 
z"/>
<path fill="#FEFEFE" opacity="1.000000" stroke="none" 
	d="
M955.663452,1458.260132 
	C960.784729,1468.472046 965.705139,1478.371826 970.790710,1488.603882 
	C866.119202,1519.011597 762.009827,1513.015381 656.742432,1490.841675 
	C667.804504,1485.490479 678.731201,1483.718750 689.664062,1482.023315 
	C716.368347,1477.882202 743.256592,1477.064697 770.244385,1476.834106 
	C792.354492,1476.645386 814.540710,1475.888794 836.520264,1473.670410 
	C848.519409,1472.459229 860.150391,1467.654053 871.963379,1464.530151 
	C887.635986,1460.385376 903.156128,1455.349487 919.066956,1452.535034 
	C929.030151,1450.772583 939.591187,1452.432617 949.884216,1452.469849 
	C953.642395,1452.483521 954.162720,1455.557129 955.663452,1458.260132 
z"/>
<path fill="#FFFFFF" opacity="1.000000" stroke="none" 
	d="
M1133.099976,284.922760 
	C1133.601318,284.974152 1133.899536,285.250183 1134.197876,285.526215 
	C1133.821777,285.655029 1133.445679,285.783875 1132.789062,285.762329 
	C1132.637817,285.457092 1132.767334,285.302246 1133.099976,284.922760 
z"/>
</svg>