<svg version="1.1" id="Layer_1" xmlns="http://www.w3.org/2000/svg" xmlns:xlink="http://www.w3.org/1999/xlink" x="0px" y="0px"
	 width="100%" viewBox="0 0 976 1024" enable-background="new 0 0 976 1024" xml:space="preserve">
<path fill="#ffffff" opacity="1.000000" stroke="none" 
	d="
M9.849517,547.990479 
	C9.504925,522.164307 9.940495,496.842529 11.803587,471.585602 
	C15.344438,423.584320 24.424879,376.764526 41.336948,331.499176 
	C49.573521,309.453918 58.399361,287.764435 69.758263,267.143219 
	C85.312088,238.906448 103.290901,212.299973 123.622612,187.291702 
	C150.509949,154.219925 180.316345,123.999939 213.668198,97.466698 
	C257.871399,62.300636 306.612183,36.036930 362.121765,23.201111 
	C375.851593,20.026285 389.871063,20.199039 403.623016,17.703657 
	C427.964233,13.286788 452.529846,12.142994 477.221954,13.584876 
	C486.030212,14.099229 494.857422,13.948788 503.678009,14.282692 
	C528.815613,15.234279 552.471069,22.276295 576.119202,29.917439 
	C608.115845,40.256138 638.364258,54.219063 667.636353,70.772583 
	C712.570374,96.183014 753.684021,126.669113 791.234314,161.896774 
	C828.162292,196.540573 859.311340,235.986130 884.460999,279.966431 
	C902.987000,312.363617 920.623535,345.260345 934.599976,379.956787 
	C948.510010,414.488251 958.676758,450.028229 964.525146,486.874908 
	C970.492798,524.472717 970.578247,562.196350 968.055420,599.958923 
	C965.246216,642.007690 953.966980,682.177856 938.803772,721.307922 
	C923.250061,761.445801 903.027039,799.068848 876.821045,833.294861 
	C862.031860,852.609985 846.860107,871.693298 829.143005,888.453003 
	C805.845825,910.491272 780.549561,930.039124 753.028015,946.563660 
	C705.735535,974.959229 654.694519,993.654053 600.800293,1004.872498 
	C565.559509,1012.208069 530.047058,1014.383850 494.060852,1012.567444 
	C423.545166,1009.008179 356.006073,992.052429 290.017181,968.248962 
	C246.218307,952.449829 205.205383,930.992798 168.429855,902.169861 
	C130.007614,872.056274 98.029510,836.427979 74.112633,793.422668 
	C63.140266,773.693054 53.167118,753.671753 44.840485,732.779724 
	C29.736229,694.882141 20.027712,655.563782 14.903540,615.132385 
	C12.100618,593.016479 10.123730,570.809875 9.849517,547.990479 
M259.489166,620.150391 
	C227.634247,614.447327 195.967682,615.787903 164.251770,621.798523 
	C136.686310,627.022644 111.765221,638.680054 87.176048,651.431763 
	C84.739647,652.695190 84.465416,654.186523 85.108780,656.683167 
	C87.765968,666.995117 90.228661,677.355530 94.077972,687.317566 
	C95.031609,689.785583 95.263870,692.592346 97.131714,694.630737 
	C104.104630,702.240356 111.292702,709.657532 119.805557,715.568787 
	C126.759972,720.397827 133.572845,725.692017 142.419601,726.694214 
	C168.850403,729.688538 194.421616,727.742554 218.838867,715.643005 
	C237.329971,706.480042 255.771988,697.161560 274.944885,689.377258 
	C299.205475,679.527344 324.009766,676.403015 349.742981,681.707703 
	C367.741791,685.418030 383.832428,693.636963 399.995483,702.075256 
	C424.435394,714.834717 447.402466,729.654541 469.903778,745.584595 
	C506.828888,771.726257 547.812012,781.970459 592.559204,770.500000 
	C619.232727,763.662537 644.528809,752.742920 669.829407,742.028381 
	C692.233276,732.540588 713.077087,719.763123 735.632202,710.562927 
	C758.289978,701.320923 781.656311,694.421265 806.184570,693.928650 
	C830.501465,693.440369 854.790283,692.470520 879.091980,691.719849 
	C882.691345,691.608643 884.673523,690.184937 885.720764,686.937134 
	C886.282410,685.195251 886.997009,683.503357 887.613525,681.778564 
	C901.297180,643.495422 908.286438,604.069946 907.767456,563.371460 
	C907.743164,561.465332 908.411377,559.356628 906.614319,557.692017 
	C904.021606,557.725037 901.842896,559.026733 899.596924,560.013062 
	C887.374939,565.380676 874.725159,569.485413 861.954468,573.331909 
	C830.220459,582.889954 797.838379,589.871948 765.671875,597.682678 
	C726.319824,607.238342 689.615906,624.130920 651.801514,637.927856 
	C626.628052,647.112671 601.789612,656.954163 575.262268,662.059082 
	C543.676392,668.137573 512.174500,673.990356 479.811737,673.443909 
	C460.036560,673.110046 440.242859,674.440796 420.606171,670.442749 
	C399.463226,666.138000 378.926514,659.704773 359.263214,651.197815 
	C327.308716,637.373291 294.301117,627.414246 259.489166,620.150391 
M709.716675,372.282074 
	C691.054749,380.772217 673.396973,391.228271 654.983704,400.210754 
	C629.179810,412.798584 602.060120,419.024963 573.625671,413.709106 
	C540.708374,407.555145 509.580566,395.671295 480.322174,379.314331 
	C464.051239,370.218018 448.645172,359.559509 431.506653,352.030884 
	C417.912048,346.059082 404.114716,340.325348 388.945038,340.501129 
	C368.274139,340.740631 348.345123,345.244659 329.103668,352.682037 
	C308.274414,360.733185 288.986969,372.207397 268.152985,380.279114 
	C248.497574,387.894226 228.386627,393.880524 207.264084,394.976532 
	C169.640930,396.928650 134.816711,386.796326 101.991661,369.001831 
	C95.213341,365.327301 94.878128,365.382782 92.455902,372.626190 
	C86.798958,389.542664 82.678741,406.858673 79.592476,424.386536 
	C76.449196,442.238159 74.259590,460.241943 73.334122,478.367096 
	C73.237480,480.259674 72.370415,482.742035 74.396523,483.929626 
	C76.534431,485.182770 78.042358,482.948059 79.557922,481.845703 
	C92.512291,472.423279 106.009041,463.913788 120.185692,456.413361 
	C147.988113,441.703918 177.284546,431.379181 208.564896,428.021576 
	C233.193558,425.377930 257.973297,423.889984 282.821930,425.606537 
	C304.953186,427.135406 326.266754,431.723022 346.404175,441.242249 
	C373.996887,454.285706 400.194214,469.898926 426.659027,485.001678 
	C459.275238,503.614929 492.498474,520.755676 529.014954,530.585632 
	C536.090271,532.490295 543.103271,534.389343 550.502563,534.754700 
	C573.843933,535.907471 595.791199,530.298462 616.847351,520.908936 
	C637.371399,511.756683 655.594543,499.118011 672.595215,484.326172 
	C696.588745,463.450043 724.232178,447.725708 751.775940,432.195679 
	C775.945862,418.567871 802.383240,412.042145 830.385010,413.019653 
	C834.537476,413.164581 838.707825,413.573608 842.840759,413.341888 
	C851.347839,412.864990 859.751892,413.600067 868.193054,414.476013 
	C872.536560,414.926727 876.637207,417.560394 880.998779,416.449890 
	C882.108215,414.052277 881.003723,412.387146 880.384155,410.732574 
	C874.715271,395.592468 867.850830,380.980530 860.943420,366.376678 
	C858.995972,362.259338 856.454102,360.953339 852.054932,360.961456 
	C836.230652,360.990631 820.310181,360.723236 804.921204,356.800842 
	C787.013550,352.236542 769.398926,352.851776 751.628357,356.978485 
	C737.267395,360.313385 723.815430,366.068909 709.716675,372.282074 
M690.573669,525.099121 
	C665.437988,545.453918 637.673218,560.943848 606.516418,569.950134 
	C580.589111,577.444702 554.083801,581.081909 527.677063,574.098450 
	C499.543060,566.658264 471.885101,557.571411 445.892151,543.862732 
	C411.262085,525.598877 377.609650,505.598938 343.156738,487.020050 
	C319.903748,474.480713 295.567596,467.636444 269.211060,467.321228 
	C259.031219,467.199493 248.907684,467.967255 238.770935,468.422913 
	C222.150452,469.170013 205.595657,470.613190 189.379684,474.833435 
	C145.879822,486.154358 109.563278,509.984283 76.244095,539.187988 
	C72.651665,542.336731 71.255440,545.698975 71.450348,550.458740 
	C72.172195,568.087158 73.576347,585.655640 75.443359,603.190063 
	C75.946526,607.915649 77.941010,608.624390 82.876648,606.037537 
	C136.178879,578.099976 193.011597,569.273865 252.305054,576.058899 
	C283.138824,579.587219 312.897217,588.518677 342.194244,598.613037 
	C360.602112,604.955444 378.119598,613.634827 396.652893,619.761169 
	C411.230225,624.579834 425.847687,629.532166 441.164856,630.466553 
	C465.442810,631.947571 489.821716,631.734619 514.042908,629.379089 
	C538.237183,627.026184 562.056580,621.909180 585.559753,615.906128 
	C614.156799,608.602112 641.000549,596.044922 668.623657,585.841003 
	C689.545715,578.112366 710.121643,569.428528 731.498169,562.967346 
	C766.714783,552.322815 802.934998,545.604065 838.375488,535.782715 
	C859.789978,529.848267 880.467651,522.105164 900.812195,513.316589 
	C903.499878,512.155579 905.058044,510.515594 904.835022,507.235535 
	C903.940796,494.084808 901.182129,481.267761 898.263428,468.469299 
	C897.769897,466.305054 896.564941,464.967346 894.331421,464.503387 
	C873.066772,460.086548 852.246948,453.820343 829.934265,455.106873 
	C813.921875,456.030060 798.624390,458.549530 783.685120,464.194916 
	C770.287903,469.257568 758.904541,477.780151 746.721008,484.939819 
	C727.004089,496.526489 707.971558,509.055878 690.573669,525.099121 
M821.837769,295.607788 
	C812.850769,281.361908 803.097778,267.669312 792.618225,254.474823 
	C790.188049,251.415100 787.572327,250.309631 783.727295,250.207748 
	C758.245422,249.532410 732.965820,246.647980 707.849487,242.411194 
	C690.806091,239.536209 673.879395,235.700531 656.622742,234.495667 
	C623.623901,232.191650 591.128235,236.102112 559.096985,244.014435 
	C521.781799,253.231979 484.525116,262.685883 447.220428,271.946167 
	C426.183594,277.168243 404.918518,281.070160 383.163452,281.321472 
	C365.359741,281.527161 347.588684,281.693329 329.805328,279.526367 
	C304.417511,276.432739 279.371704,271.557556 255.728989,262.047546 
	C229.932632,251.671310 205.571686,238.084900 182.070282,223.138351 
	C178.718201,221.006470 176.704910,220.569687 173.736664,223.859955 
	C168.355438,229.824966 163.797852,236.369095 158.988739,242.748047 
	C141.492111,265.956024 126.117004,290.451080 114.013412,316.919159 
	C110.975861,323.561676 111.081734,323.696655 117.353264,328.026611 
	C130.116180,336.838318 144.439865,342.183350 159.137772,346.697693 
	C178.218994,352.558319 197.610718,354.345734 217.306854,350.787109 
	C236.615021,347.298553 254.842880,340.532745 272.357422,331.771149 
	C303.147552,316.368469 334.512054,302.678864 369.292908,299.100189 
	C385.450287,297.437714 401.467133,297.259735 417.337219,301.705566 
	C440.312134,308.141754 461.811218,317.920593 481.790955,330.758972 
	C507.239685,347.111511 534.612793,358.805756 563.389282,367.821198 
	C589.319275,375.944916 613.785889,373.410675 637.809753,361.141266 
	C658.716370,350.463898 679.115234,338.795715 700.748657,329.513947 
	C725.922852,318.713074 751.778625,311.278992 779.374329,310.788666 
	C792.823120,310.549652 805.752319,313.789001 818.847717,316.056824 
	C823.422119,316.848999 828.147644,318.503326 833.361877,316.487244 
	C830.982971,308.704376 825.829285,302.872650 821.837769,295.607788 
M581.400757,851.721069 
	C603.242188,847.159973 624.879395,841.957153 645.938477,834.360657 
	C669.908569,825.714172 694.403442,818.817383 719.517883,814.187988 
	C732.489563,811.796875 745.693970,811.928467 758.683472,809.970703 
	C776.071777,807.350159 793.481567,806.648682 810.850769,809.708740 
	C814.685120,810.384216 816.840393,809.585754 819.276367,806.617615 
	C835.726196,786.574585 849.723450,764.959778 861.637512,741.955627 
	C864.514893,736.399780 863.983215,735.028381 857.727234,735.425903 
	C845.743042,736.187378 833.752563,736.519226 821.767700,736.204773 
	C794.901062,735.499939 769.407715,741.343567 745.452881,753.055786 
	C707.593506,771.566528 669.552795,789.492004 629.818909,803.798157 
	C598.035461,815.241760 565.644897,820.179443 532.185242,815.977661 
	C503.114777,812.327209 476.161041,801.542419 452.315369,785.023376 
	C425.424957,766.395081 398.099731,748.809570 369.024658,733.782593 
	C344.325470,721.017273 319.468719,717.361694 293.114014,727.966125 
	C278.410950,733.882324 264.072968,740.608154 250.145615,748.038696 
	C215.905594,766.306702 179.810135,774.010803 141.166962,769.496521 
	C138.531052,769.188721 135.637848,768.255493 132.993484,769.785706 
	C132.751587,772.407715 134.275452,774.104553 135.387726,775.877502 
	C166.231461,825.040405 209.154282,860.738159 259.927185,887.750366 
	C264.544678,890.206909 267.576538,889.501709 271.330536,886.038147 
	C301.424469,858.272034 337.154053,843.459473 377.962982,842.166016 
	C412.120026,841.083374 446.250549,842.730896 479.561310,851.330261 
	C513.266541,860.031433 546.853943,861.278625 581.400757,851.721069 
M512.697571,163.311691 
	C488.094727,173.377792 462.764343,181.113190 436.295746,183.831772 
	C409.523499,186.581528 382.668579,184.540359 356.135895,180.807510 
	C319.951324,175.716782 284.603302,166.994766 251.345367,151.243423 
	C248.705780,149.993286 246.800156,150.329590 244.561493,152.147491 
	C232.518250,161.927155 220.895721,172.140106 210.615112,183.804871 
	C207.294769,187.572250 207.525986,189.277878 212.165268,191.789795 
	C227.541840,200.115463 242.981400,208.324799 258.357788,216.650803 
	C265.422241,220.476044 272.797913,223.488342 280.509460,225.702759 
	C300.839691,231.540710 321.327057,236.421783 342.542358,237.954910 
	C367.543427,239.761612 392.466919,239.815994 417.113708,234.882278 
	C447.462433,228.807159 477.403656,220.942245 507.353699,213.171448 
	C533.433777,206.404724 559.507385,199.700302 586.132629,195.290131 
	C600.959717,192.834198 615.809753,191.672226 630.824768,191.482681 
	C644.324280,191.312225 657.830505,191.229431 671.170532,193.145233 
	C690.251892,195.885559 709.195679,199.575027 728.261902,202.434875 
	C733.291809,203.189346 738.492859,204.712799 743.789612,203.429504 
	C743.474182,201.082352 741.810669,200.329773 740.630066,199.252899 
	C717.931641,178.549026 693.505798,160.080322 667.896667,143.147141 
	C647.723267,129.808212 626.489075,118.334633 605.007263,107.287926 
	C602.388184,105.941071 600.796631,106.099525 598.741150,108.606148 
	C595.699341,112.315529 592.124756,115.665634 588.423828,118.744072 
	C565.817993,137.547653 540.368225,151.581100 512.697571,163.311691 
M733.564087,855.286316 
	C710.042969,858.481323 687.371338,865.150085 665.048584,872.865723 
	C626.110840,886.324097 586.529480,896.864380 545.396423,900.595886 
	C529.617920,902.027222 513.743225,901.394592 498.131805,898.598450 
	C483.253693,895.933594 468.574982,892.171387 453.723358,889.338562 
	C428.885925,884.601013 403.716553,884.617737 378.576965,885.097534 
	C354.443176,885.558167 332.459869,892.858398 312.927826,907.201965 
	C312.040985,907.853271 310.784271,908.318848 311.195770,910.313965 
	C313.709503,911.315247 316.439026,912.465149 319.212280,913.497498 
	C345.153168,923.154114 371.959198,929.788513 398.780914,936.406433 
	C436.388428,945.685547 474.476715,950.957520 513.246033,951.684937 
	C545.112610,952.282837 576.075134,947.173523 607.017456,940.013489 
	C645.694580,931.063538 681.530090,915.515564 716.117371,896.623596 
	C736.533447,885.472229 754.402222,870.657654 772.633057,856.396301 
	C774.082092,855.262817 776.096924,854.297852 776.034424,851.742920 
	C772.127258,850.393311 768.442078,851.994263 764.725525,852.320801 
	C754.628296,853.207764 744.542847,854.229675 733.564087,855.286316 
M520.402954,78.290085 
	C510.926636,76.382271 501.330292,75.354752 491.689301,75.410530 
	C474.044464,75.512627 456.402191,75.382843 438.750549,75.749794 
	C416.197601,76.218628 394.003357,78.559891 372.215851,84.370407 
	C345.250580,91.561783 319.202423,101.027573 295.473663,116.071274 
	C293.710449,117.189117 291.543121,117.912979 290.738159,120.161247 
	C291.818817,122.295906 293.925446,122.647507 295.758148,123.198082 
	C304.359833,125.782181 312.936432,128.492706 321.642426,130.678314 
	C343.285248,136.111694 365.213776,139.656738 387.547760,140.934341 
	C404.850342,141.924149 422.144318,143.282318 439.332581,140.409180 
	C478.873688,133.799545 514.786255,118.115685 548.032166,96.021019 
	C550.851074,94.147591 553.878296,92.397926 556.401550,88.928413 
	C544.664612,84.244987 533.192505,80.580734 520.402954,78.290085 
z"/>
</svg>