<svg version="1.1" id="Layer_1" xmlns="http://www.w3.org/2000/svg" xmlns:xlink="http://www.w3.org/1999/xlink" x="0px" y="0px"
	 width="100%" viewBox="0 0 976 1024" enable-background="new 0 0 976 1024" xml:space="preserve">
<path fill="#ffffff" opacity="1.000000" stroke="none" 
	d="
M512.203857,34.651798 
	C520.270996,36.978680 527.963501,39.140667 535.594299,41.501877 
	C541.910522,43.456310 548.458679,43.119076 554.897400,43.596291 
	C584.201294,45.768211 613.080872,49.572140 639.989014,62.553078 
	C648.872375,66.838524 657.723328,71.296585 665.393677,77.391739 
	C682.553162,91.027275 701.778931,101.418205 720.003601,113.373337 
	C781.137207,153.476120 832.319824,203.440948 871.688782,265.372437 
	C890.972656,295.707916 907.010254,327.577362 921.231750,360.528198 
	C937.053406,397.186432 948.782532,435.045441 957.437805,473.962830 
	C965.216125,508.937225 965.270630,544.274658 963.566650,579.786621 
	C961.946899,613.543335 955.953979,646.513062 946.324463,678.822571 
	C936.194092,712.812500 921.875793,745.125366 903.801086,775.543762 
	C885.477112,806.381775 861.747742,833.004028 835.213684,857.116882 
	C800.890381,888.308350 762.974060,914.470642 722.603088,937.102539 
	C693.859497,953.216370 662.960388,964.255310 631.739624,974.453430 
	C601.729309,984.256226 570.853943,990.082642 539.659424,994.196960 
	C503.008453,999.030945 466.199005,998.452637 429.498779,994.990417 
	C386.845123,990.966675 346.000427,979.177246 305.590790,965.292175 
	C264.611694,951.211365 226.532806,931.743347 191.142685,906.960815 
	C164.240021,888.121765 140.803802,865.363770 119.677002,840.337097 
	C96.931534,813.393005 77.040237,784.393860 61.726051,752.552368 
	C41.057034,709.577026 26.558807,664.654480 19.412914,617.328918 
	C14.694471,586.079712 13.262278,554.753662 13.989104,523.262634 
	C15.391946,462.482208 27.182663,403.790283 49.001427,347.004974 
	C68.041862,297.450500 93.479301,251.653046 127.577965,210.900803 
	C165.858856,165.150238 210.980347,127.402122 261.653961,95.898773 
	C297.102325,73.860832 334.198425,55.683632 374.015167,43.357716 
	C404.271454,33.991383 434.976654,26.804165 467.102203,27.589369 
	C482.407227,27.963449 497.180878,30.465303 512.203857,34.651798 
M231.617325,236.136490 
	C215.772781,229.992294 201.714935,221.623489 194.552368,204.625793 
	C192.402206,206.421600 191.184555,207.283432 190.149323,208.326324 
	C173.225342,225.375320 157.295288,243.293091 143.471741,262.973785 
	C106.291740,315.907166 82.263779,374.553955 68.333427,437.486542 
	C64.018074,456.981842 61.626484,476.793213 59.803356,496.686523 
	C59.002987,505.419861 59.749176,506.833618 68.238243,505.465698 
	C79.754562,503.609955 91.296814,504.520447 102.539345,506.402771 
	C142.810425,513.145447 178.786819,529.758911 210.200363,555.871094 
	C222.455780,566.058350 232.878021,577.934998 239.803360,592.544067 
	C250.043152,614.144897 246.476822,635.584412 228.912857,651.816895 
	C211.919312,667.522156 190.450333,672.748230 168.246628,674.126953 
	C141.079575,675.813843 116.158447,666.646973 91.933983,655.433533 
	C84.560486,652.020386 78.144768,646.933472 70.402382,643.376892 
	C78.640877,680.828491 92.188049,716.071960 110.323967,749.952209 
	C111.949387,748.900818 112.486053,748.724915 112.745102,748.354797 
	C113.602234,747.130066 114.339874,745.822510 115.157692,744.569214 
	C121.155884,735.376953 129.545624,729.858154 140.487274,728.666992 
	C157.031631,726.865845 171.270218,732.309204 183.669220,743.055542 
	C185.695923,744.812073 187.751617,746.415833 190.220627,747.548401 
	C205.525177,754.568848 219.006775,764.247498 230.920547,776.079651 
	C248.321793,793.361389 261.123749,813.840027 270.164215,836.421814 
	C276.262268,851.653870 275.611267,867.380005 267.987152,882.378662 
	C265.468536,887.333435 261.324097,890.993713 257.663635,895.024536 
	C277.177521,911.797852 392.482483,949.308289 407.595612,945.679382 
	C406.895386,943.201355 405.209625,941.359009 403.798645,939.376404 
	C387.695038,916.748840 386.851166,884.632446 402.549469,860.784363 
	C415.532471,841.061279 433.572632,826.902405 453.928253,815.779358 
	C478.478241,802.364563 504.788330,794.884521 532.981445,793.451416 
	C559.226990,792.117371 584.847717,793.409241 609.448975,803.668518 
	C627.979187,811.396057 644.376953,821.935303 655.214966,839.310974 
	C668.937622,861.311523 670.988525,884.790588 662.838928,909.301636 
	C662.209106,911.195862 660.533752,913.132751 662.881836,916.379639 
	C718.325928,892.688721 767.208740,859.096680 811.471130,818.383545 
	C810.064697,816.449280 809.012512,816.286072 808.047729,816.446716 
	C799.142517,817.929810 790.587952,815.809387 781.853027,814.499878 
	C758.322266,810.972046 738.875671,794.636658 732.816284,771.647461 
	C728.789062,756.368164 729.587036,740.781250 733.392334,725.655640 
	C746.250061,674.548157 775.858398,636.369263 822.752686,611.849243 
	C829.702820,608.215088 836.615540,604.638794 844.405762,603.045105 
	C849.988892,601.903015 855.626160,601.680908 861.273132,601.417053 
	C876.421143,600.709290 890.416809,603.738464 902.066467,614.188599 
	C905.481812,617.252197 908.811462,620.411377 912.090027,623.443237 
	C914.091431,622.314209 914.412842,620.738403 914.689270,619.037842 
	C915.968811,611.165833 917.165588,603.299316 917.937439,595.342957 
	C920.661255,567.264526 921.055115,539.161438 918.575012,511.086029 
	C917.435364,498.184052 914.635010,485.464996 911.745544,472.810944 
	C910.894470,469.083984 909.265442,467.817200 905.405396,469.149628 
	C901.152527,470.617645 896.624329,471.339172 892.121948,470.995544 
	C874.427063,469.644989 858.281616,463.757080 844.063110,453.188080 
	C802.224548,422.088440 783.515808,379.421021 783.994568,328.250488 
	C784.217529,304.419800 797.390747,288.140228 819.742493,279.539429 
	C821.551880,278.843231 823.654907,278.586975 825.333191,276.252991 
	C799.413025,237.252960 767.209778,204.102951 730.186218,175.495422 
	C728.046265,177.302231 728.345398,179.125153 727.956543,180.688477 
	C726.084167,188.216171 723.176819,195.149109 717.875732,201.049179 
	C706.836304,213.335983 692.630188,217.953354 676.718201,218.177704 
	C659.393250,218.422012 642.686951,214.792404 626.353027,209.209991 
	C587.454407,195.915649 555.528076,173.237930 532.748474,138.705048 
	C522.661560,123.413643 517.213623,106.676903 521.536438,87.999596 
	C522.170593,85.259544 521.259338,83.454933 518.521912,82.653908 
	C514.210938,81.392403 509.829651,80.332253 505.597748,78.846207 
	C486.849945,72.262848 467.404419,70.943100 447.917084,72.541862 
	C429.499908,74.052826 411.510406,78.589798 393.742035,83.728607 
	C391.578918,84.354202 388.801849,84.495041 388.326630,87.399033 
	C387.846497,90.333206 390.535614,91.306442 392.351624,92.560493 
	C398.943634,97.112640 405.373413,101.777596 410.715790,107.876816 
	C419.646301,118.072548 422.269012,130.586075 423.899597,143.361786 
	C426.014557,159.933014 422.652435,175.319412 411.530396,188.207230 
	C400.173187,201.367508 386.256195,211.230103 370.502502,218.619553 
	C355.371246,225.717010 339.564178,230.938339 323.618011,235.694397 
	C293.319244,244.731201 262.863373,247.019669 231.617325,236.136490 
M522.751099,948.689026 
	C549.620728,949.432617 574.194885,942.634583 595.637573,926.055786 
	C606.696167,917.505615 616.321472,907.649597 620.954163,893.984253 
	C626.243225,878.382751 621.582886,863.107422 608.505188,853.561768 
	C599.649719,847.097900 589.739014,842.604492 579.050720,840.391296 
	C553.333069,835.066040 527.644348,835.925659 502.509003,843.421692 
	C479.308075,850.340881 458.669525,861.846558 442.850098,880.837158 
	C433.516815,892.041443 432.616394,903.627258 441.262024,915.053406 
	C451.674133,928.814087 466.433716,936.524292 482.107666,942.645935 
	C494.866119,947.628845 508.558502,946.758545 522.751099,948.689026 
M824.436829,662.972595 
	C806.062012,675.682312 793.894409,693.353210 784.366821,713.128906 
	C777.825562,726.706055 774.325073,740.911682 775.166443,756.101257 
	C775.393433,760.199036 776.669128,763.827759 779.681396,766.297913 
	C786.236572,771.673645 794.913574,773.723755 802.187561,771.553772 
	C817.724609,766.918579 831.669006,758.519165 843.583069,747.176819 
	C862.222229,729.431824 873.634094,707.533325 880.234863,682.959412 
	C882.091858,676.046082 884.333679,669.400818 881.816711,661.641235 
	C875.905518,643.417358 865.026489,643.077271 849.615173,648.361694 
	C840.654358,651.434265 832.790344,657.066467 824.436829,662.972595 
M367.821381,168.331543 
	C370.677673,165.787262 373.588745,163.301239 376.373657,160.681107 
	C378.801575,158.396820 379.737274,155.520309 379.780151,152.145767 
	C379.953766,138.483994 373.718994,129.297577 359.531158,124.700859 
	C343.852417,119.621101 327.997345,120.393318 312.550385,126.090721 
	C287.653534,135.273575 268.025726,152.489044 248.124466,169.170502 
	C244.226288,172.438019 241.089844,176.720947 238.028198,180.851395 
	C234.601700,185.474045 235.447266,188.651535 240.557373,191.364868 
	C249.540924,196.134918 259.297394,198.603653 269.354370,198.581329 
	C304.930206,198.502335 337.282745,187.467682 367.821381,168.331543 
M88.102707,598.400146 
	C103.154831,613.610962 122.124405,621.208191 142.257248,626.930664 
	C160.490356,632.113159 177.821609,630.273987 194.651230,622.121582 
	C201.070450,619.012085 202.010742,615.952148 198.605179,609.696716 
	C194.657104,602.444763 189.157776,596.343323 182.855652,591.126526 
	C163.282608,574.924255 141.704407,562.343750 117.081253,555.324829 
	C103.410866,551.427979 89.704712,548.241028 75.315567,549.259583 
	C68.871521,549.715759 62.123093,554.700928 61.683876,560.355652 
	C61.302120,565.270630 64.152107,569.251465 66.688171,573.137085 
	C72.631981,582.244141 79.686348,590.442200 88.102707,598.400146 
M594.723083,141.759201 
	C598.432495,144.577347 601.988220,147.630356 605.876892,150.174500 
	C626.850525,163.896606 649.541077,172.793030 674.869385,173.632812 
	C684.295593,173.945374 687.059998,169.987534 683.560974,161.143982 
	C677.629700,146.152618 667.694702,133.976807 654.102173,125.584175 
	C632.781860,112.420044 609.583130,103.145645 585.770142,95.451569 
	C581.946594,94.216164 578.005737,93.539444 573.959167,94.252380 
	C565.396729,95.760902 563.172729,99.399811 566.207092,107.355019 
	C567.205872,109.973465 568.611877,112.471992 570.089661,114.866142 
	C576.456238,125.180756 584.771484,133.745926 594.723083,141.759201 
M831.059021,323.527924 
	C828.728699,325.350464 828.376648,327.882050 828.197327,330.645691 
	C827.226868,345.606384 830.910645,359.714111 836.296570,373.404694 
	C845.290894,396.267395 859.945068,414.122040 882.996643,424.070312 
	C889.487793,426.871704 890.513611,425.878662 891.115356,418.713196 
	C892.192505,405.886505 887.694641,394.479492 882.389709,383.315674 
	C874.023376,365.709442 863.343262,349.418121 853.122131,332.875458 
	C850.738098,329.016968 847.494690,325.876312 843.718384,323.342407 
	C839.784790,320.702911 835.767761,320.037354 831.059021,323.527924 
M156.407135,777.355957 
	C151.140625,778.602600 150.440628,779.651184 152.740555,784.468933 
	C161.271118,802.338379 172.207993,818.542786 186.864044,832.000061 
	C197.274338,841.558899 207.529327,851.413147 221.125626,856.544556 
	C223.414795,857.408569 226.098068,859.013916 228.130035,856.936218 
	C230.159744,854.860779 228.510681,852.296448 227.562881,849.981323 
	C216.508698,822.980103 197.668106,802.703491 173.316605,787.217529 
	C168.000992,783.837219 163.159866,779.653015 156.407135,777.355957 
z"/>
<path fill="#ffffff" opacity="1.000000" stroke="none" 
	d="
M413.595703,288.217285 
	C419.811859,290.754608 425.821655,292.818329 431.500122,295.566620 
	C456.519684,307.675476 473.546173,327.749084 486.408997,351.736755 
	C494.360809,366.565979 501.259125,381.838715 505.657013,398.208038 
	C512.401306,423.310791 506.972504,445.650635 491.048950,465.673920 
	C475.281219,485.501251 454.195404,498.171722 431.486969,508.238251 
	C408.167114,518.575928 383.660248,524.223816 358.085114,525.498291 
	C320.062988,527.392944 282.572815,524.206787 246.113678,513.135925 
	C218.447083,504.734924 194.462997,489.980530 176.837494,466.491425 
	C162.779312,447.756378 158.733719,426.520813 163.088516,403.603088 
	C170.215271,366.097534 192.551910,338.706879 221.804749,316.145905 
	C246.365631,297.203522 274.653564,286.877563 305.059052,282.164703 
	C314.064911,280.768829 323.192566,280.116608 332.405884,281.108246 
	C336.268463,281.523926 340.287811,280.251099 344.251984,279.992706 
	C367.734406,278.461945 390.785126,280.725342 413.595703,288.217285 
M248.962357,351.487274 
	C241.719574,356.593170 235.056564,362.328766 229.408737,369.205383 
	C220.389603,380.186768 211.844788,391.397125 208.065659,405.497650 
	C204.199127,419.924286 205.258316,433.335175 216.130600,444.528625 
	C228.813156,457.585876 244.063843,466.918365 261.593658,471.503723 
	C297.609955,480.924622 334.226593,484.797668 371.337402,479.589050 
	C400.473450,475.499695 426.822296,464.566467 449.432007,445.422333 
	C463.727264,433.318207 467.034180,421.213562 461.075043,403.508331 
	C456.163635,388.915985 449.448975,375.076538 441.063477,362.256317 
	C433.935120,351.357971 425.139801,341.584259 413.007843,335.834778 
	C396.692505,328.102661 379.487274,324.053162 361.342163,324.270752 
	C350.853363,324.396545 340.369598,324.642944 329.883698,324.888824 
	C300.418213,325.579773 273.492889,333.656860 248.962357,351.487274 
z"/>
<path fill="#ffffff" opacity="1.000000" stroke="none" 
	d="
M734.198364,600.502930 
	C716.368713,604.547791 699.280212,602.121643 682.662903,596.793274 
	C648.792053,585.932495 624.564209,563.268250 606.868652,533.026428 
	C591.535095,506.821259 582.224548,478.442810 578.033264,448.532928 
	C575.007812,426.942871 575.762451,405.289642 583.479431,384.530121 
	C591.706665,362.397827 607.236267,349.350616 631.374390,347.561493 
	C645.607178,346.506531 659.253906,348.377625 671.929504,355.260315 
	C677.403137,358.232452 683.470459,359.508240 689.204163,361.733459 
	C717.767334,372.818420 737.780090,393.229919 752.390137,419.488220 
	C763.431824,439.333221 772.706421,459.963470 778.080322,482.124268 
	C783.242737,503.412994 786.439026,524.882080 782.488770,546.829468 
	C778.246155,570.401062 765.418274,587.223267 743.388062,596.858887 
	C740.494873,598.124268 737.527832,599.220459 734.198364,600.502930 
M708.633362,432.826935 
	C705.744690,428.326996 702.434570,424.165649 698.779114,420.258972 
	C688.490112,409.262665 675.085693,403.186218 661.690918,397.346039 
	C654.129272,394.049103 646.210999,391.164185 637.620361,391.360077 
	C630.279785,391.527466 626.590027,394.063416 624.435974,401.133850 
	C622.684753,406.881775 621.555664,412.781403 621.380432,418.794434 
	C620.182434,459.891510 632.335815,496.847321 658.181946,528.568054 
	C673.104553,546.882324 692.878601,557.985901 717.582031,557.743896 
	C727.643616,557.645325 736.421021,550.764160 738.495728,541.039856 
	C740.286255,532.647766 740.343323,524.065369 739.364990,515.662903 
	C735.894470,485.854462 724.716614,458.784363 708.633362,432.826935 
z"/>
<path fill="#ffffff" opacity="1.000000" stroke="none" 
	d="
M569.387817,696.143921 
	C561.368286,719.678101 544.560791,733.531311 521.985413,740.846924 
	C502.571014,747.138184 482.538635,750.449646 462.086761,750.063843 
	C421.423553,749.296814 384.111877,738.582581 353.341644,710.748230 
	C337.687897,696.587891 326.560303,679.545410 327.850281,657.176392 
	C329.193878,633.877869 340.637848,616.359802 359.919678,603.677979 
	C388.021637,585.194885 419.037354,578.835815 452.244781,581.282043 
	C474.163116,582.896667 495.283142,588.557800 515.856689,595.506287 
	C540.461975,603.816406 557.967163,620.656738 568.192993,645.028259 
	C575.300842,661.968506 574.473145,678.713318 569.387817,696.143921 
M508.829865,698.383545 
	C528.296753,691.935486 530.983643,677.091309 528.065735,664.982727 
	C524.786743,651.375488 514.934204,641.805237 502.232635,637.780029 
	C480.122925,630.773193 457.731842,623.936340 433.920441,625.260193 
	C415.037323,626.310120 397.510498,631.069641 382.186981,642.525146 
	C372.507294,649.761414 367.747192,660.933350 378.041809,672.470886 
	C390.039124,685.916748 405.189880,694.425293 422.117035,699.592651 
	C450.781769,708.343079 479.523376,707.327698 508.829865,698.383545 
z"/>
</svg>