<svg version="1.1" id="Layer_1" xmlns="http://www.w3.org/2000/svg" xmlns:xlink="http://www.w3.org/1999/xlink" x="0px" y="0px"
	 width="100%" viewBox="0 0 1228 1778" enable-background="new 0 0 1228 1778" xml:space="preserve">
<path fill="#FFFFFF" opacity="1.000000" stroke="none" 
	d="
M113.755798,807.256042 
	C89.374634,828.002197 63.007565,845.930847 35.245438,861.767151 
	C29.708609,864.925537 25.211975,868.574280 21.628962,873.717896 
	C12.901330,886.246948 10.567362,899.744324 16.964479,913.694031 
	C23.512018,927.971680 34.829903,937.025513 50.954731,937.516968 
	C59.626553,937.781311 68.684769,936.889526 77.014557,934.548218 
	C96.678268,929.021179 116.288559,923.642456 136.798569,922.541931 
	C155.437927,921.541809 174.125626,920.953674 192.514038,924.767700 
	C210.525955,928.503662 227.417038,935.404907 244.221817,943.008057 
	C284.147064,961.071838 317.549377,987.703125 346.381409,1019.984375 
	C363.498138,1039.148804 379.049194,1059.755127 392.470215,1081.919922 
	C410.157440,1111.130371 428.701233,1139.757812 442.742584,1171.080200 
	C453.902130,1195.974121 465.916321,1220.434082 475.740875,1245.965942 
	C486.025146,1272.692383 496.085754,1299.476562 502.890350,1327.258057 
	C511.152191,1360.988892 518.480774,1394.961914 525.497498,1428.977783 
	C528.443726,1443.260132 529.348755,1457.834717 527.519836,1472.588745 
	C524.311340,1498.470947 521.226074,1524.403320 519.371826,1550.406250 
	C518.106506,1568.149658 518.858521,1586.050049 519.010254,1603.877808 
	C519.150391,1620.343384 530.117004,1634.809692 545.801819,1639.867188 
	C561.380188,1644.890625 578.925537,1639.484375 588.893433,1626.657593 
	C595.223022,1618.512573 597.379211,1609.227173 597.211792,1599.062866 
	C596.673767,1566.399414 598.174438,1533.846191 602.814270,1501.466675 
	C605.449036,1483.079590 607.780273,1464.648926 610.303772,1446.245605 
	C612.580994,1429.639038 614.029175,1412.855347 617.422607,1396.477173 
	C627.770081,1346.536011 641.382263,1297.423218 659.603699,1249.773804 
	C670.308838,1221.779907 683.078674,1194.580322 694.677490,1166.921753 
	C709.034485,1132.686157 727.611633,1100.682373 746.681335,1068.991211 
	C758.811035,1048.833496 772.283691,1029.485840 785.083801,1009.729126 
	C804.295715,980.075684 827.633057,953.735657 850.720581,927.148193 
	C874.737366,899.490601 905.986816,880.911560 934.886047,859.481750 
	C950.179016,848.141541 957.655457,833.911133 957.431763,815.924561 
	C957.183044,795.935059 946.510437,781.923401 928.150146,773.999939 
	C905.946411,764.417847 883.373596,755.626526 861.532532,745.284851 
	C835.018372,732.730408 810.188904,717.101135 787.281433,698.735107 
	C769.423584,684.417480 751.110291,670.378662 735.035156,654.193909 
	C710.351990,629.342407 686.908936,603.267273 667.348694,573.864746 
	C655.928040,556.697571 644.732544,539.559692 635.428711,521.109802 
	C616.784668,484.137848 598.164307,447.229034 585.354675,407.654205 
	C573.754456,371.815521 565.169800,335.290161 557.762878,298.400543 
	C549.891846,259.199707 547.400818,219.674988 548.469299,179.810791 
	C548.817322,166.827332 548.687256,153.831635 548.842468,140.842316 
	C549.025635,125.518753 549.059753,110.187904 549.623291,94.877312 
	C549.824646,89.403854 549.182922,83.847763 552.493347,78.518356 
	C568.641052,52.522938 549.966125,18.430428 519.278992,16.907173 
	C491.611389,15.533806 473.331818,40.321747 472.451843,61.111958 
	C470.805511,100.007080 469.563385,138.922729 468.553375,177.840240 
	C467.797485,206.967468 468.408447,236.146118 467.025909,265.236053 
	C465.939575,288.093079 463.461395,310.950897 460.289612,333.624878 
	C456.344452,361.827606 447.077240,388.699402 436.861023,415.193634 
	C429.587677,434.055969 423.831390,453.769318 414.316132,471.443665 
	C396.600555,504.349976 376.625549,535.976135 355.595947,567.005615 
	C333.150421,600.124329 305.918152,628.968872 279.234375,658.297424 
	C263.036682,676.100647 244.406265,691.694519 226.819504,708.228516 
	C210.093781,723.952942 193.710464,740.074219 176.436707,755.174561 
	C156.166077,772.894653 135.096954,789.701233 113.755798,807.256042 
M1102.262573,1522.847534 
	C1111.583740,1505.620361 1123.019897,1489.855957 1138.358887,1477.681152 
	C1150.672852,1467.907104 1164.214233,1459.665405 1177.324585,1450.913940 
	C1185.270874,1445.609741 1194.404053,1442.270874 1200.585938,1434.184448 
	C1218.501709,1410.749146 1210.300659,1379.714844 1183.684814,1369.540771 
	C1177.218628,1367.068970 1170.534302,1365.174194 1163.994873,1362.886841 
	C1153.211792,1359.115112 1141.323242,1357.010498 1131.975830,1350.984375 
	C1118.627563,1342.379272 1104.987305,1333.980347 1093.380249,1322.486328 
	C1077.343872,1306.606201 1063.509521,1289.565552 1054.928711,1268.613770 
	C1052.148560,1261.825439 1048.313843,1255.397949 1048.791260,1247.462402 
	C1050.696899,1215.779907 1046.536255,1184.824341 1035.980225,1154.899170 
	C1028.885620,1134.786865 1010.335388,1123.198975 989.794250,1125.047729 
	C969.924072,1126.836060 955.080017,1144.412109 955.070923,1167.044922 
	C955.059570,1195.437744 960.981323,1223.096802 966.324341,1250.806396 
	C966.592651,1252.197510 966.901855,1253.820801 966.451660,1255.068970 
	C964.548157,1260.345703 962.470947,1265.567017 960.263123,1270.725586 
	C953.356506,1286.862427 942.036621,1299.903931 930.170654,1312.417603 
	C920.583252,1322.528442 911.187500,1333.120972 900.212769,1341.556274 
	C874.436279,1361.368530 848.206787,1380.639160 819.352234,1396.001587 
	C802.965881,1404.725830 786.979309,1414.200928 770.812256,1423.337280 
	C756.896729,1431.201294 747.159912,1442.193237 746.098877,1458.791504 
	C744.483459,1484.062256 765.239197,1503.524658 791.047913,1501.667603 
	C808.515137,1500.410645 825.861389,1501.343872 843.071838,1504.966064 
	C862.037048,1508.957642 879.380127,1516.452759 894.015015,1529.160889 
	C913.093079,1545.726929 926.747375,1566.629028 938.723938,1588.581787 
	C949.677795,1608.660156 954.142456,1630.858154 956.802368,1653.212891 
	C959.633972,1677.010742 963.192810,1700.790161 963.404663,1724.853882 
	C963.432373,1728.000732 963.755493,1731.192749 964.369263,1734.278809 
	C967.563538,1750.340820 982.819702,1768.420898 1009.527771,1765.052368 
	C1027.187256,1762.824951 1041.835571,1745.602539 1042.065430,1726.400879 
	C1042.164795,1718.100220 1042.457764,1709.748291 1043.485107,1701.522217 
	C1047.034058,1673.108643 1054.090942,1645.418213 1062.753540,1618.219238 
	C1068.723267,1599.475708 1075.941895,1581.089844 1083.421143,1562.880493 
	C1088.924316,1549.482666 1095.752441,1536.629272 1102.262573,1522.847534 
z"/>
<path fill="#ffffff" opacity="1.000000" stroke="none" 
	d="
M114.064972,807.080017 
	C135.096954,789.701233 156.166077,772.894653 176.436707,755.174561 
	C193.710464,740.074219 210.093781,723.952942 226.819504,708.228516 
	C244.406265,691.694519 263.036682,676.100647 279.234375,658.297424 
	C305.918152,628.968872 333.150421,600.124329 355.595947,567.005615 
	C376.625549,535.976135 396.600555,504.349976 414.316132,471.443665 
	C423.831390,453.769318 429.587677,434.055969 436.861023,415.193634 
	C447.077240,388.699402 456.344452,361.827606 460.289612,333.624878 
	C463.461395,310.950897 465.939575,288.093079 467.025909,265.236053 
	C468.408447,236.146118 467.797485,206.967468 468.553375,177.840240 
	C469.563385,138.922729 470.805511,100.007080 472.451843,61.111958 
	C473.331818,40.321747 491.611389,15.533806 519.278992,16.907173 
	C549.966125,18.430428 568.641052,52.522938 552.493347,78.518356 
	C549.182922,83.847763 549.824646,89.403854 549.623291,94.877312 
	C549.059753,110.187904 549.025635,125.518753 548.842468,140.842316 
	C548.687256,153.831635 548.817322,166.827332 548.469299,179.810791 
	C547.400818,219.674988 549.891846,259.199707 557.762878,298.400543 
	C565.169800,335.290161 573.754456,371.815521 585.354675,407.654205 
	C598.164307,447.229034 616.784668,484.137848 635.428711,521.109802 
	C644.732544,539.559692 655.928040,556.697571 667.348694,573.864746 
	C686.908936,603.267273 710.351990,629.342407 735.035156,654.193909 
	C751.110291,670.378662 769.423584,684.417480 787.281433,698.735107 
	C810.188904,717.101135 835.018372,732.730408 861.532532,745.284851 
	C883.373596,755.626526 905.946411,764.417847 928.150146,773.999939 
	C946.510437,781.923401 957.183044,795.935059 957.431763,815.924561 
	C957.655457,833.911133 950.179016,848.141541 934.886047,859.481750 
	C905.986816,880.911560 874.737366,899.490601 850.720581,927.148193 
	C827.633057,953.735657 804.295715,980.075684 785.083801,1009.729126 
	C772.283691,1029.485840 758.811035,1048.833496 746.681335,1068.991211 
	C727.611633,1100.682373 709.034485,1132.686157 694.677490,1166.921753 
	C683.078674,1194.580322 670.308838,1221.779907 659.603699,1249.773804 
	C641.382263,1297.423218 627.770081,1346.536011 617.422607,1396.477173 
	C614.029175,1412.855347 612.580994,1429.639038 610.303772,1446.245605 
	C607.780273,1464.648926 605.449036,1483.079590 602.814270,1501.466675 
	C598.174438,1533.846191 596.673767,1566.399414 597.211792,1599.062866 
	C597.379211,1609.227173 595.223022,1618.512573 588.893433,1626.657593 
	C578.925537,1639.484375 561.380188,1644.890625 545.801819,1639.867188 
	C530.117004,1634.809692 519.150391,1620.343384 519.010254,1603.877808 
	C518.858521,1586.050049 518.106506,1568.149658 519.371826,1550.406250 
	C521.226074,1524.403320 524.311340,1498.470947 527.519836,1472.588745 
	C529.348755,1457.834717 528.443726,1443.260132 525.497498,1428.977783 
	C518.480774,1394.961914 511.152191,1360.988892 502.890350,1327.258057 
	C496.085754,1299.476562 486.025146,1272.692383 475.740875,1245.965942 
	C465.916321,1220.434082 453.902130,1195.974121 442.742584,1171.080200 
	C428.701233,1139.757812 410.157440,1111.130371 392.470215,1081.919922 
	C379.049194,1059.755127 363.498138,1039.148804 346.381409,1019.984375 
	C317.549377,987.703125 284.147064,961.071838 244.221817,943.008057 
	C227.417038,935.404907 210.525955,928.503662 192.514038,924.767700 
	C174.125626,920.953674 155.437927,921.541809 136.798569,922.541931 
	C116.288559,923.642456 96.678268,929.021179 77.014557,934.548218 
	C68.684769,936.889526 59.626553,937.781311 50.954731,937.516968 
	C34.829903,937.025513 23.512018,927.971680 16.964479,913.694031 
	C10.567362,899.744324 12.901330,886.246948 21.628962,873.717896 
	C25.211975,868.574280 29.708609,864.925537 35.245438,861.767151 
	C63.007565,845.930847 89.374634,828.002197 114.064972,807.080017 
z"/>
<path fill="#ffffff" opacity="1.000000" stroke="none" 
	d="
M1102.126343,1523.190430 
	C1095.752441,1536.629272 1088.924316,1549.482666 1083.421143,1562.880493 
	C1075.941895,1581.089844 1068.723267,1599.475708 1062.753540,1618.219238 
	C1054.090942,1645.418213 1047.034058,1673.108643 1043.485107,1701.522217 
	C1042.457764,1709.748291 1042.164795,1718.100220 1042.065430,1726.400879 
	C1041.835571,1745.602539 1027.187256,1762.824951 1009.527771,1765.052368 
	C982.819702,1768.420898 967.563538,1750.340820 964.369263,1734.278809 
	C963.755493,1731.192749 963.432373,1728.000732 963.404663,1724.853882 
	C963.192810,1700.790161 959.633972,1677.010742 956.802368,1653.212891 
	C954.142456,1630.858154 949.677795,1608.660156 938.723938,1588.581787 
	C926.747375,1566.629028 913.093079,1545.726929 894.015015,1529.160889 
	C879.380127,1516.452759 862.037048,1508.957642 843.071838,1504.966064 
	C825.861389,1501.343872 808.515137,1500.410645 791.047913,1501.667603 
	C765.239197,1503.524658 744.483459,1484.062256 746.098877,1458.791504 
	C747.159912,1442.193237 756.896729,1431.201294 770.812256,1423.337280 
	C786.979309,1414.200928 802.965881,1404.725830 819.352234,1396.001587 
	C848.206787,1380.639160 874.436279,1361.368530 900.212769,1341.556274 
	C911.187500,1333.120972 920.583252,1322.528442 930.170654,1312.417603 
	C942.036621,1299.903931 953.356506,1286.862427 960.263123,1270.725586 
	C962.470947,1265.567017 964.548157,1260.345703 966.451660,1255.068970 
	C966.901855,1253.820801 966.592651,1252.197510 966.324341,1250.806396 
	C960.981323,1223.096802 955.059570,1195.437744 955.070923,1167.044922 
	C955.080017,1144.412109 969.924072,1126.836060 989.794250,1125.047729 
	C1010.335388,1123.198975 1028.885620,1134.786865 1035.980225,1154.899170 
	C1046.536255,1184.824341 1050.696899,1215.779907 1048.791260,1247.462402 
	C1048.313843,1255.397949 1052.148560,1261.825439 1054.928711,1268.613770 
	C1063.509521,1289.565552 1077.343872,1306.606201 1093.380249,1322.486328 
	C1104.987305,1333.980347 1118.627563,1342.379272 1131.975830,1350.984375 
	C1141.323242,1357.010498 1153.211792,1359.115112 1163.994873,1362.886841 
	C1170.534302,1365.174194 1177.218628,1367.068970 1183.684814,1369.540771 
	C1210.300659,1379.714844 1218.501709,1410.749146 1200.585938,1434.184448 
	C1194.404053,1442.270874 1185.270874,1445.609741 1177.324585,1450.913940 
	C1164.214233,1459.665405 1150.672852,1467.907104 1138.358887,1477.681152 
	C1123.019897,1489.855957 1111.583740,1505.620361 1102.126343,1523.190430 
z"/>
</svg>